<?xml version="1.0" encoding="utf-8"?>
<!-- Generator: Adobe Illustrator 21.1.0, SVG Export Plug-In . SVG Version: 6.00 Build 0)  -->
<svg version="1.1" id="Layer_1" xmlns="http://www.w3.org/2000/svg" xmlns:xlink="http://www.w3.org/1999/xlink" x="0px" y="0px"
	 viewBox="0 0 200 200" style="enable-background:new 0 0 200 200;" xml:space="preserve">
<style type="text/css">
	.st0{fill:#FDCC9A;}
	.st1{fill:#D67B2D;}
	.st2{fill:#BA8663;}
	.st3{fill:#66676E;}
	.st4{fill:#2A3F40;}
	.st5{opacity:0.75;}
	.st6{fill:#FFFFFF;}
</style>
<g>
	<path class="st0" d="M65.1,160c9.1,0,13.4-4.9,14.7-6.7c-1.5-0.6-3.1-1.3-4.8-1.9v-5.6c-3.2,0.6-6.4,0.8-9.6,0.8
		c-3.2,0-6.4-0.2-9.6-0.8v5.7c-1.7,0.6-3.3,1.2-4.7,1.8C52.5,154.9,57.3,160,65.1,160z"/>
</g>
<g>
	<path class="st0" d="M93.4,178.1c-0.1,3.2,0,6.6,0.3,9.9c4.5-1.7,8.8-3.8,12.8-6.3c-1-3-2.1-5.7-3.1-8
		C102.5,174,98.6,175.4,93.4,178.1z"/>
</g>
<g>
	<path class="st0" d="M37.4,178.2c-5-2.6-8.9-4-10-4.4c-1,2.4-2.1,5.2-3.2,8.2c4.1,2.4,8.4,4.5,12.9,6.2
		C37.4,184.6,37.4,181.4,37.4,178.2z"/>
</g>
<g>
	<path class="st0" d="M101.4,110.9c-0.7,0.1-0.9-1-0.9-1.7c-0.4,4.2-0.7,8.3-0.9,11.5c-0.4,1.5-0.8,2.9-1.2,4.2
		c4.7-0.4,8.8-3.8,9.8-9.2c0.9-5.2-1.3-10.3-5.3-12.8c-0.1,1.3-0.2,2.7-0.4,4C102.3,107.6,102.2,110.8,101.4,110.9z"/>
</g>
<g>
	<path class="st0" d="M30.3,110.6c-0.1,1.5-0.9,2.9-1.5,0.5c-0.3-1.2-0.5-2.4-0.6-3.7c-0.2-1.5-0.4-2.9-0.5-4.4
		c-3.9,2.5-6.1,7.5-5.1,12.7c1,5.4,5,8.8,9.8,9.2c-0.5-1.3-0.9-2.7-1.3-4.2C30.9,117.9,30.7,114.3,30.3,110.6z"/>
</g>
<g>
	<path class="st0" d="M74.9,140.5v5.3c9.7-1.8,18.8-7.1,23.4-20.9c-1.1,0.1-2.1,0-3.2-0.2c-6-1.2-9.9-6.7-8.8-13.3
		c0-0.1,0-0.2,0.1-0.3c-2.5-0.3-5.4-0.2-7.1,0.9c-0.6,0.4-1.5,0.2-1.9-0.4c-0.4-0.6-0.2-1.5,0.4-1.9c2.5-1.5,6.3-1.7,9.4-1.2
		c1.1-2.5,2.9-4.5,5.1-5.8c-0.4,0-0.7-0.2-1-0.5c-1.4-1.7-8.6-2.5-11.5-1.3c-0.7,0.3-1.5-0.1-1.8-0.8c-0.3-0.7,0.1-1.5,0.8-1.8
		c3.5-1.4,12.2-0.9,14.7,2.1c0.4,0.5,0.4,1.2,0,1.7c1.8-0.8,3.9-1,5.9-0.6c0.1,0,0.3,0.1,0.4,0.1c-1-7.4-3.4-18.8-9.5-26.5
		c-10.1,13.2-19.1,14.6-23,12.8c-2.2-1-2.4-3.8-1.8-5c-1.3,1.6-6.6,7.8-12.2,6.4c-6.4-1.5-1.6-9.1-1.6-9.1
		c-2.6,2.6-5.4,5.7-10.5,5.9c-5.9,0.2-6-5.1-5.5-6.1c-3.7,5.8-4.9,14.9-5.2,21.6c0.3-0.1,0.6-0.2,1-0.2c5.1-1,10.1,2,12.2,7
		c2.9-0.3,6.3,0,9.1,1.3c0.7,0.3,1,1.2,0.6,1.8c-0.2,0.5-0.7,0.8-1.2,0.8c-0.2,0-0.4,0-0.6-0.1c-2.2-1.1-4.9-1.3-7.1-1.1
		c0,0.1,0,0.1,0,0.2c1.2,6.6-2.8,12.2-8.8,13.3c-1.1,0.2-2.2,0.3-3.2,0.2c4.9,13.8,13.8,19.1,23.4,20.9v-5.3H74.9z M51.9,100.9
		c-2.6-1.5-9.5-0.8-11.3,0.9c-0.3,0.2-0.6,0.4-0.9,0.4c-0.4,0-0.7-0.1-1-0.4c-0.5-0.6-0.5-1.4,0.1-1.9c2.6-2.3,10.8-3.4,14.5-1.2
		c0.6,0.4,0.9,1.2,0.5,1.9C53.4,101.1,52.5,101.3,51.9,100.9z M54.2,131.2c0.5-0.6,1.3-0.7,1.9-0.2c2.1,1.7,5.9,2.7,10.1,2.4
		c3.8-0.2,7.2-1.3,8.5-2.7c0.5-0.6,1.4-0.6,1.9-0.1c0.6,0.5,0.6,1.4,0.1,1.9c-1.8,2-5.8,3.4-10.4,3.6c-0.5,0-0.9,0-1.4,0
		c-4.3,0-8.1-1.1-10.6-3.1C53.8,132.6,53.8,131.8,54.2,131.2z"/>
</g>
<g>
	<path class="st0" d="M74.9,145.8v-5.3H55.7v5.3c3.2,0.6,6.4,0.8,9.6,0.8C68.5,146.6,71.7,146.4,74.9,145.8z"/>
</g>
<g>
	<path class="st0" d="M100.4,109.3c0-0.1,0-0.2,0-0.3c0-0.5-0.1-3.3-0.7-7.3c-0.1,0-0.3-0.1-0.4-0.1c-2.1-0.4-4.1-0.1-5.9,0.6
		c-0.1,0.1-0.1,0.2-0.2,0.3c-0.3,0.2-0.6,0.3-0.9,0.3c0,0,0,0-0.1,0c-2.2,1.2-4,3.3-5.1,5.8c1.5,0.2,2.9,0.6,3.9,1.1
		c0.7,0.3,1,1.1,0.6,1.8c-0.2,0.5-0.7,0.8-1.2,0.8c-0.2,0-0.4,0-0.6-0.1c-0.9-0.4-2.1-0.8-3.5-1c0,0.1,0,0.2-0.1,0.3
		c-1.2,6.6,2.8,12.2,8.8,13.3c1.1,0.2,2.2,0.3,3.2,0.2c0.4-1.3,0.9-2.7,1.2-4.2C99.7,117.5,100.1,113.4,100.4,109.3z"/>
</g>
<g>
	<path class="st0" d="M35.6,124.7c6-1.2,10-6.7,8.8-13.3c0-0.1,0-0.1,0-0.2c-1.8,0.1-3.3,0.6-3.8,1c-0.6,0.5-1.5,0.3-1.9-0.3
		c-0.5-0.6-0.3-1.5,0.2-1.9c0.9-0.7,2.6-1.2,4.7-1.5c-2.1-5-7.1-8-12.2-7c-0.3,0.1-0.6,0.2-1,0.2c-0.2,4.2-0.1,7.5,0,8.4
		c0,0.1,0,0.3,0,0.4c0.3,3.7,0.6,7.2,0.7,10.1c0.4,1.5,0.8,2.9,1.3,4.2C33.4,125,34.5,124.9,35.6,124.7z"/>
</g>
<g>
	<path class="st1" d="M53.3,98.6c-3.7-2.2-12-1.1-14.5,1.2c-0.6,0.5-0.6,1.4-0.1,1.9c0.3,0.3,0.6,0.4,1,0.4c0.3,0,0.7-0.1,0.9-0.4
		c1.8-1.6,8.7-2.4,11.3-0.9c0.7,0.4,1.5,0.2,1.9-0.5C54.1,99.8,53.9,98.9,53.3,98.6z"/>
</g>
<g>
	<path class="st1" d="M93.4,100.5c-2.4-3-11.2-3.5-14.7-2.1c-0.7,0.3-1,1.1-0.8,1.8c0.3,0.7,1.1,1,1.8,0.8
		c2.9-1.2,10.1-0.4,11.5,1.3c0.3,0.3,0.6,0.5,1,0.5c0.4-0.2,0.7-0.4,1.1-0.6C93.8,101.6,93.8,101,93.4,100.5z"/>
</g>
<g>
	<path class="st1" d="M93.2,102.4c0.1-0.1,0.1-0.2,0.2-0.3c-0.4,0.2-0.8,0.3-1.1,0.6c0,0,0,0,0.1,0C92.7,102.7,93,102.6,93.2,102.4z
		"/>
</g>
<g>
	<path class="st2" d="M66.4,136.2c4.6-0.2,8.6-1.6,10.4-3.6c0.5-0.6,0.5-1.4-0.1-1.9c-0.6-0.5-1.4-0.5-1.9,0.1
		c-1.3,1.4-4.7,2.5-8.5,2.7c-4.2,0.2-7.9-0.7-10.1-2.4c-0.6-0.5-1.4-0.4-1.9,0.2c-0.5,0.6-0.4,1.4,0.2,1.9c2.4,2,6.2,3.1,10.6,3.1
		C65.4,136.2,65.9,136.2,66.4,136.2z"/>
</g>
<g>
	<path class="st1" d="M29.1,94.4c-0.5-9.6,0.3-19.7,6.2-27.7c5.9-8,15-13.2,24.8-13.6c0,0,0.2,0,0.5,0l0-0.4c0,0,2.4,0.1,4.8,0.2
		c2.4-0.1,4.8-0.2,4.8-0.2l0,0.4c0.3,0,0.5,0,0.5,0c9.7,0.4,18.9,5.6,24.8,13.6c5.9,8,6.7,18.1,6.2,27.7c-0.1,2.2-0.3,4.8-0.5,7.6
		c0.6,0.2,1.2,0.5,1.8,0.9c0.3-3.5,0.4-7,0.4-10.5c0-8.9,2.6-26-13.5-36.7c-9.9-6.6-30.3-7.2-41.7-3.5c-7.9,2.6-15.5,9.3-18.4,17.2
		c-3.1,8.6-3,15.4-2,32.4c0,0.4,0.1,0.8,0.1,1.1c0.6-0.4,1.2-0.7,1.9-1C29.4,99.2,29.2,96.6,29.1,94.4z"/>
</g>
<g>
	<path class="st1" d="M100.4,109.3c0.1,0.7,0.3,1.8,0.9,1.7c0.9-0.2,1-3.3,1-4c0.2-1.3,0.3-2.7,0.4-4c-0.6-0.3-1.1-0.6-1.8-0.9
		C100.9,104.4,100.7,106.8,100.4,109.3z"/>
</g>
<g>
	<path class="st1" d="M28.8,111.1c0.6,2.4,1.4,1,1.5-0.5c-0.2-2.9-0.5-5.8-0.7-8.6c-0.7,0.3-1.3,0.6-1.9,1c0.1,1.5,0.3,2.9,0.5,4.4
		C28.4,108.6,28.5,109.9,28.8,111.1z"/>
</g>
<g>
	<path class="st1" d="M101.6,94.4c0.5-9.6-0.3-19.7-6.2-27.7c-5.9-8-15-13.2-24.8-13.6c0,0-0.2,0-0.5,0l0-0.4c0,0-2.4,0.1-4.8,0.2
		c-2.4-0.1-4.8-0.2-4.8-0.2l0,0.4c-0.3,0-0.5,0-0.5,0c-9.7,0.4-18.9,5.6-24.8,13.6c-5.9,8-6.7,18.1-6.2,27.7
		c0.1,2.2,0.3,4.9,0.5,7.6c0.3-0.1,0.5-0.2,0.8-0.3c0.3-6.7,1.4-15.8,5.2-21.6c-0.5,1-0.3,6.3,5.5,6.1c5.1-0.2,8-3.3,10.5-5.9
		c0,0-4.8,7.6,1.6,9.1c5.5,1.3,10.9-4.8,12.2-6.4c0.1-0.2,0.2-0.3,0.3-0.4c0,0-0.1,0.1-0.3,0.4c-0.6,1.2-0.4,4,1.8,5
		c3.9,1.8,12.9,0.4,23-12.8c6.1,7.7,8.5,19.1,9.5,26.5c0.4,0.1,0.9,0.2,1.3,0.4C101.3,99.2,101.5,96.6,101.6,94.4z"/>
</g>
<g>
	<path class="st1" d="M65.4,82.9c0.2-0.2,0.3-0.4,0.3-0.4C65.5,82.6,65.4,82.8,65.4,82.9z"/>
</g>
<g>
	<path class="st1" d="M100.4,109.3c0.2-2.4,0.4-4.9,0.6-7.2c-0.4-0.2-0.9-0.3-1.3-0.4c0.5,4,0.6,6.8,0.7,7.3
		C100.4,109,100.4,109.1,100.4,109.3z"/>
</g>
<g>
	<path class="st1" d="M30.3,110.6c0-0.1,0-0.3,0-0.4c0-1-0.1-4.2,0-8.4c-0.3,0.1-0.5,0.2-0.8,0.3C29.8,104.8,30.1,107.8,30.3,110.6z
		"/>
</g>
<g>
	<path class="st2" d="M51.4,112.3c0.2,0.1,0.4,0.1,0.6,0.1c0.5,0,1-0.3,1.2-0.8c0.3-0.7,0.1-1.5-0.6-1.8c-2.7-1.4-6.2-1.6-9.1-1.3
		c0.4,0.8,0.6,1.7,0.8,2.7C46.5,111,49.2,111.2,51.4,112.3z"/>
</g>
<g>
	<path class="st2" d="M38.6,111.9c0.5,0.6,1.3,0.7,1.9,0.3c0.5-0.4,2-0.8,3.8-1c-0.2-0.9-0.5-1.8-0.8-2.7c-2,0.2-3.8,0.8-4.7,1.5
		C38.2,110.4,38.1,111.3,38.6,111.9z"/>
</g>
<g>
	<path class="st2" d="M77.8,109.7c-0.6,0.4-0.8,1.2-0.4,1.9c0.4,0.6,1.2,0.8,1.9,0.4c1.7-1.1,4.6-1.2,7.1-0.9
		c0.2-0.9,0.5-1.8,0.8-2.6C84.1,108,80.3,108.1,77.8,109.7z"/>
</g>
<g>
	<path class="st2" d="M90.6,112.2c0.5,0,1-0.3,1.2-0.8c0.3-0.7,0-1.5-0.6-1.8c-1-0.5-2.4-0.9-3.9-1.1c-0.4,0.8-0.6,1.7-0.8,2.6
		c1.4,0.2,2.7,0.5,3.5,1C90.1,112.2,90.4,112.2,90.6,112.2z"/>
</g>
<g>
	<path class="st3" d="M36.7,160.2c0.1,0.8,0.2,1.7,0.3,2.5c2.6-3.4,6.8-6.6,14-9.6c-0.3-0.4-0.5-0.6-0.5-0.6c-5.3,2-11.1,4-14.5,6.9
		c0,0-7.1,4.6-9.1,14.1c0,0,0.1,0,0.4,0.1c1.3-3,2.6-5.5,3.8-7.4C32.6,164.3,34.5,162.2,36.7,160.2z"/>
</g>
<g>
	<path class="st3" d="M90,172.8l-51.5,6.3c-0.1,0.3-0.1,0.6-0.2,0.9c0,2.8-0.2,5.6-0.5,8.4c8.5,3.1,17.8,4.8,27.4,4.8
		c9.7,0,19-1.7,27.7-4.9c-0.1-1.4-0.2-2.8-0.3-4.1C91.5,179.9,90.6,176,90,172.8z"/>
</g>
<g>
	<path class="st3" d="M93.7,165.6c0.3-1.6,0.6-3.2,1-4.8c1.9,1.8,3.6,3.6,4.9,5.6c1.2,1.9,2.5,4.3,3.8,7.3c0.1,0,0.2-0.1,0.2-0.1
		c-1.5-7.2-6-11.6-8-13.3c0-0.1-0.1-0.2-0.2-0.2c-3.7-3.3-9.8-5.4-15.1-7.5c0,0-0.2,0.3-0.5,0.7C88.1,157,91.7,161.2,93.7,165.6z"/>
</g>
<g>
	<path class="st3" d="M37.1,188.1c0.2,0.1,0.5,0.2,0.7,0.3c0.3-2.8,0.5-5.6,0.5-8.4c0.1-0.3,0.1-0.6,0.2-0.9l51.5-6.3
		c0.6,3.2,1.5,7.1,2.6,11.4c0.1,1.4,0.2,2.8,0.3,4.1c0.3-0.1,0.5-0.2,0.8-0.3c-0.3-3.4-0.4-6.7-0.3-9.9c5.2-2.7,9.2-4.1,10-4.4
		c-1.3-3-2.6-5.5-3.8-7.3c-1.3-1.9-2.9-3.8-4.9-5.6c-0.4,1.6-0.7,3.2-1,4.8c-2-4.4-5.6-8.7-13.9-12.4c-1.3,1.8-5.5,6.7-14.7,6.7
		c-7.8,0-12.6-5.1-14.1-6.8c-7.3,3-11.4,6.2-14,9.6c-0.1-0.8-0.2-1.7-0.3-2.5c-2.2,1.9-4.1,4-5.5,6.1c-1.2,1.9-2.5,4.4-3.8,7.4
		c1.2,0.4,5,1.9,10,4.4C37.4,181.4,37.4,184.6,37.1,188.1z"/>
</g>
<g>
	<path class="st4" d="M115.2,93.2V0H200v74h-41.5L115.2,93.2z M120.2,5v80.5L157.4,69H195V5H120.2z"/>
</g>
<g class="st5">
	<path class="st6" d="M120.2,5v80.5L157.4,69H195V5H120.2z"/>
</g>
<g>
	<rect x="133.2" y="31.6" class="st4" width="12.5" height="12.5"/>
</g>
<polygon class="st4" points="179.9,15.4 178.4,13.9 173.7,18.7 169,13.9 167.5,15.4 172.2,20.2 167.5,24.9 169,26.4 173.7,21.7 
	178.4,26.4 179.9,24.9 175.2,20.2 "/>
<g>
	<polygon class="st4" points="181.1,49.8 172.9,57.9 169,53.9 167.5,55.4 172.9,60.9 182.6,51.3 	"/>
</g>
<polygon class="st4" points="163.9,21.1 163.9,18.1 154.8,18.1 154.8,36.3 149.3,36.3 149.3,39.3 154.8,39.3 154.8,57.5 163.9,57.5 
	163.9,54.5 157.8,54.5 157.8,21.1 "/>
</svg>
