<?xml version="1.0" encoding="utf-8"?>
<!-- Generator: Adobe Illustrator 21.1.0, SVG Export Plug-In . SVG Version: 6.00 Build 0)  -->
<svg version="1.1" id="Layer_1" xmlns="http://www.w3.org/2000/svg" xmlns:xlink="http://www.w3.org/1999/xlink" x="0px" y="0px"
	 viewBox="0 0 200 200" style="enable-background:new 0 0 200 200;" xml:space="preserve">
<style type="text/css">
	.st0{opacity:0.75;}
	.st1{fill:#FFFFFF;}
	.st2{fill:#9B6937;}
	.st3{fill:#3C313F;}
	.st4{fill:#E0AA79;}
	.st5{fill:#8E5B47;}
	.st6{fill:#382010;}
	.st7{fill:#F9D45F;}
	.st8{fill:#2A3F40;}
</style>
<g class="st0">
	<path class="st1" d="M120.2,5v80.5L157.4,69H195V5H120.2z"/>
</g>
<g>
	<g>
		<path class="st2" d="M39.3,153.7C39.2,153.6,39.2,153.6,39.3,153.7C39.2,153.6,39.2,153.6,39.3,153.7z"/>
	</g>
	<g>
		<path class="st2" d="M96.6,153.5C96.6,153.5,96.5,153.5,96.6,153.5C96.5,153.5,96.6,153.5,96.6,153.5z"/>
	</g>
	<g>
		<path class="st2" d="M98.3,151.4c3.9-4.8,10.8-16.5,9.3-49.4c-2.1-45.2-39.5-44.2-39.5-44.2c-0.1,0-0.2,0-0.3,0
			c-0.1,0-0.2,0-0.3,0c0,0-37.4-1-39.5,44.2c-1.6,34.2,6,45.5,9.7,50C58.1,152.6,78.1,153,98.3,151.4z M33.4,120.6
			c-0.9-6.5-1.2-10.7-1.2-13.7l0,0l-1.5,1.7C30,88.8,38.4,66.7,62.4,62.2s33,9.3,38,18.8s2.2,26.1,2.2,26.1l0,0
			c0,2.9-0.3,7-1.2,13.4c-3.4,23-23.4,30.4-34,30.4C56.9,151,36.7,145.1,33.4,120.6z"/>
	</g>
	<g>
		<path class="st2" d="M91.1,167.1c1.5,1.3,3.2,2.9,4.9,4.5c0.5-0.5,1-1,1.4-1.6c5.3-7.9-1.5-13.2-1.5-15.4
			C95.9,156.6,96.5,162.1,91.1,167.1z"/>
	</g>
	<g>
		<path class="st2" d="M95.9,154.4L95.9,154.4L95.9,154.4z"/>
	</g>
	<g>
		<path class="st2" d="M96.1,154.1C96,154.1,96,154.1,96.1,154.1C96,154.1,96,154.1,96.1,154.1z"/>
	</g>
	<g>
		<path class="st2" d="M39,153.3c-0.3-0.4-0.7-0.8-1.2-1.4C38.3,152.5,38.7,153,39,153.3z"/>
	</g>
	<g>
		<path class="st2" d="M98.3,151.5c-0.6,0.7-1,1.2-1.4,1.7C97.3,152.7,97.7,152.1,98.3,151.5z"/>
	</g>
	<g>
		<path class="st2" d="M39.7,154.2L39.7,154.2L39.7,154.2z"/>
	</g>
	<g>
		<path class="st2" d="M39.8,154.4L39.8,154.4L39.8,154.4z"/>
	</g>
	<g>
		<path class="st2" d="M96.3,153.8L96.3,153.8L96.3,153.8z"/>
	</g>
	<g>
		<path class="st2" d="M39.8,154.6c0,2.2-6.8,7.5-1.5,15.4c0,0.1,0.1,0.1,0.2,0.2c1.6-1.6,3.2-3,4.7-4.2
			C39.9,161.3,39.8,156.3,39.8,154.6z"/>
	</g>
	<g>
		<path class="st2" d="M39.5,153.9L39.5,153.9L39.5,153.9z"/>
	</g>
	<g>
		<path class="st3" d="M96,171.6c-6.1,5.7-21.3,7.6-28.2,5.5c-7.4,2.2-24.5-0.1-29.4-6.9c-3.8,3.6-7.7,7.8-10.7,12.1
			c3.6,2.1,7.4,3.9,11.3,5.5c3.2-3.6,7.7-7.3,9.5-8.8c-0.3,4.2,2.1,7.6,2.6,8.3c0.7,1.1,1.3,2.6,1.6,4.4c5,1,10.1,1.5,15.3,1.5
			c4.1,0,8.2-0.3,12.1-0.9c0.3-2.1,0.9-3.8,1.7-5c0.5-0.7,2.9-4.1,2.6-8.4c1.1,1.1,6.7,5.5,10.4,9.7c4-1.4,7.8-3.1,11.5-5.1
			C103.4,179.4,99.7,175.2,96,171.6z"/>
	</g>
	<g>
		<path class="st3" d="M67.8,177.1c6.9,2,22.1,0.2,28.2-5.5c-1.7-1.7-3.4-3.2-4.9-4.5c-0.7,0.6-1.4,1.2-2.3,1.8
			c-15.8,10.6-31.7,8.4-41.2,1.8c-2-1.4-3.5-3-4.6-4.6c-1.4,1.2-3,2.7-4.7,4.2C43.3,177,60.4,179.3,67.8,177.1z"/>
	</g>
	<g>
		<path class="st4" d="M101.4,120.6c0.9-6.4,1.3-10.5,1.2-13.4c-9.9-18.9-26.3-20.5-36.3-20.7c-22.9-0.3-34,20.3-34.1,20.4
			c0,2.9,0.3,7.2,1.2,13.7c3.3,24.5,23.4,30.4,34,30.4C77.9,151,97.9,143.7,101.4,120.6z M48.6,120.1c-2.6,0-4.7-2.5-4.7-5.5
			c0-3.1,2.1-5.5,4.7-5.5c2.6,0,4.7,2.5,4.7,5.5S51.2,120.1,48.6,120.1z M54.1,104.3c-0.3,0.2-0.6,0.3-0.9,0.3
			c-0.4,0-0.8-0.2-1.1-0.5c-0.5-0.7-2-1.5-3.8-1.6c-1,0-2.9,0.1-4.4,1.7c-0.5,0.6-1.4,0.6-2,0c-0.6-0.5-0.6-1.4,0-2
			c1.7-1.8,4.1-2.7,6.6-2.6c2.4,0.1,4.7,1.1,5.9,2.7C54.9,102.9,54.7,103.8,54.1,104.3z M78.6,136c-2.4,2.7-6.8,3.6-10.6,3.6
			c-0.5,0-1,0-1.5-0.1c-4.3-0.3-7.7-1.7-9.1-3.7c-0.4-0.6-0.3-1.5,0.4-2c0.6-0.4,1.5-0.3,2,0.4c0.9,1.3,3.7,2.3,7,2.5
			c4.3,0.3,8.2-0.7,9.9-2.6c0.5-0.6,1.4-0.6,2-0.1C79,134.5,79.1,135.4,78.6,136z M86.3,120.1c-2.6,0-4.7-2.5-4.7-5.5
			c0-3.1,2.1-5.5,4.7-5.5s4.7,2.5,4.7,5.5C90.9,117.6,88.8,120.1,86.3,120.1z M85.8,102.4c-1.3,0-3,0.4-4.4,1.8
			c-0.3,0.3-0.7,0.5-1.1,0.5c-0.3,0-0.7-0.1-0.9-0.4c-0.6-0.5-0.6-1.4-0.1-2c1.6-1.8,3.8-2.8,6.4-2.8c2.8,0,5.6,1,7.3,2.8
			c0.5,0.6,0.5,1.5-0.1,2s-1.5,0.5-2-0.1C89.9,103.1,87.8,102.4,85.8,102.4z"/>
	</g>
	<g>
		<path class="st5" d="M76.5,134.1c-1.7,1.9-5.6,2.9-9.9,2.6c-3.3-0.2-6.1-1.2-7-2.5c-0.4-0.6-1.3-0.8-2-0.4c-0.6,0.4-0.8,1.3-0.4,2
			c1.4,2,4.8,3.4,9.1,3.7c0.5,0,1,0.1,1.5,0.1c3.8,0,8.2-0.9,10.6-3.6c0.5-0.6,0.5-1.5-0.1-2C77.9,133.4,77,133.5,76.5,134.1z"/>
	</g>
	<g>
		<ellipse class="st6" cx="86.3" cy="114.6" rx="4.7" ry="5.5"/>
	</g>
	<g>
		<path class="st6" d="M93,104.4c0.6-0.5,0.6-1.4,0.1-2c-1.7-1.8-4.5-2.8-7.3-2.8c-2.6,0-4.9,1-6.4,2.8c-0.5,0.6-0.5,1.5,0.1,2
			c0.3,0.2,0.6,0.4,0.9,0.4c0.4,0,0.8-0.2,1.1-0.5c1.3-1.5,3.1-1.8,4.4-1.8c1.9,0,4.1,0.7,5.2,1.9C91.5,104.9,92.4,104.9,93,104.4z"
			/>
	</g>
	<g>
		<path class="st6" d="M48.5,99.6c-2.6-0.1-4.9,0.8-6.6,2.6c-0.5,0.6-0.5,1.5,0,2c0.6,0.5,1.5,0.5,2,0c1.5-1.6,3.4-1.7,4.4-1.7
			c1.8,0.1,3.2,0.9,3.8,1.6c0.3,0.4,0.7,0.5,1.1,0.5c0.3,0,0.6-0.1,0.9-0.3c0.6-0.5,0.7-1.4,0.2-2C53.2,100.8,50.9,99.7,48.5,99.6z"
			/>
	</g>
	<g>
		<ellipse class="st6" cx="48.6" cy="114.6" rx="4.7" ry="5.5"/>
	</g>
	<g>
		<path class="st7" d="M102.6,107.2L102.6,107.2L102.6,107.2z"/>
	</g>
	<g>
		<path class="st7" d="M32.3,107C32.3,107,32.3,106.9,32.3,107C32.3,106.9,32.3,106.9,32.3,107C32.3,106.9,32.3,107,32.3,107z"/>
	</g>
	<g>
		<path class="st7" d="M66.3,86.5c10,0.1,26.4,1.7,36.3,20.7l0,0c0-0.2-4.9-30.9-36-30.9c-30.9,0-34.3,30.2-34.3,30.6l0,0
			C32.3,106.9,43.4,86.2,66.3,86.5z"/>
	</g>
	<g>
		<path class="st2" d="M36.4,84.4c2.5-5.5,6.1-10,10.8-13.4c0.9-0.8,1.8-1.4,2.9-1.8c6-3.4,13.5-5.3,22.6-5.1
			c31.5,0.5,29.9,43.1,29.9,43.1s2.8-16.6-2.2-26.1s-14-23.3-38-18.8S30.1,89,30.7,108.7l1.5-1.7c-0.1-6.4,0.7-12.2,2.3-17.4
			C34.7,87.1,35.2,86,36.4,84.4z"/>
	</g>
	<g>
		<path class="st2" d="M34.5,89.5c0.5-1.8,1.2-3.5,1.9-5.1C35.2,86,34.7,87.1,34.5,89.5z"/>
	</g>
	<g>
		<path class="st2" d="M47.2,71c0.9-0.7,1.9-1.3,2.9-1.8C49.1,69.6,48.2,70.2,47.2,71z"/>
	</g>
	<g>
		<path class="st2" d="M72.7,64.1c-9.1-0.1-16.6,1.7-22.6,5.1c2.4-1,5.3-1.3,10-1.5l11-1.7c10.6,0.4,16.2,6.1,22.6,15.1
			c6.4,9.1,7,3,6.5,14c-0.3,6,2.2,4.6,2.4,12.1l0,0C102.6,107.2,104.2,64.5,72.7,64.1z"/>
	</g>
	<g>
		<path class="st2" d="M34.6,95.1c-0.1-2.5-0.2-4.2-0.1-5.6c-1.6,5.2-2.3,11.1-2.3,17.4l0,0C32.3,98.6,34.9,101.2,34.6,95.1z"/>
	</g>
	<g>
		<path class="st2" d="M47.2,71c-4.7,3.4-8.3,7.9-10.8,13.4c1.1-1.4,2.7-3.1,5-6.4C43.8,74.7,45.5,72.5,47.2,71z"/>
	</g>
	<g>
		<path class="st2" d="M100.2,95.1c0.5-11-0.1-4.9-6.5-14C87.3,72,81.7,66.4,71.1,66l-10.9,1.7c-4.7,0.2-7.7,0.5-10,1.5
			c-1,0.6-2,1.2-2.9,1.8c-1.7,1.5-3.4,3.7-5.8,7c-2.3,3.3-3.9,5-5,6.4c-0.7,1.6-1.4,3.3-1.9,5.1c-0.1,1.4,0,3.1,0.1,5.6
			c0.3,6.1-2.3,3.5-2.3,11.8c0.1-0.5,3.4-30.6,34.3-30.6c31.1,0,36,30.7,36,30.9C102.5,99.7,100,101.1,100.2,95.1z"/>
	</g>
	<g>
		<path class="st2" d="M96.9,153.1c-0.1,0.1-0.2,0.2-0.3,0.3C96.7,153.3,96.8,153.2,96.9,153.1z"/>
	</g>
	<g>
		<path class="st2" d="M39.2,153.6c-0.1-0.1-0.2-0.2-0.2-0.3C39.1,153.4,39.1,153.5,39.2,153.6z"/>
	</g>
	<g>
		<path class="st2" d="M39.5,153.9c-0.1-0.1-0.1-0.2-0.2-0.3C39.3,153.8,39.4,153.8,39.5,153.9z"/>
	</g>
	<g>
		<path class="st2" d="M96.2,153.8c-0.1,0.1-0.1,0.2-0.2,0.3C96.1,154,96.2,153.9,96.2,153.8z"/>
	</g>
	<g>
		<path class="st2" d="M39.8,154.6c0-0.1,0-0.1,0-0.2C39.8,154.5,39.8,154.6,39.8,154.6z"/>
	</g>
	<g>
		<path class="st2" d="M39.8,154.4c0-0.1-0.1-0.1-0.1-0.2C39.7,154.3,39.7,154.4,39.8,154.4z"/>
	</g>
	<g>
		<path class="st2" d="M39.6,154.2c0-0.1-0.1-0.2-0.2-0.2C39.5,154,39.6,154.1,39.6,154.2z"/>
	</g>
	<g>
		<path class="st2" d="M37.8,152L37.8,152L37.8,152L37.8,152z"/>
	</g>
	<g>
		<path class="st2" d="M98.3,151.4L98.3,151.4C98.3,151.5,98.3,151.5,98.3,151.4C98.3,151.5,98.3,151.5,98.3,151.4z"/>
	</g>
	<g>
		<path class="st2" d="M96.5,153.5c-0.1,0.1-0.2,0.2-0.3,0.3C96.4,153.7,96.4,153.6,96.5,153.5z"/>
	</g>
	<g>
		<path class="st2" d="M96,154.1c-0.1,0.1-0.1,0.2-0.1,0.2S96,154.2,96,154.1z"/>
	</g>
	<g>
		<path class="st2" d="M95.9,154.4c0,0.1,0,0.2,0,0.2C95.9,154.6,95.9,154.5,95.9,154.4z"/>
	</g>
	<g>
		<path class="st2" d="M48.6,161.5L48.6,161.5c0,0,0-0.1,0.1-0.1c0.2-0.1,0.3-0.2,0.4-0.3v0.1c1.1-0.6,3.9-1.8,7.6-2.8
			c0.1,0,0.3-0.1,0.4,0c0.1,0.1,0.2,0.2,0.2,0.3v0.1c1.8,9.9,16.4,9.9,18.1,0v-0.1c0-0.1,0.1-0.3,0.2-0.3c0.1-0.1,0.3-0.1,0.4,0
			c4.9,1.3,8.1,3,8.1,3c0.8,0.6,3.5,2.6,6.8,5.6c5.4-4.9,4.7-10.5,4.7-12.4c0-0.1,0-0.1,0-0.2l0,0c0-0.1,0.1-0.2,0.1-0.2l0,0
			c0.1-0.1,0.1-0.2,0.2-0.3l0,0c0.1-0.1,0.2-0.2,0.3-0.3c0,0,0,0,0-0.1c0.1-0.1,0.2-0.2,0.3-0.3c0.4-0.4,0.9-1,1.4-1.7l0,0
			c-20.2,1.5-40.2,1.2-60.5,0.5l0,0c0.5,0.5,0.9,1,1.2,1.4c0.1,0.1,0.2,0.2,0.2,0.3l0,0c0.1,0.1,0.1,0.2,0.2,0.3l0,0
			c0.1,0.1,0.1,0.2,0.2,0.2l0,0c0,0.1,0.1,0.2,0.1,0.2l0,0c0,0.1,0,0.1,0,0.2c0,1.6,0.1,6.6,3.3,11.3
			C45.5,163.9,47.5,162.3,48.6,161.5z"/>
	</g>
	<g>
		<path class="st2" d="M76.1,158.4c-0.1,0-0.3-0.1-0.4,0s-0.2,0.2-0.2,0.3v0.1c-1.8,9.9-16.4,9.9-18.1,0v-0.1c0-0.1-0.1-0.3-0.2-0.3
			c-0.1-0.1-0.3-0.1-0.4,0c-3.7,1-6.5,2.2-7.6,2.8v-0.1c-0.1,0.1-0.2,0.2-0.4,0.3c-0.1,0-0.1,0.1-0.1,0.1l0,0c-1,0.8-3,2.4-5.5,4.5
			c1.1,1.6,2.6,3.2,4.6,4.6c9.4,6.7,25.4,8.9,41.2-1.8c0.9-0.6,1.6-1.2,2.3-1.8c-3.4-3-6.1-5.1-6.8-5.6
			C84.3,161.5,81,159.7,76.1,158.4z"/>
	</g>
	<g>
		<path class="st8" d="M115.2,93.2V0H200v74h-41.5L115.2,93.2z M120.2,5v80.5L157.4,69H195V5H120.2z"/>
	</g>
	<g>
		<rect x="145.3" y="24" transform="matrix(0.7071 -0.7071 0.7071 0.7071 25.2339 111.8546)" class="st8" width="4.7" height="3"/>
	</g>
	<g>
		<rect x="151" y="29.8" transform="matrix(0.7071 -0.7071 0.7071 0.7071 22.7823 117.6251)" class="st8" width="4.7" height="3"/>
	</g>
	<g>
		
			<rect x="162.6" y="41.3" transform="matrix(0.7071 -0.7071 0.7071 0.7071 18.0494 129.1543)" class="st8" width="4.7" height="3"/>
	</g>
	<g>
		<polygon class="st8" points="153,38.7 139.8,25.6 144.3,21 157.5,34.2 159.6,32.1 144.3,16.8 135.6,25.6 150.8,40.8 		"/>
		<polygon class="st8" points="164.3,36.7 162.2,38.8 175.1,51.8 170.6,56.3 157.6,43.4 155.5,45.5 170.6,60.6 179.3,51.8 		"/>
	</g>
	<path class="st8" d="M137.4,59l1.9-8.7l30.5-30.5c1.9-1.9,4.9-1.9,6.8,0c1.9,1.9,1.9,4.9,0,6.8L146.1,57L137.4,59z M142,51.8
		l-0.7,3.3l3.3-0.7l29.9-29.9c0.3-0.3,0.5-0.8,0.5-1.3s-0.2-0.9-0.5-1.3c-0.7-0.7-1.9-0.7-2.5,0L142,51.8z"/>
	<g>
		<rect x="168.3" y="47.1" transform="matrix(0.7071 -0.7071 0.7071 0.7071 15.5978 134.925)" class="st8" width="4.7" height="3"/>
	</g>
</g>
</svg>
