<?xml version="1.0" encoding="utf-8"?>
<!-- Generator: Adobe Illustrator 21.1.0, SVG Export Plug-In . SVG Version: 6.00 Build 0)  -->
<svg version="1.1" id="Layer_1" xmlns="http://www.w3.org/2000/svg" xmlns:xlink="http://www.w3.org/1999/xlink" x="0px" y="0px"
	 viewBox="0 0 1500 339.2" style="enable-background:new 0 0 1500 339.2;" xml:space="preserve">
<style type="text/css">
	.st0{fill:#FFFFFF;}
</style>
<g>
	<polygon class="st0" points="37.4,37.4 115.4,37.4 115.4,0 0,0 0,339.2 115.4,339.2 115.4,301.7 37.4,301.7 	"/>
	<polygon class="st0" points="290.2,37.4 364.7,37.4 364.7,301.7 290.2,301.7 290.2,339.2 402.1,339.2 402.1,0 290.2,0 	"/>
	<path class="st0" d="M206.1,150.8h78.9l11.3-37.4h-78.9l7.1-23.4l-36.3-11l-10.4,34.3h-61.1l-11.4,37.7l0.2,0.1v0l55.8,16.9
		l-9.5,32.1c-1,4.3-1.6,8.7-1.6,13.3c0,18.8,9.1,35.4,23.1,45.7c9.4,6.9,21,11,33.5,11h0.8c6,0,11.7-1,17.1-2.9
		c20.4-7.1,35.1-26.5,35.1-49.3c0-24.3-16.6-44.7-39-50.5l-5.2,17.1c9.3,3.5,15.9,12.5,15.9,23.1c0,13-10.1,23.7-22.9,24.6
		c-0.6,0-1.2,0.1-1.8,0.1c-0.6,0-1.2,0-1.8-0.1c-1.4-0.1-2.9-0.4-4.3-0.9c-9.9-3.4-15.1-14.1-11.7-24
		C189.1,207.2,206.1,150.8,206.1,150.8z"/>
	<polygon class="st0" points="188,79.1 188.1,79.1 188.1,79.1 	"/>
	<path class="st0" d="M1234.5,131.1c-1.7-2.8-4.1-4.8-6.6-6.6c-1-0.7-1.7-1-2.8-1.4c-1-0.3-2.1-0.7-3.5-0.7c-0.7,0-1.7,0-2.4,0.3
		c-1.4,0-3.1,0.3-4.5,0.7c-1.4,0.3-2.8,0.7-4.1,1.4c-0.3,0-0.7,0-1.4,0.3c-0.3,0-0.7,0.3-1.4,0.3c-0.3,0-0.7,0.3-1,0.3
		c-0.7,0.3-1.4,0.7-2.1,1c-0.7,0.3-1,0.7-1.7,1.4c-7.9,4.5-15.9,10.4-23.8,18c-4.1,3.8-7.6,7.6-11,11c0-0.7-0.3-1.4-0.3-2.1
		c-0.7-2.1-1.4-4.5-2.4-6.2c-0.7-1.4-2.1-2.4-3.1-3.5c-1.4-0.7-2.8-1.4-4.1-1.7c-1.4-0.3-2.8-0.3-4.1-0.7c-1.7-0.7-3.5-1.4-5.5-1.7
		c-1.7-0.3-3.5-0.7-5.2-0.7h-2.1c-0.7,0-1,0-1.7,0c-0.3,0-1,0.3-1.4,0.3h-0.3c-2.1,0.3-4.1,1.4-6.9,2.4c-2.8,1.4-5.9,3.1-9.7,5.5
		v-0.3V148c0-0.7,0-1.4,0-2.1s0-1.4-0.3-2.1c0-0.7-0.3-1.4-0.7-1.7c0-0.3,0-0.7-0.3-1v-0.7l-0.3-1c-0.7-1.7-1.7-3.5-2.8-4.8
		c-0.7-0.7-1.4-1.7-2.4-2.8c-0.7-0.7-1.4-1.4-2.1-2.1c-0.7-0.7-1.4-1.4-2.4-1.7c-0.7-0.3-1.4-0.7-2.4-1c-1-0.3-2.1-0.7-3.5-1.4
		c-1.7-0.7-3.5-1-5.2-1c-1,0-1.7,0-2.8,0.3c-1,0.3-1.7,0.7-2.8,1c-0.3,0.3-0.7,0.3-1,0.7h-0.3h-5.2v2.8c-0.7,0.7-1,1.4-1.4,2.1
		c-0.3,0.7-0.3,1.4-0.3,2.1c0,0.3,0,0.7,0,1l-0.3,0.3l-1,1v1l-0.3,0.7c-1.4,2.8-2.4,5.9-3.8,9.7c-1,3.5-2.1,6.6-3.1,9.3l-0.3,1v0.3
		v0.3c0,0.3,0,0.7-0.3,0.7c-4.1,12.1-7.9,23.8-11.7,35.6c-1.7,5.9-3.5,11.4-5.2,17.3c-2.8,3.1-6.6,6.9-11,11.4
		c-6.2,5.9-13.5,12.1-22.4,18c-3.1,2.1-6.2,3.8-8.3,4.8c-2.4,1-4.1,1.7-5.5,2.1c-3.5,0.7-6.2,1-8.6,1.4h-0.3c-0.7,0-1,0-2.1,0.3
		c-0.3,0-1.4,0-2.1,0h-4.8c-1,0-1.4,0-1.7-0.3c-0.3,0-0.3-0.3-0.7-0.7v-0.3v-0.3c-0.3-0.3-0.7-1-1-1.7c-0.3-0.7-0.3-1.7-0.3-2.8V243
		v-0.3c0-0.3,0-0.7,0-1c0-0.3,0-0.7,0-1v-0.3v-0.3c2.1-0.7,4.1-1.4,6.9-2.4c4.5-1.7,9.3-4.1,14.5-7.3c5.5-3.1,10.7-7.3,16.2-12.1
		c5.9-5.2,11-11.4,15.9-18.6c1.4-2.1,2.8-4.1,3.8-6.9c1-2.1,2.1-4.8,3.1-7.6c1-3.1,2.1-6.9,2.8-11c0.3-1.7,0.3-3.5,0.3-5.2
		c0-2.4-0.3-4.8-0.7-7.3v-0.3v-0.7v-0.7c-0.7-2.4-1.4-4.8-2.1-7.6c-0.7-3.1-2.1-5.9-3.5-8.3l-0.3-0.7c-0.3-0.3-0.3-0.7-0.7-1
		s-0.3-0.7-0.7-0.7c-1.7-2.1-3.8-3.8-6.2-5.2c-2.1-1-4.1-1.7-5.9-2.4c-1.7-0.7-3.8-0.7-5.9-0.7c-1,0-2.1,0-3.1,0.3h-0.3h-0.3
		c-6.9,2.1-13.1,4.8-19,9c-5.9,4.1-11,9.3-15.9,15.2c-9.3,11.7-16.9,24.5-22.8,38.3c-1.4,3.8-2.8,6.9-3.8,10.4
		c-1,3.1-1.7,5.9-2.4,8.3c-1.7,5.2-2.8,9.7-3.8,13.8c-1,4.1-1.4,7.6-1.4,10.7c0,0.3,0,0.7,0,1c0,2.8,0.3,5.2,1,7.6
		c0.7,2.4,1.4,4.8,2.8,6.6c1.7,2.4,3.5,4.5,5.5,6.2c1.7,1.4,3.1,2.8,4.8,3.8h0.3c3.8,2.8,7.9,4.5,11.7,5.2c1.4,0.3,2.8,0.7,3.8,0.7
		c1,0.3,1.7,0.3,2.4,0.3h0.7h1.4h1h1.7h0.3h0.3h0.3c2.8-0.3,6.9-0.7,12.4-1.4c3.1-0.3,5.5-0.7,7.9-1c2.4-0.3,4.5-1,6.2-1.7
		c5.9-2.1,11.7-5.2,18-9c5.2-3.1,9.7-6.6,14.2-10c0,2.1,2.4,7.3,4.1,10.4c0,0.3,0.3,0.7,0.3,1c0.3,0.7,0.7,1.4,1.4,1.7
		c0.3,0.3,0.7,0.7,1.4,1.4c0.3,0.3,0.7,0.3,1.4,0.7c0.3,0,1,0.3,1.7,0.3h0.3c0.3,0.3,0.7,0.3,1,0.7c0.3,0,0.7,0.3,1,0.3
		c0.7,0.7,1,1,1.7,1.7c1,0.7,2.4,1.4,3.5,1.4c1,0.3,2.1,0.3,3.1,0.3c0.7,0,1.7,0,2.4-0.3c0.3,0,0.7,0,1-0.3c0.7-0.3,1-0.3,1.4-0.7
		c0.7-0.3,1-0.7,1.4-1c0.3-0.3,0.7-0.7,1-1c0.3-0.3,1-1,1.4-1.7c0.3-0.7,0.7-1.7,0.7-2.8v-2.1c0,0-1-5.9,0.7-12.1
		c2.4-9,5.5-18,8.6-27.3c5.2-9,10-16.2,14.2-22.4c4.5-6.2,8.6-11.4,12.1-15.2c3.5-4.1,6.6-6.9,9-9c1.7-1.4,3.5-2.8,4.5-3.5
		c0,0,0,0.3,0,1c0,0.7,0,1.4,0,2.8c0,1.4,0,2.8,0,4.5c-0.3,4.8-1,10.7-2.1,16.9c-0.3,1-0.7,2.4-0.7,3.5c0,0,0,0.3-0.3,0.7v0.3v0.3
		c-2.4,11-4.1,21.1-4.8,30c-0.3,4.5-0.7,7.6-1,10c0,1-0.3,2.1-0.3,2.4c0,0,0,0,0,0.3l-0.3,0.7v4.5l2.4,1.4c0.7,0.3,1,0.7,1.7,1
		c0.7,0.3,1.4,0.3,2.4,0.3c0.3,0,0.7,0,1,0c0.3,0.3,0.7,0.3,1,0.7c0.7,0.3,1.7,0.7,2.8,0.7c1,0,2.1-0.3,2.8-0.7c0,0,0.3,0,0.3-0.3
		c0,0,0.3,0,0.3-0.3c0.7-0.3,1-0.7,1.4-1c2.4-2.1,4.8-4.1,7.3-6.6c2.1-2.4,4.1-5.2,5.9-7.6c1.7-3.5,3.5-6.6,4.8-9.3
		c1.4-2.8,2.4-5.2,3.1-7.3l0.7-0.7l0.3-1.4c0.3-1.4,0.7-2.8,1-4.5c0.3-1,0.3-2.1,0.7-3.1l0.7-0.7l0.3-1.4c0.7-2.1,1.4-4.5,2.1-6.6
		s1.4-4.5,2.1-6.6c2.8-3.5,5.9-6.9,9-9.7c1.7-1.7,3.1-3.1,4.1-4.1c0.7-0.7,1-1,1.4-1.4c0.3-0.3,0.3-0.7,0.7-1l0.3-0.3l1.4-1.4v-0.7
		c3.5-4.1,6.9-7.3,10-9.7c2.1-1.4,3.5-2.8,4.8-3.5c0.3-0.3,1-0.7,1.4-1c0,0.3,0,0.7,0,1.4c0,1-0.3,2.1-0.3,3.1
		c-0.7,3.8-1.4,8.3-2.4,13.8c-1,5.2-2.1,10.7-3.5,16.6c-0.3,1.7-0.7,3.5-1.4,5.2c-0.7,3.1-1.4,5.9-2.1,8.6l-0.7,2.4
		c-0.3,1.4-0.7,2.4-1,4.1c-0.3,1.4-0.7,3.1-1.4,5.5v0.7v0.3c0,0.3-0.3,1-0.3,1.4l-0.3,0.7v0.7c-0.3,1.7-0.7,3.5-0.7,5.2
		c0,1.4-0.3,3.1-0.3,4.5c-0.3,1.4-0.3,2.4-0.3,3.8c0,1,0,2.1,0,3.1v0.3c-1,3.8-1.4,7.3-1.4,10.4v0.7v0.3c0,0.3,0,0.7-0.3,0.7
		l-2.1,3.8l0.7,0.3c0,0.3,0,1,0,1.4c0,0.7,0,1.4,0.3,1.7c0.3,1,0.7,1.7,1.4,2.4c0.3,0.3,1,0.7,1.4,1c0.3,0.3,0.7,1,1.4,2.1
		c1,1.7,2.4,2.8,3.8,3.8c1.4,0.7,3.1,1.4,4.8,1.4c1.4,0.3,2.8,0.3,3.8,0.7c1,0,1.7,0.3,2.8,0.3h0.3c2.1,0,3.8-0.7,5.5-1.4
		c1-0.3,2.1-1,3.1-1c1-0.3,2.4-0.7,3.1-1.4c0.7-0.3,1.4-1,2.1-1.7c0.3-0.3,0.3-0.3,0.7-0.7l1-0.7c1-0.7,1.7-1.7,2.4-2.8
		c0.7-1,1-2.1,1.4-3.1c0.3-1.4,0.7-2.4,1-3.1c0.3-0.7,0.3-1.4,0.3-1.7c0-0.7,0-1.4-0.3-2.1c0-0.7-0.3-1.4-0.3-2.1c0-0.3,0-0.7,0-1
		c0-0.3,0-0.3,0-0.7c0-1,0.3-2.1,0.3-3.1c0-1,0-2.4,0-3.8c0-1,0-1.7,0-2.8c0-1.4,0-2.8-0.3-4.1c0-1.7-0.3-3.5-0.3-4.8
		c0-0.3,0-0.7,0-1c0-0.7,0.3-1.7,0.7-3.1c0.7-4.1,2.1-11,3.5-19c0-0.3,0.3-0.7,0.3-1v-0.3c0-0.3,0.3-0.3,0.3-0.7
		c0-0.3,0.3-0.7,0.3-1l2.1-7.6c0-0.3,0.3-0.3,0.3-0.7c0.3-0.7,0.3-1.4,0.7-1.7c0,0,0,0,0-0.3c0.3-1.7,0.7-3.1,1-4.8
		c0.3-2.1,0.7-4.8,1.7-8.3c1-3.5,1.7-7.3,2.8-11c2.1-3.5,2.8-7.3,3.5-10.4c0.3-2.4,0.7-4.1,0.7-6.2c0-0.7,0-1,0-1.7
		c0.3-1,0.3-2.4,0.3-3.5c0-2.4-0.3-4.5-1-6.9C1237.6,136.9,1236.2,133.8,1234.5,131.1z M1002.8,199.4c3.1-6.2,6.6-11.7,9.7-16.2
		c5.2-7.6,10-13.8,14.2-17.6c0.7-0.7,1.4-1.4,2.1-1.7v4.5c-0.7,3.8-1.7,7.9-3.1,12.4c-1.4,3.8-3.5,7.9-6.2,12.4
		c-2.4,4.1-6.2,7.9-10.7,11.7c-3.1,1.7-6.2,3.8-9.7,5.2c-0.3,0.3-0.7,0.3-1,0.7C999.7,206.3,1001,202.9,1002.8,199.4z"/>
	<path class="st0" d="M1274.9,235.4c-0.7-0.7-1.4-1-1.7-1.7c-0.7-0.7-1.4-1-1.7-1c-0.7-0.3-1.4-0.3-2.1-0.7c-0.7,0-1,0-1.7,0
		c-0.7,0-1.4,0-2.8-0.3c-0.7,0-1.4-0.3-2.1-0.3c-0.3,0-0.3,0-0.7,0s-0.3-0.3-0.7-0.3l-0.7-0.3h-0.7c-1-0.3-2.1-0.7-2.8-0.7
		c-0.7,0-1-0.3-1.4-0.3s-0.3,0-0.7,0c-0.3,0-0.7,0-1,0h-5.2v2.8c0,0.3-0.3,0.3-0.3,0.7c-0.3,0.7-1,1.7-1.4,2.4
		c-0.3,0.7-0.7,1.4-0.7,2.1c-0.3,0.7-0.3,1.4-0.7,2.4c-0.3,1.7-1,3.5-1.4,5.5c-0.7,1.7-1.4,4.5-2.4,7.6c-0.7,1.7-1,3.1-1.4,4.5
		c0,0.7-0.3,1-0.3,1.7s0,1-0.3,1.7c0,1.4,0.3,2.8,1,3.8c0.7,1,1,2.1,2.1,2.8c1.4,1.7,3.5,3.1,5.5,3.8c1.7,0.7,3.5,1.4,5.5,2.1
		c1.7,0.3,3.1,0.7,4.8,0.7c0.7,0,1.7,0,2.4-0.3h0.3h0.3c1-0.3,1.7-0.7,2.1-1c0.7-0.7,1.4-1.4,2.4-2.1c0.7-0.7,1.4-1.7,2.4-2.8
		c2.4-2.8,4.1-5.9,4.8-9c0,0,0,0,0-0.3s0.3-0.7,0.3-1c0.3-1.4,0.7-2.8,1.4-5.2c0.3-1.7,0.7-2.8,1-3.8c0-0.3,0.3-1,0.3-1.4v-0.3
		c0-0.3,0.3-0.7,0.3-1c0-0.3,0.3-0.7,0.3-1.4l0.7-1v-1.4c0-1-0.3-2.4-0.7-3.1C1275.9,236.7,1275.6,236,1274.9,235.4z"/>
	<path class="st0" d="M983.8,101.7c4.5-6.9,8.3-13.5,11.7-19.3c3.5-5.9,5.9-11,7.6-15.2c0.3-0.7,0.7-1.4,0.7-2.4
		c0-0.3,0-0.3,0.3-0.7v-0.3v-0.3c0.3-1,1.4-4.1,2.4-7.6c0.7-1.7,1-3.5,1.4-5.2c0.3-0.7,0.3-1.7,0.7-2.4c0-0.7,0.3-1.4,0.3-2.1
		c0.3-2.1,0.3-4.1,0.3-6.2c0-1.4,0-2.8-0.3-3.8c0-0.7-0.3-1.4-0.3-2.1c0-0.3-0.3-1-0.7-1.7c-0.3-0.7-1-1.7-2.1-2.4
		c-0.3-0.3-1-0.7-1.7-1c-0.7-0.3-1.4-0.3-2.1-0.3h-0.3h-0.3h-0.3c-0.7-0.3-1.4-0.7-2.1-1c-0.7-0.3-1.7-0.3-2.8-0.3
		c-0.3,0-0.3,0-0.7,0c-1.7-0.7-3.5-0.7-5.2-0.7c-2.4,0-5.2,0.3-7.6,1.4c-2.8,1-5.5,2.8-8.3,4.8c-2.8,2.1-5.5,4.8-8.3,8.3
		c-5.9,6.6-12.1,15.9-18.3,28.3c-6.6,12.1-13.1,27.6-19.3,46.6c0,0,0,0,0,0.3c-0.3,0.7-0.7,1.4-1,2.8c-0.3,1-1,2.8-1.7,4.5
		c-1,2.8-2.1,5.9-3.8,9.7c-1.7-0.7-3.5-1-5.2-1c-1.4,0-3.1-0.3-4.5-0.3c-1.4,0-2.8,0-4.1,0.3c-2.8,0.3-5.5,1-8.3,1.7
		c-3.1,0.3-6.6,1-9.7,2.1s-6.2,2.8-9.7,4.8c-6.2,4.1-12.1,9.3-17.6,15.9c-5.5,6.2-10.7,13.1-15.2,20.4c-0.3,0.7-0.7,1.4-1,1.7
		c-0.3,0.3-0.7,0.7-1,1c-0.3,0.3-0.7,0.7-0.7,1l-0.3,0.3l-0.3,0.3l-0.3,0.7c-2.4,4.1-5.9,10-11,18.3c-5.2,7.9-10.7,15.9-16.6,24.2
		c-5.9,7.9-11.7,14.8-17.3,21.1c-2.8,2.8-5.2,5.2-6.9,6.2c-0.7,0.7-1.7,1-2.1,1c-0.3,0-0.3,0-0.3,0s-0.3-0.7-0.7-1
		c-0.3-0.7-0.3-1.4-0.7-2.8c-0.7-3.8-1-7.9-1-12.1c0-1,0-2.4,0-3.5c0.3-2.8,0.7-6.6,1.7-11.4c0.7-4.5,2.4-10.4,4.5-16.9l0.3-0.7
		v-0.7c0.3-1.7,1-3.5,1.4-4.8c0.3-1.4,1-3.1,1.4-4.8c0.3-0.3,0.7-1,0.7-1.4c0.3-1,0.7-2.1,0.7-3.1l0.3-0.7v-0.7
		c0.7-5.2,1-9.7,1-14.2c0-3.1-0.3-6.2-0.7-9c0-2.8-0.3-5.2-1-7.3c-0.7-2.4-1.4-4.5-2.8-6.2c-1-1.7-2.8-3.1-4.5-4.5
		c-1.7-1.4-3.8-2.4-6.2-3.8c-2.1-0.7-3.8-1.4-5.2-1.7c-1.7-0.3-3.1-0.7-4.8-0.7h-3.5c-0.7,0-1,0-1.7,0c-0.3,0-1,0.3-1.4,0.3h-0.3
		c-2.1,0.3-4.1,1.4-6.9,2.4s-5.5,2.8-9,5.2c0-1.7-0.3-3.1-0.7-4.8l-0.3-1c0-0.3,0-0.3-0.3-0.3v-0.3c-0.3-1-0.7-1.7-1-2.8
		c-0.7-1-1.4-2.1-2.1-2.8s-1.4-1.4-2.1-2.4c-0.7-0.7-1.4-1.4-2.1-2.1s-1.4-1.4-2.4-1.7c-0.7-0.3-1.4-0.7-2.4-1
		c-1-0.3-2.1-0.7-3.5-1.4c-1.7-0.7-3.1-1-4.8-1c-1,0-1.7,0-2.8,0.3s-1.7,0.7-2.4,1c-1,0.7-1.7,0.7-2.1,1c-0.7,0-1,0-1.7,0.3
		c-0.7,0.3-1.4,0.3-1.7,1c-1,0.7-1.7,1.7-2.1,2.4c0,0.3,0,0.3-0.3,0.7h-1v4.1c0,0.3-0.3,0.7-0.3,0.7l-0.3,0.7
		c-1.4,2.8-2.4,5.9-3.8,9.7c-1,3.1-2.1,6.2-3.1,9c0,0-0.3,0.3-0.3,0.7l-0.3,0.3l-0.3,1c-3.1,9-5.9,18-8.6,26.6
		c-2.1,3.5-4.8,7.6-7.9,12.8c-5.2,7.9-10.7,15.9-16.6,24.2c-5.9,7.9-11.7,15.2-17.3,21.1c-2.8,2.8-4.8,5.2-6.6,6.2
		c-0.7,0.7-1.4,1-2.1,1c-0.3,0-0.3,0-0.3,0c-0.3,0-0.3,0-0.7,0c0,0,0,0-0.3-0.3c-0.3-0.3-0.3-0.7-0.7-1.7c-1-3.1-1.7-6.9-1.7-11
		c0-1,0-1.7,0-2.8c0-3.5,0.3-6.9,0.7-10c0.3-2.1,0.7-3.8,0.7-5.2c0.3-1.4,0.3-2.4,0.3-3.1v-0.3v-2.1c0,0,0,0,0-0.3
		c0-0.3,0-0.7,0.3-1c0.3-1.4,0.7-3.5,1-5.9c0.3-2.1,0.7-5.5,1.7-9.7v-0.3v-0.3l1.4-3.1v-1c0-0.3,0.3-0.7,0.3-1
		c0.3-0.3,0.7-1,0.7-1.4c0.3-1,0.7-2.1,0.7-3.1c0-0.7,0-1.4,0-1.7c0-1.7-0.3-3.5-0.7-5.2v-0.7l-0.3-0.7c-0.3-0.7-1-1.7-1.7-2.4
		c-0.7-0.7-1.4-1.4-2.4-2.1c-0.3-0.3-0.7-0.3-1-0.7l-0.7-0.7c0,0,0,0,0.3-0.3c0.7-0.3,1.7-0.7,2.1-1.4c0.7-0.3,1-1,1.4-1.7
		s0.7-1.7,1-2.4c0-0.7,0.3-1.4,0.3-2.1c0-1.4-0.3-2.8-1-3.8c-1.7-3.5-3.5-6.6-5.2-9c-2.1-2.8-4.1-4.8-6.9-6.2
		c-4.5-2.8-9-4.5-13.5-5.2c-1.4-0.3-3.1-0.3-4.5-0.3c-3.8,0-7.6,0.7-11,1.7l-1.4,0.3c-5.2,0.7-10.4,2.4-15.5,5.5
		c-5.9,3.5-11.4,7.6-16.2,13.1c-5.2,5.2-10,11.4-14.2,18c-4.1,6.9-7.9,13.8-10.7,21.1c-1.7,4.5-3.8,9.3-5.5,14.8
		c-2.1,5.9-3.1,12.1-3.5,18.3c0,0.7,0,1.4,0,2.1c0,5.9,1.4,11.4,3.5,16.9c1.4,3.5,3.5,6.2,6.2,9s5.9,5.2,9.7,7.3
		c2.8,1.4,5.5,2.4,8.6,2.1c1.4,0,2.4,0,3.8-0.3c4.1-0.7,7.9-2.8,12.1-5.5c2.4-1.7,4.5-3.8,6.9-6.2c2.4-2.8,4.5-5.5,6.9-9.3
		c4.1-6.2,7.3-11.4,10-15.9c0,2.4,0.3,4.5,0.7,6.9c0.3,2.1,0.7,4.1,1.4,5.9c0.7,1.7,1.4,3.1,2.4,4.5c2.4,3.5,4.8,6.2,7.6,8.3
		c2.4,2.1,4.8,3.8,6.9,5.2c2.8,1.7,5.2,3.1,7.9,4.1h0.3h0.3c3.8,1,7.6,1.4,11.4,1.4c3.8,0,7.3-0.7,11.4-2.1
		c4.1-1.4,8.3-4.1,12.1-7.9c3.1-3.1,6.6-6.9,10.4-11.7c0,0.7,0,1.7,0,2.4c-0.7,6.9,2.1,8.3,2.4,8.6c0.3,0.7,0.7,1.4,1.4,1.7
		c0.3,0.3,1,1,2.1,1.4c0.7,0.3,4.8,0.7,5.9,0.7c0,0,0,0,0.3,0c0.3,0.3,0.7,0.3,1,0.7c0.3,0.3,1,0.7,1.7,0.7c0.3,0.3,0.7,0.7,0.7,0.7
		c1.4,1,4.5,2.1,4.5,2.1c1,0.3,2.1,0.3,3.1,0.3c0.7,0,1.7,0,2.4-0.3c1,0,1.7-0.3,2.8-0.7c1-0.3,1.7-1,2.1-1.7
		c0.7-0.7,1.4-1.7,1.7-2.8s0.3-1.7,0.3-2.4v-1.7l-1-1.4c-0.3-0.3-0.7-0.7-0.7-1.4c-0.3-4.5,0.3-8.3,1.7-12.8
		c1.4-4.8,2.8-9.7,4.8-15.2c1.7-5.2,3.8-10.4,5.5-15.5c4.8-7.9,9.3-14.8,13.5-20.4c4.1-5.5,7.9-10,11-13.1c3.5-3.5,6.2-6.2,8.6-8.3
		c1.4-1.4,2.8-2.1,3.8-3.1c0,0,0,0.3,0,0.7c0,0.7,0,2.1,0,3.5c0,2.8-0.3,5.9-0.7,9.7c-0.3,3.8-1,8.3-1.7,13.1
		c-0.7,4.8-1.7,9.3-2.8,13.8v0.7v0.7c-0.3,0.7-0.7,1.7-1,2.8c-0.3,1.7-1,3.5-1.7,5.9v0.7v0.3c-0.7,2.1-1,4.1-1.4,6.2
		c-0.3,2.4-0.3,4.8-0.3,7.3v3.5c0,1.4,0,3.1,0,4.5c0,1.7,0.3,3.5,1,5.2v0.7l1,1.4c0.3,0.3,0.3,0.7,0.3,0.7c0,1,0.3,1.7,1,2.8
		c0.3,0.7,1,1.7,1.7,2.4c0.3,0.3,0.7,0.7,0.7,0.7c0.7,0.7,1,1.7,2.1,2.4c2.1,2.4,4.5,4.8,6.9,6.6c2.1,1.4,4.1,2.8,5.9,4.1
		c2.1,1.4,4.1,2.4,5.9,3.1l0.3,0.3h0.7c3.8,1,7.6,1.4,11.4,1.4c3.8,0,7.3-0.7,11-2.1c4.1-1.4,8.3-4.1,12.1-7.9
		c3.1-3.1,6.6-7.3,10.7-11.7c2.1-2.4,4.1-5.2,6.2-7.9c0.7,3.8,2.1,7.3,3.8,11c1.7,3.5,3.8,6.6,6.6,9.3c2.8,2.8,5.9,5.2,9.3,7.3
		c1,0.7,2.1,1.4,3.5,1.7s2.8,0.7,4.1,0.7c1,0,2.4,0,3.5-0.3c1.7-0.3,3.5-1,5.2-2.1c1.7-1,3.5-2.1,5.5-3.8c2.1-1.7,4.1-3.8,6.2-6.2
		c2.1-2.4,4.1-5.5,6.6-9c4.1-6.2,7.3-11.7,10-16.2c0,2.1,0.3,4.1,0.3,5.9c0.3,2.4,0.7,4.5,1.4,6.6c0.7,2.1,1.4,3.8,2.4,5.2
		c2.4,3.5,4.8,6.2,7.6,8.3c2.4,1.7,4.5,3.5,6.9,4.8c2.4,1.7,4.8,3.1,7.6,4.1l0.3,0.3h0.7c3.8,1,7.3,1.4,11,1.4c0,0,0,0,0.3,0
		c0.3,0,1,0,1.4,0c0.3,0,0.7,0,1.4,0c0,0,0,0,0.3,0c0.3,0,0.7,0,1.4-0.3c0.3,0,0.3,0,0.7,0c0.7-0.3,1-0.3,1.7-0.7
		c0.7-0.7,1.4-1.4,1.7-2.1c0.3,0,0.3-0.3,0.3-0.7c0.7-0.7,1-1.7,1-2.4l0.7-2.8l-2.8-3.1l-0.3-0.3c-0.7-0.7-1.7-1.7-3.5-3.1
		c-0.7-0.7-1.4-1.4-2.1-1.7c-1-1-2.1-2.1-2.8-3.1c-0.3-0.3-0.7-1-1-1.4c0-0.3,0-0.3-0.3-0.3c-1-3.8-1.4-7.9-1.4-12.4
		c0-4.8,0.3-9.7,0.7-14.2c0.3-2.4,0.3-4.1,0.7-5.9c0.3-1.4,0.3-2.4,0.3-3.1v-0.3v-0.3c0,0,0,0,0-0.3s0-0.7,0.3-1
		c0.3-1.4,0.7-2.8,1-4.5c0.3-1.4,0.7-3.5,1.7-6.2c0.7-1.4,1-3.1,1.7-4.8c0.7-2.1,1.4-4.1,1.7-6.6v-0.7c0,0,0,0,0-0.3l0.3-1
		c0.3-1,0.7-1.7,0.7-2.4c0-0.3,0.3-0.7,0.3-1s0-0.7,0-1c2.1-6.2,4.1-13.5,6.6-21.1c1.4-4.1,1.7-6.2,2.4-7.9c0.3-1,0.7-1.7,1-3.1
		c0.3-1,0.7-2.4,1.4-4.1c5.2-7.3,10.4-14.5,15.9-22.1C974.1,116.2,979.3,108.6,983.8,101.7z M976.5,81c1.7-5.2,3.5-9.3,4.5-12.1
		c2.4-5.5,4.8-11.7,7.3-16.9c1-2.4,2.4-4.8,3.1-6.2c0.3-0.7,1-1.4,1-1.7s0.3-0.3,0.3-0.3c0,0.7,0,1.7-0.3,2.4
		c-0.3,2.1-0.7,4.5-1.4,6.6c-0.7,2.4-1.4,4.5-2.1,6.6c0,0.3-0.3,0.7-0.7,1.4c-0.3,1.4-1,3.1-2.1,4.8c-1.4,2.8-2.8,6.2-4.1,9.3
		c-0.7,1.4-1.4,3.1-2.1,4.1c-0.7,1.4-1,2.4-1.7,3.1c-2.1,4.1-4.8,8.6-7.9,13.5C972.7,90.3,974.8,85.1,976.5,81z M624.3,170.1
		c-1,1-1.7,2.4-2.8,3.8c-1,1.7-1.7,3.1-2.4,4.5c-0.7,1-1,2.1-1.4,3.1c-0.7,1.4-1.7,2.8-3.1,5.2c-1.4,2.4-3.1,5.2-5.2,8.3
		c-4.1,6.6-8.6,13.1-13.8,19.7c-5.2,6.6-10.4,12.4-15.9,18c-2.4,2.4-4.8,4.1-6.6,5.5c0-0.7,0.3-1,0.3-1.7c0.3-1.4,0.7-3.1,1.4-5.5
		c0.7-2.1,1.7-4.8,2.8-7.9c2.1-6.2,3.8-10.7,5.5-14.2c1.7-3.5,3.5-6.9,4.8-9.7c1.4-2.8,3.1-5.2,4.8-7.6c1.7-2.4,4.1-5.5,7.3-9
		c3.1-4.1,6.2-7.3,9-9.7c2.8-2.4,4.8-3.8,6.9-4.8c0.3,0,0.7-0.3,1-0.3c0,0,0.3,0,0.3-0.3c1-0.3,2.1-0.3,2.8-0.3c0.7,0,1,0,1.7,0
		c1.4,0.3,2.8,0.7,3.8,1C625.7,168.7,625,169.4,624.3,170.1z M911.6,162.8c-1.4,3.5-2.4,6.9-3.5,10c-0.7,0.7-1,1.7-1.4,2.8
		c0,0,0,0-0.3,0.3l-0.3,0.3l-0.3,0.3c-3.1,5.2-6.6,10-9.7,15.2c-3.1,4.8-6.2,10-9.3,14.8l-3.5,5.5c-4.5,5.9-9.3,11.4-13.8,16.2
		c-3.1,3.1-5.9,5.5-7.9,7.3c-0.3,0.3-1,0.7-1.4,1c0-0.7,0.3-1.7,0.3-2.8c0.3-1.4,0.7-3.1,1.4-5.5c0.7-2.4,1.7-4.8,2.8-7.9
		c4.5-12.1,8.6-21.4,12.4-28.7c3.8-6.9,8.6-13.8,14.2-20.7c3.5-4.1,6.9-7.6,9.7-10c2.4-2.1,4.5-3.5,6.2-4.5l0.7-0.3
		c1.4-0.3,2.4-0.7,3.5-0.7c0.7,0,1,0,1.7,0c0.3,0,0.7,0,1,0.3C913,158.7,912.3,160.8,911.6,162.8z"/>
	<path class="st0" d="M1499.3,154.9l-0.3-1c0-0.3,0-0.3-0.3-0.3c0,0,0-0.3-0.3-0.3c-0.3-1.7-1-3.5-2.4-5.2c-0.7-0.7-1.4-1.7-2.4-2.8
		l-0.3-0.3l-0.3-0.3c-1-1-2.4-2.1-3.8-3.1c-0.7-0.3-1.7-0.7-2.4-1.4c-1-0.3-2.1-0.7-3.5-1.4h-0.3h-0.3c-1.4-0.3-2.8-0.3-4.1-0.3
		c-1.7,0-3.5,0.3-5.2,1c-1,0.3-1.7,0.7-2.4,1h-0.7l-0.7,0.3c-0.7,0.3-1,0.3-1.7,0.7c-0.7,0.7-1.7,1.4-2.4,2.4s-0.7,2.1-0.7,3.1
		c0,0.3,0,0.7,0,0.7l-0.3,0.3c0,0,0,0,0,0.3c-0.3,0.3-0.3,0.7-0.3,1l-0.3,0.3l-0.3,1c-0.7,1.4-1,2.8-1.4,4.1c-0.3,1-0.7,2.1-0.7,2.8
		c-0.7,2.1-1.7,4.1-2.4,6.2c-0.7,2.1-1.4,4.5-2.1,6.6c0,0,0,0,0,0.3c-0.3,0.7-0.3,1.4-0.3,1.7c-2.4,6.9-5.9,19-10.4,28
		c-4.8,8.6-9.3,15.5-13.5,21.4c-11,15.9-23.8,21.8-24.9,22.4c-0.3,0-0.7,0.3-1.4,0.3c-0.3,0-1,0.3-2.1,0.3c0-0.3,0-0.7,0-1
		c0.3-1,0.3-2.4,0.7-4.1c1-4.5,1.4-5.2,2.8-11c0.3-1,0.7-3.5,1.7-6.6c0.7-2.8,1.4-5.5,2.1-7.6c0.7-1.7,1.4-3.5,1.7-5.5
		c0.7-1.7,1-3.1,1.4-3.8l0.7-1v-1l3.1-9.7c0.3-0.3,0.7-1,0.7-1.7c0.3-1,0.7-1.7,0.7-3.1c0,0,0-0.3,0-0.7l0.3-0.7v-1.7
		c0.3-1.7,1-3.5,1.4-5.2c0.3-1.7,1-3.5,2.1-5.2c0.7-1,1-2.1,1.7-3.1c0.3-1,1-1.7,1.4-2.4c1-2.1,1.7-4.1,1.7-6.2c0-0.7,0-1.4,0-2.1
		c0-1-0.3-2.1-1-2.8c-0.7-1.4-1.7-2.4-2.8-3.5c-1-0.7-2.1-1.4-3.5-2.1c-0.7-0.3-1.4-0.7-2.4-0.7c-0.7-0.3-1.7-0.3-2.8-0.3
		c-0.7,0-1,0-1.7,0.3c-0.3,0-1,0.3-1.7,0.7c-0.7,0-1,0-1.7,0c-1,0-2.1,0-3.1,0.3c0,0,0,0-0.3,0c-0.3,0-0.7,0-1.4,0h-0.3h-0.7
		c-1.7,0-3.5,0.3-4.8,1s-3.1,1.7-4.1,2.8c-0.7,0.7-1.4,1.4-2.1,2.1c-0.3,0.3-0.7,0.7-0.7,1s-0.3,0.3-0.3,1c0,0,0,0.3-0.3,0.7
		c-3.1,8.3-5.9,16.6-8.6,24.9c-2.1,3.5-4.8,7.6-7.9,12.8c-5.2,7.9-10.7,15.9-16.9,24.2c-5.9,7.9-11.7,15.2-17.3,21.1
		c-2.8,2.8-4.8,5.2-6.6,6.2c-0.7,0.7-1.4,1-2.1,1c-0.3,0-0.3,0-0.3,0c-0.3,0-0.3,0-0.3,0s-0.3-0.3-0.3-0.7c-0.3-0.3-0.3-1-0.7-1.7
		c-1-3.5-1.7-7.6-1.7-12.4s0.3-9.7,0.7-14.2c0.3-2.4,0.7-4.1,0.7-5.9c0.3-1.4,0.3-2.8,0.3-3.1v-0.3v-0.3c0,0,0,0,0-0.3s0-0.7,0.3-1
		c0.3-0.7,0.3-1,0.3-1.7c0.3-0.7,0.3-1.7,0.3-2.8c0.3-1.4,0.7-3.5,1.7-5.9c0.7-1.7,1-3.5,1.7-5.2c0.3-1.4,1-3.5,1.7-5.5l0.3-1v-0.3
		c0-0.3,0-0.3,0-0.3l0.3-0.3c0.7-1,1-2.4,1-3.8l0.3-1v-1c2.1-6.2,4.1-13.5,6.6-21.1c1.4-4.1,1.7-6.2,2.4-7.9c0.3-1,0.7-1.7,1-3.1
		c0.3-1,0.7-2.4,1.4-4.1c5.2-7.3,10.4-14.5,15.9-22.1c5.5-7.9,10.4-15.2,14.8-22.4c4.5-6.9,8.3-13.5,11.7-19.3
		c3.5-5.9,5.9-11,7.6-15.2c0.3-1,0.7-1.7,0.7-2.4c0-0.3,0.3-0.7,0.3-1v-0.3c0.3-0.7,0.3-1.4,0.7-2.4c0.7-2.1,1.7-4.8,2.4-7.3
		c0.3-1.4,0.7-2.4,1-3.8c0-0.7,0.3-1,0.3-1.7c0-0.3,0.3-1,0.3-1.4c0.3-2.4,0.7-4.5,0.7-6.9c0-1,0-2.1-0.3-3.5c0-0.7-0.3-1.4-0.3-2.1
		c0-0.7-0.3-1-0.7-1.7c-0.3-0.7-1-1.7-2.1-2.4c-0.7-0.3-1-0.7-1.7-1c-0.7-0.3-1.4-0.3-2.1-0.3c0,0-0.7,0-1.4-0.3s-1.4-0.7-2.4-1
		c-0.7-0.3-1.4-0.3-1.7-0.3c-1.7-0.7-3.8-1-5.9-1c-2.8,0-5.2,0.7-7.9,1.7s-5.5,2.8-8.3,4.8c-2.8,2.1-5.5,4.8-8.3,8.3
		c-5.9,6.6-11.7,16.2-18.3,28.3c-6.2,12.1-12.8,27.6-19.7,46.6c0,0,0,0,0,0.3c-0.3,0.7-0.7,1.4-1,2.4c-0.3,1-1,2.4-1.4,4.1
		c-1.4,3.8-3.1,8.6-5.2,14.2v0.3v0.3c-0.3,1.7-1,3.5-1.7,4.8c-1.4,3.5-2.8,6.6-3.8,9.7c-2.4,7.3-4.8,14.5-7.3,21.4
		c-0.3,0.3-0.3,0.7-0.3,0.7c-0.3,0.7-0.3,1.4-0.7,1.7v0.3c-1,4.1-2.4,8.3-3.5,12.4c-2.4,8.3-4.5,16.2-5.9,23.5
		c-1,5.5-1.4,11-1.4,16.2c0,1.7-0.3,3.5-0.3,5.2c0,2.8,0,5.2,0.3,7.9c0.3,2.4,0.7,4.5,1.4,6.2s1.4,3.5,2.4,4.8
		c2.4,3.1,4.8,6.2,7.6,8.3c2.4,2.1,4.8,3.8,6.9,5.2c2.4,1.7,4.8,3.1,7.6,4.1l0.3,0.3h0.7c3.8,1,7.6,1.4,11.4,1.4
		c3.8,0,7.3-0.7,11.4-2.1c4.1-1.4,8.3-4.1,12.1-7.9c3.1-3.1,6.6-7.3,10.7-11.7c0.7-1,1.4-2.1,2.4-2.8c0,0.3,0,0.7,0,1
		c0,1.4,0,3.1,0.3,4.5c0,1,0,2.4,0.3,4.1c0.3,2.1,3.5,6.2,4.5,8.3c0.7,1.4,2.1,2.4,3.1,3.5c1,0.7,2.4,1.4,3.8,1.7
		c1,0.3,2.4,0.7,3.5,0.7h0.3c1.7,0.7,3.1,1,4.5,1.4c1,0.3,2.1,0.3,3.1,0.7c0.7,0.3,1.4,0.3,2.1,0.3c0.7,0,1.4,0,1.7-0.3h0.3h1.4
		c0.7,0,1.7,0,2.4-0.3c0.3,0,1-0.3,1.4-0.3c0,0,0,0,0.3,0c1.7-0.3,3.8-1,5.9-2.1c2.8-1.4,15.9-6.9,19.7-11c0,0.3-9.7,42.1-38.3,47
		c-0.3,0-0.3,0.3-0.7,0.3c-1,0.3-1.7,0.3-2.4,0.7c-3.5,1-6.6,1.4-8.3,1.4c-0.3,0-1,0-1,0h-0.7h-0.7c-2.1,0.3-3.8,0.3-5.2,0.3
		c-0.3,0-0.7,0-1,0c-1,0-2.4,0-3.5,0c-0.7,0-1.7,0-2.4,0c-0.3,0-0.7,0-1,0c-0.3,0-1,0-1,0l-3.8-1.4l-1.4,2.1h-0.3l-0.7,1
		c0,0,0,0-0.3,0c-0.7,0.3-1,1-1.4,1.4c-0.3,0.7-0.7,1.4-0.7,2.1c0,0.7,0,1,0,1.4c0,0.3,0,0.7,0,1c0,0.7,0.3,1,0.3,1.4
		c0.3,0.7,0.3,1,0.7,1.4c0.3,0.7,0.7,1.4,1.4,2.1c0.3,0.7,1,1.7,1.7,2.8c1,1.7,2.4,3.1,3.8,4.1c0.3,0.3,1,0.7,1.4,1
		c0.3,0.7,0.7,1,1,1.4c0.3,0.3,0.3,0.3,0.7,0.7c0,0.3,0,0.7,0.3,1c0.3,0.7,0.7,1.4,1,1.7c0.3,0.3,0.7,0.7,1,1c0.3,0.3,1,0.7,1.7,1
		c0.7,0.3,1,0.3,2.1,0.7c2.4,0.7,4.5,1,6.2,1.4c1,0.3,2.4,0.3,3.8,0.3c0.7,0,1,0,1.7,0c1.4,0,2.4,0,3.8,0c9,0,17.6-1.4,25.6-4.1
		c10.4-3.8,24.5-13.5,35.9-34.9c12.1-22.4,15.2-33.8,21.8-56.6c1.4-5.2,2.4-10,3.1-13.1c0.3-1.7,0.7-3.1,1-4.1c0-0.3,0.3-1,0.3-1.4
		V225c0.7-2.8,6.6-25.6,12.1-34.5v-0.3v-0.3c0.3-1,1-2.8,2.4-4.5c1.4-2.1,2.8-4.1,3.5-5.9c0.7-1.4,1.4-2.8,1.7-3.8
		c0.3-1,1-1.7,1-2.4c0.3-0.3,0.7-1.4,1.4-2.1c0.7-0.7,1-1,1.4-1.7c0.3-0.3,0.7-0.7,0.7-1.4c0.3-0.3,0.3-1,0.7-1.7
		c0.3-0.7,0.3-1.7,0.7-3.5c0.7-1.4,1-2.1,1-3.1C1500,158,1499.7,156.6,1499.3,154.9z M1374.7,79.3c1.7-4.5,3.1-8.6,4.1-11
		c2.4-5.5,4.8-11.7,7.3-16.9c1-2.4,2.1-4.8,3.1-6.6c0.3-0.7,0.7-1.4,1-2.1c0,0,0-0.3,0.3-0.3c0,1-0.3,2.4-0.7,4.1
		c-0.7,3.1-1.4,6.9-2.8,10.4c-1,3.5-2.4,6.9-3.5,9.7c-1.4,2.8-3.5,7.3-6.2,12.4c-1.4,2.8-2.8,5.5-3.8,8.3c-1.2,2.4-2.4,4.9-4.1,7.5
		C1371.2,89.3,1372.9,84.1,1374.7,79.3z"/>
	<path class="st0" d="M528.3,286.1c0-0.3-0.3-0.3-0.3-0.7c-0.3-0.7-0.7-1-1-1.7c-0.7-1-1-1.7-1.7-2.4c0-0.3-0.3-0.3-0.3-0.7
		c-0.7-1-0.7-1.7-1.4-3.5l-0.3-0.3l-0.3-0.3c0-0.3-0.7-3.8-1-4.1c-0.7-1.4-0.3-2.8-1.4-5.9l-0.3-0.7c-0.3-0.7-0.3-2.1-0.3-3.1
		c0-0.3,0-0.7,0-1l-0.3-2.4c-0.3-6.2,0-9.3,1-18.6c0.7-6.6,2.1-16.6,3.8-24.9c1-4.8,2.4-9.3,3.5-13.5c4.8-15.9,10-31.4,15.5-46.6
		c5.2-15.2,10.7-30.4,16.6-45.9l1.4-3.8c3.8-0.7,5.5-0.7,7.3-1c1,0,2.1-0.3,3.1-0.3s2.4-0.3,4.5-0.3c0.3,0,0.7,0,1.4,0
		c0.3,0,1,0,1,0c0.7,0,1.4-0.3,1.7-0.3c0.7-0.3,1-0.7,1.4-0.7l1-0.3l0.3-0.3c0.3,0,0.7-0.3,1-0.7c0.3-0.3,0.7-0.3,0.7-0.7
		c0.3-0.3,1-0.7,1.4-1c0.3-0.3,0.7-0.7,1-1.4c0.3-0.7,0.7-1.7,0.7-2.4c0-0.3,0-0.3,0-0.7c0,0,0,0,0-0.3c0-0.3,0.3-0.3,0.3-0.7
		l0.3-0.3c0.7-0.3,1.7-1,2.4-2.1c0.3-0.7,0.7-1,1-2.1c0.3-0.7,0.3-1.4,0.3-2.4s-0.3-2.1-0.7-2.8l-0.3-0.7l-0.3-0.3
		c-0.7-1-1.7-1.7-2.4-2.1c-1-0.3-1.7-0.7-2.8-0.7c-0.7,0-1,0-1.7,0c-0.3,0-0.7,0-1.4,0c0,0-0.3,0-0.7,0c-1,0-2.8,0.3-4.5,0.7
		c-4.5,0.7-6.6,0.7-8.3,1c0.7-1.4,1.4-2.4,1.7-3.5c0.3-0.7,0.3-1.4,0.7-1.7c0-0.7,0.3-1,0.3-2.1c0,0,0-0.3,0.3-0.3
		c0.7-1,1-1.7,1.7-2.8c0.3-0.7,0.7-1.4,0.7-2.1c0.3-0.7,0.3-1.4,0.7-2.4c0.3-1,0.3-2.1,0.3-3.1c0-1,0-2.1-0.7-3.5c0,0,0-0.3-0.3-0.7
		c0-0.3-0.3-1-0.3-1.7c-0.3-2.1-1-3.8-2.1-5.5c-0.3-0.7-1-1.4-1.4-2.4c-0.7-1.7-1.7-3.1-3.5-4.5c-0.7-0.7-1.4-1-2.4-1.4
		c-1-0.3-1.7-1-3.1-1.4c-1.4-0.7-3.1-1-4.8-1c-1,0-1.7,0-2.8,0.3c-1,0.3-1.7,0.7-2.4,1.4c-0.3,0-0.3,0.3-0.3,0.3h-0.3l-0.7,0.3
		c-0.7,0.3-1.4,0.7-2.1,1c-1,0.7-1.7,1.7-2.1,2.8c-0.3,1-0.7,2.1-0.7,3.1c0,0,0,0,0,0.3c-0.3,0.3-0.7,0.7-0.7,1.4
		c0,0.3-0.3,0.7-0.3,1l-0.3,0.3l-0.3,1c-2.4,6.2-4.8,12.4-7.3,19c-2.1,5.5-4.1,11-6.2,16.2c-11,3.1-20,5.5-26.6,7.3
		c-3.8,1-7.3,2.4-10.4,3.5c-0.7,0-1.4,0.3-2.1,0.3c-1,0.3-2.1,0.7-2.8,1.4l-0.3,0.3l-0.3,0.3c-0.3,0.3-1,1-1.4,1.4
		c-1,0.7-1.7,2.1-2.4,3.1c-0.3,1-0.7,1.7-0.7,2.8c0,0.3,0,0.7,0,1.4c0,0.7,0,1.4,0.3,2.1c0.3,1,1,2.1,2.1,2.8c0.7,0.7,1.7,1,2.4,1.4
		c1.4,0.3,2.8,0.7,4.1,0.7c1.7,0,3.5-0.3,5.2-1c5.9-1.4,11.7-2.8,17.3-3.8c2.8-0.7,5.5-1,8.3-1.7c-1,3.5-2.4,6.6-3.5,10
		c-2.1,6.2-4.1,12.4-5.9,18.6c-5.2,15.9-9.7,32.1-13.8,48.3c-1,3.5-1.7,7.3-2.4,11c-1,4.1-3.1,14.5-3.8,18.6
		c-0.7,4.1-1,7.9-1.4,12.1c-0.7,8.6-1.4,20.7-0.3,29.7c1,7.6,2.1,15.5,5.9,22.1c0.7,1,1,1.7,1.7,2.8c0.3,0.3,0.3,1,0.7,1.4
		c0.7,1,1,1.7,1.7,2.4c1,1,2.1,2.1,3.8,3.8c0.3,0.3,0.7,1,1.4,1c0.7,0.3,1,0.7,1.4,0.7c0.3,0,0.7,0.3,1.4,0.3c0.3,0,1,0,1.7,0
		c0.3,0,0.7-0.3,1-0.3c0.3,0,0.3,0,0.7,0c0.3,0,1,0,1.4,0c0.3,0.3,0.7,0.3,1.4,0.3c1.4,0.3,1,0.7,2.8,0.7c1,0,1.7,0,2.8,0
		c0.7,0,1.4,0,2.1,0c0.3,0,0.7,0,1.4-0.3c0.3,0,0.7,0,1-0.3c0.3,0,0.3-0.3,0.7-0.3c0.3,0,0.7-0.3,1-0.7c0.3-0.3,0.7-0.7,1-1.4
		c0.3-0.3,0.3-1,0.3-1.7c0,0,0,0,0-0.3l0.3-1v-0.3l0.7-1.7l-1.7-2.1C528.7,286.8,528.3,286.5,528.3,286.1z"/>
</g>
</svg>
