<?xml version="1.0" encoding="utf-8"?>
<!-- Generator: Adobe Illustrator 21.1.0, SVG Export Plug-In . SVG Version: 6.00 Build 0)  -->
<svg version="1.1" id="Layer_1" xmlns="http://www.w3.org/2000/svg" xmlns:xlink="http://www.w3.org/1999/xlink" x="0px" y="0px"
	 viewBox="0 0 200 200" style="enable-background:new 0 0 200 200;" xml:space="preserve">
<style type="text/css">
	.st0{fill:#FED4AF;}
	.st1{fill:#B72025;}
	.st2{fill:#968D81;}
	.st3{fill:#C58D74;}
	.st4{fill:#382010;}
	.st5{fill:#AB3131;}
	.st6{fill:#AE3579;}
	.st7{fill:#2A3F40;}
	.st8{opacity:0.75;}
	.st9{fill:#FFFFFF;}
</style>
<g>
	<g>
		<path class="st0" d="M66.3,163.5c5.5,0,6.1-4.3,6.1-4.3v-4.8c-2.3,0.5-4.4,0.7-6.3,0.7s-4.2-0.3-6.6-0.8v4.9
			C59.5,159.3,60.7,163.5,66.3,163.5z"/>
	</g>
	<g>
		<path class="st1" d="M82.6,187.2c0-1.4-0.4-2.4-0.4-2.4C82.3,185.6,82.4,186.4,82.6,187.2z"/>
	</g>
	<g>
		<path class="st2" d="M80.2,163.7c-0.3-0.2-1.5-1.1-4.1-2.3c-0.1-0.1-3.7-2.1-3.7-2.1v12.2H59.5v-12.2c0,0-3,1.8-3.1,1.9
			c-8.6,3.5-11.8,9.1-14.2,15c-0.5,1.3-2.1,7.7-3.5,12.3c3.1,1.1,6.3,2.1,9.6,2.8c0.8-3.7,1.4-7.2,2-9.4c0.3,0.7-1.1,4.3,0.4,8
			c0.2,0.5,0.4,1.2,0.5,2c4.8,0.9,9.7,1.4,14.7,1.4c5.3,0,10.5-0.5,15.5-1.5c0.1-0.4,0.2-0.6,0.3-0.7c0.7-1.3,0.9-2.7,0.9-3.8
			c-0.1-0.8-0.2-1.6-0.4-2.4c0,0,0.3,1,0.4,2.4c0.2,1.4,0.4,2.8,0.6,4.2c3.2-0.7,6.3-1.6,9.3-2.6C89.4,170,86.4,167.5,80.2,163.7z"
			/>
	</g>
	<g>
		<path class="st2" d="M72.4,171.4v-12.2c0,0-0.6,4.3-6.1,4.3s-6.8-4.3-6.8-4.3v12.2H72.4z"/>
	</g>
	<g>
		<path class="st0" d="M72.4,150.4v4.1c10.3-2.1,23.4-9.8,27.4-29.5c1.6-7.9-0.2-21.5-5.5-36.3c-4.1,4.2-59.3,18.5-59,17.7
			c-0.1,0.2-0.7,2.6-1.2,6.5c1.5-0.7,4.1-1.3,8.9-1.3c0.7,0,17.4,0.1,18,5.5c2.9-0.6,7.4-0.5,10-0.1c0.7-5.2,18.1-5.3,18.3-5.3
			c6.9,0,10.3,1.2,10.3,3.7c0,10.6-8.2,16.3-15.8,16.3c-4,0-7.4-1.6-9.4-4.4c-1.5-2.1-2.6-5-3.1-7.4c-2.2-0.7-9.3-0.7-10.7,0.2
			c-0.5,2.3-1.6,5.1-3,7.1c-2,2.8-5.4,4.4-9.4,4.4l0,0c-6.1,0-12.5-3.7-14.9-10.5c-0.1,2.1-0.2,4.5-0.2,6.9
			c3.7,16.4,16.4,24,26.4,26.3v-4h12.9V150.4z M54.2,110.9c-0.3,0.2-0.6,0.4-0.9,0.4c-0.4,0-0.8-0.2-1.1-0.5
			c-1.3-1.5-3.1-1.8-4.3-1.8c-2,0-4,0.7-5.1,1.9c-0.5,0.6-1.4,0.6-2,0.1s-0.6-1.4-0.1-2c1.7-1.7,4.4-2.8,7.2-2.7
			c2.6,0,4.8,1,6.4,2.8C54.8,109.5,54.7,110.4,54.2,110.9z M91.4,110.8c-0.6,0.5-1.5,0.5-2,0c-1.5-1.6-3.4-1.7-4.4-1.7
			c-1.8,0.1-3.2,0.9-3.8,1.6c-0.3,0.4-0.7,0.5-1.1,0.5c-0.3,0-0.6-0.1-0.9-0.3c-0.6-0.5-0.7-1.4-0.2-2c1.2-1.5,3.4-2.5,5.8-2.6
			c2.6-0.1,4.9,0.8,6.6,2.5C92,109.3,92,110.2,91.4,110.8z M56.3,141.4c-0.5-0.5-0.4-1.4,0.1-1.8c0.5-0.5,1.4-0.4,1.8,0.1
			c2.6,3,6,3.2,7.8,3.1c2.8-0.2,5.5-1.4,6.6-3.1c0.4-0.6,1.2-0.7,1.8-0.3c0.6,0.4,0.7,1.2,0.3,1.8c-1.6,2.3-5,4-8.6,4.2
			c-0.3,0-0.6,0-0.8,0C61.8,145.4,58.6,144,56.3,141.4z"/>
	</g>
	<g>
		<path class="st0" d="M83.8,128.8c6.3,0,12.9-4.7,13-13.3c-0.5-0.3-2.5-1.1-7.5-1.1c-1.2,0-2.4,0-3.5,0.1c2.1,0.5,3.6,2.7,3.6,5.4
			c0,3-2.1,5.5-4.6,5.5c-2.6,0-4.6-2.5-4.6-5.5c0-2.4,1.3-4.4,3-5.1c-5.1,0.6-8.9,1.7-9.4,2.6c0,2,1.3,5.9,2.9,8.2
			C78.1,127.7,80.7,128.8,83.8,128.8z"/>
	</g>
	<g>
		<path class="st0" d="M48.1,128.8c3.1,0,5.7-1.2,7.1-3.2c1.7-2.4,2.9-6.3,2.9-8.3c-0.4-0.9-4.1-2.1-9.4-2.6
			c1.9,0.7,3.3,2.8,3.3,5.3c0,3-2.1,5.5-4.6,5.5c-2.6,0-4.6-2.5-4.6-5.5c0-2.8,1.7-5,4-5.4c-1.2-0.1-2.5-0.1-3.8-0.1
			c-5.2,0-7.4,0.8-7.9,1.1C35.2,124.2,41.9,128.8,48.1,128.8z"/>
	</g>
	<g>
		<path class="st0" d="M72.4,154.5v-4.1H59.5v4c2.4,0.6,4.7,0.8,6.6,0.8S70.1,155,72.4,154.5z"/>
	</g>
	<g>
		<path class="st3" d="M66.2,145.4c3.7-0.2,7-1.9,8.6-4.2c0.4-0.6,0.3-1.4-0.3-1.8c-0.6-0.4-1.4-0.3-1.8,0.3
			c-1.1,1.6-3.9,2.9-6.6,3.1c-1.8,0.1-5.2-0.2-7.8-3.1c-0.5-0.5-1.3-0.6-1.8-0.1s-0.6,1.3-0.1,1.8c2.3,2.6,5.5,4,9.1,4
			C65.7,145.4,65.9,145.4,66.2,145.4z"/>
	</g>
	<g>
		<path class="st4" d="M42.8,120c0,3,2.1,5.5,4.6,5.5c2.6,0,4.6-2.5,4.6-5.5c0-2.5-1.4-4.6-3.3-5.3c-0.6-0.1-1.3-0.1-2-0.2
			C44.5,114.9,42.8,117.2,42.8,120z"/>
	</g>
	<g>
		<path class="st4" d="M47.9,106.1c-2.8,0-5.6,1-7.2,2.7c-0.5,0.6-0.5,1.5,0.1,2s1.5,0.5,2-0.1c1.1-1.2,3.1-1.9,5.1-1.9
			c1.3,0,3,0.4,4.3,1.8c0.3,0.3,0.7,0.5,1.1,0.5c0.3,0,0.7-0.1,0.9-0.4c0.6-0.5,0.6-1.4,0.1-2C52.7,107.2,50.5,106.2,47.9,106.1z"/>
	</g>
	<g>
		<path class="st4" d="M84.9,106.2c-2.4,0.1-4.7,1.1-5.8,2.6c-0.5,0.6-0.4,1.5,0.2,2c0.3,0.2,0.6,0.3,0.9,0.3c0.4,0,0.8-0.2,1.1-0.5
			c0.5-0.7,2-1.5,3.8-1.6c1-0.1,2.9,0.1,4.4,1.7c0.5,0.6,1.4,0.6,2,0c0.6-0.5,0.6-1.4,0-2C89.8,107,87.4,106.1,84.9,106.2z"/>
	</g>
	<g>
		<path class="st4" d="M80.1,120c0,3,2.1,5.5,4.6,5.5c2.6,0,4.6-2.5,4.6-5.5c0-2.6-1.6-4.8-3.6-5.4c-0.9,0.1-1.7,0.1-2.6,0.2
			C81.4,115.6,80.1,117.6,80.1,120z"/>
	</g>
	<g>
		<path class="st5" d="M73.4,119.2c-0.3,0.7-1.1,1.1-1.8,0.8c-0.1,0-0.2-0.1-0.3-0.1c0.5,2.4,1.6,5.3,3.1,7.4c2,2.8,5.4,4.4,9.4,4.4
			c7.7,0,15.8-5.7,15.8-16.3c0-2.5-3.4-3.7-10.3-3.7c-0.2,0-17.6,0.1-18.3,5.3c0.7,0.1,1.3,0.3,1.7,0.4
			C73.4,117.7,73.7,118.5,73.4,119.2z M83.2,114.8c0.5-0.2,1-0.3,1.6-0.3c0.3,0,0.7,0,1,0.1c1.1-0.1,2.3-0.1,3.5-0.1
			c5,0,7,0.7,7.5,1.1c-0.1,8.6-6.8,13.3-13,13.3c-3.1,0-5.7-1.2-7.1-3.2c-1.7-2.3-2.9-6.3-2.9-8.2C74.3,116.5,78,115.4,83.2,114.8z"
			/>
	</g>
	<g>
		<path class="st5" d="M84.8,114.5c-0.6,0-1.1,0.1-1.6,0.3c0.8-0.1,1.7-0.2,2.6-0.2C85.4,114.5,85.1,114.5,84.8,114.5z"/>
	</g>
	<g>
		<path class="st5" d="M48.1,131.7L48.1,131.7c4,0,7.4-1.6,9.4-4.4c1.4-2,2.5-4.8,3-7.1l0,0c-0.2,0.2-0.5,0.2-0.8,0.2
			c-0.5,0-0.9-0.2-1.2-0.6c-0.4-0.6-0.2-1.5,0.4-1.9c0.5-0.3,1.1-0.5,1.9-0.7c-0.5-5.4-17.2-5.5-18-5.5c-4.8,0-7.4,0.6-8.9,1.3
			c-0.3,2.3-0.7,5.1-0.9,8.3C35.6,128,42,131.6,48.1,131.7z M46.7,114.6c0.2,0,0.4-0.1,0.7-0.1c0.5,0,0.9,0.1,1.3,0.2
			c5.3,0.6,9,1.8,9.4,2.6c0,2-1.2,5.9-2.9,8.3c-1.4,2-4,3.2-7.1,3.2c-6.3,0-12.9-4.7-13-13.3c0.5-0.4,2.6-1.1,7.9-1.1
			C44.3,114.4,45.5,114.5,46.7,114.6z"/>
	</g>
	<g>
		<path class="st5" d="M47.4,114.5c-0.2,0-0.4,0-0.7,0.1c0.7,0,1.3,0.1,2,0.2C48.3,114.6,47.9,114.5,47.4,114.5z"/>
	</g>
	<g>
		<path class="st5" d="M60.5,120.1c1.4-0.9,8.6-0.9,10.7-0.2c-0.2-1-0.3-1.9-0.3-2.6c0-0.1,0-0.2,0-0.3c-2.7-0.4-7.2-0.5-10,0.1
			c0,0.1,0,0.2,0,0.3C60.9,118.1,60.8,119.1,60.5,120.1z"/>
	</g>
	<g>
		<path class="st5" d="M71.3,119.9c0.1,0,0.2,0.1,0.3,0.1c0.7,0.3,1.5,0,1.8-0.8c0.3-0.7,0-1.5-0.8-1.8c-0.4-0.2-1-0.3-1.7-0.4
			c0,0.1,0,0.2,0,0.3C70.9,118,71.1,118.9,71.3,119.9z"/>
	</g>
	<g>
		<path class="st5" d="M58.6,119.7c0.3,0.4,0.7,0.6,1.2,0.6c0.3,0,0.5-0.1,0.8-0.2l0,0c0.2-1.1,0.4-2,0.4-2.8c0-0.1,0-0.2,0-0.3
			c-0.8,0.2-1.5,0.4-1.9,0.7C58.3,118.2,58.2,119.1,58.6,119.7z"/>
	</g>
	<g>
		<path class="st6" d="M33.6,99.7c-0.5-10.9-2.9-13.2,3.4-22.2s12.9-9.3,23.4-9.7h11.4c10.5,0.4,17,0.7,23.4,9.7s3.9,11.3,3.4,22.2
			c-0.4,8.2,6,1.3,1.1,25.3c7-8,8-16.5,8-23.7c0-18.6-6.1-35.1-23-41.2c-23.6-8.5-49.5-2.4-61.4,24.1c-4.7,10.4-4,32.6,0.1,43.3
			c5.7,14.9,10.5,19.3,11.9,20.4c-1.7-7.1-2.2-13.9-2.3-19.9c-0.2-1-0.4-2-0.6-3.1C29,102.1,34,107.9,33.6,99.7z"/>
	</g>
	<g>
		<path class="st6" d="M33.2,121.1c-0.6-1.7-0.9-3.7-0.9-5.8c0-0.5,0-1.6,1.8-2.5c0.6-3.9,1.2-6.3,1.2-6.5
			c-0.2,0.8,54.9-13.5,59-17.7c5.3,14.8,7.1,28.4,5.5,36.3c4.9-24-1.5-17.1-1.1-25.3c0.5-10.9,2.9-13.2-3.4-22.2
			c-6.4-9-12.9-9.3-23.4-9.7H60.4c-10.5,0.4-17,0.7-23.4,9.7s-3.9,11.3-3.4,22.2c0.4,8.2-4.5,2.5-1.1,25.3c0.2,1.1,0.4,2.1,0.6,3.1
			C33,125.6,33.1,123.3,33.2,121.1z"/>
	</g>
	<g>
		<path class="st7" d="M115.2,93.2V0H200v74h-41.5L115.2,93.2z M120.2,5v80.5L157.4,69H195V5H120.2z"/>
	</g>
	<g class="st8">
		<path class="st9" d="M120.2,5v80.5L157.4,69H195V5H120.2z"/>
	</g>
	<g>
		<path class="st7" d="M147.1,55.9H135c-2.8,0-5-2.2-5-5V22.5c0-2.8,2.2-5,5-5h12.1c2.8,0,5,2.2,5,5v28.5
			C152,53.6,149.9,55.9,147.1,55.9z M135,21.1c-0.7,0-1.3,0.6-1.3,1.3v28.5c0,0.7,0.6,1.3,1.3,1.3h12.1c0.7,0,1.3-0.6,1.3-1.3V22.5
			c0-0.7-0.6-1.3-1.3-1.3H135z"/>
	</g>
	<g>
		<path class="st7" d="M139.4,37.4l-0.6,2.4h-2.7l3.3-11h3.1l3.3,11H143l-0.6-2.4H139.4z M141,30.8l-1.2,4.8h2.3L141,30.8z"/>
	</g>
	<g>
		<circle class="st7" cx="141" cy="48.3" r="2.2"/>
	</g>
	<g>
		<path class="st7" d="M180.3,55.9h-12.1c-2.8,0-5-2.2-5-5V22.5c0-2.8,2.2-5,5-5h12.1c2.8,0,5,2.2,5,5v28.5
			C185.1,53.6,182.9,55.9,180.3,55.9z M168.1,21.1c-0.7,0-1.3,0.6-1.3,1.3v28.5c0,0.7,0.6,1.3,1.3,1.3h12.1c0.7,0,1.3-0.6,1.3-1.3
			V22.5c0-0.7-0.6-1.3-1.3-1.3H168.1z"/>
	</g>
	<g>
		<path class="st7" d="M178.6,36.6c0,2.5-2.1,3.1-4.8,3.1h-3.5v-11h3.1c2.9,0,4.7,0.7,4.7,2.8c0,1.4-1,2.2-2.1,2.4
			C177.4,34.3,178.6,34.9,178.6,36.6z M172.9,33.2h1c1.1,0,1.7-0.4,1.7-1.3c0-1-0.6-1.2-1.8-1.2H173v2.5H172.9z M175.9,36.5
			c0-1.1-0.7-1.6-1.9-1.6h-1.1v3h1C175.1,37.9,175.9,37.7,175.9,36.5z"/>
	</g>
	<g>
		<circle class="st7" cx="174.1" cy="48.3" r="2.2"/>
	</g>
	<g>
		<rect x="156.1" y="16.8" class="st7" width="3" height="39.9"/>
	</g>
</g>
</svg>
