<svg id="Layer_1" data-name="Layer 1" xmlns="http://www.w3.org/2000/svg" preserveAspectRatio="none" viewBox="0 0 1958 382.07"><defs><style>.cls-1{fill:#fff;}</style></defs><title>Tandemly_Web</title><path class="cls-1" d="M503.68,179.62c-.16-.17-.48-.1-.37-.68.18-.08.4,0,.54-.29a3.51,3.51,0,0,1-1.29,0C502.36,180.07,503.17,180.81,503.68,179.62Z"/><path class="cls-1" d="M483.13,201.26c-.53-.25-.95,0-1.2,1C482.39,202.2,483,203.08,483.13,201.26Z"/><path class="cls-1" d="M495.67,176.42a3.66,3.66,0,0,1-1.15.73C494.92,177.46,495.35,177.53,495.67,176.42Z"/><path class="cls-1" d="M489.9,205.58c.41,1.74,1.9.27.56,3.75,1.64,1.44,2.21,1.27,3.68,1.93.13-1.28.56-1.06,1-1,.65-1.11,0-1.18.69-2.3.76,1,.77-1.53,1.45-.94-.17.69-.15,1.05,0,1.22.05-.51.2-.53.36-.54.11,1.36.74-.63.62.72-.41.69-.44,1.17,0,1.21.29-.08.38-1.12.71-1.07.59.21,1.16.33,1.44-.94-.53.11-.75-.26-.51-1.31-.35,0-.71,0-.62-.72-1.49,1.11-3.62-.88-5.11.25l.33-1.77c-.42-.15-.65.62-1.09.4-.42.09-.31-.64-.62-.73-.28,1.28-1.08,0-1.58.31-.27.83-.2-.12-.49-.09-.21.5-.41,1-.72,1.08.11-.58-.21-.52-.37-.69-.72.65-.44-.16-1.33.36.43-1.76-.56-1.39-.89-2-.53.08-.87,1-1.31,1.58-.07-2.13-1.59-2-2.48-2.91-.31,2.64-1.26,2.21-1.89,3.29-.14-.36-.28-.69-.62-.73-.34,1.13.05,1,.27,1.26.52.8.4.36,1.22.23.26.86.52,1.71,1.48,1.49.36-.15.58-.95,1-1,.39.21.82-.87.73.14-.22.84-.77.06-1,1a5.44,5.44,0,0,1,2,1.59c.09-.69.25-1,.47-1.13l1,.19c.25-1,.67-1.25,1.2-1C489.52,206,489.68,205.69,489.9,205.58Z"/><path class="cls-1" d="M489.92,176.81l-.14-.16-1,0,0,.1A5.9,5.9,0,0,1,489.92,176.81Z"/><path class="cls-1" d="M467,222.52c.42-.3.11-.71,0,0Z"/><path class="cls-1" d="M464.91,223.95a5.56,5.56,0,0,0,.58-1.71c-.71-.42-1.11.65-1.69.89.28-1.27-.82-.42-1.11-.82-.31,1.11-1.12-.17-1.18,2.21,1,.84,1.41-.76,2.18-.81a2.73,2.73,0,0,0,.51,1.32c.38-2.42.32.17,1.09-.4C465.39,224.06,465.08,224.12,464.91,223.95Z"/><path class="cls-1" d="M476.6,203.67c.68.69.71-1.85,1.18-2.21C477.17,201.16,476.92,202.56,476.6,203.67Z"/><path class="cls-1" d="M465.29,224.63c-.29,1.76,1.11-.35,0,0Z"/><path class="cls-1" d="M467,222.52l-.73-.14C465.54,224,467,224.29,467,222.52Z"/><path class="cls-1" d="M467,223.73c.21-.09.48.07.6-.49C467.36,223.33,467.09,223.17,467,223.73Z"/><path class="cls-1" d="M481,221.54c-.11.6.29.83.49.09S481.33,221.23,481,221.54Z"/><path class="cls-1" d="M487.23,213c-.07.32.07.71.24,0C487.53,212.71,487.4,212.34,487.23,213Z"/><path class="cls-1" d="M487,214.16c-.2.3-.12,1.77.13.64C487.48,215.17,487.37,213.6,487,214.16Z"/><path class="cls-1" d="M487,216.61c-.06.32.07.69.25,0C487.35,216.33,487.22,215.94,487,216.61Z"/><path class="cls-1" d="M484.45,214.29a4.43,4.43,0,0,0,0,2.44C484.64,215.68,485.3,213.83,484.45,214.29Z"/><path class="cls-1" d="M487.87,214.94c.53.26.95,0,1.2-1C488.61,214,488,213.12,487.87,214.94Z"/><path class="cls-1" d="M488.43,212c-.31,0-.61.07-.71,1.08.44.22.66-.55,1.09-.39l.33-1.77C488.83,210.93,488.53,211,488.43,212Z"/><path class="cls-1" d="M478.4,202.19c.21-.09.49.07.6-.49C478.79,201.79,478.51,201.62,478.4,202.19Z"/><path class="cls-1" d="M480.69,200.79c-.21.09-.48-.07-.6.5C480.3,201.21,480.57,201.37,480.69,200.79Z"/><path class="cls-1" d="M480.31,221.4c-.06.33.07.7.25,0C480.62,221.13,480.49,220.75,480.31,221.4Z"/><rect class="cls-1" x="483.98" y="221.36" width="1.2" height="0.5" transform="translate(176.1 656.07) rotate(-79.2)"/><path class="cls-1" d="M480.11,202.51c.21-.09.48.07.6-.49C480.5,202.11,480.22,201.95,480.11,202.51Z"/><path class="cls-1" d="M459.27,228.36c.63.08.22.47,0,1.21.3,0,.41.21.38.68-.19-.16-.28.19-.35.54l.24,0c-.66,1.38.5,1.89.62.73-.24-.06-.05-.75,0-1.22.92-.38.33-1.07.8-2.88C460.18,227.37,459.8,225.61,459.27,228.36Z"/><path class="cls-1" d="M496.12,176.94a.74.74,0,0,0,.14.47A4.61,4.61,0,0,1,496.12,176.94Z"/><path class="cls-1" d="M471.36,237.95c.06-.32-.07-.71-.24,0C471.05,238.23,471.19,238.6,471.36,237.95Z"/><path class="cls-1" d="M399.37,218.8c-.06.33.07.71.25,0C399.67,218.53,399.54,218.15,399.37,218.8Z"/><rect class="cls-1" x="395.61" y="219.17" width="1.2" height="0.5" transform="translate(106.74 567.75) rotate(-79.25)"/><path class="cls-1" d="M401.49,228.93c.21-.1.48.08.6-.5C401.87,228.54,401.6,228.37,401.49,228.93Z"/><path class="cls-1" d="M443.59,236.31c.21-.07.48.09.6-.49C444,235.92,443.7,235.76,443.59,236.31Z"/><path class="cls-1" d="M424.28,238.13l.49.09c.11-.58.33-.65.47-1.13C424.84,237.07,424.4,236.85,424.28,238.13Z"/><path class="cls-1" d="M401,220.93c.29,0,.22.93.49.09C401.58,220.44,401.18,220.2,401,220.93Z"/><path class="cls-1" d="M396.16,223.67c-.06.33.07.69.25,0C396.47,223.4,396.34,223,396.16,223.67Z"/><path class="cls-1" d="M391.42,216.69c-.06.33.07.69.24,0C391.72,216.41,391.59,216,391.42,216.69Z"/><path class="cls-1" d="M459.31,230.79c-.91-.76-.38,1.74,0,0Z"/><path class="cls-1" d="M392.19,219.26l.22-1.18-.73-.14C391.46,219,391.67,219.36,392.19,219.26Z"/><path class="cls-1" d="M394.39,219.68c.46-.05,1.11.83,1.2-1C395.12,218.69,394.7,218.93,394.39,219.68Z"/><path class="cls-1" d="M392.44,219.31c.22-.1.48.09.6-.5C392.83,218.91,392.55,218.75,392.44,219.31Z"/><path class="cls-1" d="M391.91,216.78c.22-.1.48.09.6-.5C392.29,216.38,392,216.21,391.91,216.78Z"/><path class="cls-1" d="M456.87,230.33c.21-.09.48.09.6-.49C457.26,229.93,457,229.76,456.87,230.33Z"/><path class="cls-1" d="M454.67,229.91c.3,0,.67.24.84-.44C455.21,229.5,454.84,229.23,454.67,229.91Z"/><path class="cls-1" d="M468.45,238.61c.08-.72-.21-.41-.49-.09C467.85,239.11,468.25,239.34,468.45,238.61Z"/><path class="cls-1" d="M459.89,222.39c-.21.11-.49-.08-.6.49C459.51,222.79,459.78,223,459.89,222.39Z"/><path class="cls-1" d="M456.72,228.48c.5-1,1.46.26,1.8-1.48C457.85,227.3,456.38,226.75,456.72,228.48Z"/><path class="cls-1" d="M456.12,229l-.22,1.17.49.09c.18.16.27-.19.35-.54-.23-.06-.05-.76,0-1.22C456.5,228.55,456.36,229,456.12,229Z"/><path class="cls-1" d="M457.16,226.12c.33.39.23-1.18-.13-.64C456.83,225.79,456.91,227.26,457.16,226.12Z"/><path class="cls-1" d="M464.56,239.09l.49.09C466.36,239.6,464.83,237.42,464.56,239.09Z"/><path class="cls-1" d="M465.57,233.79c.06-.31-.07-.69-.24,0C465.26,234.09,465.39,234.47,465.57,233.79Z"/><path class="cls-1" d="M464,234.11c-.42.3-.11.72,0,0Z"/><path class="cls-1" d="M464.65,237.29c.11-.59.33-.66.47-1.13-.39,0-.83-.25-1,1Z"/><path class="cls-1" d="M464,234.11c.75,0,.23-2.48,0,0Z"/><path class="cls-1" d="M639.19,175.82c1-1.83-1.15-.92,0,0Z"/><path class="cls-1" d="M659,175.1c0,.33.28.66.32,0C659.33,174.78,659.06,174.46,659,175.1Z"/><path class="cls-1" d="M697.94,182.88c-.08-.29.66-.43.58-.59S697.21,182.19,697.94,182.88Z"/><path class="cls-1" d="M691.25,181.52c0,.95-1.27-.46-1.3.48.84-.09,2.17.77,2.7.08C692.07,182,692,181.39,691.25,181.52Z"/><path class="cls-1" d="M693.9,181.92c-.37,0-.87-.25-1,.19l1,.15.49.07C695.38,182.5,694.46,181.76,693.9,181.92Z"/><path class="cls-1" d="M701.74,180.37a1.85,1.85,0,0,0,.36-.28A.32.32,0,0,0,701.74,180.37Z"/><path class="cls-1" d="M701.51,180.46l.07-.43-.48-.07-.05.34a1.72,1.72,0,0,1,.33.19Z"/><path class="cls-1" d="M668.13,174.21c.24-.15.62,0,.61-.6C668.5,173.75,668.12,173.63,668.13,174.21Z"/><path class="cls-1" d="M663,172.65c0,.81.15,2.2.36,1.14C663.38,173,663.24,171.61,663,172.65Z"/><path class="cls-1" d="M660.78,173.39l-.06.1-.5,0c0,1,.4,1.2.39,2.19.77.2.65-1.08,1.55-.64a5.36,5.36,0,0,1,.24-2.31C661.82,172.85,661.43,173.34,660.78,173.39Z"/><path class="cls-1" d="M700.58,180.17h.07C700.86,180,700.64,179.89,700.58,180.17Z"/><path class="cls-1" d="M688.26,181.74l.72.11c.2,0,.48.07.53-.25l-.72-.11C688.59,181.52,688.31,181.42,688.26,181.74Z"/><path class="cls-1" d="M700.48,175.1l4.94.76a.46.46,0,0,0,.33,0,3.6,3.6,0,0,1-.06-.67A34.17,34.17,0,0,0,700.48,175.1Z"/><path class="cls-1" d="M695.77,182.55c.29,0,.68.16.77-.23C696.25,182.33,695.87,182.17,695.77,182.55Z"/><path class="cls-1" d="M497.61,215.56a5.65,5.65,0,0,1-.58,1.7c.65.12,1.38.6,1.69-.89C498.53,215.85,498.22,215.48,497.61,215.56Z"/><path class="cls-1" d="M740,179.81,740,180l.67,0A1.78,1.78,0,0,1,740,179.81Z"/><path class="cls-1" d="M739.64,182.47l-1.93-.3-1-.15c-.37,0-.87-.26-1,.18l3.85.59,1.92.29,1,.15.48.07c.19,0,.47.06.53-.25l-1.93-.3Z"/><path class="cls-1" d="M752,184c-.52,1,1.11,1.07,1.15.52A1.23,1.23,0,0,1,752,184Z"/><path class="cls-1" d="M700.16,182.88c.91.19,1.75.26,2.27-.33l-1.2-.18C701.25,183.3,700.12,182,700.16,182.88Z"/><path class="cls-1" d="M730.65,179.12a2.62,2.62,0,0,1-.54-.16h0l-.89-.14a3.29,3.29,0,0,1-1.48.35l-.45-.39c-.58,0-.61.46-1.36.4l-.46-.39c-1.08-.23-1.88.19-2.72,0a3.37,3.37,0,0,1-.62.05,2.16,2.16,0,0,0,.6,0c.52-.09.45.37,1.15.52.19,0,.44-.31.77-.23l.19.37.23.09a31.74,31.74,0,0,1,7.67.34l1.4,0-2.89-.44C730.89,179.5,730.79,179.29,730.65,179.12Z"/><path class="cls-1" d="M745.37,183.68c-.28-.09-.46-.67-.73-.11.27.57,1.19.49,1.88.63.47,0,2.34.59,1.73-.08Z"/><path class="cls-1" d="M705.74,183.4l.73.11c.2-.05.48.06.53-.26l-.72-.11C706.08,183.19,705.8,183.07,705.74,183.4Z"/><path class="cls-1" d="M703.38,182.7c-.29,0-.67-.16-.77.23l.72.11C704.17,183.4,704.3,182.58,703.38,182.7Z"/><path class="cls-1" d="M753.6,184.61c.2,0,.48.06.54-.26C753.93,184.39,753.65,184.29,753.6,184.61Z"/><polygon class="cls-1" points="710.05 179.61 709.92 179.61 710.01 179.67 710.05 179.61"/><path class="cls-1" d="M714.73,175.8a4.45,4.45,0,0,0-1-.12l-.38.1A8.14,8.14,0,0,0,714.73,175.8Z"/><path class="cls-1" d="M737.88,179.48l-1-.15c-.29,0-.67-.17-.77.21l1,.15C737.4,179.69,737.78,179.85,737.88,179.48Z"/><path class="cls-1" d="M502.39,210.38c.29,0,.22.94.49.09C503,209.9,502.59,209.67,502.39,210.38Z"/><path class="cls-1" d="M500.64,178c-.35.7-.41,1.23,0,1.62a5.42,5.42,0,0,1,.46-1.46Z"/><path class="cls-1" d="M499.08,215.84c-.63,1.79.11,1.5,0,2.44-.65-.1-1.42-.84-1.56,1.54.71-.94,2.07,0,1,1.4-.32-.07,0-1.08-.27-1.26-.15.45-.23,1.15-.47,1.13-1.2-.48-2.22-.15-3,1.24,1.2-.58,3,.7,4.48-1,.54-2.25.67-2,.43-3.58.3,0,.67.24.84-.43C500.3,216.49,500,215.63,499.08,215.84Z"/><path class="cls-1" d="M503.83,216.14c-.06.33.07.71.25,0C504.13,215.87,504,215.49,503.83,216.14Z"/><path class="cls-1" d="M503,215.37c.22-.1.49.07.6-.51C503.35,215,503.08,214.79,503,215.37Z"/><path class="cls-1" d="M504.75,206a2.87,2.87,0,0,1-2.33-1.06c-.37,1.58-1.22.86-1.66,2.13.51.47,1.91-.41,1.84.95-.47,0-.89.22-1.2,1,.59.2,1.16.31,1.58-.31-.2,1.38,1,.53,1.22.23.29-1.14-.11-1.23-.15-1.85C504.33,207,504.54,206.47,504.75,206Z"/><path class="cls-1" d="M494.23,224c-.3,0-.2-1-.62-.74A7,7,0,0,0,493,225c-.2,1.05.55-.17,1,.19,0,0-.17,1,.13.64a8,8,0,0,1,1.31-1.58l1.22.23c.13-1.64,1.07.64,1.2-1l-1.46-.28A10.87,10.87,0,0,1,494.23,224Z"/><path class="cls-1" d="M493.88,217.9c-.05.36-.09.7.13.63.17-.69.51-.57.84-.44.43-1.71,1.37-.94,1.91-2.08a.9.9,0,0,1-.87-.77c-.17.67-.51.57-.84.44a1.59,1.59,0,0,1-1.69.89c-.08.62-1.28,1-.58,1.73C493,217.78,494.08,216.49,493.88,217.9Z"/><path class="cls-1" d="M489.57,221.94c-.2.29-.12,1.76.13.63C490,223,489.94,221.39,489.57,221.94Z"/><path class="cls-1" d="M489.56,214l.73.14c.13-.89.5-2.14.2-2.39C490.27,212.94,489.68,212.41,489.56,214Z"/><path class="cls-1" d="M491.27,214.36c.42-.28.11-.73,0,0Z"/><path class="cls-1" d="M491.27,214.36c-.43.3-.11.71,0,0Z"/><path class="cls-1" d="M509.21,210.47c.12.2.66,1.64,1,.19C509.62,211.12,509.7,208.74,509.21,210.47Z"/><path class="cls-1" d="M516.29,178.61a2.14,2.14,0,0,1-.53,0c-.23.78.15,2.53.57,1C516.13,179.55,516.23,179,516.29,178.61Z"/><path class="cls-1" d="M528.39,180.37a.58.58,0,0,1,.24-.27V180A.4.4,0,0,0,528.39,180.37Z"/><path class="cls-1" d="M529.14,181.41c.21-.09.48.08.6-.49C529.53,181,529.26,180.85,529.14,181.41Z"/><path class="cls-1" d="M387.43,217.75c.35.22-.08,1.33-.33,1.76C387.91,220.69,388.26,215.25,387.43,217.75Z"/><path class="cls-1" d="M515.58,212.88c-1-.07-2-.72-2.53,1.36.83,1,1-1.13,1.69-.9.09.35.28,2.54.87.77C515.43,214,515.4,213.57,515.58,212.88Z"/><path class="cls-1" d="M639.19,175.82c.43,2.3,2.3.68,1.83-1.79C639.61,173.3,640.42,176.28,639.19,175.82Z"/><path class="cls-1" d="M506.76,182c-.07.34.07.72.25,0C507.07,181.76,506.93,181.37,506.76,182Z"/><path class="cls-1" d="M513.09,182c-.31.05-.68-.23-.85.45C512.55,182.42,512.92,182.69,513.09,182Z"/><path class="cls-1" d="M513.82,216.81c.83.79,1.06-.11,1.6.92C516.16,215.37,514.16,215,513.82,216.81Z"/><path class="cls-1" d="M513.86,219.25c.65.12,1.38.6,1.69-.89C515,218.82,514.29,218.34,513.86,219.25Z"/><path class="cls-1" d="M512.91,220.28c.41.11.71-.31,1-1C513.45,219.15,513.14,219.57,512.91,220.28Z"/><path class="cls-1" d="M713.74,184.29c-.56-.75-1.26-.1-1.69-.26l.05-.33c-.12-.32-1.72-.27-1.93-.3s-1.17-.48-1.49.11c.7.65.93.07,1.92.29.6,0,.43.68,1.15.52l1.93.3c.6-.12,1.68.68,2,0C715,184,714.78,184.61,713.74,184.29Z"/><path class="cls-1" d="M13.87,224.82c-1.48-.23-.33,1.05,0,0Z"/><path class="cls-1" d="M10.47,225.38c-.24.1-.6.1-.56.41C10.14,225.69,10.51,225.69,10.47,225.38Z"/><path class="cls-1" d="M.77,197.56c1.06.69.29-.94,0,0Z"/><path class="cls-1" d="M3.65,227.33c.24.2,1.47.22,1.46-.36C4.67,226.8,3.59,226.31,3.65,227.33Z"/><rect class="cls-1" x="9.13" y="225.94" width="0.43" height="0.52" transform="translate(-53.79 8.79) rotate(-13.83)"/><path class="cls-1" d="M6.59,228.5c-.25,0-.36.14-.36.35.68,0,.7-.44,1.19-.56C7.18,227.16,6.82,228.36,6.59,228.5Z"/><path class="cls-1" d="M9.68,226.66c.08.47-.67.33-.71.71a1.42,1.42,0,0,0-.75-.35c-.11-.29-.43-.12-.69-.11a1.42,1.42,0,0,0,0,.82c.28,0,.33.45.13.51l-.21.05c.66.81,1.14,0,1.67-.41a1,1,0,0,0,.9,0c.82-.49,1.81-.85,2.25-1.63C11.31,225.76,10.45,227,9.68,226.66Z"/><path class="cls-1" d="M32,222.26c.27-.06.37.25.68.1C32.89,221.65,31.83,221.78,32,222.26Z"/><path class="cls-1" d="M31.28,221.9c-.61.61-1.36-.09-1.81.71.4.22,1,.61,1.31-.05.1.56.77-.07,1.1,0C31.83,222,31.48,222.13,31.28,221.9Z"/><path class="cls-1" d="M28.57,222.57c-.67.37-1-.07-1.37-.2-.26.52-.56.09-1.19.56-.31,0-.46-.33-.75-.36.11.57-.86.33-1.19.57s-.53-.18-.9-.06c-.58.58-.81.14-1.67.41-.28,1.17-2.77.69-3.08,1.84a6.06,6.06,0,0,0,3.27-1.07c.68.38,1.92-.43,2.63-.11l3.76-.92a.52.52,0,0,0,.83-.2C28.87,222.69,29.1,222.43,28.57,222.57Z"/><path class="cls-1" d="M25.58,225.72c.24-.1.61-.1.57-.41C25.92,225.42,25.55,225.42,25.58,225.72Z"/><path class="cls-1" d="M12,228.79c.15-.1.41-.1.36-.36C12.17,228.53,11.91,228.54,12,228.79Z"/><path class="cls-1" d="M32.93,222.3c.27-.21,1.15,0,1-.5C33.29,222.08,32.91,221.4,32.93,222.3Z"/><path class="cls-1" d="M49.11,221.58c.52-.24,1.11-.41,1.34-.87C49.86,220.59,48.89,220.57,49.11,221.58Z"/><path class="cls-1" d="M1956,188.88a1.53,1.53,0,0,0-1.77.88l1.39.06a2.44,2.44,0,0,1-.78,1.9c.19,1.43,1.79,1.07,3.13,1v-2.33C1957.08,190.25,1956.69,189.4,1956,188.88Z"/><path class="cls-1" d="M12.41,225.18c0,.14.24.25.21-.05C12.58,225,12.38,224.88,12.41,225.18Z"/><path class="cls-1" d="M12.95,225.58c.08,1,1.24.74.83-.2Z"/><path class="cls-1" d="M15.85,225.69c.15-.1.41-.11.35-.36C16.06,225.42,15.79,225.44,15.85,225.69Z"/><path class="cls-1" d="M14.16,226.91c.15-.09.41-.11.36-.35C14.37,226.65,14.1,226.66,14.16,226.91Z"/><path class="cls-1" d="M14.83,225.12c.23-.1.6-.1.56-.41C15.15,224.82,14.79,224.82,14.83,225.12Z"/><rect class="cls-1" x="34.32" y="221.38" width="0.43" height="0.52" transform="translate(-51.59 14.52) rotate(-13.72)"/><path class="cls-1" d="M461.35,229.36c0-.89-.3,0,0,0Z"/><path class="cls-1" d="M466.14,238.78c-.08,1.63,1-.44,1.33-.36.1-.57-.21-.51-.38-.67C466.88,238.57,466.33,237.82,466.14,238.78Z"/><path class="cls-1" d="M328.83,213.31c-.42.29-.11.72,0,0Z"/><path class="cls-1" d="M467.9,228.16c.3,0,.41-1,.58-1.72C467.74,225.9,467.86,227.58,467.9,228.16Z"/><path class="cls-1" d="M529.84,221.68c-.76-.24-1.11,1.4-1.94.86-.21,1.3,1,.44,1.36.85-.28,1,0,1.17.26,1.28C529.62,223.43,529.19,222.64,529.84,221.68Z"/><path class="cls-1" d="M501.3,217.49c-.27,1,1.17,1.31,1.09-.41C501.79,216.89,501.83,215.81,501.3,217.49Z"/><path class="cls-1" d="M48,221.58c-.14-.36-.65.06-.75-.36-.69.24-1.74.22-2,.77a2.55,2.55,0,0,0-2.08.51,1.59,1.59,0,0,0,.75.35C45.75,222.33,46.28,222.1,48,221.58Z"/><path class="cls-1" d="M.67,227.79c.23.55,1.11-.26,1.38.2a1.74,1.74,0,0,0-.46-1,4,4,0,0,1-1.58.45v1C.31,228.33.09,227.76.67,227.79Z"/><path class="cls-1" d="M3.31,229.56c.59-.69.84-.56,1.82-.71.58-.19.75-.68,1.33-.87-.1-.42-.61,0-.75-.35a5.84,5.84,0,0,0-2.44.86c-.21-.72-1.38.57-1.58-.15A3.12,3.12,0,0,1,0,229v1.36A4.88,4.88,0,0,1,3.31,229.56Z"/><path class="cls-1" d="M43.15,222.5c0-.23-.14-.22-.27-.21C42.89,222.51,43,222.51,43.15,222.5Z"/><path class="cls-1" d="M1952.8,191.62a.24.24,0,0,0,0,.47l0,.49c.86.11,1.11-.71,1.77-.88.19-1-.18-1.28-.27-1.94-.67.18-.91,1-1.77.89C1952.54,191,1952.82,191.13,1952.8,191.62Z"/><path class="cls-1" d="M535.9,213.72c-.28,1,0,1.14.26,1.26C536.45,214,536.19,213.84,535.9,213.72Z"/><path class="cls-1" d="M279.09,200.84c-.3,0-.41,1-.58,1.71C278.82,202.49,278.92,201.52,279.09,200.84Z"/><path class="cls-1" d="M1797.14,191.23c-.58-.2-.67.35-.74.94A1.3,1.3,0,0,0,1797.14,191.23Z"/><path class="cls-1" d="M1931.29,191.67l-.69,0C1930.67,192.25,1931.27,192.15,1931.29,191.67Z"/><path class="cls-1" d="M1790.86,191.93l.69,0C1791.49,191.36,1790.88,191.45,1790.86,191.93Z"/><path class="cls-1" d="M1952.35,194c.08.64.85.42,1.37.53C1953.67,193.43,1952.84,193.4,1952.35,194Z"/><path class="cls-1" d="M1957.21,193.74l-1.73-.07c-.46,0-.36.83-.74.93l-1,0c-.24,1-2.27.51-2.06-.56-.82-.24-.79.83-1.75.39,0-.61-.42-.68-.29-1.45-.49.1-.43,1-.75,1.4-.78-.49-1.11-.09-2.4-.57a.23.23,0,0,0,0,.47c-.13,1-1.53,0-1.44,1.39-1.13-.58-1.19.09-2.4-.59-1-.4-.72,1.29-1.77.88,0-.47.3-.56.39-.94-1.18-.44-1.37.66-2.45.38a2.65,2.65,0,0,1-2-2c-.39.07-.56.5-.73.93-.17-.85-1.64,0-1.69-1-1.34.14-1.25.46-2.05-.58.12-.74.78-.29,1,0,.9-.52,2.38-.13,2.5-1.82.34,0,.39.4.68.5,1.37,0-.15.74.63,1.48.5-.1.62-.77,1.08-.92-.07-1.64-.91-.64-.25-2.42-1.07-.58-.87.72-1.42.9-1.07-.59-.92.11-1.71-.54-.35,0-.47.82,0,1,0,.63-1,.57-1,0-.34,1-2.2-.27-2.47.86.35,0,.4.41.68.52-.63.57-1,1.57-2.14,1.34a1.68,1.68,0,0,1,.08-1.92c-1.73.1-1.76,2.77-3.58,2.74a3.49,3.49,0,0,0-.27-1.94l-2.08-.09c.06.52.52,1.17.67.52,1,.44-.5,1.18-.1,2.38-.69.12-.66-.67-1-1-.67.17-1.5.12-1.45,1.38-.46-.13-.56-2-.69,0-.61-.29-1.43-.31-1.69-1-.28.08-.43.37-.39.94s-.63.41-.74.92c.07,1,1.52,0,1.75-.4.7,1.11,1.2-.35,2.42.1.48,1.91-1.5.1-1.45,1.38-.87-.48-1.92-.86-2.44.38-.42,0-.83.09-.73.93a2.31,2.31,0,0,0-3.81-.16c-1.59.13-3.79-.65-4.87.26-.86,0-1.67,0-2.05-.56-1.17.24-1.24,1.35-2.45.37,0,1.06.83,1.07,1.69,1-.64,2-1.28.9-2.08-.09-.81,1-2.21,1.07-2.54,2.78-.54-.84-2-.47-3.1-.62-.27.11-.68,0-.71.45-.41-.1-.76-.89-1,0-.3-.53-1.27-.22-1-1.49a78.49,78.49,0,0,1-8.7.59c-1,.31-.65-1-1.34-1-.67.34-.3,1.43-1.06.44-.38.45-.75.92-1.1,1.39-1.3-.32-2.9-2.44-3.79-.64-.45-.94-1.64-.94-2.36-1.55-.86-.12-1.11.71-1.77.89-3.3-.86-6-.4-9.71.07-1,.31-.65-1-1.34-1a3.78,3.78,0,0,0-2.42-.1c-.41-.09-1,0-1-.53a1.37,1.37,0,0,0-1.06.44c-.66.08-.74-.57-1.37-.54-1.07.88-1.68-.71-2.12.87a1,1,0,0,0-1.73-.07c-.26-.11-.68,0-.67-.51-.4-.09-1,0-1-.53a3,3,0,0,1-3.46-.15c-2.71,1.08-5.92-.91-9.35-.4a10.69,10.69,0,0,1-2.38-1.06c-.93-.39-.74.92-1.43.9l-3.46-.15c.12-.68.6-.79.76-1.41-2.06.26-2.75-.2-5.2-.22a1.42,1.42,0,0,1-1-.52c-.86-.12-1.1.72-1.77.89l-2.08-.09a1.44,1.44,0,0,0-1.42.9c-.49-.57-.85-.59-1.39-.06l-3.81-.16,0-1a10.24,10.24,0,0,1-4.44-1.64c-.62.42-1.86-.09-1.8,1.38-.44.21-.16-.82-.3-1l-.69,0-.32-.5c-1.33-.63-1-.22-2.08-.09-.46.07-.92-.1-1.38-.06a1.36,1.36,0,0,1-1-.52c-1,.55-2.06-.41-3.8-.16-.58,0-.25,1.32-.76,1.4-.29,1.43-.72-.48-1.39-.06.09-.56.57-.5,1.06-.43,0-.76-.86-.41-.63-1.47-1.42.52-2.47-1.38-2.79.37-.54-.07-.22-1.24-1-1l0-.49c-.69,0-.5,1.29-1.42.9,0-.49-.26-.58-.31-1,.27-.1.42-.39.39-1-1.32-.47-1.53.74-2.13,1.37-.85-.5-2.17,1.61-2.06-.58-.51-.1-1.29.12-1.36-.53-1.05-.4-.73,1.28-1.78.89a.53.53,0,0,0-.67-.52,1.3,1.3,0,0,0-.65-1c-.41.07-.41.75-.41,1.44-1.85-.22-4.3.3-5.15-1.18-.41.06-.41.74-.41,1.42-.27-.12-.39-.42-.31-1l-2.08-.09c-.28,1.54,1.22.71.27,1.93.74.34,1.16-1.31,1,.53l-1.39-.06c0-1.61-1.62-2.72-.5-4.35-1-.12-.87,1.41-1.79,1.37a1.32,1.32,0,0,1-.74.93c0,.75.87.41.64,1.46-1.11.51-.81-.79-1.34-1,.44-1.82-1.33-1.53-.22-2.9a1.77,1.77,0,0,0-1.75.41c0,.56.52.54,1,.52-.51.93-2.13.18-2.81.85,0-.86.39-1.11,1.08-.92.1-1-1.22-.26-1.71-.55-.9-.18-.35,1.84-1.44,1.38,0-.76.12-1.66-.63-1.47-.56.06.47,2.3-1.12,1.88,0-.49.3-.57.39-.95-1.21-.74-3.39-.24-4.46-1.15-2.06.57-4.78.88-6.23-.27-1.84.56-2.61-.33-4.18.29a1.29,1.29,0,0,0-.65-1,1.54,1.54,0,0,0-1.41.42c-.49-.29-1.81.48-1.71-.56-.28.08-.68,0-.71.45a1.42,1.42,0,0,1-1-.53l0-1c-.34,0-.29.57-.39.94-.37,0-.89.18-.37.47-.06.66-.9.46-.67-.51a12.08,12.08,0,0,1-3.82.32,5.55,5.55,0,0,0-3.09-.61c.57-1.55.82-1.17,2.11-.87,0-2.74-1.67-.55-3.07-1.1-.1-1.53.58-1.86.82-2.87-1.37-.38-2,.38-3.13.36a3,3,0,0,0,.28,1.47c-1.12,0-.83,2.14-2.48,1.33.45-1.24-1-2.12.42-1.91,0-.64-.58-.47-.65-1-.63.41-1.73.1-2.12.87.23,1.41.9-.59,1.73.07,0,.49-.3.57-.38.94-.79.34-1.39,1-2.46.86-.06-.95.51-.93.75-1.4a1.46,1.46,0,0,0-1.34-1,1.27,1.27,0,0,1,.2-.51c-7.66.23-15.69.47-24.72.47a2.08,2.08,0,0,0-.49.9l-1.46-.06c.17,3.86,2.48,4,4.77,4.15,2,1,6.62-2.67,5.71,3.32-3.35-.81-6.21-2.48-10.5-1.65.18,2.45,2.3,1.52,3.81,1.65-.4,3.7-5.05,1.31-5.72,0-6.73-.42-12.63-2.29-18.65-4-.42.67-1.12.92-1.09,2.29-.4-.1-.35-.78-.29-1.45-.42,0-.82.1-.73.93-.52-1-2.56-.09-3.07-1.09-.38.45-.74.92-1.1,1.39-.35,0-.39-.86,0-1,0-.79-.94-.3-1-1-.49-.14-.55-.82-1-1-1.5-.08-3.11-.29-4.17.31-.22-.93-1-.38-.28-1.47-.65-.07-1.29-.15-1.93-.24,1,3.65,5,2,6.58,4.6-2.58,5.22-5.36.31-10.5,1.65-6.12-3.18-14.3-2.78-20-6.64-5.76.13-9.11,1.7-14.06-1.52a3,3,0,0,1-1.59.37,11.15,11.15,0,0,0-6.92-.3c-.1-1.07-1.7-.26-2.4-.57-.27.1-.69,0-.72.44a4.83,4.83,0,0,0-2.75-.59c-.42-.07-.81-.18-.65-1-.4.09-.57.52-.74.94-.41.06-1-.13-1.06.43-1.62-.8-4.1.28-6.57-.28a2.36,2.36,0,0,0,2,1.06c-1,2.28-2.77-.59-3.77-1.13s-1.28.45-2.09.4c-.43-1.42-3.46.45-3.4-1.59-.5.09-.62.76-1.08.91-.6-.29-2.06.51-2.06-.56a2.3,2.3,0,0,1-3.14.34c-.38-1.53,3.06-1.2,1.12-1.86a1.94,1.94,0,0,1,1.79-1.38,3.5,3.5,0,0,1-.43,1.9c.05,1.16,1-.48,1.08-.91.53.81,1.47-.37,2.77.12a.52.52,0,0,0-.67-.51c.33-.7,1.15-.65,1.77-.88a.61.61,0,0,0-.33-.5h0c-.38,0-.78,0-1.17-.06a2.88,2.88,0,0,1-1.13,0c-.91,0-1.83,0-2.76.07a.65.65,0,0,0-.12.26,1.06,1.06,0,0,0-.24-.25c-1,0-1.9.08-2.84.08l0,0-.21,0a21.05,21.05,0,0,1-4.27-.34,3.85,3.85,0,0,0-.71.14c0-.11,0-.22,0-.31a8.4,8.4,0,0,1-2.76-1.25,4.3,4.3,0,0,0-4.77,1.65A18.81,18.81,0,0,0,1570,177l-.09.18a18.23,18.23,0,0,1-2.44.39,1,1,0,0,1,.24-.43c-6.58.6-13.59,2.71-20.86,1.3h-9.54c0-.19-.05-.34-.08-.48l-.66.1a3.82,3.82,0,0,1-.88.12l-.19,0a1.37,1.37,0,0,1-1.05.23h-.42a13,13,0,0,0-2.49.65,19,19,0,0,0-4.33.2c-4,1.36-8,2.62-12.79,2.49-2.38-.26-3,2.6-4.78,3.33-3.84-1.77-8.37-2.32-12.51-3.57-.46,0-.93,0-1.45.1-2.45.87-4.18.5-7.26,1.22a11.61,11.61,0,0,1-3.63-.38c-2.09.66-5.24.4-8.08.41-3.65.88-7.46,1.78-11.63,2.66-.61-1.41.79-1.18.22-2.56H1465l-.5.11,0-.09c-1.1.06-2.14.13-3.13.13l.06.15c.26.63,1,.2,1.61.15.27.82-.36,1.4.33,1.46.21.51.82.16,1,.8-1.65-.16-1.75.54-3.76.85-.57-.46-1.45-.25-2.36,0a2.45,2.45,0,0,1,.31-2.12c.79,0,1.15-.37.91-1.23-1.46.73-2.1-.32-3.49.27,1,2-.72,1.78-1,2.78.6-.32.79.22,1,.81-1.23.51-2.9.44-2.21-1-.6.33-.8-.22-1-.8,1.29-.25,2.66-.45,2.79-1.66l-4.89,1.1c-1.55.31-3.09.62-3.54,1.83,1.27-.38.33,1.65,1.94,1.6l-.44-1.94c.61-.09,1.38-.55,1.61.15.61-.09,1.38-.56,1.62.14-.6.44-2.34-.09-2.15,1,.36,1,3.73-.87,2.85.38l-8.27,1.87c-.75.16-.78-1.22-1.72-.64-.89-.12-.88,1.65-1.24-.23,1-.2.38-.46.16-1.06,1.07-.56,3.38-.1,3.65-1.33-1.5-.63-3.9.66-5.48.21-1.23-.09-.91,1.09-2.14,1-.86.42-1-.7-2-.06-4.09.93-7.74,1.82-10.63,1.9-3.6.5-7.86,2.4-11,2-1.83,1.52-5.55,1.48-8.16,2.36a1.62,1.62,0,0,0-1.24-.23c-4,.79-8.84,2.32-11.39,2.06-.68.09-.66.77-1.39.83-2.91-.73-7.45,2-10.37,1.32l-2.64.6c-.49.39-2.07-.13-1.78.91-1-.71-2.83.3-4.24.45l-9,2a2.24,2.24,0,0,0-2.9,1.16c.94.17,1.24,1.67,2.32,1.52a7.77,7.77,0,0,1,2-1.47c.93,1.48.69-1.22,1.77-.91A2.24,2.24,0,0,0,1370,202c.21.5.82.16,1,.8a1.56,1.56,0,0,0,1.24.24c1.93-.13,2.34-1.51,3.49-.28a2.34,2.34,0,0,1,.8-1.71c.29,1.06,1.64-.15,2.37,0,1,0,.62-1.07,1.77-.91.86-.4,1,.71,2,.06.67-.37.71-1.25,1.66-1.39,1.35.4,1.29-.18,2.64-.6.86-.4,1,.7,2,.06.61-.1,1.38-.56,1.61.14-.21.49-1,.52-.9,1.23.72.14,2.07-1.09,2.37,0-1,1.12-3.28.16-4.79,1.59-6.18.39-14.34,3.05-21,3.22-.71.46-2.61-.05-2.52,1.08-6.17-.08-10.33,2.67-16.17,3.66l-2.26.51c-.6-.14-1.81,1-2-.06,1.32.08.36-1.09-.22-1a1.37,1.37,0,0,0-.53,1.14c.64.12.13.5-.27.57-1.23-.09-1.26.81-2.15,1-3.54.41-7.28,1.87-11.66,2.63a1.56,1.56,0,0,1-1,.74L1303.71,220c-.84-.11-2.34,1.16-2.75.11.4-.27.76-1.07.16-1.06-1.76-.15-.87,1.92-2.3,2-2.66.41-5.76,1.78-8,1.3l-12,2.72a1.57,1.57,0,0,0-1.24-.23,58.84,58.84,0,0,0-12.19,3.78l-8.65,2a1.81,1.81,0,0,1-1.39.83l-3.76.85c-1,0-.62,1.07-1.77.91l-4.14.94a1.61,1.61,0,0,1-1,.75l-5.64,1.27c-4.92,2.63-10.12,3.41-15.47,5-1.46,1.43-5.09,1.06-6.55,2.5l-5.64,1.28a1.61,1.61,0,0,1-1,.74l-7.52,1.7c-.61-.15-1.82,1-2-.06.59-.19,1.49-.1,1.4-.83-.29-.23-2-.74-1.88.42-1.79,0,.88,1.2-.91,1.23l-2.63.6-1.13.26c-.45,0-.32-.44-.11-.48.71-.47,2.6,0,2.52-1.08-.86-1-3.22,1.14-3.71-.7a76.07,76.07,0,0,0,9-2c-.56-.5-.56-.92.15-1.06a5.71,5.71,0,0,1,3.11-.19c.16-.8,1.05-1,1.67-1.4,1.23.1.92-1.09,2.14-1,1.13-.51,1.53.58,2.74-.11,5-2.19,11.75-3,16.59-5.29.75-.16.78,1.22,1.72.63-1-1.91,1.93-.51,1.55-1.88,1.67.14,2.9-.92,5.27-1.19,0-.74.34,0,.75-.17a1.61,1.61,0,0,1,1-.75c1.23.1,1.26-.8,2.15-1l2.26-.51c.58-.18,1.48-.09,1.39-.82-1.28-1-1.91.74-3.38.76l-4.89,1.11a18.82,18.82,0,0,1-7.3,2.66c-1.46,1.44-5.1,1.07-6.55,2.51a18.92,18.92,0,0,0-7.78,2.27c-2.71-.91-4.51,1.37-7.52,1.7a9.37,9.37,0,0,0-3,.68,12.15,12.15,0,0,1-3.5.28c-3.65,1.39-7.11,1.1-11.39,2.07a29.89,29.89,0,0,0-5.59-.27c-.31.4-.14,1.21-.91,1.22.09-2.35-1.76-.54-2.05-2.08,1.75-1.77,4.51-.66,6.28-1.93a1.81,1.81,0,0,0,1.61.15l2.26-.51c.59-.17,1.49-.09,1.39-.83-.86-.79-3,1.12-3.34-.78,1.31-.67,1.8.46,3.12-.19a2.08,2.08,0,0,1,1.77-.91c.31-.4.14-1.2.92-1.23l6.39-1.44c.42-.36.45-.89.91-1.23s1.56.05,1.4-.82c-4.23.27-10.64,1.92-15.75,2-1,0-.62,1.08-1.77.91-.75.16-.78-1.22-1.72-.64,0,.75-.34,0-.75.17-1.68.68-2.42-.15-3.38.76-.79-1.19-3,.68-3.45-1.26.58-.33,1.36.13,2,.06s.53-.65,1-.74l.48.4c1.09.1,3.71-1.33,5-.62l2.63-.6c.49-.38,2.07.13,1.77-.91.77-.46.75.81,1.35.72a1.1,1.1,0,0,0,.91-1.23c-1.35-.72-3.61.53-5.38.71-2.59-.22-5.58.43-8.22.33-1.55,1.07-3,.35-5.26,1.19-2.55-.86-4.39.89-7.09.07-.39,1.45-2.26,1.5-3.13.19.8,0,1.16-.36.91-1.23-1.83.31-3-.68-5.11.13-.61-.12-1.11-.5-1.72-.63-1.32.66-1.8-.46-3.12.19-.75-.3-2,.47-2.21-1-.48-2,2.26-.65,2-1.49-1.5-1.35-4.17-.18-6.08-.67l-1.88.42c-.94-.62-2.55.18-3.34-.78,6.18-1.26,11.71.59,15.26-2.43.17,1.06,1.38-.08,2,.06.64-.12.89-.58.9-1.23a1.09,1.09,0,0,1-1.34-.72c1.49-.62,2.79-1.38,4.29-2a12.3,12.3,0,0,0,2.85.38c.34-.79,1.53-.86,2.52-1.09,2.41,0,5.87.38,8-1.29,1.28,1.38,1.88-.23,3.6.2l3-.68a1.84,1.84,0,0,0,1.62.15l4.14-.94c.81.67,2.29-.12,3.49-.28.13-.55.75-.7.42-1.63a1.56,1.56,0,0,1,1-.74c.59.09,0,.43.22,1a1.54,1.54,0,0,0,1.23.23c.33,0,.49.4.87.31,1.17-1.31,2.4-.36,3.87-.37.31-2,3.9-1.26,4.93-2.64.45.23.64,1,1.35.72.7-.74-1.21-3.64.85-3.26,1.27.23-1,.71-.42,1.63l5.64-1.27c0-.74.34,0,.75-.17.85-.36.32-1.85,1.55-1.89a68.38,68.38,0,0,0,10.68-3.44c.46.23.64,1,1.35.72s1.08.12,1.62.14c0-.4.27-.56.16-1.05.67-.37.71-1.27,1.66-1.4,1.16.17,2.45,0,3.61.21.43-.7.6-1.61,1.55-1.89a.58.58,0,0,0,.64-.66c3.1-.65,3.67-1.35,6.28-1.93a7.58,7.58,0,0,0,3.87-.36c.38.27.55.59,1,.8s.84-.07,1.24.23c.33-.78,1.53-.85,2.52-1.08.75-.17.18-1.43,1.29-1.32a13.74,13.74,0,0,0,4.78-1.59,6.63,6.63,0,0,1,3.49-.28c.08-.93.67-.22,1.13-.25-.56-1.65,2-.74,1.92-2-.72-.13-2.07,1.09-2.36,0,.83.09.69-1.14.16-1.05-.85-.05-.56.85-.42,1.62-1.11.7-.88-1.49-1.83-1.11-.08.92-.67.22-1.12.25-1.85.47-2-.06-3.38.77-1.36.32-3,.39-3.17,1.73a7.58,7.58,0,0,0,3.87-.36c1.55.21,2.06-1.81,2.74-.1l-4.51,1c-.57,1-.49.06-1.51.34-.61.09-1.38.55-1.62-.15.39-.27.76-1.08.16-1.06-.45.86-3.14.71-4.3,2-.53-1-2.15.29-3.12.19-1.31,1.16-3.88,1.27-5.91,1.84-1.47.25-3.22,1.12-4-.12,1.81-.62,3.56-1.29,4.07-3-.61-.63-1.69-.22-1.94-1.61-1.1.69-1.33-.5-2.1-.55-1,.59-1-.8-1.73-.63-.4.85-1.38,1.23-1.44,2.37a3,3,0,0,0-2.42,1.57l.44,1.95c-1.41,1.12-.53-2.72-1.94-1.61.75,1.11.15,1.57.82,1.86.55.49,1.27.64,1.3,2.27-2.27.49-4.66.89-6.28,1.92a1.83,1.83,0,0,0-1.62-.14L1207,210.2c-.59.17-1.48.09-1.39.82-.86.41-1-.7-2-.05-4,2.32-6.92,3.19-12.45,4.34-.62.8-3.68,2-4.25.45q1.26-.15.8-1.71c1.54-.67,1.89,1.24,3.34.77,1.24.11.42-1.49,1.66-1.39.83-.5,2.86,0,2.9-1.17-1.22-.05-3.1,1.35-3.87.36,1.18-1.29,2.49,0,3.16-1.73-.7-.67-2-.1-2.59-1,.06,1.84-2.35-.54-2.14,1-1.2.4-1.95-.18-2.33-1.53.42-1.31,1.44-2.13,2.79-1.65-.33-1.2.25-1.64.2-2.6,1.34-.35.54-2.46,2.19-2.55a3.41,3.41,0,0,0-.06-2c1.41.51,1.42-.43,3-.68.2-1.73,1.15.81,2,.07.31-.4.13-1.21.9-1.23a1.8,1.8,0,0,0,1.61.15c-.45-1,.57-.85.43-1.62,1.42-.28,1.2.3,2.26-.51.55.7,1.25.88,1.61.15-.16-1.58-1.91.24-1.94-1.61.9,0,2,.82,1.28-1.32a23.59,23.59,0,0,0,4.78-1.59c1.13,1,1.47.29,2.74-.11-.19-.55-.11-.88.16-1.06a1.1,1.1,0,0,0,1.34.72c0-1.7.65-.4,1.77-.91,2.52-1.65,4-1.87,7.67-2.75,1-.14,1-1,1.66-1.4.8,1.09,1.49.57,2.36,0,.86.32,1.8.48,2.32,1.52-.83-.08-.69,1.13-.16,1.06,1-.08-.13-2,1.18-1.81-.62-1.43.82-1.16.2-2.6.92-.28,1.34.5,2.1.55s.54,2.22,1.83,1.11c-.28-.61-.83-.61-1.08-1.28s.35-1.4-.33-1.45c-4.22.63-8.73,2-13.12,1.43-1,1.67-2.11,1.16-4,1.42-.9-2.19,2.84-.55,2.68-2.14-2.54-.32-5.66.59-8.23.33-2.25.78-5.57.67-7,2.09-.17-1.07-1.38.08-2-.05a1.8,1.8,0,0,0-1.62-.15c-1.13.12-.91,1.36-2,1.48s-2.69,1-3.49.29c-.7,1.14-3,1.17-4.14.94-.75.17-.18,1.43-1.29,1.31,0-1.36-1-.76-1.46-1.2a2.09,2.09,0,0,0-2-.06c-.89-.08-.33,1.05-.91,1.23s-1.38.55-1.61-.15c1.61-.27-.18-.75-.33-1.46a7.16,7.16,0,0,1,4.89-1.1,7.43,7.43,0,0,1,2.48.46c.6-.43,2.34.09,2.15-1-.72-.63-2,0-3.11.19-.75.16-.78-1.22-1.73-.63-1.64.91-3.26-.61-4.14.93-.27-.64-1-.19-1.61-.15-.27-.63-1-.19-1.62-.14a6.43,6.43,0,0,1-4.51,1c-.11-3.9,4.07-.84,6.92-2.59a7.46,7.46,0,0,1,2-1.48c.92-.28,1.34.51,2.1.55.85-.35.32-1.84,1.56-1.89.26.63,1,.19,1.61.15,0,.6.26.77.55.81s.77-.07.82-.38l.75,0c.49-.35.81-.84,1.74-.82,1-.27,1.92-.53,1.55-1.88-.69.1-.66.78-1.39.83-.21-.5-.83-.16-1-.8l-.05-.13h-1.33c-.7.54-.29,2-1.78,1.86a3.8,3.8,0,0,1,.06-1.85h-.92a1.35,1.35,0,0,1-.11,1c-1-.47-1.13,1.58-1.5.34a2.09,2.09,0,0,0-2-.06c-.89.19-.92,1.09-2.15,1-.11-.47-.54-.27-.86-.32-1,.17-1-1.78-1.94-1.6l-1.51.34c-.64.29-.87-.29-.49-.41a6.42,6.42,0,0,1,.79-.21l-.18-.08h-.9a.78.78,0,0,0,0-.54c-.37-.42-1.33.4-1.85.27a2.47,2.47,0,0,0-.4-.14c.09.31.29.52.84.41-.65,1.17-1.77-.51-3.18,0,.28-.3.31-.5.18-.62l-.29,0-1.51.34a12,12,0,0,0-2.85-.38l-.09,0c-.35,1.21,1.45.53,2.3.7h.45c-.05.88-1.93.18-2.72.41a3.32,3.32,0,0,1-2.28,0,2.73,2.73,0,0,0-1.8.4,8.38,8.38,0,0,0-3.19-.38l-.45.4c-.62,0-1-.41-1.36-.39-.31.39-.1,1.23-1,1.12a1.81,1.81,0,0,0-.68-.73l-.12,0a3.14,3.14,0,0,1-1.6-.26c-.49.18-.54.73-1.19.78-1.21-.75-3.45.73-4.43-.48l-31.37.16,1.72.26c.69,0,.3,1.19,1.34.88-.17.64.23.71.33,1.07,1.86,0,4.21-.55,5.54.85-.87.91-2.75-.17-3.57.81.14,1.06.89-.24,1.45.22l3.85.59c.21.91.08,2.17.55,2.81-.16.85-.91.54-1.54.44,0,.77,1.51.18.56,1.1,0,1.2-.87.45-1,.19a4.63,4.63,0,0,1-2.46,0,3.45,3.45,0,0,1-2,0c-.62-.34-.59.59-1.06.52a3.79,3.79,0,0,0-2.56.63c-.1,1,1.11.75,1.83,1a4.54,4.54,0,0,0,2.46,0c0,.5.53.39.91.48-.07.73-.87,0-1.25.14l-1.44-.22a31.06,31.06,0,0,1-3.09.89c-.75.08-1.48-.39-2.22,0,.6,1.13,1.84-.13,2.89.44a.94.94,0,0,0,.77-.23l5.05.77c.68.17.91.76,1.59.93-.3.72-1.37-.08-2,0a1.27,1.27,0,0,1-1.26.15c0,.73,1.43.54,1.68.26.95.55,2.74.17,4.33.66.3-1.34-1.44-.59-2.07-1-.37-.16.09-.47.54-.26.64.38.69-.37,1.26-.15l1,.15c.75.55,2.31.28,2.2,1.71-3.37.49-7.36-.21-10.66.41a13.84,13.84,0,0,0-5.69.15c-.81.26-.5-.62-.86-.82-.58,0-.37,1.45,0,1.37.7.35.93-.21,1.49-.12,1.7.13,3.71.88,5.11.45-.25,1.09-1.47.31-2.27.33,0,.76,1.17.31,1.63.59,0,.41.24.25.48.07a1.1,1.1,0,0,1,.91.48c.34-.06.53-.4,1-.19.79,0,.83.87,1.45.22.26,1,2.25.15,2.55,1.07-.07.73-.88,0-1.26.15l-1.69-.26c-.63.35-1.69-.11-2.27.33l-2.41-.37c-.47.24-1.29-.21-1.36.82-.46-.26-.32-1.08-.91-.48l-1.68-.26c-.62-.35-.59.58-1.07.51a3,3,0,0,0-2.7-.07c-1.27,0-2.93-.82-3.9-.26.06,1,.3.43.91.49.45-.14,1.35.61,1.5-.12a1.25,1.25,0,0,0,1.15.52,1.11,1.11,0,0,0,1-.19c.19-.85.34.53,1,.15-.1.39-.44.3-.78.23.44,1.09,1.61,0,2.41.37.15-.72-.83-.29-1.15-.52-.72-.4.49-.37.77-.22l1.45.22a6,6,0,0,1,2.94.1c-.1.39-.44.31-.78.23,0,.5.53.39.91.48-.12.49-.63.22-1,.19.07.78,1.33.33,1.88.62.43-.46,1.28-.1,2,0-1.28,1.38-3.72.51-5.55.85.14.94,1.26.19,1.69.26l1.44.22a.17.17,0,0,1-.05.34l-1-.15c-.67.41-1.88-.21-2.51.29a10.45,10.45,0,0,0-5.69.15c-1-1-2.18,0-3.61-.55-.1.85.7.78,1.34.89.53-.13,1.52.65,1.74-.08.55.19.89.8,1.44.22-.15.71.83.28,1.15.52,1.25-.1,1.45-.57,2.7.07-.23,1.42-2.06-.29-2.55.63l-1.45-.22c0,.39.32.42.67.44-.07.73-.87,0-1.25.15-.44-.14-.59.3-1,.19a3.33,3.33,0,0,0-2.7-.07c-.46,0-.47-.46-.91-.48-1.08-.07-1.59.93-2.81.59.15.94,1.26.19,1.69.26,0,.4.32.42.67.44-.14.74-1,0-1.5.11,0,.5.54.4.91.49.64.37.7-.38,1.26-.15l3.61.55c2.37-.8,5,1.49,7.27.77.72-.17.55.57,1.15.52l2.17.33c.71.12,1.47.19,1.29,1.22-3.78-1.44-8.06-1-11.9-1.14,0,.7,1,.25,1.1.85-.05.34-.49.36-.48-.07-.86-.37-1.12.41-2,0a6.09,6.09,0,0,0-4.63-.36c-.63.13.31.95,0,1.7a3.83,3.83,0,0,0-3,.22c-.15.71.83.28,1.15.52.59.13,1.15.23,1.5-.11a3.92,3.92,0,0,0,2.12.66c-.42.49-1.24.18-1.6.78a40.07,40.07,0,0,0-6.79-.7c-.08.73,1,.29,1.4.54a.17.17,0,0,1-.05.34l-.73-.11c-.77.12-.82-.48-1.39-.56-.3,0-.21.35-.1.67a1,1,0,0,1-.67-.44c-1,.69,1,.64,1.1.85l-.58.59c.44.21.29,1,1.1.85-.07.73-.88,0-1.25.14-.09.74,1,.3,1.39.56a.17.17,0,0,1,0,.33l-1-.15c-.62-.05-1,.34-1.17,1.19-.53-1.26-1.56-.27-2.55-1.08-2.67-.16-4.81-.26-7.56-.47.14.79,1.5.36,2.12.67.64.59.86-.15,1.39.55,1.7.13,3.71.88,5.1.44.19,1.24-.85.07-.87.89a4.62,4.62,0,0,0-3.18-.15c-.6.06-.43-.68-1.15-.51a1,1,0,0,0-.77.22c-.29,0-.67-.16-.77.22-1.67-1-3-.32-4.73.3l-1.68-.26c-.47-.28-1.64.16-1.63-.59-1.14.66-2.69.53-4.24.37,0,.51.53.39.91.48l1.45.22a6.66,6.66,0,0,0,2.59.74c0,1.23-1,.32-1.55.45l-2.17-.33c-.29,0-.67-.17-.77.21-.68-.81-2.63-.33-3.27-1.18.24-1.16.77,1,1-.19.31-.88-1.17.07-.86-.81a1.28,1.28,0,0,1-1.45-.22l-4.33-.66a1.22,1.22,0,0,1-1.25.15c.24.69-.18,2.06.95,1.85-.12.49-.63.22-1,.18s-.91,0-.92-.48c-.34.34-.91.24-1.49.11a.94.94,0,0,0-.78.22c-1.25-.14-2.68-.63-3.66-.23-.15.72.83.29,1.15.52-.45.71-1.7-.14-2.45,0l-2.65-.41c0,.77,1.17.33,1.63.6l1,.15c.36.16-.1.47-.53.26a1.09,1.09,0,0,0-1,.18,16.7,16.7,0,0,0-3.13-.48c-1.27-.18-2.56-.48-3.85-.59-.47,0-.69.16-1.25.15-.06,0-.12-.44-.43-.41l-.05.33-.49-.07c-1.17-.11-2.25-.4-3.37-.52a1,1,0,0,0-.77.22l-3.13-.48c-.72-.11-1,.74-1.6.78-.62.37-.77-1-1-.15-.56.48-.3-.08-1-.15-.49.33-1.41-.15-1.79.41-.17-.1-.24-.32-.14-.71-.28-.1-.69,0-.67-.45-.88.59-2.68-.61-3.28.53-.08.75.67-.34,1.2.18.7.35.93-.21,1.5-.11,0,.47.47.46.62.77,1.76.47,4.2.24,5.49,1.19.52-.56.67.56,1.06-.51.72.91,2-.37,2.31,1-3.38.19-7.06-1.27-9.92-1.18.39-1-.44-.68-.86-.82,0,.4.33.42.66.45-.17.95-1.6-.54-1.78.4-.44-.21-.5-.81-1.1-.85a6.1,6.1,0,0,0-2.51.29c-.78.06-.86-.93-1.25.15-.69.15-.38-.74-.86-.81-.32,0-.31.54-.58.59-.73.17-.55-.56-1.15-.52a4.57,4.57,0,0,1-2.46,0c-.49.33-1.41-.15-1.78.41-.5-.44-1.42-.43-1.82-1-1.32.3-2.15-.82-3.24.19-.52-.3-1.35-.89-1.92-.3,0,.76,1.17.31,1.63.58.88-.14.85.65,1.63.6-.17.65-1.86.79-1-.15-.39-.2-.69.4-.72-.11l-4.81-.74c-2.59.56-6.42-1.27-9-.7-4.32-1.62-8.67-.4-14-1.81,0,.76,1.17.31,1.63.59l4.33.66c.54.29,1.82-.15,1.87.62a9,9,0,0,1,5.3.81c.56.23.62-.52,1.25-.14,1.56.59,2.82.28,4.81.74a1,1,0,0,0,.77-.23c2.1.73,4.18-.25,5.59.52a3.49,3.49,0,0,1,2,0c-.1.39-.44.3-.77.23,0,.76,1.16.32,1.63.59-.64.77-1.88.38-3,.22.12-.48.63-.2,1-.18-.11-.72-1.62-.61-1.93-.3-2.17-.14-3-.43-4.92-.07l-2.65-.41c-1.09-.37-1.52.23-2.16-.33-.9.16-.6-.06-1.5.11-1.93-1-4.38-.7-6.21-1.29-.53.12-1.52-.66-1.73.07-.24-.5-1-.49-1.64-.59-.47-.27-1.64.17-1.63-.6a1,1,0,0,0-.78.23c-1.87-1-4.83-.91-7.17-1.45-.85-.48-.81.72-1.54.45,0-.26.09-.65-.14-.7-10.58-2-20.25-2.29-30.29-3.27.16-1,1.2-.26,1.6-.78a4.38,4.38,0,0,0,3.18.14l5.3.81c0-.5-.54-.38-.92-.47l-1.44-.22c-2.86.14-6.37-1.75-8.67-1.33l-.29.29c-.63-.1-1.07-.83-1.64-.58-6.52-.11-14.3-2.07-21.38-1.92a1.09,1.09,0,0,1-.91-.48c-3,.3-6.66-.88-9.92-1.18-.71-.53-.35,1.05-1.06.52.06-.35,0-.86-.19-.37a1,1,0,0,1-.67-.45l-5.77-.89c-.47-.27-1.65.17-1.63-.59-.34.06-.54.41-1,.19-.32-.23-1.3.2-1.15-.52-.61.54-1.8,0-2.7-.07-2.66.05-3.86.27-6.07-.58.22-.73,1.21,0,1.74-.08.15-.71-.83-.27-1.15-.52l-1.45-.22c-4-1.67-8.51-1-12.09-1.51,0,.5.54.4.91.49l1.45.22,1.2.18c.32.23,1.31-.2,1.15.52l-2.65-.41L879,205.2a1,1,0,0,1-.67-.44c-3.36-.54-5.27,0-8.29-.59a1,1,0,0,0-.77.22c-3-.63-5.32,0-8.28-.59-1.52.65-4.14-.85-5.64-.18l-2.65-.41c.57,1.32,3.23,1.05,4.28,1l-.05.33c-1.12.55-3-.29-4.38-.33-1.67.64-4.46-.92-6.12-.26l-3.85-.59c-1.67.64-4.46-.91-6.12-.25a34.24,34.24,0,0,0-5.83-.55c.06-.9,1.3.52,1.12-.86-.14-.79-1.5-.36-2.12-.66-.78-.34-2.3.08-2.59-.74a.94.94,0,0,0-.78.23c-.45-.08-.5-.36-.91-.48-1.63-.48-4.8-1.14-6-.92-.69.12-.43.08-1-.15-1-.44-1.8.07-2.46,0-.44-.09-.5-.34-.91-.48a9.88,9.88,0,0,0-2.41-.37l-.29.3c-.65-.1-1.21-.86-1.87-.63-.3,0-.58,0-.58.59-.48,0-.41-.52-.62-.77-.49.46-1-.56-1.55.44-1.87-1-4.83-.9-7.17-1.43-.77.5-2.25-.35-3,.22-1.63-.65-4-.38-6.74-1-1.89.62-5-1-6.84-.36l-3.13-.48c-.8.36-1.21-.29-1.68-.26l0,.33-.48-.07c-3-.25-6.8-1.46-9.68-1.14,0-.44-.34-.37-.67-.45l-.19-.36c-.45-.1-.58.25-1,.18-1.34-.68-1.91-.41-3.32-.84-.29-.09-.56-.19-.38-.74l-1.21-.19c0,.5.54.4.91.48-.8.91-1.27-.19-2.27.33l-3.85-.59a1.12,1.12,0,0,0-1,.19c-.77.13-.62-.69-1.39-.56a1.25,1.25,0,0,0-1.25.15c-.68-.68-1-.23-1.68-.26-.92,0-.88-.58-1.2-.18-.5.6-2.27-.66-2.35-.71-.45.57-1.58-.2-2,.37a7.48,7.48,0,0,0-2.41-.37c-.42.2-.74-.5-.91-.48s0,.38-.29.29a13.86,13.86,0,0,0-2.6-.73c-.4,0-1.13-.48-1.49.11a2.1,2.1,0,0,0-2.16-.33.37.37,0,0,0-.44-.4c-1.52-.42-3.71-.18-4.76-1.07-.38,0-.32.82-.82.55.56-1.12-.79-.32-.57-1.1-4.82-.54-9.09-1.64-13.66-2.44,0,.5.53.39.91.48l1.44.22a1,1,0,0,1,.67.44l2.89.44a1,1,0,0,1,.67.45l3.61.55.72.11c.28.09.69,0,.67.44l-1-.15-1-.15a1,1,0,0,0-.77.23c-2.62,0-4.7-1.57-6.69-1.37-2.22-1-5.45-1-8.13-1.58-.59-.42-2-1-2.65-.41C698.56,182.78,692,183,683.53,182L683,182c0-.27.1-.66-.14-.7a60.84,60.84,0,0,1-11.17-1c-.69-.19-.86.63-1.55.44-.59,1-.92-.54-1.1-.85.61-.68,1.85-.13,2.56-.63l1.68.26a1,1,0,0,0,.78-.22l2.41.37a1,1,0,0,0,.77-.23l2.4.37c.63-.34,1.68.12,2.27-.33l1.93.29c5.87-.63,10.2.32,16.14.8h0a.39.39,0,0,1,.39-.35c-.77-.33-1.43-.72-2.25-.3.14-1,.88-.89,1.6-.78l2.41.37c0-.41.05-.8-.38-.74.18-.77,1.08,0,1.2.18,1.17.23,2.58.23,3.42.8h2.24a1.59,1.59,0,0,0,.1-.46.53.53,0,0,0-.36-.17c-2.88-.42-5.24-.84-7.46-1.14a17.53,17.53,0,0,0-3.13-.48l-.29.3c-.22,0-.14-.35-.19-.37l-.29.3c-.3-.13-.29-.35-.67-.44s-.58.26-.78.22l-.19-.37a2.89,2.89,0,0,0-1.2-.18c-.18,0-.27.29-.29.3-.19,0-.21-.37-.19-.37-.94-.08-1.49.22-1.69-.26-.27-.67-2.37.11-2.65-.41a16.33,16.33,0,0,0-3.16-1.15,1.33,1.33,0,0,0-.38.31c-1.13-.91-1.65.55-2.57-1.06-.18,1.14-1.76-.07-1.85,1.22-.46-.09-.34-1.33-.4-2.25l0,0c-.4.19-.47.95-.86,1.16-.72-.13-1.18.2-1.22,1.2-.81,0-1.14-1-1.64-1.66-.59.09-.15,1.9-.88,1.75-1.2.15-.13-.47-.38-1.71-1-.48-.6,1.51-1.19,1.76-.39,0-.76-.13-.67-1.13-.91-.44-.79.84-1.56.64l0-1.15,0-1.15c1.18.13,2.29.63,3-.4a9.63,9.63,0,0,1-5-.49c-.32,2.63,1.17,1.65,1.11,3.8-1,.06-1.54,1-2.82.68-1.15.23-1.19,2.32-2.77,1.84-.33-3,.09-4.15-1.15-5.73-.53.55-.63,1.83-.5,3.48-.37.83-1.66.1-1.17,2.36-.91-.46-.79.84-1.56.63a5.29,5.29,0,0,0-.4-2.29,1.87,1.87,0,0,1-2.83.1c-1.13.55-1.39.62-2.2.08,0-1.07,1-.39,1.21-1.19-.29-1.27-1.16-1.41-1.65-2.25-.53.55-.63,1.83-.51,3.47-.42,0-.32-1-.67-1.12-.83-.13-1.34.25-1.19,1.76-.4,0-.47-.72-1-.54-.78,1.47-1.18.42-2.14,1.82l-4.41.16c-.09-.44,0-1.14-.36-1.15-.46-1.84,1-.47.54-2.33-.81-1.89-2.58,1-3.17-.45a2.69,2.69,0,0,0-.9,1.18c.33,1.68,1-.39,1.58-.06-.88,1.69.82,1,.74,2.86-.78.11-1.53.15-1.62-1.11a2.83,2.83,0,0,0-.88,1.77c-.86-1.82-1.42-.41-2.52.09-.12-1.18-1.39-.11-1.62-1.09-.39.25-.62.77-.56,1.75-.47-.09-.34-1.38-.4-2.31-1.45-.44-.63,2.91-1.79,3a45.52,45.52,0,0,1,.11-5.76c1.23-.2,1.24,2,2.58,1.63.39-.24.62-.75.57-1.74-.27-1.73-.65.57-1.26,0a1.34,1.34,0,0,1-.26-.91c-.87.21-1.75.44-2.68.71a16.25,16.25,0,0,0-3.18-.7c-.49.38-.54,1.48-1.1,1.73-1-.72-1.62-.52-2.19.67-.71.19-1.18-.09-1.3-1.1-.54,0-.79.48-.9,1.18-.85-1.51-2.86-.7-3.91-1.8l-1,.07a.57.57,0,0,1-.48.2.65.65,0,0,1-.53-.16c-.64,0-1.32,0-2,0-.23.23-.35.64-.23,1.46-.92.19-1-1.26-1.94-1.08a1.39,1.39,0,0,0-1.53,1.2c-.44-.77-1.39-.51-2.22-.48a1.39,1.39,0,0,0-1.22,1.2c-.43,0-.7-.24-1-.55,0-.75-.57-.51-.67-1.12-.92.74-2,1.22-2.81.68-.58.1-.13,2-.54,2.32-.58-.49-.86-1.58-1.93-1.08-1,.9-3.49,2.38-4.41.16-.6-.11-.67.67-1.24.61-.46-.3-1.6.73-1.59-.51a1.37,1.37,0,0,1-1.55.62c-1.59-.41-1.88.16-3.78.14a1.17,1.17,0,0,0-.92.61l-2.52.09c-.59.15-.72-.62-1.28-.53a1.27,1.27,0,0,0-1.24.62c-.94.41-2.74-.63-3.12.69-.54.06-.83-.4-1-1.12-.44.17-.49,1-.9,1.18-.75-.15-1.22-.86-2.22-.49-.7.62-1.89.44-2.48,1.25-.84.44-.67-1.12-1.3-1.11-3,.18-6.5-.46-7.79,2.59-1-.37-.62-3.28-1.7-3.39-1.28-.52-.89,1.75-2.17,1.23-.08-.4-.05-1.18-.35-1.13s-.13.37-.3.58c-.78,1-2.81,1.59-3.15.11-.27.63-1.15.23-.88,1.77-1.36-2.75-4.45,1.3-4.83-2.72-1.11.32-1,2.63-2.43,2.4l-.06-1.72a1.39,1.39,0,0,1-1.6-.53c-1.55,1.19-4.05-1.07-5.31,1.35-.57.58-1.11-1.68-1.26,0-.57-.49-1-1.35-1.64-1.66-1.54.85-2.22-.16-3.42,1.28-.85.45-.68-1.13-1.31-1.1l-1.7.06,0,.17-.51,0c-.27.54,0,1.94-.84,1.57-.51.1-.7-.46-.87-1a1.79,1.79,0,0,1-.3.8c0,1.31.89,1.16,1.13,2,.22-.1.38-.44.47-1.13.69.92,2-1,2,.37-.08,1.8-.74.94-1.2,1-.62.38-1.12,1.36-1.93.85,0,1.63,1.27.24,1.71.32.59-.07.89.31.75,1.35.32,0,.48-.69.84-.45-.17,2.19-1.17.41-1.55,1.53-.34,0-.49-.37-.62-.73-.29-.39-1.39.45-1.11-.82-.93,1.28-1.35-1.45-2.31.17-.47-.25-.17-1.67-.64-1.94-.79-.43-1.41,0-2.06.21.23-1,0-1.41-.51-1.31.26-1,.67-1.27,1.2-1,.48.61.67-.16.92-.65-.53,0-.8-.43-1-1.11-.61.08-1.2.13-1.47-.46a4.92,4.92,0,0,1-.59,1.23c-.25,0-.2-.54-.37-.69-.24.48-.57.27-1,0a3.22,3.22,0,0,1-1.46.14,2.53,2.53,0,0,0,.39,1.32c.41.21,1.33-.36.75,1.36-1.09.26-1.08-1.15-2.08-1,.27-1.27.05-1.81-.29-2.16-.77.7-1.32.2-1.95.23a6.68,6.68,0,0,1-.34.83c-.3,0-.67-.24-.84.44-.42,1.62,1.41-.2,1,1.4.63-.71,1.5-.29,2.17-.8-.32,1.76,1,1,1.14,2,1.26-.17,1.42,1.34,2.44.46-.25.82-.48.94-.33,1.75.24.07.38-.4.59-.48.77.09-.32-2.43.45-2.34,1.19-.23-.68,1.55.51,1.31a5.59,5.59,0,0,1-.58,1.7c.81-.56,1.47.19,1.73,1.56,1.43-1.21,2.25.66,3.66.7,0,2.16-.9.2-1.07,1.63-.16-.74-.74-.83-1.36-.87a1.9,1.9,0,0,0,1.87,2.17c-.4,2.28.49,2.59,1.51,2.71l-.33,1.76c.08,1.82,1.4,1.77,2,2.81,1.16-.53,2.66,1,4.39.83.35-.17.64-.66.82-1.66l1.71.33c.48-1.84-1.17-.45-.53-2.54.16.73.74.84,1.36.88l-.33,1.76c.49-.26,1.3,1,1.57-.32.73,1.48,1.88-.58,2,1.6-.23,2.27-1.29.52-1.93.84l-2.2-.42a2.94,2.94,0,0,1-2.56.14c-.21.07-.37.42-.46,1.12-.3-.11-.2-.82-.62-.73-.37-.32-.79.75-.74-.14-.48-.08-.61,1.54-1.19,1,.59-2.29-1.21-.94-1.73-1.54a4.08,4.08,0,0,0,2.37,3.5c-.07,1.77.72,2.25,1.15,3.26-.64,1.72-.72-.81-1.46-.28.31,1.61.76,3,1.17,4.46.47,0,.89-.24,1.2-1,.74-.31.27,1.27.75,1.36-.28,1.29-1.08.06-1.58.31.13,1.34,1,1.6.55,3.75-.44-.22-.66.56-1.09.4-.12.88.49.65.87.77a1.88,1.88,0,0,0,1.38,2.09c-.13,1.45.67,1.49,1.13,2-.11.58-.33.66-.46,1.13.16.17.47.11.38.67a1.61,1.61,0,0,1,1.48,1.5c1-1,2.27-.38,3.26-1.2.54.3.74,1.09,1.6.9.25.08,0,.8-.36.55l-1-.19c-1.26.3-2.46.9-3.88.47-.36,1.94,1.27.86,1.38,2.08-.79,1.71-1-.89-2-.37.18-1-.62-.44-.51-1.31-.53.84-1.35.28-2.07.23.25-1.09.9-.21,1.21-1-.23-1.05-1-1.31-1-2.62-.34-.18-.94,0-.86-.77-.44-.21-.67.56-1.09.4.12-.87-.49-.65-.87-.77-.16-1-1.08-.86-1.13-2-.72-.43-1.06.9-1.82.27a1.63,1.63,0,0,0,1.24,1.45c-.56,2,.85.93.18,3.07.58-.05.89.32.75,1.37.82-.13.8,1,1.25,1.44a5.86,5.86,0,0,1-.58,1.72c.2.53.51.9,1.11.81a7.23,7.23,0,0,0-.2,2.39c1,0,.62,2.12,2,1.59-.27,1.52.92.83.17,3.09-1.69-.32-2.24.36-4.26-.2.14-1.17.55-1.11.83-1.68.08-.71-.21-.41-.49-.09-.38.08-.6.89-1,1a49.8,49.8,0,0,1-6.37-2.44c.28-1.29,1.08,0,1.58-.31l1.71.32c.21-.09.48.08.6-.48a1.61,1.61,0,0,0,2.44.46c-.12.75.16.87-.09,1.81.61-.08.85-2,1.56-1.53a4.73,4.73,0,0,0-.42-3.12c-.33,0-.42,1-.71,1.07-.46,0-.43-.53,0-1.21,0-1.62-.46-2-1.24-1.45.58-1.85-.64-1-.65-1.94-.56.36.31,2-.53,4.14-.19-.53-.51-.89-1.11-.82-.79.73-1.23,3.09-2.4,2,.55-.74.83-2.75,1.67-2.12.52-.88,1-1.73,1.53-2.74.11-1.75-.24-.74-.86-.77-1,1.94-1.49.13-2.8.07a3.17,3.17,0,0,0-.39-1.91c-.38.11-.53,1.25-.83,1.68-.27-.16-.09-1,.09-1.82a2.72,2.72,0,0,1-.51-1.31c.16-.93-.54-.57-.15-1.84.49-.63.75-.58,1,.19l-.33,1.75c.6-.07.92.27,1.11.83.71.3,1.31-1.7,1.58-.32.47,0,.53-2,.94-2.26l.73.14c.62-.23-.12-1,.58-1.7l.73.14c.18-1.88-.5-.9-1.11-.82,0-.47.21-1.16,0-1.23-.83-.63-1.31.51-2.06.21.11-.58.33-.66.47-1.13-1.3.45-1.69-.09-3.28,0,.11-.59.33-.66.47-1.12-1.23-.53-2.11-1.24-3.42-.65-.29,1.26.82.42,1.11.81.54.31.74,1.12,1.6.92-.58,1.35-1.61.53-2,2.66-.71-.7,0-1.37.45-2.36-.67-.55-1,.43-1.58.32.11-.72.19-1.42-.27-1.27a8.57,8.57,0,0,1,.8-2.89c-.22-.92-1.39-.08-1.93.85-.6-1.11-1.27-.52-2.19-.42-.82.36.39,1-.2,2.39-.54-.94-1.11-1.8-2-.37.25,1.31,1.49,1.07,1.86,2.19-.21.86-.69.42-1.09.4.08,1.82,1.93,1,2.35,2.27-.21.86-.69.43-1.09.4l-.73-.14c-.14.44-.23,1.16-.47,1.14-.36,1.38,1.17-.13.39,1.9-.43-.87-.47,0-1.11-.83-.42-.1-.71.34-1,1-.33-.61-.44-1.56-.88-2-.3.06-.45.89-.58,1.73-.2-1.49-1-1.63-1.71-.32-.29-.13-.54-.3-.26-1.27-.69-.29-1,1.18-1.69.9.21-2.45.48-2.38,1-5.29.3-.79,1,.1,1.2-1,.17-.87-.21,0-.24,0-.34-.08-.49-.36-.62-.72l-1.47-.28c-.5,1.85.73,1-.2,2.4-.38,1.54,1.48-.3.64,1.94l-.73-.14c-.37.08-.53,1.24-.82,1.67-.21.09-.49-.07-.6.5-1.62-.18-2.26-1.85-3.57-2.5a8.59,8.59,0,0,1,.8-2.9c.62.18-.08,2.37.53,2.53.68-.12,1.07-1.61,1.8-1.47.14-1.05-.17-1.42-.76-1.36a5.78,5.78,0,0,1,1.78-2.71c.12-1.15-.86-.64-.29-2.48-.81-.13-1.68-.57-2,1.43,0-.32-1-1.09-.26-1.26.09-.83-.41-.76-.51-1.31.76-1.25,2.11.38,2.91-.66-.33-2.08-1.37-.48-2.58-1.09-.87.26-.94,2.58-1.29,2.79-.18.83.58.81,0,1.21,0,.93.37,1.38,1,1.41-.31,1.51-1,1-1.69.91-.58,2.85.72.88.89,2a4.34,4.34,0,0,1-1,2.85c-.23,1,0,1.42.51,1.3-.25,1.52-1.72,1.65-.86-.78.1-.83-.22-1.05-.16-1.84-.39,0-.86-.37-1.09.4.24,0,.2.54.38.69-.55,3-.79.64-1.8,1.48-.37,1.39.2,1.36-.31,3-.21.1-.48-.08-.6.49-.44,2.57,1.3-.48.65,1.94-.61.09-1.1.76-1.82.27-.64-.06-.79,2.23-1.42,2.17-.46-.07-.43-.56,0-1.23-2.46.56-5.14.05-7.53,1,.09-.68-.26-.7-.62-.72.09-1.82.74-.94,1.2-1-.39-2.54-2.53,2-2.93-.56.25-1.81,1-1.07,1.55-1.53,0-1.84-1,.48-1.46-.28-.47,0-.53,2-.93,2.26-1.07-1.1-2.18,1.36-2.56.12.46-.74,1-1,.34-1.77-.42-.16-.68.48-.82,1.68a3,3,0,0,0-1.07,1.61c-.56-.54,0-2.84-.31-3.71-.42.25-.78.76-1.2,1-2.6-.52-5,.08-7.68-.85-.35.17-.64.64-.82,1.66-.21.86-.69.42-1.09.4.16-1.13.52-1.23.69-2.29-.66-.57-1,.41-1.57.3.11-.6-.06-.74,0-1.21-.52.83-1.35.28-2.06.22-.63-.39-.64,2.13-1.18,2.2-.15,1.34,1.29.27,1.24,1.46l-.11.58c.41.23,1.33-.35.76,1.36,3,.4,4.87,1.85,7.68.85.88.75,2.28,1.51,3.42.65l-.22,1.18c.9.59,1.5-.3,2.31-.18.39,0,.47-1.44,1-1a11.54,11.54,0,0,1-.92,3.49c-.51.08-.33-.9-.51-1.32-.79-.42-1.41,0-2.06.22s.12,1-.58,1.71c-.26-.31-.35-.85-.16-1.85-2-.71-4.61.89-6.1-1.16a2.63,2.63,0,0,0-1,1c-.19,1-.74.2-1,1-.22-.79.05-2.3-.18-3.07-.59-.22-.93.77-1.45.94s-.92-.28-1.11-.82c-.39,1.12-1.33-.41-1.69.89-.25-.18-.25-.72-.27-1.26-.3.78-1-.1-1.2,1-.32-.06,0-1.07-.27-1.26-1-.35-1.09.58-1.71-.32-.3,0-.44.86-.58,1.71-.16-.17-.19-.55,0-1.21-.3.06-.51.57-.71,1.07-.34,0-.48-.37-.62-.73l-.33,1.76c.93.68,2.19-.41,2.44.46.44.22.66-.55,1.09-.4l-.22,1.17c.37-.09.53-1.24.82-1.66.26.16.09,1-.09,1.8.8.09,1-2.55,2-1.43-.25,1-.67,1.26-1.2,1-.14,1.05.16,1.42.75,1.36a5.82,5.82,0,0,0-.09,1.82c.53.26.94,0,1.2-1l.49.09c-.34,2.86-1.72.76-2.27,2.63-.28,1.25.82.42,1.11.83,1-1.66,1.56-.18,2.42-.76.52-.1.33.88.51,1.32.36-.54.71-1.06,1.07-1.63,1.29.34,1.61,1.16,2.69.51.28.12.54.29.27,1.27.3,0,.44-.87.58-1.71l1.22.23c-.1.65-.53.84-.22,1.17-.53,2.44-1-1.34-1.43,2.16-1.86-1.71-4.23-.43-6.19.64a3.88,3.88,0,0,0-4.24,1c-.44-.16-.74-.54-.75-1.36-1.42.65-1.82-.82-3.64.52l-1.22-.23c-1.63.63-4.2,2.07-5.6.16-.92,0-1.34.67-1.95-.37-.6-.62-.79.71-1.33.36-.68-.77-1.95-.67-2.47-1.68-.91,0-1.09.62-1.7-.32-.5.23-1.07.09-1.44.94-.19-.55-.51-.9-1.11-.82-.33-.1-.59.17-.84.45-.28-.15-.71,0-.63-.73-.3.78-1-.08-1.2,1-.26,0-.18-.66-.37-.68-.76-.13-1.38.86-1.6-.91.44-1.29,1.42,0,2.07-.21a2.26,2.26,0,0,0-.15-1.86c-.13,1.63-1.07-.63-1.2,1-.58-.1-.53-1.14-1.35-.87-.5.25-1.07.11-1.44,1-.15,1.33,1.16.46,1.6.91-.71,2.32-1.13-.41-2.31.17l.45-2.36c-.61-.29-1,.67-1.18,2.22-1.08.6-1.28-.42-2.42.76-.82.14-.66-1.23-1.6-.92.19-1,.74-.21,1-1,0-1.84-1,.47-1.46-.28-.46.15-.09.77-.33,1.77-1-.34-1.33.73-2-.37-.64.32-1.35.28-1.93.84l-1.71-.32c-.5.25-1.3-1-1.58.3-.33-2.27-1.82-.1-2.71-1.73-.39,0-.47,1.47-1,1,1.13-1.37-.3-2,.44-2.34.14-.78-.32-.63-.26-1.26-.59-.2-1.07.1-1.45.94-.16-.86-.95-.78-1.6-.91-.9.62-.86-.65-1.69.9-.29-.26-.3-.94-.86-.78-.3,0-.44.88-.58,1.71-.7,1.82.29-2.33,0-2.44-1,1.16-1,.53-2.07.21a1.62,1.62,0,0,1,1.69-.89c0-2,.53-2,1-4.07-.59-.21-1.07.11-1.44.94-.58-1-1.44-.38-2.31.18l-1.71-.32c-.33-.09-.59.18-.84.44-.42.27-1.13-.91-1.34.36-.75-1.44-1.27-.92-2.57-1.1-.84.11-1.54.88-2.42.77.11-.6.33-.67.47-1.15-1,.06-.19-2.5-1.38-2.08-.54.06-.56,2.57-1,2.85-1-.34-1.34.74-2-.37.35-1.3,1.3.23,1.69-.91.14-1.93-1.38-.45-1.51-2.71-.32,0-.48.69-.84.45.11-.58-.06-.74,0-1.21a4.75,4.75,0,0,0-2.31.17c.37-1.4-1.18.12-.4-1.89.78-.35.47.94,1.11.81.62.32.4-3.33,1.18-2.2.48-1.34-1.6-.65-.74-.14-.81,2-.08-1.78-1.11-.81-.24.56-1.76,2.36-.69,2.3-.29,1.18-1.1-.08-1.31,1.57-.71-.18-.11-2.34-1.13-2,.73-1.79,1.33,1,1.83-.27a8.71,8.71,0,0,0,.31-3c-.6-.6-.79.71-1.33.36-.41-.06-.45,1.61-.83,1.68-.22,1.16-.81.62-.93,2.25-.33-.2-.23-1-.51-1.31a7.76,7.76,0,0,1-3.69-1.92c-.41-.12-.7.32-1,1-.72-1.72-1.69-1-3.2-1.83-.14,0-.37.43-.11.58-.37.83-.95.7-1.44.94-.39,0-.47,1.47-1,1,.11-.72.19-1.4-.27-1.26.32-1.49,1-1,1.69-.89,0-2.16-1-.3-1.73-1.54-.29.08-.77.85-.47,1.13-.55,1.11-1.33,1.1-2,1.44.17-2.19,1.19-.29,1.42-2.16,0-1.91-1.36.57-1.36-.87l-.67,3.52c-.81-.6-1.63,1.19-2-.37.24-.72.54-1.15,1-1,.15-2-.4-.37-1.11-.81-.87-.49-1.37-1.54-2.11-2.23q-.76-.32-1.06,1.63c-1.14-.83-2-.84-3.79-1.33-.59-.56-.71,1.08-1.2,1-1.12-1.09-2.34.1-3.06-1.18-.69-.29-1,1.18-1.69.89-.21.09-.37.43-.47,1.12-.29-.12-.54-.28-.27-1.26a5.36,5.36,0,0,1-2.42.75c-.29-.12-.54-.28-.27-1.26-.35.18-.64.66-.82,1.66-.26-1.38-.89.39-1.11-.82-.33-.08-.59.18-.84.44-.62-.95-1.75,1.19-1.71-.32-.31.06-.45.89-.58,1.72l-1.22-.23c.24-1.1.88-.24,1.07-1.63-1.36.62-3.07-.47-4.11,1.67-.26-.31-.35-.86-.15-1.86-.18.14-1.22,1.29-1-.19-.33-.09-.59.18-.84.44-.69-1.24-1.38.67-1.48-1.5-.56.24-.82,1.67-1.09.41-.37.1-.52,1.23-.82,1.68-.18-1-1.15-.76-1.84-1-.73.24-1.8-1.11-2.31.18a2.84,2.84,0,0,1-.5-1.33c-.49-.08-.62,1.57-1.21,1,.07-1.35-1.33-.49-1.84-1-.33-.08-.59.18-.84.46a.93.93,0,0,1-.86-.78l-3.18-.6c-.27-.15-.71,0-.62-.73-.18.15-1.22,1.29-1-.19-.38.09-.6.91-1,1.05-.63.12-.32-1.18-1.1-.83-.37.09-.52,1.24-.82,1.68-.44-.46-1.74.41-1.6-.91.72.43,1.07-.91,1.82-.26.24-3.1-1.09-.28-1.48-1.52.09-1.81.74-.93,1.2-1,.44-.52.78-1.49,1.31-1.57-.47,2.24.16.25.62.72.41-.08.41-1.25.33-1.75.4-.17.54-.62.73.14-.07.66.19.36.25,0,.3,1,.32,0,1,.19a5.89,5.89,0,0,1-.58,1.7c.16.17.19.55,0,1.21.44.23.66-.55,1.09-.4s.54-1.9,1.07-1.62c0-2.16.9-.2,1.07-1.62.16.17.19.54,0,1.22-.45,0-.74.9-.93,2.24,1,.4,1.9-2.09,1.6.91.49-.63,1.18-.29,1.42-2.15.27.14.09,1-.09,1.8.37.43,1.34-1.52,1.22.23.37-.08.52-1.22.82-1.66.17.17.19.55,0,1.22.61-.43,1.46.26,1.67-2.11.33.6.31,1.76,1.24,1.45.11-.73.19-1.4-.26-1.26.17-.68.5-.57.84-.44.41-1.48.71-2,.31-3-.61.23.12,1-.58,1.72-.26-.31-.35-.85-.15-1.86-.31,0-.75,1-.73-.14-.47,0-.89.24-1.2,1-.18-.82-.75-.93-1.22-.23a13,13,0,0,0-5.35.21c.42-1.61-1.42.2-1-1.42-.25,0-.38.42-.6.51-.77-.69-.59-.2-1.35-.88-.75.45-2.31.75-2.69-.51-1.41.61-3.75-.16-6-.51-.33-.1-.59.18-.84.44-1.89-1.92-3.51.11-4.77-1.51-.33-.1-.59.18-.84.44-1-.83-2.32.68-2.69-.51-.58.28-1.38,1.35-1.57.31-.3,0-.44.87-.58,1.71-.45,0-.47-.69-.15-1.85-.8-.69-1.5.79-1.71-.33-.63,1.08-.12.75-.45,2.34-.78-.37-1.53-1.68-2.31.17-.47-.25.42-2.59.07-3-1-.31-1.61,1.66-2.31.17-.24,0-.38.43-.6.5-.38,1.81-.05,3.41-.89,4.68-.46-.27-.43-1.3-.64-2-.4,0-.48,1.47-1,1l.33-1.76c-.7-1-2.65,1.12-2.08-1-.38,0-.49,1.37-.69,2.29-.56,1.85-.12-1.09.09-1.8-.72-.43-.9,1.69-1.69.9l.22-1.18c-1.11-.59-1.87.45-2.44-.46-.54-.34-.38,2.71-1.07,1.62.84-1.25.51-2.88.89-4.68.92-.78-.26,3.66.75,1.36.17,1.27,1.81.31,2,1.59.66-1.74-.06-3.46-.64-1.94-.66-.53.47-1.22.45-2.35.22-1.31-1-.45-1.35-.88-.19.7-.34.32-.49-.09-.17.69-.5.57-.85.46-.42.24-.78.75-1.2,1,0,2.79-1.48,3.86-2.86,3.09.29-.84.64-1.4.93-2.24.46-.06,1.11.83,1.2-1-.17-1.51-1.59.53-2.44-.46-.33-.09-.59.18-.84.44-.6.09-.91-.28-1.11-.81-.37.08-.52,1.23-.82,1.66-.46.05-1.11-.83-1.2,1-.27-.15-.09-1,.09-1.8l-2-.37c.3-1.46.81-1.74.56-3-.43-.22-.66.57-1.09.42s-.47,1.46-1,1c-.13.75.16.87-.09,1.8-.35-.65-1.15,1.6-1-.18l-.25,0c.56-2.11-1.38,0-2.09-1-.65-.18-.67.86-1-.19-.3.07-.5.57-.71,1.07-.82-1.83-2.09-.63-3.8-1.33-.52.85-1.36.23-1.66,2.11-.33-.2-.23-1-.51-1.31-.57.26-1.46-1-1.82.26-.25-.17-.26-.7-.27-1.26-.32-.06-.42,1-.71,1.07s-.48-.37-.62-.72l-2.19-.42c-.31,0-.68-.23-.84.44-.16-.87-.95-.77-1.6-.91.16-1.23-.83.74-.51-1.31-.27-.11-.54.78-.49-.09-.78.36-1.64.41-2.42.75.09-.83-.41-.77-.51-1.31-.59-.2-.93.78-1.44.94-.5-.57-1.53-.81-2.18.8-.48.05-.41-.75-.86-.77-.52,1.76.09,1.82-.43,3.58-.83.28-.78-.77-1.35-.86.17-1.44.69-1.2.8-2.9.21-1.29-1-.43-1.36-.86-.21.09-.38.44-.46,1.12-.3-.23-.31-.91-.86-.77-.36.53-.71,1.07-1.07,1.62a3.35,3.35,0,0,1-1.38-2.08c-.9,0-.91,1.51-1.58.31-.88,0-.28,1.6-.82,1.67-1-.08.25-.88-.15-1.86-1.27.48-2.72-1.29-4.15-.79-.34,0-.48-.37-.62-.72-.44-.22-.67.56-1.09.4-.31.79-1-.07-1.2,1-.3-.37-.46-1-.75-1.36a9.63,9.63,0,0,0-5.35.2c-1.83-1.5-3.8,1.67-6.2.66.44-1.63,1.38-.86,2-1.45.37-1.53-1.47.3-.64-1.94-.38.07-.6.89-1,1-1.24-.71-2.07.57-3.28,0-.92.12-1.51,1.78-2.4,2,.17-.71.34-1.38.71-1.08.27-1-1.17-1.3-1.09.4l-.49-.09c.36-1.65-1.59.19-1.24-1.46-.44-.22-.66.56-1.09.41a27.22,27.22,0,0,0-.17-3.09c-.49.62-.75.57-1-.19-.58,1.72.34,1.15.75,1.36-.28,1.29-1.08.06-1.58.3.11-.58.33-.65.47-1.13-.79-.64-1.43,1.1-1.71-.32-.56.71-1.51-.51-1.8,1.49-.32-.19-.23-1-.51-1.31-1.92.11-4.2-.53-6.08.06-.49.06,0,1-.47,1.14s-.46-.69-.15-1.87c-.42.63-1,.52-1.58.31-2.08,1.53-3.31.31-5.33,1.43-.42-.05-.54-.57-.51-1.31-.25.42-1.61,1-1.46-.28-.32,0-.48.69-.84.45-.31,0-.75.92-.73-.14.12-2,.93-.78,1.44-.94.34-1,1.15.26,1.44-1s-1.16-.46-1.6-.9c-.75.64-.71-.45-1.09.39-.34,0-.48-.36-.62-.72-.37-.31-.79.76-.73-.14-.4,0-.48,1.45-1,1a2,2,0,0,1,.4-1.26c-.38.12-.68-.09-.89-.05s-.29.29-.56.41c-.74.33-1.64.18-1.81.71-.38.15-.53-.17-.9,0-3.19,1.07-4.79,1.18-7.86,2.2-.25,0-.58.19-.69-.1-.44.24-.94.76-1.46.36-.18.55-1.36.37-1.54.92-3.13.54-5.12,2.06-8.34,2-.92,1-3.55.66-4.46,1.63l-4.8,1.18c-.15.1-.41.1-.35.36-.23.08-.42-.29-.42.1-.38.15-.53-.17-.89-.05-1.32.87-3.61,1-5.36,1.58-.39.1-.49-.09-.33-.46-.69,0-.23.79-.92.76.16-.68.32-.58-.11-1.33.59-.34.72.29,1.31-.05,1.34-.61,1.62-.32,2.44-.87-.19-.56-.68-.39-1-.3l-.36.35a6.7,6.7,0,0,1-1.38-.2c-1.18.15-2.66,1-3.61.61-.49.12-.51.59-1.19.56l-.25-1c-.48.33-1.12.54-1.27,1.12-.33.06-.33-.61-.75-.35a.9.9,0,0,0-.56.41c-.11-.42-.61,0-.75-.36a.87.87,0,0,0-.56.41c.08.33-.31.32-.29.61-.51-.36-1.42.16-2.15.26-.05-.16-.11-.29-.27-.2s-.41.1-.35.36c-.69-.53-.73,0-1.59-.15-.54.36-1.21.62-1.75,1a.32.32,0,0,0-.48-.15c-.27,0-.37-.26-.69-.1-.72-.06-.55.56-.92.77s-.56-.35-1.1,0c-.72-.06-.27.76-.65,1l-.19-.76a6.33,6.33,0,0,1-3.19.51c-.4.89-1.2.2-1.48,1.17-.79-.48-.89,0-1.94.21-.48.22-.57-.35-1.1,0a6,6,0,0,0-2.11,1.32l-.19-.76c-.23.1-.13.46,0,.81a4.24,4.24,0,0,0-1.75,1l-2.5.61c-.69,0-.68.75-1.25.31-.07-.53.91-.29.65-1,.35.29,1-.09,1.37.21,0-.54,1.18-.23,1.13-.82s-.91.11-1.32.06L116,206l-2.92.72a.92.92,0,0,1-.69-.1,1,1,0,0,0-.77.46c-1.9.34-2.49.93-3.76.92-.3.12-.79.1-.77.46a4.16,4.16,0,0,0-2,0c-.55.23-1,1.06-.52,1.47-.23.1-.6.11-.56.41-.3,0-.38-.59.09-.56-.43-.51-1.48.26-2.15.26a1.4,1.4,0,0,1,0-.81c-.58,0-.73.29-.44.91-1.14-.13-2.45-.11-2.86,1-.43-.14-.76-.47-1.23-.51-.74,1.08-1.47.9-3,1.27-.27-.44-.66,0-.39-.71-.73-.13-.41.53-.71.71-.75.49-1.64-.41-1.61.66-.27.07-.3-.39-.54-.4-.15.3-.3.61-.44.92-.76-.06-.17-.56-.67-.92-.43,0-.33.44-.5.66-.25,0-.58.19-.69-.1-.32.31,0,1.1-.85,1l-.25-1-.84.21c-.55.37-.14.43,0,1.07-.37.12-.55-.14-.6-.66a13.6,13.6,0,0,0-3.34.82.91.91,0,0,1-1-.31,8.45,8.45,0,0,1-3.49,1.13c-.23.1-.13.46,0,.81-1,.23-1,.5-1.88.46a1.36,1.36,0,0,1,0-.81c-.59.35-.83-.08-1.31.05s.22,1.13-.38,1.17-1.12,0-.82-.61c-.42,0-.33.44-.5.66s-.79.1-.77.46c-.32,0-.34-.57-.46-1-.24.09-.36.57-.63.15-.15.09-.19.27-.08.56-.39.18-.5-.25-.75-.36-.28.13-.25.5-.5.66.05.35,1.19.24.61.66s-.78.08-.82-.61c-1.07.69-1.44.23-2.44.86-.44.16-.71,0-.81-.61-.23.1-.6.1-.56.41-.25,0-.58-.34-.62.15-1.49-.24-3.55.76-5.28,1-.24.1-.6.1-.57.41-1.55-.34-4,1.17-5.54.82-.67.88-3,.54-3.63,1.43-.39.15-.53-.17-.9,0-1.81.27-3.58,1.18-4.38,1.07-.53,0-.34.58-1,.51-.54.35-.63-.22-1.11,0-1,.31-2.22,1.29-3.07,1-.12-.34.94-.77.23-.86-.05-.59,1.06-.47,1.25-.31.37-.21.39-.68.92-.77,0-.86-.48-.54-.67-.92a22.66,22.66,0,0,1-4.65.87c-.49,0-.77.26-.71.71a12,12,0,0,0-1.64-.4A34.13,34.13,0,0,1,27.15,224c-.39.79.55.15.52,1.22-.18.54-1.11-.14-1.4.61l-1.25.31c-.47.62-2,.48-2.38,1.12-.59.34-.72-.29-1.31.06-3.19,1.37-6.26,1.7-9.05,2.76-.23.1-.12.45,0,.81-.36.12-.55-.13-.6-.66l-4.17,1c-.38.08-1,1-1.46.36-.53.29-.26,1.19-1,1.32-.07-1-.75-.73-1.14-1.07-.53.09-.56.55-.65,1-.69-.16-2,.67-3.23.8V382.07H1958V194.75C1957.45,194.78,1956.91,194.79,1957.21,193.74Z"/><path class="cls-1" d="M1780.85,191l.69,0C1781.48,190.45,1780.88,190.54,1780.85,191Z"/><path class="cls-1" d="M1211.67,192.27c.09.6.62.18,0,0Z"/><path class="cls-1" d="M827.07,200.3l.48.07C827.56,199.94,827.13,200,827.07,200.3Z"/><path class="cls-1" d="M1095,216.86a1,1,0,0,1-.78.23c.21.45.11.71-.34.63.32.91.89-.18,1.39.55.61-.12,1.68.69,2,0C1096.12,218.19,1096.19,216.89,1095,216.86Z"/><path class="cls-1" d="M1196,199.9c.1.6.61.18,0,0Z"/><path class="cls-1" d="M1775.37,189.35c-.29-.1-.33.18-.37.47a.24.24,0,0,0,0,.47c0,.47.42.39.68.52C1775.72,190.12,1775.77,189.44,1775.37,189.35Z"/><path class="cls-1" d="M524.9,179a1.6,1.6,0,0,1,.07.42,2.57,2.57,0,0,1,.37-.74A3.74,3.74,0,0,1,524.9,179Z"/><path class="cls-1" d="M158.21,196.71c.07.25.45.23.42-.1C158.4,196.69,158.21,196.32,158.21,196.71Z"/><path class="cls-1" d="M339.57,215.35c.87.43,1.35-1,1.91-2.07C340.65,212.71,340,212.07,339.57,215.35Z"/><path class="cls-1" d="M236.79,178.21l.54.1,0-.2Z"/><path class="cls-1" d="M345.57,210.41c-.07,2.31-1.11-.1-1.18,2.21.82.72,1.14.24,1.6.91.17-.69.28-1.68.58-1.73s-.18,1.67.15,1.87c.31-1.51,1.16-.42,1.29-2.8C346.89,210.25,346.19,211.6,345.57,210.41Z"/><path class="cls-1" d="M340.48,211.88c.41-.25,1.13.92,1.33-.35-.33-.62-.44-1.56-.89-2Z"/><path class="cls-1" d="M342.32,212.84c.08-.35.17-.69.36-.54l.22-1.19-.49-.09C342,211.82,341.88,212.42,342.32,212.84Z"/><path class="cls-1" d="M343.67,213.7c.17-1.44.69-1.19.8-2.91C343.76,210.44,342.94,213.46,343.67,213.7Z"/><path class="cls-1" d="M338.83,215.21c.21-.09.49.07.6-.49C339.22,214.82,338.95,214.65,338.83,215.21Z"/><path class="cls-1" d="M263.73,199.14c.15-.79.53-.46.71-1.08C264.24,196.38,262.83,198.53,263.73,199.14Z"/><path class="cls-1" d="M308.37,198.49c.14.48.77-.23.85-.46C309.87,196.19,308,197.14,308.37,198.49Z"/><path class="cls-1" d="M237.87,178c-.13.3-.35.2-.54.29-.35,1.62,1.14.3.77-.33Z"/><path class="cls-1" d="M286.39,201c.4,0,.83.23,1-1.06C286.93,199.86,286.64,200.29,286.39,201Z"/><rect class="cls-1" x="281.64" y="199.96" width="1.21" height="0.5" transform="translate(33.01 440.27) rotate(-79.28)"/><path class="cls-1" d="M314.72,199.7c.21-.1.48.07.6-.51C315.1,199.3,314.84,199.12,314.72,199.7Z"/><path class="cls-1" d="M365.49,216c-.06.31.07.7.24,0C365.8,215.74,365.67,215.36,365.49,216Z"/><path class="cls-1" d="M51.09,219.74c.07.54-.25.78-.37,1.17.68,0,.69-.45,1.19-.56C51.88,219.63,51.35,220,51.09,219.74Z"/><path class="cls-1" d="M361.46,214.64c.3.1.19.82.62.74C362.73,214,361.58,213.48,361.46,214.64Z"/><path class="cls-1" d="M358.34,217.7c.21-.1.48.07.6-.49C358.73,217.31,358.46,217.14,358.34,217.7Z"/><path class="cls-1" d="M382.43,217.41c-.7,1.55.75,1.82.87.76C383,217.94,383,217.26,382.43,217.41Z"/><path class="cls-1" d="M383.91,218.9c.09-.6,1.28-1,.58-1.71C384.41,217.81,383.21,218.18,383.91,218.9Z"/><path class="cls-1" d="M351.09,213.29c.59.21.94-.76,1.31-1.58C351.79,211.43,351.31,211.72,351.09,213.29Z"/><path class="cls-1" d="M350.84,213.25c.7-1.57-.75-1.83-.86-.79C350.47,212.41,350.39,213.23,350.84,213.25Z"/><path class="cls-1" d="M350.42,216.81l.49.09c.11-.59.33-.66.47-1.12C351,215.76,350.54,215.53,350.42,216.81Z"/><path class="cls-1" d="M352,217.72c-.06.33.07.71.24,0C352.33,217.44,352.19,217.06,352,217.72Z"/><path class="cls-1" d="M354.08,217.5c.21-.1.48.08.6-.5C354.46,217.11,354.2,216.94,354.08,217.5Z"/><path class="cls-1" d="M348,217.56c-.06.34.07.7.24,0C348.31,217.28,348.17,216.92,348,217.56Z"/><path class="cls-1" d="M375.19,220.9l.33-1.76C375,218.15,374.31,221.63,375.19,220.9Z"/><path class="cls-1" d="M153.53,198.39a1.55,1.55,0,0,0,1.13-.81C154.27,197.84,153.11,197.53,153.53,198.39Z"/><path class="cls-1" d="M84,212.48c.15-.1.41-.12.36-.36C84.23,212.22,84,212.22,84,212.48Z"/><path class="cls-1" d="M188.3,186.91c-.15.09-.41.11-.35.36C188.1,187.17,188.36,187.15,188.3,186.91Z"/><path class="cls-1" d="M189.75,187.36c0-.25.17-.33.41-.38h0a5.5,5.5,0,0,1,.07-.72c-.52.2-.92-.11-1,.69C189.48,186.89,189.5,187.35,189.75,187.36Z"/><path class="cls-1" d="M77.81,215.08c.06.27.26.62.27.2C78.29,215.21,78.16,214.91,77.81,215.08Z"/><polygon class="cls-1" points="191.04 186.85 190.89 187.07 190.99 187.05 191.04 186.85"/><path class="cls-1" d="M154.93,197.78c.68-.41,1.23.39,1.19-.56C155.56,197.17,155.2,197.18,154.93,197.78Z"/><path class="cls-1" d="M62.63,217.19c.15-.1.41-.12.35-.36C62.83,216.93,62.57,216.93,62.63,217.19Z"/><path class="cls-1" d="M72.8,216.3c.23-.1.6-.1.56-.41C73.13,216,72.76,216,72.8,216.3Z"/><path class="cls-1" d="M68.22,217.43c.23-.1.6-.1.56-.41C68.54,217.12,68.18,217.12,68.22,217.43Z"/><path class="cls-1" d="M70.68,215.75c-.27.23.1.3,0,0Z"/><path class="cls-1" d="M70.68,215.75l.42-.1-.12-.51C70.59,215.13,70.62,215.43,70.68,215.75Z"/><path class="cls-1" d="M185.45,187.88l2.09-.51a1.46,1.46,0,0,0-.23-.52.43.43,0,0,1-.43.12v0a1.77,1.77,0,0,1-.66.51C185.93,187.45,184.7,187.74,185.45,187.88Z"/><path class="cls-1" d="M197.17,191.35l.49.09c.11-.59.33-.67.47-1.13C197.73,190.3,197.29,190.08,197.17,191.35Z"/><path class="cls-1" d="M226,179.2c-.06.34.07.71.25,0C226.34,178.93,226.21,178.55,226,179.2Z"/><path class="cls-1" d="M216.92,193.89c.28,1.37,1.29.48,1.69-.9C218,192.89,217.23,192.39,216.92,193.89Z"/><path class="cls-1" d="M226.66,179.93c.39,0,.83.24,1-1C227.2,178.77,226.9,179.22,226.66,179.93Z"/><path class="cls-1" d="M229.07,179.17c-.48-1.93-1.15,2,0,0Z"/><path class="cls-1" d="M235.27,178.52c.78-.36.48.94,1.11.82l.21-1.1-1.24.17Z"/><path class="cls-1" d="M386.58,218.2c.21-.1.48.09.6-.5C387,217.8,386.69,217.63,386.58,218.2Z"/><path class="cls-1" d="M159.27,195.64c-.21-.16-1.11.35-.29.61C158.83,196.07,159.38,195.72,159.27,195.64Z"/><path class="cls-1" d="M163.74,194c.12,0,.24-.1.15-.31-1,.72-2.83-.47-2.59,1.18,1.06-.4,1.61-.75,2.57-.36Z"/><path class="cls-1" d="M160.5,196.14l.83-.2-.12-.51C160.85,195.58,160.1,195.43,160.5,196.14Z"/><path class="cls-1" d="M190.49,187.72c-1.54.93-3,.93-4,1.53-.06-.9-.87-.23-1.08-.81-.4.46-1.08.71-1.48,1.17-.26,0-.51,0-.54-.4-.22,0-.19.3-.35.36s-.11.28-.15.3c-.27.17-.51-.14-.69-.1s-.21.35-.56.4-1.52,0-1.38-.2c.41,0,.39-.4.77-.46s1-.57,1.11,0c.21-.33.71-.44.92-.76.4.05,1.15-.61,1.31-.06.42-.1.09-.76.71-.71-.37-.53-1.34.22-1.94.21a.88.88,0,0,0-.56.41c-.92.11-2.09.77-2.77.41-.26.08-.21.39-.56.41-.33.24-1.3,0-1.19.56a.89.89,0,0,0-1.25.31,1.59,1.59,0,0,0,1.38.2c-.35.82-.75.41-1.61.66-.29-.29-.43-.9-.87-.86-.69,0-.62.64-1.4.61a2.52,2.52,0,0,1-1.59-.15c-.37.34-.7.72-1.07,1.07.57.48,1.76-.33,2.57-.36.12,1.13-2,.55-2.32,1.38a6.76,6.76,0,0,1-2,0c.18-.95.8-.37,1.61-.66-.43-.77-1.56-.08-2.27-.25a8.35,8.35,0,0,1-2.65.92c-.21.05-.2.26-.36.35s-.18.27.06.25c.07.53-.91.29-.64,1-.64.21-1.57.21-1.82.72,0,.43,1.24.13,1-.26.52.38.53-.1,1-.26.11.25.24.18.48.15a8.17,8.17,0,0,0,1.88-.46c.33-.12.6-.41.77-.46.39-.12.53.16.9,0,.16,0,.13-.3.15-.3.28-.13.53.16.69.1s.19-.26.35-.35c.73-.4,1.21,0,1.73-.16.32-.07.37-.31.56-.4a4.82,4.82,0,0,1,2.35-.31,61.56,61.56,0,0,1,6.76-2.2c.39-.17.5.25.75.35.61,0,.29-.61.71-.71a4.43,4.43,0,0,1,1.38.2c.55-.14,1.21-.19,1.39-.61.34.06,1-.57,1.11,0,.82-.74,2.54-.8,3.83-1.19a2.21,2.21,0,0,0,.1-.37,1.71,1.71,0,0,0,0-.51C191.23,187.59,190.79,187.89,190.49,187.72Z"/><path class="cls-1" d="M16.89,225.43c.23-.1.6-.1.56-.41C17.22,225.12,16.85,225.12,16.89,225.43Z"/><path class="cls-1" d="M1274.76,193.35c-.19-.54-.44-.19-.37.08C1274.58,194,1274.82,193.62,1274.76,193.35Z"/><path class="cls-1" d="M1283.76,221c.32,1.23,1.66.83,2,.06C1285.58,220,1284.37,221.09,1283.76,221Z"/><path class="cls-1" d="M1277.17,191.78c.46-.06.07-.76,0,0Z"/><path class="cls-1" d="M1305.31,216.6l-8.65,2c-.33-.67-.32.12-.75.17-.19-.55-.78-.26-1.24-.23l-8.65,2c.74,1.68,1.17,0,2.37,0,.64,1.71,1.5-1.53,2,.06l6.39-1.44,3.38-.77c1.21-.69,1.79.55,2.25-.51,2.57-.33,3.41-.81,5.38-.71C1307.74,215.22,1306.15,216.72,1305.31,216.6Z"/><path class="cls-1" d="M1318.08,182.57c-.56.29-1.67.12-2.18.46-1.11-.12-.54,1.14-1.29,1.32-1.75-.17-4.36,0-5.16,1.68.68,1.71,2.48-.3,3.39-.77a80.56,80.56,0,0,0,10-2.71l-4.76,0Z"/><path class="cls-1" d="M1313.69,215.21c.18,1.07,1.38-.08,2,.06C1315.07,213.81,1314.53,214.88,1313.69,215.21Z"/><path class="cls-1" d="M1307.21,186.53c.19.56.78.26,1.24.23C1308.25,186.2,1307.67,186.5,1307.21,186.53Z"/><path class="cls-1" d="M1278.45,223.69c.12.47.55.28.86.32C1279.2,223.53,1278.77,223.74,1278.45,223.69Z"/><path class="cls-1" d="M1326.15,210.86a2.1,2.1,0,0,0,2.21,1C1327.82,211.12,1327.27,210.37,1326.15,210.86Z"/><path class="cls-1" d="M1274.74,223c1,2,2.44-.32,3.87-.36C1277.83,221.64,1276,223,1274.74,223Z"/><path class="cls-1" d="M1276.57,224.11c.11.47.55.28.86.32C1277.32,224,1276.89,224.17,1276.57,224.11Z"/><path class="cls-1" d="M1281.88,221.38c.12.47.55.28.86.32C1282.63,221.23,1282.2,221.42,1281.88,221.38Z"/><path class="cls-1" d="M1281.83,222.92l-.75.17C1281.32,224.48,1283.87,222.33,1281.83,222.92Z"/><path class="cls-1" d="M1280.87,222.13c-.06-1-1.88-.33-1,.74l.75-.17C1280.44,222.3,1280.64,222.2,1280.87,222.13Z"/><path class="cls-1" d="M1289.91,190.44a2,2,0,0,1,2,.06l1.88-.43c1.12.26,3.61.36,3.17-1.74-3.62.86-4.93.59-7.52,1.7-.69-.06-.06-.65-.33-1.45-3.09.54-5,.54-6.92,2.58l-4.14.94c-.32,0-.75.15-.87-.32-1,.13-1,1-1.66,1.4.41,1.06,2-.54,2.21,1,.67-.37.71-1.26,1.66-1.4.49,0,.54.69,1,.81.68.17,1.79-.66,2.63-.6-.15-.65-.76-.3-1-.8s.48-.66,1-.74c.38-.08.67.74.22,1,.5,1.1,2.3-.6,2.85.37C1287.25,191.94,1289.26,191.75,1289.91,190.44Z"/><path class="cls-1" d="M1222.95,189.72c.1,1.73,1.87,1.57,1.62.15.82.55,1,.25.53-1.15C1224.78,189.39,1223.89,189.58,1222.95,189.72Z"/><path class="cls-1" d="M1417.66,185.58c.12.47.55.27.86.32C1418.41,185.43,1418,185.63,1417.66,185.58Z"/><path class="cls-1" d="M1389.63,194.47c.12.47.55.28.87.31C1390.37,194.32,1390,194.52,1389.63,194.47Z"/><path class="cls-1" d="M1428,183.33a25.12,25.12,0,0,0-5.41,1.15c-1.49.67,0,.7,2.37,0l3.38-.77a23.51,23.51,0,0,0,4.7-.52A45.22,45.22,0,0,0,1428,183.33Z"/><path class="cls-1" d="M1609.31,180.82c-2.13.45-2.84,0-4.87.28,0-.32,0-.63,0-.94h-1.33a1.75,1.75,0,0,1-.75,0c-.13,1.49.34,2.24,1.29,2.36.43,0,.83-.11.74-.94,1.64.13,2.94.06,4.15.18.52.07.34.58.69,0l.67.52c.12.22.9-.85,1,0C1611.17,180.88,1609.89,181.29,1609.31,180.82Z"/><path class="cls-1" d="M1600.67,180l1.42.06a3.23,3.23,0,0,1-.82-.6A1.67,1.67,0,0,0,1600.67,180Z"/><polygon class="cls-1" points="1606.23 180.16 1606.22 180.21 1606.46 180.16 1606.23 180.16"/><path class="cls-1" d="M1351.34,205.17l-1.88.42c.17,1.07,1.38-.07,2,.06l1.88-.43C1353.16,204.17,1351.95,205.32,1351.34,205.17Z"/><path class="cls-1" d="M1344.31,207.27l-1.13.26c.19.56.78.26,1.24.23l1.13-.26C1345.35,207,1344.77,207.25,1344.31,207.27Z"/><rect class="cls-1" x="1339.51" y="208.28" width="0.77" height="1" transform="translate(-13.08 300.23) rotate(-12.72)"/><path class="cls-1" d="M1357.73,203.73l-3,.68c-.7,0-.67.63-.27.57l1.13-.25,3-.68c.67-.37,2.42.15,1.66-1.4C1359,202.64,1358.58,203.37,1357.73,203.73Z"/><path class="cls-1" d="M1333.51,210.23c.19.55.78.26,1.24.23C1334.56,209.9,1334,210.21,1333.51,210.23Z"/><path class="cls-1" d="M1328.77,210.27c-1.4,0,.46,2.17.71,1.38l-.6-.89Z"/><path class="cls-1" d="M1350.16,207c.23.59.86.32.75-.17C1350.59,206.13,1350.6,206.93,1350.16,207Z"/><path class="cls-1" d="M1292.61,183.18c-.12-.47-.54-.27-.86-.31C1291.87,183.33,1292.3,183.14,1292.61,183.18Z"/><path class="cls-1" d="M1248.92,181.37c-.64.21-1.21.41-1.77.57.52,0,1.13-.1,1.95-.22A.33.33,0,0,0,1248.92,181.37Z"/><path class="cls-1" d="M1255.29,227.9c.19.55.78.26,1.24.23C1256.35,227.58,1255.76,227.88,1255.29,227.9Z"/><path class="cls-1" d="M1248.85,185.4c.36-.09.15-.66.15-1.06a3.06,3.06,0,0,0,.13-1.08l-5.1.09a1.41,1.41,0,0,0,.25,1c.64,0,.54-.6,1-.74.71-.08.6,1.59,1.19,1.78,1.13-.51,1.8.8,1.77-.91C1248.63,184.45,1248.68,185,1248.85,185.4Z"/><path class="cls-1" d="M1262,184a5.27,5.27,0,0,0-.32-1.11l-.93.15a1.59,1.59,0,0,0-.25,1.3Z"/><path class="cls-1" d="M1244.81,195.52c.33.67.32-.12.76-.17C1245.33,194.76,1244.71,195,1244.81,195.52Z"/><path class="cls-1" d="M1242,197.17c-.88.46-2.27.5-1.92,2a4.46,4.46,0,0,1,3-.68C1243.07,197.33,1242.23,197.93,1242,197.17Z"/><path class="cls-1" d="M1242.46,186.85c.23.59.86.32.75-.17C1242.88,186,1242.89,186.81,1242.46,186.85Z"/><path class="cls-1" d="M1263.74,183.06a.48.48,0,0,0-.16-.23,4.55,4.55,0,0,0-.65-.06,3.48,3.48,0,0,1-.42.06C1262.69,183.39,1263.28,183.09,1263.74,183.06Z"/><path class="cls-1" d="M1203.64,244.18c-.2.42,1.85,1.1,1.23.23C1204.79,244.29,1203.87,243.69,1203.64,244.18Z"/><path class="cls-1" d="M1246.27,229.94c0,1.16,3,1.18,2.26-.51.91,0,1.76.6,2.25-.51C1249.35,227.77,1247.73,229.81,1246.27,229.94Z"/><path class="cls-1" d="M1227.27,203.58c.42-.18.12-1,0-1.55C1226.59,202.48,1226.68,203,1227.27,203.58Z"/><path class="cls-1" d="M1232.08,188.17l.16-1.06C1231.29,185.53,1231.73,188.17,1232.08,188.17Z"/><path class="cls-1" d="M1208.86,244.54c.11.47.55.27.86.32C1209.6,244.38,1209.17,244.57,1208.86,244.54Z"/><path class="cls-1" d="M1213,243.6c.11.47.54.27.86.32C1213.74,243.44,1213.31,243.64,1213,243.6Z"/><path class="cls-1" d="M1263.17,189.33c-.61-.15-1.81,1-2-.06-.75.83-2.55.79-3.16,1.73,2.05,1.6,4.88-.65,7.25-1.13C1264.95,188.88,1263.59,190.11,1263.17,189.33Z"/><path class="cls-1" d="M1677,188c1.34-.46,2.11,1.36,2.44-.37C1678.83,187.5,1677.53,186.41,1677,188Z"/><path class="cls-1" d="M1298.29,189.05c.09.6.61.17,0,0Z"/><path class="cls-1" d="M1298.29,189.05c-.09-.6-.62-.18,0,0Z"/><path class="cls-1" d="M1289.47,182.4c-.59.11-1.16.26-1.77.31h-.3a1.77,1.77,0,0,0,.22,1.07A1.68,1.68,0,0,0,1289.47,182.4Z"/><path class="cls-1" d="M1275.74,185.46c.34,0,.31-.27.27-.56l-.22-1-1.12.25C1274.94,184.78,1275.49,184.79,1275.74,185.46Z"/><path class="cls-1" d="M1276.18,187.41c.73.13,2.08-1.09,2.37,0,0-1.17,2.7-.14,1.93-2-2.11-.1-3.28,2.26-4.62.53A.75.75,0,0,0,1276.18,187.41Z"/><path class="cls-1" d="M1284.87,183.91c-1.34.47-3.42.33-4,1.42,1.05,1.09,2.71.9,4.19,1.09A4,4,0,0,0,1284.87,183.91Z"/><path class="cls-1" d="M1248.46,194.18c1,1.14,2.48-.56,1.93-2C1249.27,191.34,1248.85,193.27,1248.46,194.18Z"/><path class="cls-1" d="M1304,188.27c-.56-1.58-3.63-.34-4.25.45C1300.69,189.68,1302.71,188.24,1304,188.27Z"/><path class="cls-1" d="M1252.16,191.31c-.9-.08-.32,1-.91,1.22.51,1,2.13,1.21,2.47.46C1253.55,191.69,1252.18,192.94,1252.16,191.31Z"/><path class="cls-1" d="M1258.47,184.25a3,3,0,0,0,1.31-1.28l-.24-.12a2,2,0,0,0-1.17.29c-.1.12-.2.16-.3.08a1.44,1.44,0,0,1-.34,0h-.92c-.57.25-1.12.13-1.46,1.2a1.6,1.6,0,0,0-1.24-.23c-.89,1-1.72-.19-2.52,1.08l-.46-2.05h-.42a2.13,2.13,0,0,1-1.07.44c.19,1.76,1.6.9,1.79,2.67,2.27-.31,5.1-1.8,6.61-.48A1.38,1.38,0,0,0,1258.47,184.25Z"/><path class="cls-1" d="M1253.67,191a4,4,0,0,0,.92,2.34c1.33-.08,2.11-.63,1.44-2.36C1255,191.55,1254.55,190.75,1253.67,191Z"/><path class="cls-1" d="M1265.91,189.21c.12.46.55.27.86.32C1266.66,189.06,1266.23,189.26,1265.91,189.21Z"/><path class="cls-1" d="M1310.9,183.65c-.06-.73-1.6-.93-1,.73Z"/><path class="cls-1" d="M1418.79,185.33c1.55,1.54.93-1.76,0,0Z"/><path class="cls-1" d="M1807.23,190.22c1,1.62.66-1.67,0,0Z"/><path class="cls-1" d="M1807.23,190.22c-1-1.61-.65,1.69,0,0Z"/><path class="cls-1" d="M1867.51,199.53c0,.48.58.62.69,0C1867.81,199.59,1867.7,198.84,1867.51,199.53Z"/><path class="cls-1" d="M1921.52,193.17c.4,0,.51.73.69,0C1922.24,192.72,1921.64,192.58,1921.52,193.17Z"/><path class="cls-1" d="M1803.41,190.54c.27-.1.68,0,.71-.46C1803.84,190.19,1803.43,190.08,1803.41,190.54Z"/><path class="cls-1" d="M1918.67,195c-.59-.29-2.06.5-2.05-.55.27-.1.68,0,.71-.46-.89-1.42-.83.92-1.44,1.38a1.35,1.35,0,0,0-1.06.44c-.28.1-.68,0-.71.44,1.71-.22,1.63,0,3.46.15C1916.9,194.61,1919.94,196,1918.67,195Z"/><path class="cls-1" d="M1909.53,198c.27-.09.68,0,.71-.44C1910,197.6,1909.56,197.49,1909.53,198Z"/><path class="cls-1" d="M1799.92,190.88c.85.37,1.4.53,2.1-.39C1801.17,190.11,1800.62,189.94,1799.92,190.88Z"/><path class="cls-1" d="M1798.19,190.8c.39,0,.51.72.69,0C1798.9,190.35,1798.3,190.2,1798.19,190.8Z"/><path class="cls-1" d="M1802.37,190.5c.27-.1.68,0,.71-.46C1802.81,190.14,1802.4,190,1802.37,190.5Z"/><path class="cls-1" d="M1798.95,189.4c.49-2.78-1.49-.27,0,0Z"/><path class="cls-1" d="M1801.06,188.52c-.78-.17-1.3.05-1.43.9A1.47,1.47,0,0,0,1801.06,188.52Z"/><path class="cls-1" d="M1799.51,192.3c.45,0,.46.64,1,.53C1801.13,191.67,1799.42,191.37,1799.51,192.3Z"/><path class="cls-1" d="M1957.13,187.48c-.92.36-1.84-1.53-2.42-.1C1955.84,187.58,1956.37,189.11,1957.13,187.48Z"/><path class="cls-1" d="M1947.71,189c-.28.1-.69,0-.71.45C1947.27,189.35,1947.68,189.47,1947.71,189Z"/><path class="cls-1" d="M1951.88,188.7c1.33,1.74.88-1.52,0,0Z"/><path class="cls-1" d="M1951.45,190.6c-.08.57-.65.38-1.06.42C1950.27,192.39,1952.84,191.2,1951.45,190.6Z"/><path class="cls-1" d="M1950.4,191c-.19-.69-.42,0,0,0Z"/><path class="cls-1" d="M1795.46,189.71c.27-.08.69,0,.72-.44C1795.91,189.36,1795.5,189.26,1795.46,189.71Z"/><path class="cls-1" d="M1950,192.46c.4.09,1,0,1,.53-.27.09-.68,0-.71.45l1.38.06C1952.15,192.09,1950.3,191.37,1950,192.46Z"/><path class="cls-1" d="M1942.8,190.24c.59-1.43-1.74-1.34-1.71-.56A1.77,1.77,0,0,0,1942.8,190.24Z"/><path class="cls-1" d="M1941,191.59c-.25,1.4-.51-.75-1-.51-.5.59-.63,2.32.24,2.43C1940.36,192.94,1942.12,192.37,1941,191.59Z"/><path class="cls-1" d="M1951.54,188.69l-3.12-.13c-.29,1.27.68,1,1,1.48C1949.46,188.6,1951.93,190.82,1951.54,188.69Z"/><path class="cls-1" d="M1940,190.12c0-.27-.26-.55-.34,0C1939.67,190.37,1939.94,190.66,1940,190.12Z"/><path class="cls-1" d="M1942.43,190.69a5.58,5.58,0,0,0-.47,2.89,1.94,1.94,0,0,0,2.14-1.36C1942.9,192.52,1943.75,190.24,1942.43,190.69Z"/><path class="cls-1" d="M1944.43,192.72c.54.67,2-.31,3.46.15-.24-1.15.58-2.19.37-.47.86.11,1.11-.68,1.44-1.39C1947.34,190.24,1945.71,190.7,1944.43,192.72Z"/><path class="cls-1" d="M1741.21,185.48c-.18-.71-.42,0,0,0Z"/><path class="cls-1" d="M1748.91,183.89c0,.27.25.56.34,0C1749.27,183.64,1749,183.34,1748.91,183.89Z"/><path class="cls-1" d="M1775.18,185.49a2.44,2.44,0,0,1,1,1c-.27.08-.68,0-.71.44l1,0,.08-1.92C1776.07,185.12,1775.33,184.84,1775.18,185.49Z"/><path class="cls-1" d="M1750.27,184.43l.69,0c0-.49.31-.57.39-1C1750.8,183.54,1750.15,183.39,1750.27,184.43Z"/><path class="cls-1" d="M1762.4,184.46c.28-.09.69,0,.71-.46C1762.84,184.11,1762.43,184,1762.4,184.46Z"/><path class="cls-1" d="M1768.31,184.22c-.2,1.94,2.52,1.38,1.39.06C1770.17,184.84,1768.85,184.63,1768.31,184.22Z"/><path class="cls-1" d="M1794.41,190.16c.27-.1.68,0,.71-.46C1794.85,189.8,1794.43,189.69,1794.41,190.16Z"/><path class="cls-1" d="M1746,186.17c.34,0,.4.39.67.51C1747.74,185.75,1746.08,185.13,1746,186.17Z"/><path class="cls-1" d="M1746.12,184.25c.76.23,1.83,1.17,2.1-.4C1747.6,184.11,1746.21,183.19,1746.12,184.25Z"/><path class="cls-1" d="M1743.7,184.15a2.39,2.39,0,0,0,2.12-.89C1745.09,183.53,1743.44,182.39,1743.7,184.15Z"/><path class="cls-1" d="M1730.22,183.09c.17-.06.4,0,.55-.13l-.53,0Z"/><path class="cls-1" d="M1697.57,188.46c2.11,5.08,6.12-1.91,0,0Z"/><path class="cls-1" d="M1739.24,183c0,.49,0,1-.06,1.45.62-.41,1.86.09,1.79-1.38C1739.89,183.35,1740.29,183.37,1739.24,183Z"/><path class="cls-1" d="M1741.21,185.48c.18.71.42,0,0,0Z"/><path class="cls-1" d="M1697.57,188.46c-.58-2.42-1.14.15,0,0Z"/><path class="cls-1" d="M1767.9,185.66l-2.43-.1C1765.31,187.57,1767.59,186.15,1767.9,185.66Z"/><path class="cls-1" d="M1788.22,188.94c.79,2.1-.68.57-.79,2.37,1,.44.93-.64,1.75-.42C1789.07,190,1789.14,188.83,1788.22,188.94Z"/><path class="cls-1" d="M1790.42,186.14c-1.07.3-1.24-.55-2.05-.58C1787.81,187.09,1790.38,186.88,1790.42,186.14Z"/><path class="cls-1" d="M1789,187.52c-.27.1-.69,0-.71.46C1788.54,187.87,1788.94,188,1789,187.52Z"/><path class="cls-1" d="M1789.52,190.91l1.73.07C1791.38,189.26,1789.53,189.18,1789.52,190.91Z"/><path class="cls-1" d="M1793.35,190.6c.27-.1.68,0,.71-.45C1793.79,190.23,1793.38,190.13,1793.35,190.6Z"/><path class="cls-1" d="M1792.29,191c.27-.08.68,0,.71-.44C1792.73,190.68,1792.32,190.57,1792.29,191Z"/><path class="cls-1" d="M1785.59,185.45l-1,0c-.27.1-.68,0-.71.46l1,0C1785.15,185.8,1785.57,185.91,1785.59,185.45Z"/><path class="cls-1" d="M1785.06,189.76c.28-.1.69,0,.71-.46C1785.5,189.41,1785.09,189.3,1785.06,189.76Z"/><path class="cls-1" d="M1781.26,189.6c.27-.1.68,0,.71-.46C1781.7,189.24,1781.29,189.13,1781.26,189.6Z"/><path class="cls-1" d="M1778.14,189.47c.5.58,1.39,1.74,1.73.07C1779.24,189.8,1778.49,188.07,1778.14,189.47Z"/><path class="cls-1" d="M1780.71,186.21c-.19-1.31,1.62.41,1.42-.9C1781.74,184.06,1779.57,185.3,1780.71,186.21Z"/><path class="cls-1" d="M1785,191.21c.28-.1.69,0,.71-.46C1785.44,190.85,1785,190.73,1785,191.21Z"/><path class="cls-1" d="M1779.71,185.2c-.78-.17-1.3.05-1.43.9C1779.07,186.27,1779.59,186,1779.71,185.2Z"/><path class="cls-1" d="M1114.88,201.51l.72.11c.19-.05.48.07.53-.26l-.72-.11C1115.21,201.3,1114.93,201.19,1114.88,201.51Z"/><path class="cls-1" d="M924.71,207.77l-.72-.11c-.2,0-.47-.06-.53.26l.72.11C924.38,208,924.66,208.1,924.71,207.77Z"/><path class="cls-1" d="M872.6,202.17l1.21.19.48.07c.2-.05.48.06.53-.26l-1.2-.18C873.25,202,872.75,201.73,872.6,202.17Z"/><path class="cls-1" d="M909.74,205.82c-.29,0-.67-.17-.78.21C909.26,206,909.64,206.2,909.74,205.82Z"/><path class="cls-1" d="M924.9,208.15l.49.07C926.69,208.51,925,207.2,924.9,208.15Z"/><path class="cls-1" d="M912.63,206.26l-.72-.11c-.2,0-.48-.06-.54.25l.72.11C912.29,206.48,912.57,206.58,912.63,206.26Z"/><path class="cls-1" d="M918.22,206.78l-.72-.11c-.2,0-.48-.06-.53.26l.72.11C917.88,207,918.16,207.1,918.22,206.78Z"/><path class="cls-1" d="M918.89,207.22l.48.07C920.67,207.58,919,206.28,918.89,207.22Z"/><path class="cls-1" d="M923.27,207.55a1.11,1.11,0,0,1-.91-.48c0,.93-1.1-.41-1.06.52C921.9,207.48,923,208.27,923.27,207.55Z"/><path class="cls-1" d="M861.67,201.17c0,.34.36.49.48.07S861.92,201,861.67,201.17Z"/><path class="cls-1" d="M849.14,201c-.25-.12-.06-.69-.38-.74,0,.57-.28.6-.58.59l-2.41-.37c-.61.11-1.68-.69-2,0,1.2.48,2.18.2,3.85.59.64.08,1.37.23,2.17.33.56.07,1.39.52,1.74-.07l-1.69-.26C849.71,200.8,849.28,200.45,849.14,201Z"/><path class="cls-1" d="M854.92,201.84c.19-.05.48.05.53-.26C855.25,201.63,855,201.52,854.92,201.84Z"/><path class="cls-1" d="M851.55,201.33l1.68.26c.38-.13,1.19.58,1.25-.15l-1.68-.26C852.43,201.3,851.62,200.59,851.55,201.33Z"/><path class="cls-1" d="M859.69,201.21l.72.11c.29,0,.67.17.78-.22l-.72-.11C860.18,201,859.79,200.83,859.69,201.21Z"/><path class="cls-1" d="M858.49,201c.2,0,.48.06.53-.25C858.83,200.82,858.55,200.7,858.49,201Z"/><path class="cls-1" d="M998.76,218.11c-.2,0-.48-.06-.53.25C998.43,218.32,998.7,218.43,998.76,218.11Z"/><path class="cls-1" d="M970.07,214c-.2.05-.48-.06-.54.26C969.73,214.26,970,214.37,970.07,214Z"/><path class="cls-1" d="M993.18,217.58l-.72-.11c-.2.05-.48-.06-.53.26l.72.11C992.84,217.8,993.12,217.91,993.18,217.58Z"/><path class="cls-1" d="M969.29,214.27c-.2,0-.48-.06-.53.26C969,214.48,969.24,214.59,969.29,214.27Z"/><path class="cls-1" d="M845.52,202.1c.2,0,.48.06.53-.26C845.85,201.89,845.57,201.78,845.52,202.1Z"/><path class="cls-1" d="M905.79,205.9l.48.07c.2-.05.47.06.53-.27l-3.61-.55c-.37,0-.87-.25-1,.19l2.41.37Z"/><path class="cls-1" d="M957.49,214.16c.84-.08,2.17.77,2.7.08-.8-.43-.58-.13-1.39-.56C958.56,214.23,957.66,213.48,957.49,214.16Z"/><path class="cls-1" d="M959,215.42c.2,0,.48.06.54-.26C959.35,215.2,959.07,215.09,959,215.42Z"/><path class="cls-1" d="M960.18,214.24c1.49.62.69-.94,0,0Z"/><path class="cls-1" d="M895.66,206l2.17.33C898.06,205.06,895.85,205.4,895.66,206Z"/><path class="cls-1" d="M896.24,207.15c.29,0,.67.16.77-.22C896.72,206.94,896.33,206.77,896.24,207.15Z"/><path class="cls-1" d="M942.37,211.51c-.53.12-1.52-.66-1.73.07l3.37.52,1.69.26,1,.15c.29,0,.67.17.77-.21l-3.37-.52Z"/><path class="cls-1" d="M899.72,205.3l1.2.18c.38,0,.83.18.82-.56-.64-.38-.7.37-1.26.16l-1.2-.18C898.88,204.94,899.24,205.37,899.72,205.3Z"/><path class="cls-1" d="M929.13,209.48a14.32,14.32,0,0,1-2.08.7c.33-.37.31-.65-.14-.7,0,.4-.15.59-.34.63.17-.55-.09-.65-.38-.74-.6.25-1.21-.47-1.64-.58-.17-.05-.45.3-.77.21l-.19-.36a7.64,7.64,0,0,0-2.65-.41c-.56.07-.48,0-1.44-.22a8.23,8.23,0,0,0-2,0c-.2,0-.32-.47-.67-.44,0,0-.1.31-.29.29-.43,0-.45-.47-.91-.47a1,1,0,0,1-.77.22c-.19-.24-.37-.46-.48-.07-.46.13-1.35-.61-1.5.11.29,0,.42.14.43.4-1,.09-1.33-.52-2.12-.66-1,0-.91.23-1.39-.56-.28.47-.85.36-1.3.48-1.76-.46-4.2-.24-5.48-1.18-.07.72-.88,0-1.26.15l-1.2-.18-1.44-.22c-.39,0-.9-.3-1,.19.31.6,1.05-.15,1.93.3a1.08,1.08,0,0,0,.91.47c.7.36.93-.2,1.5-.1s.49.8,1.1.85c2.25.21,4.47.35,6.6.33.21.25.13.81.62.78.67-.54,1.33.64,2.22,0-.06.62.78.34.87.82.24-.71-.39-.54-.33-1.07,1.81-.18,3.32,1.16,4.76,1.06l.1-.66a.9.9,0,0,1,.38.74c.62.34.59-.58,1.07-.51-.16.72.83.29,1.15.52l1.2.18a4.46,4.46,0,0,1,2.35.69c0-.38.15-.58.34-.62.3.44.55.48,1,.15.31.61,1.37.48,2.11.67.35-.33.59-.88,1.3-.48l-.05.33c.94.53,1-.56,1.79-.41-.22.69.25.69.62.78s.26-.63.58-.59c0,.5.22,0,.48.07-.08.74,1,.3,1.39.56,1.66-.72,3.15,1.09,5.11.44.34.08.68.16.77-.21l-.72-.11Z"/><path class="cls-1" d="M929.22,210.51c-1.22-.56-.44,1,0,0Z"/><path class="cls-1" d="M781.24,187.48c-.66-1.13-.92,1.12,0,0Z"/><path class="cls-1" d="M785.54,193.25c-.75-.32-1.16,0-1.74.07l-1.44-.22-.72-.11c0,.39.33.42.67.44l1.68.26.72.11.48.07c.24,0,.33-.22.53-.26S786,193.22,785.54,193.25Z"/><path class="cls-1" d="M963.45,215.42c-.92.07-2.39-.92-2.75.26a1.23,1.23,0,0,0,1.25-.15l1.45.22C964.24,216.12,964.36,215.31,963.45,215.42Z"/><path class="cls-1" d="M778.94,186.45c-.29,0-.68-.17-.77.21C778.46,186.67,778.84,186.84,778.94,186.45Z"/><path class="cls-1" d="M782.5,187.33a1,1,0,0,0-1.07.52C781.87,187.84,782.58,188.37,782.5,187.33Z"/><path class="cls-1" d="M784.18,187.59c-.2.05-.48-.06-.53.26C783.85,187.8,784.12,187.92,784.18,187.59Z"/><path class="cls-1" d="M783.41,187.81c0-.41-.23-.24-.48-.07C782.88,188.08,783.29,188.22,783.41,187.81Z"/><path class="cls-1" d="M761.88,185.2c-.44,1.35.71.17,0,0Z"/><path class="cls-1" d="M844.56,202c.2,0,.48.06.54-.26C844.89,201.74,844.61,201.64,844.56,202Z"/><path class="cls-1" d="M764,192l.48.07C765.83,192.37,764.14,191,764,192Z"/><path class="cls-1" d="M760.34,185.64c.2,0,.48.06.53-.27C760.67,185.43,760.39,185.32,760.34,185.64Z"/><path class="cls-1" d="M759.37,185.49c.29,0,.68.16.78-.23C759.86,185.28,759.47,185.11,759.37,185.49Z"/><path class="cls-1" d="M776.91,193.28c.38,0,.83.17.82-.55C777.31,192.65,777.07,192.9,776.91,193.28Z"/><path class="cls-1" d="M777.92,193.11l.72.11c.2,0,.48.05.53-.26l-.72-.11C778.25,192.88,778,192.77,777.92,193.11Z"/><path class="cls-1" d="M775.27,192.7l-1.92-.3-3.85-.59c-.91.38-2.24,0-3.42-.19-.45,1.52.83-.1.62.78.7.35.79-.47,1.5-.11l3.37.52c.56.22.62-.53,1.25-.15l1.93.3c.53-.12,1.52.66,1.73-.07C776.11,192.19,776,193,775.27,192.7Z"/><path class="cls-1" d="M778.79,187.44l.72.11c.2,0,.48.06.53-.26l-.72-.11C779.12,187.23,778.84,187.12,778.79,187.44Z"/><path class="cls-1" d="M833.67,200.63c-.29,0-.67-.16-.77.22l1,.15C835,201.33,834.54,200.48,833.67,200.63Z"/><path class="cls-1" d="M828.57,200.18c0,.18.14.41.24,0C828.83,200,828.67,199.81,828.57,200.18Z"/><path class="cls-1" d="M829.34,200c-.07.34,0,.86.19.36C829.79,200.35,829.78,199.94,829.34,200Z"/><path class="cls-1" d="M830.54,200.15c-.19,0-.47-.07-.53.25l1.44.22c.38-.13,1.19.58,1.26-.14l-1.44-.22Z"/><path class="cls-1" d="M837.34,200.85c-.72-.41-1.26.1-1.74.08,0,0-.33-.74-.49-.07a.74.74,0,0,0,1.2.18C836.63,201.12,838.05,201.34,837.34,200.85Z"/><path class="cls-1" d="M842.64,200c-.06.35,0,.86.19.37C843.09,200.35,843.09,199.93,842.64,200Z"/><path class="cls-1" d="M839.71,199.85l-2.41-.37c-1.85-.48-3.22-.1-4.57-.7-2.47.52-6-1.13-8.53-.63l-1.68-.26c-1.61-.1-.57.17.19.38a21.22,21.22,0,0,0,4.14.29c1.24.13,1.85.56,2.65.41,0,.59.32,0,.72.11,2,.63,4.2.11,5.54.85a6,6,0,0,1,2.93.11l1.44.22c.46-.13,1.35.62,1.5-.11C841,199.58,840.75,200.17,839.71,199.85Z"/><path class="cls-1" d="M838.34,195.89c-.2.05-.48-.06-.54.26C838,196.1,838.28,196.22,838.34,195.89Z"/><path class="cls-1" d="M799,187.15c.11-1-1,.17,0,0Z"/><path class="cls-1" d="M799,187.15c-.1,1,1-.17,0,0Z"/><path class="cls-1" d="M797.29,187.22c.2-.05.48.06.53-.26C797.63,187,797.35,186.89,797.29,187.22Z"/><path class="cls-1" d="M801.53,188.55a.85.85,0,0,0,1.26-.15C802.33,187.66,801.5,188.51,801.53,188.55Z"/><path class="cls-1" d="M800.38,188s-1,0-.77.23,1.64.25,1.5-.11C800.59,188.06,800.66,187.75,800.38,188Z"/><path class="cls-1" d="M787.42,185.71c-.24-.05-.46-.45-.91-.48s-.57.17-1,.19c-1,0-2.12-.49-3.18-.15l-6-.92c-2.42.45-4.69,0-6.89,0-.55-.19-.82-.67-1.64-.59a31.59,31.59,0,0,1-5.11-.44,39.24,39.24,0,0,1-4.49-.71l-.75,0a5.1,5.1,0,0,0-1.6.37c.14-.65-.64-.37-1-.48l-.49,0c-.34.1-.6.36-1.13.09l-.84-.17q-2-.07-4.11-.1c-.2.23-.62,0-.94,0l0-.05c-1.21,0-2.43,0-3.71,0a6.66,6.66,0,0,0-2.25-.36c.51.11,1,.23,1.5.38s.76.43,1.15.51c2.37.53,4.9.64,7.46,1.14.85,0-.21-1.53.45-1.29a1.26,1.26,0,0,0,1.15.52c.48.07.16,1,.86.81-.07-.27.92-.42,1-.19.16.41.45.4,1.2.18.12.69.74.44,1.16.52,1.41.28,3.39-.19,4.57.7.27-.57.45,0,.72.11.17-.4.42-.64.83-.56.62.3,2-.13,2.11.66-.31.68-1.51-.36-1.78.4a.85.85,0,0,0-1.5.12c3.59.21,7.46,1,10.94,1,.74.19,1.8,0,2.12.66.1-.94,1.44.51,1.54-.44.53-.12,1.52.65,1.73-.07a13.31,13.31,0,0,0-4.38-.33l-4.58-.7-1.2-.18c-.23.21-.74.42-.72-.11-.58-.37-1.48.8-1.68-.26.37-.71,1.53.1,2.22,0l2.4.37c.56.22.62-.53,1.26-.15l2.89.44,1.45.22c.39,0,.89.31,1-.18-.34,0-.69-.05-.67-.45l2.16.33c.25-1.09.55,1.42,1,.15a1.28,1.28,0,0,0,1.44.22c.53.67.9-.25,1.15.53.7.36.47-1.1,1.3-.48l2.17.33c.11-.35.51-.16.59-.59-.34-.23,0-.35.29-.3s.06.69.37.74c0-.58.28-.6.59-.6a10.05,10.05,0,0,0,3.66.23c.6-.05.43.68,1.15.51a3.18,3.18,0,0,1,2.46,0c.77.28.38.28,1.45.22.34,0,.67.23.77-.23-3-.39-5.41-.92-8.43-1.29C788.36,185.51,787.74,185.77,787.42,185.71Z"/><path class="cls-1" d="M971,214.53c-1.22-.56-.44,1,0,0Z"/><path class="cls-1" d="M1122.53,196.56l1.45.22c.53.36,1.18-.3.29-.29l-1.44-.22c-.38.13-1.18-.58-1.25.15C1122,197,1121.88,196.43,1122.53,196.56Z"/><path class="cls-1" d="M1122.14,197.52a1.08,1.08,0,0,0,1.3-.48C1122.86,196.91,1122.29,196.8,1122.14,197.52Z"/><path class="cls-1" d="M757.45,185.2c-.07,0-.09-.53-.43-.41l-.34.63c.69-.11,1.85.71,2.22,0C758.52,184.64,757.9,185.17,757.45,185.2Z"/><path class="cls-1" d="M1115.24,199.18l-.73-.11c-.2.05-.48-.06-.53.27l.72.11C1114.9,199.4,1115.18,199.51,1115.24,199.18Z"/><path class="cls-1" d="M1119.79,196.82c-.5.76.67,1.1.67.45-.35-.2,0-1.08-.86-.81l-1.69-.26c-.2,0-.47-.06-.53.26l.72.11Z"/><path class="cls-1" d="M1120.9,196c-.29,0-.67-.17-.77.22C1120.42,196.19,1120.8,196.35,1120.9,196Z"/><path class="cls-1" d="M1119.94,195.82c-.37,0-.87-.26-1,.18l.48.07C1119.6,196,1119.88,196.14,1119.94,195.82Z"/><path class="cls-1" d="M1110.18,198.41c-.2.05-.48-.06-.53.27C1109.85,198.62,1110.13,198.73,1110.18,198.41Z"/><path class="cls-1" d="M1111.67,198.3l-.05.33-1-.15C1109.61,198.9,1112.8,199.34,1111.67,198.3Z"/><path class="cls-1" d="M1109.68,200c.29,0,.67.16.77-.22C1110.16,199.82,1109.78,199.65,1109.68,200Z"/><path class="cls-1" d="M1111.65,201.7c.19-.05.47.06.53-.26C1112,201.49,1111.7,201.38,1111.65,201.7Z"/><path class="cls-1" d="M1116.54,198.7c.2,0,.48.07.53-.26C1116.87,198.49,1116.59,198.39,1116.54,198.7Z"/><path class="cls-1" d="M1112.9,201.56c-.07-.5-.29,0,0,0Z"/><path class="cls-1" d="M1113.38,201.63l-.48-.07C1112.89,202,1113.33,202,1113.38,201.63Z"/><path class="cls-1" d="M1113.38,201.63c.38-.14,1.18.58,1.26-.15C1114.26,201.6,1113.45,200.89,1113.38,201.63Z"/><path class="cls-1" d="M1196,212.17c.3.57.71.89,1.34.71C1197.3,211.81,1196.61,212.08,1196,212.17Z"/><path class="cls-1" d="M1192.21,205.87c-.37-.71-.4.05-.27.57C1192.65,206.43,1192.62,205.81,1192.21,205.87Z"/><path class="cls-1" d="M1166.89,180.95c.28-.07.67,0,.83-.22a3.54,3.54,0,0,0-1.66.61A1.32,1.32,0,0,0,1166.89,180.95Z"/><path class="cls-1" d="M1202.79,185.11l-4.09,0a2.43,2.43,0,0,0-1.35.41h-2.28a3,3,0,0,1-1.08,0c-.39.11-.79.22-1.17.31l0,.11-.2-.07-.53.08c1.23,1,3.47-.24,4.58,1a33.82,33.82,0,0,0,6.66-2l-.09-.07A1.67,1.67,0,0,0,1202.79,185.11Z"/><path class="cls-1" d="M1202.29,210.24l-.75.17c.27.63,1,.18,1.61.15C1203,210.09,1202.61,210.28,1202.29,210.24Z"/><path class="cls-1" d="M1220.77,204.53c.6,1.46,1.15.41,2,.07C1222.58,203.52,1221.37,204.67,1220.77,204.53Z"/><path class="cls-1" d="M1213.51,205.67c-1,.48-1.33,1.53-2.3,2-1.25.28-1.64-1.29-3-.86.4,1.25-.16,1.71-1.18,1.79a1.65,1.65,0,0,0,2.74-.11c2.42-.24,3.89-1.26,5.91-1.84C1215.26,205.76,1213.89,206.77,1213.51,205.67Z"/><path class="cls-1" d="M1163.26,181.35l.23-.2c-.29.06-.58.13-.88.2Z"/><path class="cls-1" d="M1135.1,181.49h1.36c.54-.07,1.29.06,1.37-.4h-1.37C1135.93,181.15,1135.17,181,1135.1,181.49Z"/><path class="cls-1" d="M1122.84,181.17c-.26,0-.52.32,0,.39s2.34-.47,2.27.39c1.43-.79,3.11.67,4.08-.81l-5,0Z"/><path class="cls-1" d="M1165.32,181.28a1.9,1.9,0,0,0-.89-.22Z"/><path class="cls-1" d="M1117.29,181.28c.07.21.06.51.15.72,1,.07,1.94.12,2.22-.42A5.28,5.28,0,0,0,1117.29,181.28Z"/><path class="cls-1" d="M1122,190.35c.11-.39.3-.16.48.07l1.2.18a.37.37,0,0,1,.53-.26l2.41.37c.6-.87.95.81,1.25-.15-1.79-2-5.5-.18-7.46-1.14C1120,190.66,1121.5,190,1122,190.35Z"/><path class="cls-1" d="M1151.45,180.63c-.19-.68-.58.08-1.37,0h-2.27l-4.54,0c-1.65,0-3.58-.21-4.08.81,5-.06,9.8,0,14.28-.07a10.77,10.77,0,0,0,2.73-1.08l-.67-.12C1154.78,180.87,1152.87,180.53,1151.45,180.63Z"/><path class="cls-1" d="M1221.56,190.55c.28.61.83.62,1.08,1.29.48-.27,0-1.28-.07-2A1.56,1.56,0,0,1,1221.56,190.55Z"/><path class="cls-1" d="M1000.93,218.44c-.29,0-.67-.17-.77.21C1000.45,218.64,1000.83,218.81,1000.93,218.44Z"/><path class="cls-1" d="M1006.21,220.94c-.3,0-.68-.16-.78.23l1.21.19c.31,0,.4-.38.77-.23,0,.21,0,.41.19.38.31-.84,1.74.51,1.84-.74C1008.45,221,1007.16,220.65,1006.21,220.94Z"/><path class="cls-1" d="M1000.43,220.06c.2,0,.48.07.54-.25C1000.77,219.85,1000.49,219.74,1000.43,220.06Z"/><path class="cls-1" d="M1002.65,220.06c.2,0,.47.06.53-.26C1003,219.85,1002.71,219.74,1002.65,220.06Z"/><path class="cls-1" d="M1016,221.09c.59.14,1.16.24,1.31-.48A1.08,1.08,0,0,0,1016,221.09Z"/><path class="cls-1" d="M1010,220.5c.2,0,.48.06.53-.26C1010.31,220.29,1010,220.18,1010,220.5Z"/><path class="cls-1" d="M1010.83,221.32c.2,0,.48.06.54-.26C1011.17,221.1,1010.89,221,1010.83,221.32Z"/><path class="cls-1" d="M972.27,215.74l.72.11c0-.39-.33-.42-.67-.44-.55-.07-.92-.17-1.44-.22-1.11-.11-1.3,0-1.69-.26-1.65-1-3.45,0-5.06-.77l-1.2-.18-.72-.11a.16.16,0,0,0,0,.33l2.89.44c.39.63.31,0,1,.15-.05.34-.26.37-.35.63,1.11-.08,1.12.44,1.34.89.13-.62.83-.11.88-.88-.28-.1-.7-.05-.67-.45.47.27,1.65-.16,1.63.6-.29,0-.67-.17-.77.21a3.49,3.49,0,0,1,1.88.63c.67-.53,1.49,1,2-.37-.32-.24-1.3.19-1.15-.53Z"/><path class="cls-1" d="M1114.07,200.37c.2,0,.48.06.54-.26l-1.21-.19c-.37.13-1.18-.58-1.25.15l1.2.18Z"/><path class="cls-1" d="M1019.36,221.94c.29,0,.67.16.77-.23C1019.84,221.73,1019.46,221.56,1019.36,221.94Z"/><path class="cls-1" d="M971,214.53l1.2.18C972.37,214.18,971,214,971,214.53Z"/><path class="cls-1" d="M984.55,217.62c-.37-.37-1.29-.18-1-1.18l7,1.07c.83.37,1-.44.05-.34l-1.69-.26-3.37-.52-6.74-1c-2.38-.37-4.44-1-6.55-.66l-.05.33a28.09,28.09,0,0,0,5.83.55c.51.33,2-.31,1.58.92-.07.64-.93-.71-1.5.1-1.44-.31-3.28-.23-4.28-1-.11.35-.51.15-.59.59,1.11-.1,1.38.66,2.36.69,2.23-.29,4.85,1.35,7.75.86,1.58.18,3.45.59,5.29.81.4,0,1.12.48,1.5-.12a11.16,11.16,0,0,0-3.8-.92C985.49,217.16,985.28,217.91,984.55,217.62Z"/><path class="cls-1" d="M995.86,219.36l1.93.29,1,.15c.29,0,.67.16.77-.21l-1.93-.3C997.07,219.41,996.08,218.63,995.86,219.36Z"/><path class="cls-1" d="M996.74,218.47l-1.69-.26c0,.58-.28.6-.58.59.09-.27.29-.3.34-.63a6.48,6.48,0,0,0-2.75.26c-1,.23-1.52-1.26-2,0,1.15.51,3.45.32,5.3.81.27,0,.26-.63.58-.59S996.63,218.86,996.74,218.47Z"/><path class="cls-1" d="M973.18,216.23c-1.22-.56-.44,1,0,0Z"/><path class="cls-1" d="M1112.39,204.88l.48.07C1114.18,205.25,1112.49,203.93,1112.39,204.88Z"/><path class="cls-1" d="M1113.15,206.36c.2,0,.48.06.54-.26C1113.48,206.15,1113.2,206,1113.15,206.36Z"/><path class="cls-1" d="M1115.57,205c.2,0,.48.06.53-.25l-1-.15c-.37,0-.87-.26-1,.18l1,.15Z"/><path class="cls-1" d="M1119.55,201.55l-1.2-.18c-.38.13-1.18-.58-1.25.14l1.2.18C1118.67,201.56,1119.48,202.28,1119.55,201.55Z"/><path class="cls-1" d="M1113.84,198.63a.83.83,0,0,0-1.55.45C1113,199.25,1113.53,199.18,1113.84,198.63Z"/><path class="cls-1" d="M1115.34,198.52l-.73-.11c-.2.05-.48-.06-.53.26l.72.11C1115,198.73,1115.28,198.84,1115.34,198.52Z"/><path class="cls-1" d="M1117.34,206.32c-.2,0-.48-.06-.53.25C1117,206.53,1117.29,206.64,1117.34,206.32Z"/><path class="cls-1" d="M1057.25,222.31c.53.17.91.06,1.06-.52A1,1,0,0,0,1057.25,222.31Z"/><path class="cls-1" d="M1104,213.12l-.72-.11c-.2,0-.47-.06-.53.26l.72.11C1103.65,213.34,1103.93,213.44,1104,213.12Z"/><path class="cls-1" d="M1103.58,209.31c-.2.05-.48-.06-.54.26C1103.25,209.53,1103.52,209.64,1103.58,209.31Z"/><path class="cls-1" d="M1103.78,214.45c.29,0,.67.16.77-.22C1104.26,214.24,1103.88,214.07,1103.78,214.45Z"/><path class="cls-1" d="M1096.9,219.18c-.6.05-.43-.68-1.15-.51C1095.22,219.61,1096.85,219.74,1096.9,219.18Z"/><path class="cls-1" d="M1108.34,199.15c-.65-1.14-.92,1.11,0,0Z"/></svg>