<?xml version="1.0" encoding="UTF-8"?>
<svg width="130px" height="67px" viewBox="0 0 130 67" version="1.1" xmlns="http://www.w3.org/2000/svg" xmlns:xlink="http://www.w3.org/1999/xlink">
    <!-- Generator: Sketch 46.2 (44496) - http://www.bohemiancoding.com/sketch -->
    <title>design-thinking</title>
    <desc>Created with Sketch.</desc>
    <defs></defs>
    <g id="Page-1" stroke="none" stroke-width="1" fill="none" fill-rule="evenodd">
        <g id="design-thinking" fill-rule="nonzero" fill="#F05E2C">
            <g id="noun_807988_cc">
                <path d="M128.92086,32.5131458 L97.5391398,1.1766875 C96.9925806,0.630916667 96.1091398,0.630916667 95.5625806,1.1766875 L64.8504301,31.8431458 L34.1396774,1.1766875 C33.5931183,0.630916667 32.7096774,0.630916667 32.1631183,1.1766875 L0.78,32.5131458 C0.517204301,32.7741667 0.370430108,33.1287083 0.370430108,33.5 C0.370430108,33.8712917 0.517204301,34.2258333 0.78,34.4868542 L32.1631183,65.8247083 C32.425914,66.087125 32.7795699,66.2336875 33.1513978,66.2336875 C33.5232258,66.2336875 33.8782796,66.087125 34.1396774,65.8247083 L64.8504301,35.1568542 L95.5625806,65.8247083 C95.8253763,66.087125 96.1790323,66.2336875 96.5508602,66.2336875 C96.9226882,66.2336875 97.2777419,66.087125 97.5391398,65.8247083 L128.92086,34.4868542 C129.466022,33.9410833 129.466022,33.0575208 128.92086,32.5131458 Z M33.1513978,62.8641458 L33.1513978,62.8641458 L33.1513978,4.13725 L33.1513978,4.13725 L62.5565591,33.5 L33.1513978,62.8641458 Z M95.5010753,5.18272917 L95.5010753,61.815875 L67.1429032,33.5 L95.5010753,5.18272917 Z M97.5978495,61.8172708 L97.5978495,5.184125 L125.956022,33.5 L97.5978495,61.8172708 Z" id="Shape"></path>
            </g>
        </g>
    </g>
</svg>