<?xml version="1.0" encoding="UTF-8"?>
<svg width="71px" height="71px" viewBox="0 0 71 71" version="1.1" xmlns="http://www.w3.org/2000/svg" xmlns:xlink="http://www.w3.org/1999/xlink">
    <!-- Generator: Sketch 46.2 (44496) - http://www.bohemiancoding.com/sketch -->
    <title>javascript</title>
    <desc>Created with Sketch.</desc>
    <defs></defs>
    <g id="Page-1" stroke="none" stroke-width="1" fill="none" fill-rule="evenodd">
        <g id="javascript" fill-rule="nonzero">
            <g id="Unofficial_JavaScript_logo_2">
                <rect id="Rectangle-path" fill="#F05E2C" x="0" y="0" width="71.25" height="71.25"></rect>
                <path d="M47.8619048,55.6643452 C49.2970833,58.0076786 51.1642857,59.730119 54.4666667,59.730119 C57.2408929,59.730119 59.0130952,58.3435714 59.0130952,56.4277381 C59.0130952,54.1319048 57.1922619,53.31875 54.1386905,51.9830952 L52.464881,51.2649405 C47.6334524,49.2066071 44.4238095,46.6280357 44.4238095,41.1768452 C44.4238095,36.1554167 48.2498214,32.3327976 54.2291667,32.3327976 C58.4860714,32.3327976 61.5464286,33.8143452 63.7517857,37.6935119 L58.5380952,41.041131 C57.3901786,38.9827976 56.1517857,38.1719048 54.2291667,38.1719048 C52.2680952,38.1719048 51.0251786,39.4159524 51.0251786,41.041131 C51.0251786,43.0497024 52.2692262,43.8628571 55.1418452,45.1069048 L56.8156548,45.8239286 C62.5043452,48.2633929 65.71625,50.7503571 65.71625,56.3417857 C65.71625,62.3697619 60.9809524,65.6721429 54.6216071,65.6721429 C48.403631,65.6721429 44.3864881,62.7090476 42.4208929,58.8253571 L47.8619048,55.6643452 Z M24.2102976,56.2445238 C25.2620833,58.1105952 26.218869,59.6882738 28.5192262,59.6882738 C30.7189286,59.6882738 32.1066071,58.827619 32.1066071,55.481131 L32.1066071,32.7150595 L38.8018452,32.7150595 L38.8018452,55.5716071 C38.8018452,62.5043452 34.7372024,65.6597024 28.8042262,65.6597024 C23.4435119,65.6597024 20.3390476,62.8854762 18.7602381,59.5440774 L24.2102976,56.2445238 Z" id="Shape" fill="#FFFFFF"></path>
            </g>
        </g>
    </g>
</svg>