<svg width="900px" height="901px" viewBox="0 0 900 901" version="1.1" xmlns="http://www.w3.org/2000/svg" xmlns:xlink="http://www.w3.org/1999/xlink">
    <!-- Generator: Sketch 44.1 (41455) - http://www.bohemiancoding.com/sketch -->
    <title>logo-t-white-semi-opaque@2x</title>
    <desc>Created with Sketch.</desc>
    <defs></defs>
    <g id="Page-1" stroke="none" stroke-width="1" fill="none" fill-rule="evenodd" fill-opacity="0.486243207" opacity="0.3">
        <g id="logo-t-white-semi-opaque" fill-rule="nonzero" fill="#FFFFFF">
            <g id="Tandemly_Web_T">
                <path d="M561.67,51.76 L390.57,0 L341.71,161.81 L53.6,161.81 L0,339.27 L264,419.07 L219.4,570.24 C200.20935,649.827252 218.571881,733.819746 269.22332,798.138043 C319.87476,862.456341 397.221742,899.997865 479.09,900 L482.63,900 C509.985858,900.009046 537.150593,895.442721 563,886.49 C659.27,853.18 728.42,761.7 728.42,654.06 C728.42,539.7 650.42,443.58 544.66,416.06 L520.28,496.79 C571.225868,516.159595 601.874511,568.323688 593.996112,622.255065 C586.117712,676.186443 541.827791,717.403365 487.47,721.39 C484.683333,721.59 481.873333,721.693333 479.04,721.7 C476.206667,721.706667 473.376667,721.603333 470.55,721.39 C443.471691,718.743468 419.091342,703.856507 404.367051,680.977823 C389.642759,658.099139 386.192143,629.742195 395,604 C395.09,603.74 475.22,338.16 475.22,338.16 L846.75,338.16 L900,161.81 L528.43,161.81 L561.67,51.76 Z" id="Shape"></path>
            </g>
        </g>
    </g>
</svg>