<?xml version="1.0" encoding="UTF-8" standalone="no"?>
<svg width="90px" height="28px" viewBox="0 0 90 28" version="1.1" xmlns="http://www.w3.org/2000/svg" xmlns:xlink="http://www.w3.org/1999/xlink">
    <!-- Generator: Sketch 44.1 (41455) - http://www.bohemiancoding.com/sketch -->
    <title>oci logo small</title>
    <desc>Created with Sketch.</desc>
    <defs></defs>
    <g id="Page-1" stroke="none" stroke-width="1" fill="none" fill-rule="evenodd">
        <g id="header-logo" transform="translate(-133.000000, 0.000000)" fill="#999999">
            <g id="logo-black" transform="translate(133.824630, 0.000000)" fill-rule="nonzero">
                <path d="M23.1977477,3.06117347 L26.6668701,4.02381901 C26.9183156,4.09732317 26.9281628,4.27867723 26.6883192,4.42568277 L16.5534281,10.7977758 C16.2813049,10.9512977 15.9623996,10.9999058 15.6568958,10.9344269 L1.02550416,6.69560396 C0.772847129,6.62294812 0.763324356,6.44123921 1.00370297,6.29338535 L11.7280745,0.167866931 C12.0002364,0.0144711134 12.3190503,-0.0342494254 12.624604,0.0308609901 L15.1185917,0.773831287 L15.3214558,0.835955248 C15.6575695,0.919811089 15.7050974,1.04628792 15.7071489,1.1182701 C15.698567,1.21643213 15.6464497,1.3055832 15.5651224,1.36121861 L9.16305545,5.20647802 C8.92250218,5.35401584 8.92805782,5.53741861 9.17431089,5.61265545 L14.7546277,7.23704079 C15.0567931,7.30298657 15.3726596,7.25545267 15.6420337,7.10349743 L21.9165481,3.34638812 C21.9165481,3.34638812 22.2493683,3.18506931 22.5097766,3.07410891 C22.7297351,2.98547993 22.9746137,2.98087663 23.1977477,3.06117624" id="turquoise"></path>
                <path d="M23.9598301,14.1868071 C23.9564806,13.8731312 24.1331434,13.5852739 24.4143366,13.4462265 L27.3710895,11.5671604 C27.4900751,11.4883617 27.6436549,11.4845893 27.7663657,11.5574514 C27.8890764,11.6303134 27.959279,11.7669612 27.9470495,11.9091485 L27.9446432,20.1752947 C27.9266677,20.5021018 27.949137,20.708958 27.4288166,21.0647909 L24.333461,23.3010206 C24.083385,23.4594063 23.9418574,23.3227525 23.9418574,23.0717117 L23.9598301,14.1868071 Z M23.8241743,11.9716051 C23.8241743,12.221975 24.0078543,12.318625 24.2575754,12.1621133 L27.5131133,10.1108416 C27.7633353,9.96271053 27.9218224,9.69822995 27.9344495,9.40772277 L27.9498051,5.37660158 C27.9498051,5.12623168 27.7659477,4.94989545 27.5165814,5.1074301 L24.2779628,7.22753465 C24.0226326,7.39345485 23.855726,7.66565743 23.8236448,7.96846733 L23.8241743,11.9716051 Z" id="orange"></path>
                <path d="M10.7857442,15.2069137 C10.76988,14.9395395 10.5941145,14.7082177 10.3407687,14.6212895 L4.85218653,12.9390911 C4.75055251,12.8952196 4.63343387,12.907223 4.54281194,12.9707985 C4.45219002,13.034374 4.40104403,13.1404162 4.40770733,13.2509141 L4.40770733,19.7342531 C4.4230943,20.0015749 4.59881092,20.2329645 4.85218653,20.3195584 L10.3407715,22.0020756 C10.4423639,22.0459088 10.5594126,22.0339841 10.6500783,21.970564 C10.740744,21.907144 10.7920841,21.8012818 10.7857469,21.6908182 L10.7857442,15.2069137 Z M15.4316982,27.3854444 C15.4376395,27.4964693 15.3864417,27.6028333 15.2959587,27.6674449 C15.2054757,27.7320565 15.0882525,27.7459576 14.9851675,27.7043006 L0.724118812,23.5506947 C0.47016656,23.4684636 0.292715033,23.2388014 0.277227723,22.9723172 L0.277227723,7.88358851 C0.271122071,7.77246598 0.322382422,7.66596497 0.413040954,7.60141632 C0.503699485,7.53686767 0.621110434,7.52327513 0.724118812,7.56540317 L14.9851675,11.7182994 C15.2390699,11.8007322 15.4163692,12.0305235 15.4316982,12.2970317 L15.4316982,27.3854444 Z" id="blue"></path>
            </g>
            <path d="M187.070703,14.041224 C187.063869,14.6299397 187.162673,15.2151094 187.362423,15.768944 C187.546898,16.2751186 187.834011,16.7376966 188.205743,17.127644 C188.575304,17.5183383 189.024817,17.8246898 189.523593,18.025784 C190.625915,18.4581715 191.850891,18.4581715 192.953213,18.025784 C193.451415,17.8243809 193.900405,17.5180579 194.269653,17.127644 C194.642074,16.7382035 194.929323,16.2754831 195.113113,15.768944 C195.504609,14.6507884 195.504609,13.4327995 195.113113,12.314644 C194.928825,11.8053617 194.641719,11.3394449 194.269653,10.945874 C193.89932,10.5570775 193.450616,10.2513901 192.953253,10.049054 C191.851219,9.61514866 190.625668,9.61514866 189.523633,10.049054 C189.025675,10.2510951 188.576435,10.5568316 188.205783,10.945934 C187.83441,11.34001 187.547439,11.8057855 187.362463,12.314704 C187.163782,12.868424 187.065009,13.4530262 187.070743,14.041284 L187.070703,14.041224 Z M184.000743,14.041284 C183.986766,13.0422272 184.170011,12.0502267 184.539983,11.122094 C184.880458,10.283658 185.394289,9.52664648 186.047793,8.90068397 C186.708196,8.2803287 187.488674,7.80182717 188.341103,7.49468397 C190.217586,6.83745195 192.261721,6.83745195 194.138203,7.49468397 C194.989576,7.80321364 195.769359,8.28156236 196.430203,8.90068397 C197.083344,9.52684627 197.596968,10.2838139 197.937493,11.122094 C198.657165,12.9990468 198.657165,15.0758612 197.937493,16.952814 C197.597447,17.7913501 197.083758,18.5484122 196.430203,19.174224 C195.770183,19.7953421 194.990239,20.275086 194.138203,20.584034 C192.260886,21.2363376 190.218421,21.2363376 188.341103,20.584034 C187.488009,20.2764749 186.707368,19.7965769 186.047793,19.174224 C185.393874,18.5486123 184.879978,17.7915061 184.539983,16.952814 C184.170575,16.0271924 183.987332,15.0378069 184.000743,14.041284 L184.000743,14.041284 Z M211.787013,10.821534 C211.500025,10.4696913 211.133046,10.1915919 210.716703,10.010444 C210.253555,9.81081753 209.752929,9.71300794 209.248703,9.72363397 C208.191147,9.71290678 207.18012,10.1577997 206.473593,10.944794 C206.117856,11.3464861 205.840282,11.8110939 205.655153,12.314714 C205.266211,13.4333022 205.266211,14.6504258 205.655153,15.769014 C205.840272,16.2681741 206.114419,16.7296066 206.464273,17.130894 C206.796971,17.5107 207.206346,17.8157276 207.665443,18.025894 C208.131159,18.2437234 208.639858,18.3541552 209.153973,18.349034 C209.712819,18.3603551 210.265574,18.2312813 210.761613,17.973634 C211.229634,17.7221962 211.62766,17.3581493 211.919753,16.914364 L214.380173,18.752864 C213.837825,19.5268176 213.090799,20.1345757 212.222693,20.508124 C211.374489,20.880046 210.458515,21.0724782 209.532353,21.073324 C208.545525,21.0842752 207.564697,20.9185884 206.636223,20.584094 C205.783656,20.2743393 205.002852,19.7947152 204.341123,19.174284 C203.687181,18.5481252 203.173833,17.7900916 202.835123,16.950454 C202.112897,15.0748095 202.112897,12.9977985 202.835123,11.122154 C203.174917,10.2830942 203.68812,9.52527506 204.341123,8.89832397 C205.003109,8.27942767 205.783935,7.80148059 206.636223,7.49348397 C207.564002,7.1559712 208.545159,6.98897878 209.532353,7.00056397 C209.929322,7.0017948 210.325485,7.03637643 210.716663,7.10394397 C211.130786,7.17424408 211.536791,7.28600278 211.928553,7.43753397 C212.333481,7.5902725 212.717705,7.79307783 213.072273,8.04122397 C213.445322,8.29900435 213.77809,8.61066945 214.059723,8.96605397 L211.787013,10.821534 Z M219.883013,7.33853397 L222.838883,7.33853397 L222.838883,20.733374 L219.883013,20.733374 L219.883013,7.33853397 Z" id="dk-gray-copy" fill-rule="nonzero"></path>
            <path d="M174.96742,25.8500001 C174.433969,25.8503304 174.00101,25.5198081 174,25.1114688 L174,3.73673452 C174.001712,3.32946432 174.433509,3 174.965565,3 C175.497621,3 175.929418,3.32946432 175.93113,3.73673452 L175.93113,25.1114688 C175.931395,25.3072571 175.829981,25.495097 175.649222,25.6336186 C175.468463,25.7721401 175.223186,25.849982 174.96741,25.8500001 L174.96742,25.8500001 Z" id="blue-path-copy"></path>
        </g>
        <g id="oci-logo-small"></g>
    </g>
</svg>