<?xml version="1.0" encoding="UTF-8"?>
<svg width="80px" height="71px" viewBox="0 0 80 71" version="1.1" xmlns="http://www.w3.org/2000/svg" xmlns:xlink="http://www.w3.org/1999/xlink">
    <!-- Generator: Sketch 46.2 (44496) - http://www.bohemiancoding.com/sketch -->
    <title>reactjs</title>
    <desc>Created with Sketch.</desc>
    <defs></defs>
    <g id="Page-1" stroke="none" stroke-width="1" fill="none" fill-rule="evenodd">
        <g id="reactjs" fill-rule="nonzero" fill="#F05E2C">
            <g id="React-icon">
                <path d="M80,35.5081254 C80,30.2265965 73.3632287,25.2213321 63.1879331,22.1174182 C65.5360783,11.7818723 64.4924582,3.55893797 59.8940073,0.926298924 C58.8340807,0.308766308 57.5947819,0.0162508583 56.2413371,0.0162508583 L56.2413371,3.64019226 C56.9914391,3.64019226 57.5947819,3.78644999 58.1002854,4.06271458 C60.317978,5.33028153 61.2800652,10.1567864 60.5299633,16.3646143 C60.3505911,17.892195 60.057073,19.50103 59.6983286,21.1423667 C56.5022422,20.3623255 53.0126376,19.7610437 49.3436608,19.3710231 C47.1422748,16.3646143 44.8593559,13.6344701 42.5601305,11.245594 C47.8760701,6.32158389 52.8658785,3.62394141 56.2576437,3.62394141 L56.2576437,0 C56.2576437,0 56.2576437,0 56.2576437,0 C51.7733388,0 45.9029759,3.18516823 39.9673869,8.71046006 C34.0317978,3.21766995 28.161435,0.0650034333 23.67713,0.0650034333 L23.67713,3.68894484 C27.0525887,3.68894484 32.0587036,6.37033646 37.3746433,11.2618448 C35.0917244,13.650721 32.8088055,16.3646143 30.6400326,19.3710231 C26.9547493,19.7610437 23.4651447,20.3623255 20.2690583,21.1586175 C19.8940073,19.5335317 19.6167958,17.9571984 19.421117,16.4458686 C18.6547085,10.2380407 19.6004892,5.41153582 21.8018753,4.12771801 C22.2910722,3.83520256 22.9270281,3.7051957 23.67713,3.7051957 L23.67713,0.0812542916 C23.67713,0.0812542916 23.67713,0.0812542916 23.67713,0.0812542916 C22.3073787,0.0812542916 21.0680799,0.373769741 19.9918467,0.991302358 C15.4097024,3.62394141 14.3823889,11.8306249 16.7468406,22.133669 C6.60415817,25.2538338 0,30.2428473 0,35.5081254 C0,40.7896544 6.6367713,45.7949187 16.8120669,48.8988327 C14.4639217,59.2343786 15.5075418,67.4573129 20.1059927,70.0899519 C21.1659193,70.7074846 22.4052181,71 23.7749694,71 C28.2592744,71 34.1296372,67.8148318 40.0652263,62.2895399 C46.0008153,67.7823301 51.8711781,70.9349966 56.3554831,70.9349966 C57.7252344,70.9349966 58.9645332,70.6424811 60.0407664,70.0249485 C64.6229107,67.3923095 65.6502242,59.185626 63.2857725,48.8825818 C73.3958418,45.7786679 80,40.7734035 80,35.5081254 Z M58.7688545,24.6688029 C58.1655116,26.7651637 57.4154097,28.9265278 56.5674684,31.087892 C55.8988993,29.7878233 55.1977171,28.4877546 54.4313086,27.187686 C53.6812067,25.8876173 52.8821851,24.6200504 52.0831635,23.3849851 C54.3986955,23.7262531 56.6326947,24.1487755 58.7688545,24.6688029 Z M51.3004484,41.975967 C50.0285365,44.1698329 48.7240114,46.2499428 47.3705667,48.1837949 C44.9408887,48.3950561 42.4785976,48.5088121 40,48.5088121 C37.5377089,48.5088121 35.0754179,48.3950561 32.6620465,48.2000458 C31.3086017,46.2661936 29.9877701,44.2023346 28.7158581,42.0247196 C27.4765593,39.8958572 26.3514064,37.734493 25.3240929,35.556878 C26.3350999,33.379263 27.4765593,31.201648 28.6995516,29.0727855 C29.9714635,26.8789197 31.2759886,24.7988098 32.6294333,22.8649577 C35.0591113,22.6536965 37.5214024,22.5399405 40,22.5399405 C42.4622911,22.5399405 44.9245821,22.6536965 47.3379535,22.8487068 C48.6913983,24.7825589 50.0122299,26.8464179 51.2841419,29.024033 C52.5234407,31.1528954 53.6485936,33.3142596 54.6759071,35.4918746 C53.6485936,37.6694896 52.5234407,39.8471046 51.3004484,41.975967 Z M56.5674684,39.8633555 C57.4480228,42.0409705 58.1981247,44.2185855 58.8177742,46.3311971 C56.6816143,46.8512245 54.4313086,47.2899977 52.09947,47.6312657 C52.8984916,46.3799496 53.6975132,45.0961318 54.4476152,43.7798123 C55.1977171,42.4797436 55.8988993,41.1634241 56.5674684,39.8633555 Z M40.0326131,57.2030213 C38.5161027,55.6429389 36.9995923,53.904097 35.4993885,52.0027466 C36.9669792,52.0677501 38.467183,52.1165026 39.9836934,52.1165026 C41.5165104,52.1165026 43.0330208,52.0840009 44.5169181,52.0027466 C43.0493274,53.904097 41.532817,55.6429389 40.0326131,57.2030213 Z M27.90053,47.6312657 C25.584998,47.2899977 23.3509988,46.8674754 21.214839,46.3474479 C21.8181818,44.2510872 22.5682837,42.089723 23.416225,39.9283589 C24.0847941,41.2284276 24.7859764,42.5284962 25.5523848,43.8285649 C26.3187933,45.1286336 27.1015084,46.3962005 27.90053,47.6312657 Z M39.9510803,13.8132296 C41.4675907,15.373312 42.9841011,17.1121538 44.4843049,19.0135042 C43.0167142,18.9485008 41.5165104,18.8997482 40,18.8997482 C38.467183,18.8997482 36.9506726,18.9322499 35.4667754,19.0135042 C36.9343661,17.1121538 38.4508765,15.373312 39.9510803,13.8132296 Z M27.8842234,23.3849851 C27.0852018,24.6363012 26.2861802,25.920119 25.5360783,27.2364385 C24.7859764,28.5365072 24.0847941,29.8365759 23.416225,31.1366445 C22.5356706,28.9590295 21.7855687,26.7814145 21.1659193,24.6688029 C23.3020791,24.1650263 25.5523848,23.7262531 27.8842234,23.3849851 Z M13.1267835,43.7310597 C7.35426009,41.2771801 3.62005707,38.0595102 3.62005707,35.5081254 C3.62005707,32.9567407 7.35426009,29.7228199 13.1267835,27.2851911 C14.529148,26.6839094 16.0619649,26.147631 17.6437016,25.6438544 C18.5731757,28.8290227 19.796168,32.1441978 21.3126784,35.5406271 C19.8124745,38.9208057 18.6057888,42.2197299 17.6926213,45.3886473 C16.0782715,44.8848707 14.5454545,44.3323415 13.1267835,43.7310597 Z M21.8997146,66.9535363 C19.682022,65.6859693 18.7199348,60.8594644 19.4700367,54.6516365 C19.6494089,53.1240558 19.942927,51.5152209 20.3016714,49.8738842 C23.4977578,50.6539254 26.9873624,51.2552071 30.6563392,51.6452277 C32.8577252,54.6516365 35.1406441,57.3817807 37.4398695,59.7706569 C32.1239299,64.694667 27.1341215,67.3923095 23.7423563,67.3923095 C23.0085609,67.3760586 22.3889115,67.2298009 21.8997146,66.9535363 Z M60.578883,54.5703822 C61.3452915,60.7782101 60.3995108,65.604715 58.1981247,66.8885328 C57.7089278,67.1810483 57.0729719,67.3110552 56.32287,67.3110552 C52.9474113,67.3110552 47.9412964,64.6296635 42.6253567,59.7381552 C44.9082756,57.349279 47.1911945,54.6353857 49.3599674,51.6289769 C53.0452507,51.2389563 56.5348553,50.6376745 59.7309417,49.8413825 C60.1059927,51.4827192 60.3995108,53.0590524 60.578883,54.5703822 Z M66.8569099,43.7310597 C65.4545455,44.3323415 63.9217285,44.8686198 62.3399918,45.3723964 C61.4105177,42.1872282 60.1875255,38.8720531 58.6710151,35.4756237 C60.1712189,32.0954452 61.3779046,28.7965209 62.2910722,25.6276036 C63.9054219,26.1313802 65.4382389,26.6839094 66.8732165,27.2851911 C72.6457399,29.7390707 76.3799429,32.9567407 76.3799429,35.5081254 C76.3636364,38.0595102 72.6294333,41.293431 66.8569099,43.7310597 Z" id="Shape"></path>
                <ellipse id="Oval" cx="40.212766" cy="35.2886905" rx="7.44680851" ry="7.39583333"></ellipse>
            </g>
        </g>
    </g>
</svg>