<?xml version="1.0" encoding="utf-8"?>
<!-- Generator: Adobe Illustrator 21.1.0, SVG Export Plug-In . SVG Version: 6.00 Build 0)  -->
<svg version="1.1" id="Layer_1" xmlns="http://www.w3.org/2000/svg" xmlns:xlink="http://www.w3.org/1999/xlink" x="0px" y="0px"
	 viewBox="0 0 550 368" style="enable-background:new 0 0 550 368;" xml:space="preserve">
<style type="text/css">
	.st0{fill:#6D4437;}
	.st1{fill:#EFC88F;}
	.st2{fill:#F05F2E;}
	.st3{fill:#8E5B47;}
	.st4{fill-rule:evenodd;clip-rule:evenodd;fill:#582F12;}
	.st5{fill:#FDC995;}
	.st6{fill:#6B3B17;}
	.st7{fill:#1A1A1A;}
	.st8{fill-rule:evenodd;clip-rule:evenodd;fill:#1A1A1A;}
	.st9{fill-rule:evenodd;clip-rule:evenodd;fill:#FFFFFF;}
	.st10{fill-rule:evenodd;clip-rule:evenodd;fill:#5DB1E3;}
	.st11{fill-rule:evenodd;clip-rule:evenodd;fill:#3D485B;}
	.st12{fill:#2D7DC1;}
	.st13{fill:#A37246;}
	.st14{fill:#321B0F;}
	.st15{fill-rule:evenodd;clip-rule:evenodd;fill:#9BCB3C;}
	.st16{fill-rule:evenodd;clip-rule:evenodd;fill:#778952;}
	.st17{fill:#778952;}
	.st18{fill:#88A93E;}
	.st19{fill:#A92E2D;}
	.st20{opacity:0.2;fill:#3E3E3E;}
	.st21{fill:#112233;}
	.st22{fill:#0D1A27;}
	.st23{fill:#8FACC1;}
	.st24{fill:#68848A;}
	.st25{fill:#825B24;}
	.st26{opacity:0.5;}
	.st27{fill:#487BA1;}
	.st28{fill:#FFFFFF;}
	.st29{fill:none;}
	.st30{fill:#6689A0;}
	.st31{fill:#92B4BD;}
	.st32{fill:#0D2C47;}
	.st33{fill:#2A3F40;}
	.st34{fill:#FCD89F;}
	.st35{fill:#7FA5B2;}
	.st36{fill:#CB9970;}
	.st37{fill:#AACB40;}
	.st38{fill:#AE3579;}
	.st39{fill:#772958;}
	.st40{fill:#6E675F;}
	.st41{fill:#968D81;}
	.st42{fill:#E0AA79;}
	.st43{fill:#3C313F;}
	.st44{fill:#C93131;}
	.st45{opacity:0.7;fill:#2B8084;}
	.st46{opacity:0.7;fill:#AE3579;}
	.st47{opacity:0.7;fill:#70C7AC;}
	.st48{fill:#9BCB3C;}
	.st49{fill:#70C7AC;}
	.st50{fill:#454545;}
	.st51{fill:#2B8084;}
	.st52{fill:#BFE6ED;}
	.st53{fill:#A1BCBC;}
	.st54{fill:#829FA0;}
	.st55{fill:#96B35B;}
	.st56{fill:#BAD766;}
	.st57{opacity:0.7;fill:#9BCB3C;}
</style>
<g>
	<path class="st0" d="M331.8,295.7l1.7,2.7l9.7,35.9l-5.5,0.8l-12.3-28.8l-11.7-20.5c4.7,3.9,9.7,6.4,9.7,6.4L331.8,295.7z"/>
	<path class="st1" d="M458.4,295.7l1.7,2.7l9.7,35.9l-5.5,0.8L452,306.2l-11.7-20.5c4.7,3.9,9.7,6.4,9.7,6.4L458.4,295.7z"/>
	<polygon class="st2" points="251.9,297.2 281.2,334.9 285.6,334.2 252,290.7 	"/>
	<polygon class="st2" points="382.4,297.2 411.8,334.9 416.2,334.2 382.6,290.7 	"/>
	<path class="st3" d="M134.3,262.2l2.4-1.5c1.8-1.1,4.1-1.1,6,0l0,0l-0.5,2.5c-0.4,1.9-1.6,3.5-3.3,4.5l0,0l-5.4,0.6l-0.5-3.7
		L134.3,262.2z"/>
	<path class="st4" d="M479.5,216.8c0,0-5.1-4.3-13.3,2.5c-6.6,5.5-10.9,2.7-10.9,2.7s2.6,8,11.6,7.9
		C477.9,229.9,478.9,221.5,479.5,216.8z"/>
	<path class="st5" d="M487.5,244.4l-6.5-6.9c0,0,3.4-0.7,4.3-4.2c1.5-6.1,8.2,2.7,8.2,2.7L487.5,244.4z"/>
	<g>
		<path class="st5" d="M505.3,226.8c0.5-4,0.4-12.2,0.4-12.3c-0.3-6.5-7.1-6.9-15.6-6.6c-7.6,0.2-13.2,5.6-13.4,13.2
			c-0.1,4.2,1,9.1,7.7,15c1,0.4,6.4,1,6.4,1c2.7,1.6,4.9,2.4,6.2,2.7c1.2,0.3,2.5,0,3.5-0.8C504,235.9,505.2,228.7,505.3,226.8z"/>
		<path class="st6" d="M496.1,204.1l-5-0.2l0,0l-1.3-0.1l-0.1,0.1c-7.6,0.3-13.1,5.8-13.4,13.5l0,1.1l0,0v0l-0.1,1.6l0,0
			c-0.3,6.2,3,12.8,7.8,15.7c0,0-1-2.5,1.6-5.5c1.2-1.3,5.3-3.5,9.6-12l1.3-0.3c3.5,2.4,6.5,2.3,8.4,1.7c1.5-0.5,2.5-1.9,2.3-3.5
			C506.6,209.8,502.5,204.4,496.1,204.1z"/>
	</g>
	<g>
		<path class="st7" d="M489.9,227.8c-0.2,0-0.4-0.1-0.6-0.2c-2.2-2-4-4.8-5.4-8.2c0,0,0,0,0-0.1l-1.4-4.4c-0.1-0.5,0.1-1,0.6-1.1
			c0.5-0.1,1,0.1,1.1,0.6l1.3,4.4c1.3,3.2,2.9,5.7,4.9,7.5c0.4,0.3,0.4,0.9,0.1,1.3C490.4,227.8,490.2,227.9,489.9,227.8z"/>
		<path class="st7" d="M489.9,227.8c-0.2,0-0.4-0.1-0.6-0.2c-0.4-0.3-0.4-0.9-0.1-1.3c1.7-1.8,3.2-4.3,4.7-7.3
			c0.7-1.5,1.3-2.9,1.7-4.1c0.2-0.5,0.7-0.7,1.1-0.6c0.5,0.2,0.7,0.7,0.6,1.1c-0.4,1.2-1,2.7-1.8,4.3c-1.5,3.2-3.2,5.8-5,7.8
			C490.4,227.8,490.2,227.9,489.9,227.8z"/>
		<path class="st7" d="M493.3,239.6c-0.3,0-0.6-0.2-0.7-0.4c-0.3-0.5-0.7-1.4-1.2-2.7c-0.9-2.5-1.6-5.6-2.3-9.4
			c-0.1-0.5,0.2-1,0.7-1c0.5-0.1,1,0.2,1,0.7c0.6,3.6,1.4,6.7,2.2,9.1c0.5,1.4,0.9,2.1,1,2.4c0.3,0.4,0.1,1-0.3,1.2
			C493.7,239.6,493.5,239.6,493.3,239.6z"/>
	</g>
	
		<ellipse transform="matrix(4.444449e-02 -0.999 0.999 4.444449e-02 253.7866 715.26)" class="st8" cx="500.8" cy="225" rx="1.9" ry="1.4"/>
	<path class="st9" d="M504.1,232.6l-5.1-0.2c0,0,0.2,3.1,3.7,3.5C502.8,235.8,503.8,234.1,504.1,232.6z"/>
	<path class="st6" d="M498.7,221.2c0,0,0.1,0,0.2-0.1c0.1-0.1,0.2-0.1,0.4-0.2c0.4-0.2,0.9-0.3,1.4-0.4c0.5-0.1,1.1,0.1,1.5,0.2
		c0.4,0.2,0.6,0.4,0.6,0.3c0.3,0.2,0.4,0.6,0.2,1c-0.2,0.3-0.6,0.4-1,0.2c0,0-0.2-0.1-0.4-0.2c-0.2-0.1-0.5-0.2-0.9-0.2
		c-0.3,0-0.7,0.1-1,0.2c-0.1,0-0.2,0.1-0.3,0.1c-0.1,0-0.1,0-0.1,0.1l0,0c-0.3,0.2-0.7,0.1-0.9-0.2
		C498.4,221.8,498.5,221.4,498.7,221.2z"/>
	<path class="st10" d="M506.2,202.9c3.2,3.7,3.8,8.5,3.3,10.8c-0.1,0.4-2.8,1.8-3.4,1.8l-27-1.2c-2.7-0.1-4.4-0.4-5.2-0.9
		c-0.3-0.2-1.2-0.5-1.5-1.3c-0.4-1-0.1-3,2.2-5.6c1.5-1.7,4.5-3.9,6.5-4.9C491.9,196,502.6,198.7,506.2,202.9z"/>
	<path class="st11" d="M472.4,212c0,0,0.1,4.2,9.9,4.7l21.1,0.9c0.8,0,1.7,0,2.4-0.3c3.3-1,3.6-3.7,3.6-3.7L472.4,212z"/>
	<path class="st12" d="M504,210.1c0,0-0.8,0-2,0c-1.2,0-2.8-0.1-4.3-0.1c-1.6-0.1-3.1-0.2-4.3-0.3c-1.2-0.1-2-0.2-2-0.2
		c-0.6-0.1-1-0.6-0.9-1.1c0.1-0.5,0.5-0.9,1-0.9c0,0,0.8,0,2,0c1.2,0,2.8,0.1,4.3,0.1c1.6,0.1,3.1,0.2,4.3,0.3c1.2,0.1,2,0.2,2,0.2
		c0.6,0.1,1,0.6,0.9,1.1C504.9,209.7,504.5,210.1,504,210.1z"/>
	<path class="st12" d="M487.2,209.4c0,0-0.3,0.1-0.6,0.1c-0.4,0-0.9,0-1.4,0c-0.5,0-1-0.1-1.4-0.1c-0.4-0.1-0.6-0.1-0.6-0.1
		c-0.6-0.1-0.9-0.7-0.7-1.3c0.1-0.4,0.4-0.7,0.8-0.8c0,0,0.3,0,0.6-0.1c0.4,0,0.9,0,1.4,0c0.5,0,1,0.1,1.4,0.1
		c0.4,0.1,0.6,0.1,0.6,0.1c0.6,0.2,0.9,0.8,0.7,1.3C487.8,209,487.5,209.3,487.2,209.4z"/>
	<path class="st12" d="M501.5,204.8c0,0-0.9-0.1-2.3-0.2c-0.7-0.1-1.5-0.1-2.3-0.2c-0.8-0.1-1.8-0.1-2.7-0.1c-0.9,0-1.8-0.1-2.7-0.1
		c-0.9,0-1.7,0-2.3-0.1c-1.4,0-2.3-0.1-2.3-0.1l0,0c-0.5,0-0.8-0.4-0.8-0.9c0-0.4,0.3-0.7,0.7-0.8c0,0,0.9-0.2,2.3-0.3
		c0.7-0.1,1.5-0.1,2.4-0.2c0.9,0,1.8,0,2.8,0c0.9,0,1.9,0.1,2.8,0.2c0.9,0.1,1.7,0.2,2.4,0.3c0.7,0.1,1.3,0.3,1.7,0.4
		c0.4,0.1,0.6,0.2,0.6,0.2c0.5,0.1,0.8,0.7,0.7,1.2C502.4,204.6,502,204.9,501.5,204.8z"/>
	<path class="st13" d="M102,245.1l-6.5-6.9c0,0,3.4-0.7,4.3-4.2c1.5-6.1,8.2,2.7,8.2,2.7L102,245.1z"/>
	<g>
		<path class="st13" d="M119.8,227.5c0.5-4,0.4-12.2,0.4-12.3c-0.3-6.5-7.1-6.9-15.6-6.6c-7.6,0.2-13.2,5.6-13.4,13.2
			c-0.1,4.2,1,9.1,7.7,15c1,0.4,6.4,1,6.4,1c2.7,1.6,5.4,1.8,6.8,2.2c1.2,0.3,3,0,4-0.8C119.6,236,119.7,229.4,119.8,227.5z"/>
		<path class="st14" d="M110.6,204.8l-5-0.2l0,0l-1.3-0.1l-0.1,0.1c-7.6,0.3-13.1,5.8-13.4,13.5l0,1.1l0,0l0,0l-0.1,1.6l0,0
			c-0.3,6.2,0.6,10.4,5.4,13.3c0,0,1.7,1.8,4.2-1.2c1.2-1.3,5.1-5.3,9.4-13.9l-1.2,0.8c3.5,2.4,8.8,0,10.9,0.6
			c1.5,0.4,2.5-1.9,2.3-3.5C121.1,210.5,117.1,205.1,110.6,204.8z"/>
	</g>
	<g>
		<path class="st7" d="M104.5,228.6c-0.2,0-0.4-0.1-0.6-0.2c-2.2-2-4-4.8-5.4-8.2c0,0,0,0,0-0.1l-1.4-4.4c-0.1-0.5,0.1-1,0.6-1.1
			c0.5-0.1,1,0.1,1.1,0.6l1.3,4.4c1.3,3.2,2.9,5.7,4.9,7.5c0.4,0.3,0.4,0.9,0.1,1.3C105,228.5,104.7,228.6,104.5,228.6z"/>
		<path class="st7" d="M104.5,228.6c-0.2,0-0.4-0.1-0.6-0.2c-0.4-0.3-0.4-0.9-0.1-1.3c1.7-1.8,3.2-4.3,4.7-7.3
			c0.7-1.5,1.3-2.9,1.7-4.1c0.2-0.5,0.7-0.7,1.1-0.6c0.5,0.2,0.7,0.7,0.6,1.1c-0.4,1.2-1,2.7-1.8,4.3c-1.5,3.2-3.2,5.8-5,7.8
			C105,228.5,104.7,228.6,104.5,228.6z"/>
		<path class="st7" d="M107.8,240.3c-0.3,0-0.6-0.2-0.7-0.4c-0.3-0.5-0.7-1.4-1.2-2.7c-0.9-2.5-1.6-5.6-2.3-9.4
			c-0.1-0.5,0.2-1,0.7-1c0.5-0.1,1,0.2,1,0.7c0.6,3.6,1.4,6.7,2.2,9.1c0.5,1.4,0.9,2.1,1,2.4c0.3,0.4,0.1,1-0.3,1.2
			C108.2,240.3,108,240.3,107.8,240.3z"/>
	</g>
	
		<ellipse transform="matrix(4.444449e-02 -0.999 0.999 4.444449e-02 -115.2587 330.8514)" class="st8" cx="115.3" cy="225.7" rx="1.9" ry="1.4"/>
	<path class="st9" d="M119.7,232.7l-5.1-0.2c0,0,0.2,3.1,3.7,3.5C118.4,236,119.4,234.3,119.7,232.7z"/>
	<path class="st6" d="M113.3,221.9c0,0,0.1,0,0.2-0.1c0.1-0.1,0.2-0.1,0.4-0.2c0.4-0.2,0.9-0.3,1.4-0.4c0.5-0.1,1.1,0.1,1.5,0.2
		c0.4,0.2,0.6,0.4,0.6,0.3c0.3,0.2,0.4,0.6,0.2,1c-0.2,0.3-0.6,0.4-1,0.2c0,0-0.2-0.1-0.4-0.2c-0.2-0.1-0.5-0.2-0.9-0.2
		c-0.3,0-0.7,0.1-1,0.2c-0.1,0-0.2,0.1-0.3,0.1c-0.1,0-0.1,0-0.1,0.1l0,0c-0.3,0.2-0.7,0.1-0.9-0.2
		C112.9,222.5,113,222.1,113.3,221.9z"/>
	<path class="st15" d="M120.8,203.6c3.2,3.7,3.8,8.5,3.3,10.8c-0.1,0.4-2.8,1.8-3.4,1.8l-27-1.2c-2.7-0.1-4.4-0.4-5.2-0.9
		c-0.3-0.2-1.2-0.5-1.5-1.3c-0.4-1-0.1-3,2.2-5.6c1.5-1.7,4.5-3.9,6.5-4.9C106.4,196.7,117.1,199.4,120.8,203.6z"/>
	<path class="st16" d="M87,212.7c0,0,0.1,4.2,9.9,4.7l21.1,0.9c0.8,0,1.7,0,2.4-0.3c3.3-1,3.6-3.7,3.6-3.7L87,212.7z"/>
	<path class="st17" d="M118.5,210.8c0,0-0.8,0-2,0c-1.2,0-2.8-0.1-4.3-0.1c-1.6-0.1-3.1-0.2-4.3-0.3c-1.2-0.1-2-0.2-2-0.2
		c-0.6-0.1-1-0.6-0.9-1.1c0.1-0.5,0.5-0.9,1-0.9c0,0,0.8,0,2,0c1.2,0,2.8,0.1,4.3,0.1c1.6,0.1,3.1,0.2,4.3,0.3c1.2,0.1,2,0.2,2,0.2
		c0.6,0.1,1,0.6,0.9,1.1C119.5,210.4,119,210.8,118.5,210.8z"/>
	<path class="st17" d="M101.7,210.1c0,0-0.3,0.1-0.6,0.1c-0.4,0-0.9,0-1.4,0c-0.5,0-1-0.1-1.4-0.1c-0.4-0.1-0.6-0.1-0.6-0.1
		c-0.6-0.1-0.9-0.7-0.7-1.3c0.1-0.4,0.4-0.7,0.8-0.8c0,0,0.3,0,0.6-0.1c0.4,0,0.9,0,1.4,0c0.5,0,1,0.1,1.4,0.1
		c0.4,0.1,0.6,0.1,0.6,0.1c0.6,0.2,0.9,0.8,0.7,1.3C102.4,209.7,102,210,101.7,210.1z"/>
	<path class="st17" d="M116.1,205.5c0,0-0.9-0.1-2.3-0.2c-0.7-0.1-1.5-0.1-2.3-0.2c-0.8-0.1-1.8-0.1-2.7-0.1c-0.9,0-1.8-0.1-2.7-0.1
		c-0.9,0-1.7,0-2.3-0.1c-1.4,0-2.3-0.1-2.3-0.1l0,0c-0.5,0-0.8-0.4-0.8-0.9c0-0.4,0.3-0.7,0.7-0.8c0,0,0.9-0.2,2.3-0.3
		c0.7-0.1,1.5-0.1,2.4-0.2c0.9,0,1.8,0,2.8,0c0.9,0,1.9,0.1,2.8,0.2c0.9,0.1,1.7,0.2,2.4,0.3c0.7,0.1,1.3,0.3,1.7,0.4
		c0.4,0.1,0.6,0.2,0.6,0.2c0.5,0.1,0.8,0.7,0.7,1.2C117,205.3,116.5,205.6,116.1,205.5z"/>
	<path class="st1" d="M483.3,254.2l6.1,5.6l3.9,2.8l26.9-0.3l0.5,4.6l-28.9,2.3l-9.7-7.7C480.8,258,483.3,254.2,483.3,254.2z"/>
	
		<rect x="478.8" y="255" transform="matrix(0.7071 0.7071 -0.7071 0.7071 325.1641 -266.767)" class="st18" width="11.6" height="8.3"/>
	<path class="st0" d="M356.3,255.3l6.1,5.6l3.9,2.8l26.9-0.3l0.5,4.6l-28.9,2.3l-9.7-7.7C353.9,259.1,356.3,255.3,356.3,255.3z"/>
	
		<rect x="351.8" y="256" transform="matrix(0.7071 0.7071 -0.7071 0.7071 288.7384 -176.6511)" class="st19" width="11.6" height="8.3"/>
	<path class="st1" d="M520.2,262.3l2.3-0.5c2.1-0.5,4.3-0.1,6.1,1l1.1,0.7l-5.4,7.1l-3.6-3.9l-1.7,0.3L520.2,262.3z"/>
	<path class="st2" d="M135.8,272.5c3.9,0,7.1-1.8,9-5.1c1.4-2.5,1.7-5.1,1.7-5.3c0.1-1.1-0.8-2.1-1.9-2.2c-1.1-0.1-2.1,0.7-2.2,1.9
		c-0.1,0.7-0.8,7.1-7.1,6.6c-1.1-0.1-2.1,0.8-2.2,1.9c-0.1,1.1,0.8,2.1,1.9,2.2C135.2,272.5,135.5,272.5,135.8,272.5z"/>
	<path class="st2" d="M521.6,273.8c3.9,0,7.1-1.8,9-5.1c1.4-2.5,1.7-5.1,1.7-5.3c0.1-1.1-0.8-2.1-1.9-2.2c-1.1-0.1-2.1,0.7-2.2,1.9
		c-0.1,0.7-0.8,7.1-7.1,6.6c-1.1-0.1-2.1,0.8-2.2,1.9c-0.1,1.1,0.8,2.1,1.9,2.2C521,273.8,521.3,273.8,521.6,273.8z"/>
	<g>
		<path class="st20" d="M135.8,272.5c3.9,0,7.1-1.8,9-5.1c1.4-2.5,1.7-5.1,1.7-5.3c0.1-1.1-0.8-2.1-1.9-2.2
			c-1.1-0.1-2.1,0.7-2.2,1.9c-0.1,0.7-0.8,7.1-7.1,6.6c-1.1-0.1-2.1,0.8-2.2,1.9c-0.1,1.1,0.8,2.1,1.9,2.2
			C135.2,272.5,135.5,272.5,135.8,272.5z"/>
	</g>
	<g>
		<path class="st20" d="M521.6,273.8c3.9,0,7.1-1.8,9-5.1c1.4-2.5,1.7-5.1,1.7-5.3c0.1-1.1-0.8-2.1-1.9-2.2
			c-1.1-0.1-2.1,0.7-2.2,1.9c-0.1,0.7-0.8,7.1-7.1,6.6c-1.1-0.1-2.1,0.8-2.2,1.9c-0.1,1.1,0.8,2.1,1.9,2.2
			C521,273.8,521.3,273.8,521.6,273.8z"/>
	</g>
	<g>
		
			<rect x="79.5" y="333.9" transform="matrix(0.9241 -0.3822 0.3822 0.9241 -122.3881 56.8894)" class="st21" width="5" height="5.3"/>
		<polygon class="st22" points="85.2,337.6 99.5,336.2 100.4,338.4 94,341.1 87.1,342.3 86.9,344 82.7,345.8 80.5,339.6 		"/>
	</g>
	<g>
		<path class="st23" d="M87.1,343.1H92c0.5,0,0.8-0.4,0.8-0.8s-0.4-0.8-0.8-0.8h-4.7l-12.5-7.6c-0.4-0.2-0.9-0.1-1.1,0.3
			c-0.2,0.4-0.1,0.9,0.3,1.1l12.7,7.7C86.8,343.1,87,343.1,87.1,343.1z"/>
	</g>
	<path class="st24" d="M54.5,285.4l11.9,20.9l3.4,9.4l1.8,4.8l6,16.4l7.7-4.6l-7.6-21.1l-2.1-5.9l-2.5-6.8l-0.7-2.7
		c-5.6-2.4-12.8-6-17.7-10.5L54.5,285.4z"/>
	<path class="st25" d="M47.4,281.5c0,1.2,0.9,2.1,2.1,2.1H58c1.2,0,2.1-0.9,2.1-2.1l0,0c0-1.2-0.9-2.1-2.1-2.1h-8.5
		C48.4,279.4,47.4,280.4,47.4,281.5L47.4,281.5z"/>
	<g class="st26">
		<path class="st27" d="M21,346.4c0.2,0,0.3-0.1,0.4-0.2c0.2-0.2,0.2-0.6,0-0.9c-2.7-2.7-4.3-6.2-4.6-10c-0.3-4.5,1.3-9,4.6-12.2
			c1.4-1.4,3-2.5,4.8-3.3c2.3-1,4.9-1.5,7.4-1.3c0.3,0,0.6-0.2,0.7-0.6c0-0.3-0.2-0.6-0.6-0.7c-2.7-0.2-5.5,0.3-8,1.4
			c-1.9,0.8-3.7,2-5.2,3.5c-3.5,3.5-5.3,8.3-4.9,13.1c0.3,4.1,2,7.9,4.9,10.8C20.6,346.3,20.8,346.4,21,346.4z"/>
	</g>
	<g class="st26">
		<path class="st27" d="M53.8,335.8c0.5,0,0.8-0.4,0.8-0.8c0-8.3-4.6-16-11.9-20c-0.4-0.2-0.9-0.1-1.1,0.3c-0.2,0.4-0.1,0.9,0.3,1.1
			c6.8,3.7,11,10.8,11,18.6C53,335.4,53.3,335.8,53.8,335.8z"/>
	</g>
	<g class="st26">
		<path class="st27" d="M31.8,357.8c0.5,0,0.8-0.4,0.8-0.8c0-0.5-0.4-0.8-0.8-0.8c-5.1,0-10-1.8-13.9-5.2c-4.6-4-7.3-9.9-7.3-16
			c0-2.7,0.5-5.2,1.4-7.7c1.2-3.2,3.3-6,5.9-8.3c0.3-0.3,0.4-0.8,0.1-1.2c-0.3-0.3-0.8-0.4-1.2-0.1c-2.8,2.4-5,5.5-6.3,8.9
			c-1,2.6-1.6,5.4-1.6,8.3c0,6.6,2.9,12.9,7.9,17.2C21,355.8,26.3,357.8,31.8,357.8z"/>
	</g>
	<g class="st26">
		<path class="st27" d="M44,346.4c0.2,0,0.3-0.1,0.4-0.2c4.4-4.4,6-10.8,4.3-16.7c-0.1-0.3-0.4-0.5-0.8-0.4
			c-0.3,0.1-0.5,0.4-0.4,0.8c1.6,5.5,0.1,11.5-4,15.5c-0.2,0.2-0.2,0.6,0,0.9C43.7,346.3,43.9,346.4,44,346.4z"/>
	</g>
	<g>
		<path class="st21" d="M24.1,334.3c0-4,3.2-7.2,7.2-7.2c4,0,7.2,3.2,7.2,7.2c0,4-3.2,7.2-7.2,7.2C27.4,341.5,24.1,338.3,24.1,334.3
			z M26.4,334.3c0,2.7,2.2,4.9,4.9,4.9c2.7,0,4.9-2.2,4.9-4.9c0-2.7-2.2-4.9-4.9-4.9C28.6,329.4,26.4,331.6,26.4,334.3z"/>
	</g>
	<g>
		<path class="st21" d="M0,334.7c0-17.7,14.4-32.2,32.2-32.2c17.7,0,32.2,14.4,32.2,32.2c0,17.7-14.4,32.2-32.2,32.2
			C14.4,366.9,0,352.5,0,334.7z M3.3,334.7c0,15.9,13,28.9,28.9,28.9c15.9,0,28.9-13,28.9-28.9c0-15.9-13-28.9-28.9-28.9
			C16.3,305.8,3.3,318.8,3.3,334.7z"/>
	</g>
	
		<ellipse transform="matrix(0.2749 -0.9615 0.9615 0.2749 -168.8585 321.2491)" class="st28" cx="128.6" cy="272.6" rx="1.4" ry="1.4"/>
	<g>
		<path class="st23" d="M63.5,334.3c0-5.9,4.8-10.8,10.8-10.8S85,328.4,85,334.3c0,5.9-4.8,10.8-10.8,10.8S63.5,340.2,63.5,334.3z
			 M65.2,334.3c0,5,4.1,9.1,9.1,9.1c5,0,9.1-4.1,9.1-9.1c0-5-4.1-9.1-9.1-9.1C69.3,325.2,65.2,329.3,65.2,334.3z"/>
	</g>
	<g>
		<polygon class="st29" points="71.7,332.5 34.7,332.7 58.9,294.8 		"/>
		<polygon class="st29" points="118.2,294.8 75.2,331.1 62.8,294.8 		"/>
		<path class="st2" d="M29.7,335.4c0.3,0.6,1,1,1.6,1c0,0,0,0,0,0l43-0.3c0,0,0.1,0,0.1,0c0.1,0,0.1,0,0.2,0c0.1,0,0.1,0,0.2,0
			c0,0,0.1,0,0.1,0c0,0,0,0,0.1,0c0,0,0.1,0,0.1-0.1c0.1,0,0.1-0.1,0.2-0.1c0,0,0.1,0,0.1-0.1c0,0,0,0,0.1,0l0,0l46-36.7v-9.6H61
			c0,0,0,0,0,0l-3.4-10c-0.3-1-1.4-1.5-2.4-1.2c-1,0.3-1.5,1.4-1.2,2.4l3.4,9.9c-0.2,0.1-0.3,0.3-0.4,0.4l-27.2,42.7
			C29.4,334.1,29.4,334.9,29.7,335.4z M62.8,294.8h55.4l-43.1,36.3L62.8,294.8z M34.7,332.7l24.1-37.9l12.8,37.6L34.7,332.7z"/>
		<path class="st2" d="M123.6,270.8C123.6,270.8,123.6,270.8,123.6,270.8c0-0.3,0.1-0.6,0.2-0.8c0-0.1,0.1-0.1,0.1-0.2
			c0-0.1,0.1-0.1,0.1-0.2c0-0.1,0.1-0.1,0.1-0.1c0-0.1,0.1-0.1,0.1-0.2c0,0,0.1-0.1,0.1-0.1c0.1-0.1,0.1-0.1,0.2-0.2
			c0.2-0.2,0.5-0.3,0.8-0.3c0,0,0,0,0,0c0.4-0.1,9.1-1.8,16.2,0.8c6,0.2,6.8-5.9,6.9-6.7c0.1-1.1,1.1-2,2.2-1.9
			c1.1,0.1,2,1.1,1.9,2.2c0,0.3-0.3,2.8-1.7,5.3c-1,1.8-2.5,3.2-4.2,4.1c2.6,2.5,3.9,6,3.7,10.4c0,0,0,0,0,0.1
			c0,0.3-0.5,6.5-5.2,9.8c-1.9,1.3-4.1,2-6.6,2c-1.6,0-3.4-0.3-5.3-0.8c-1.1-0.3-1.7-1.5-1.4-2.6c0.3-1.1,1.5-1.7,2.6-1.4
			c3.5,1,6.3,0.8,8.3-0.5c3-2.1,3.4-6.3,3.4-6.7c0.1-3.4-0.8-5.8-2.9-7.6c-0.9-0.7-1.8-1.3-2.9-1.7c0,0-0.1,0-0.1,0
			c-4.3-1.7-9.7-1.3-12.4-1v15.5h-4.1V270.8z"/>
		<polygon class="st2" points="121.4,288.1 123.6,288.1 127.8,288.1 128.9,288.1 128.9,299.3 127.7,299.3 123.9,299.3 121.4,299.3 
			121.4,299 121.4,289.4 		"/>
	</g>
	<polygon class="st20" points="61.9,292.4 121.4,292.4 118.2,294.8 62.8,294.8 	"/>
	<path class="st30" d="M70.3,334.5c0,2.3,1.8,4.1,4.1,4.1c1.6,0,3-0.9,3.7-2.3c0.3-0.6,0.4-1.2,0.4-1.8c0-0.7-0.2-1.3-0.5-1.9
		c-0.7-1.3-2.1-2.2-3.6-2.2C72.1,330.4,70.3,332.3,70.3,334.5z"/>
	<g>
		
			<rect x="65" y="325.8" transform="matrix(0.4758 -0.8795 0.8795 0.4758 -253.3351 231.5759)" class="st21" width="5.3" height="5"/>
		<polygon class="st22" points="68.8,331.5 78.9,341.7 77.7,343.8 71.7,340.5 66.4,335.9 64.9,336.8 60.9,334.7 64.4,329.1 		"/>
	</g>
	<g>
		<path class="st21" d="M78.4,300l0.9-1.7c0.2,0.1,0.4,0.1,0.5,0.2L78.4,300z"/>
		<path class="st21" d="M53,283.6c-4.5-4.5-6.3-10-1.5-16.2C46.8,273.4,48.6,278.9,53,283.6z"/>
	</g>
	<g>
		
			<ellipse transform="matrix(0.275 -0.9615 0.9615 0.275 -169.6681 326.1706)" class="st29" cx="131.4" cy="275.6" rx="1.4" ry="1.4"/>
		
			<ellipse transform="matrix(0.275 -0.9615 0.9615 0.275 -169.0926 320.9295)" class="st29" cx="128.2" cy="272.6" rx="1.4" ry="1.4"/>
		<path class="st31" d="M86.6,297.5c-3.1-1.9-5.6-4-8.3-5.3c-17.9-8.9-20.8-14.6-20.1-17.8c1.1,0.8,2,1.3,2.7,1.3L71,280l4-3.4
			l16,11.5l13,9.4l-17.4,15.7l-15.5,16.4l-4.1-2.2l11.4-17.4L86.6,297.5z"/>
		<path class="st31" d="M50.3,269.3c0.3,0.2,0.7,0.3,1,0.5c2.5,1.1,5,3.2,7,4.6c-0.3,1.3,0.1,3.1,1.8,5.4c1.7,2.2,4.9,4.8,10.1,8
			c2.3,1.4,5,2.9,8.2,4.4c2.6,1.3,5.2,3.4,8.3,5.3l-8.3,12.6l-0.7,1.1l-6.1,9.3l-4.6,7l-2.3-2.4l5.2-9.4l5.7-10.4l2.8-5.2l1.4-1.5
			c-0.2,0-0.3-0.1-0.5-0.2c-1.6-0.5-4.1-1.4-6.9-2.6c-5.6-2.4-12.8-6-17.7-10.5c-0.6-0.5-1.1-1.1-1.6-1.6
			C49,279.4,47.2,274.6,50.3,269.3z"/>
		<g>
			<polygon class="st32" points="99.1,255.9 99.1,255.9 100.3,256.9 103.6,259.8 107.8,260.2 134.8,261.7 133.5,268.2 99.9,269.1 
				92.8,254.9 94.4,251.8 			"/>
			
				<ellipse transform="matrix(0.275 -0.9615 0.9615 0.275 -169.6681 326.1706)" class="st29" cx="131.4" cy="275.6" rx="1.4" ry="1.4"/>
			
				<ellipse transform="matrix(0.275 -0.9615 0.9615 0.275 -169.0926 320.9295)" class="st29" cx="128.2" cy="272.6" rx="1.4" ry="1.4"/>
			<path class="st21" d="M49.7,267.1c0.3,0.2,1.2,2.5,1.5,2.6c2.5,1.1,5,3.2,7,4.6c1.1,0.8,2,1.3,2.7,1.3L71,280l4-3.4l16.8-14.4
				l-4.5,3.9l5.6-11.1l1.6-3.2l4.7,4.1l0,0l1.2,1l3.3,2.9l2.4,2.1l5.8,5.1l20.1,17.6l3.4-3.5l3.1-3.2l1.3-1.4l-18.7-17.3l-6.3-5.9
				l-19.2-17.8l-37.1,23.1C55.6,260.2,49.7,267.1,49.7,267.1z"/>
		</g>
	</g>
	<polygon class="st32" points="94.4,251.8 99.1,255.9 99.1,255.9 91.8,262.2 87.3,266 	"/>
	<path class="st13" d="M140.2,261c-0.3,0.5-0.2,1.2,0.4,1.5l3.2,2c0.5,0.3,1.2,0.2,1.5-0.4l0,0c0.3-0.5,0.2-1.2-0.4-1.5l-3.2-2
		C141.2,260.3,140.5,260.5,140.2,261L140.2,261z"/>
	<rect x="121.4" y="288.1" class="st20" width="3.8" height="11.2"/>
	<g>
		
			<rect x="465.3" y="333.9" transform="matrix(0.9241 -0.3822 0.3822 0.9241 -93.1052 204.3232)" class="st21" width="5" height="5.3"/>
		<polygon class="st33" points="471,337.6 483.6,337.5 484.6,339.8 479.8,341.1 472.9,342.3 472.7,344 468.5,345.8 466.3,339.6 		
			"/>
	</g>
	<path class="st1" d="M202.6,298.4L202.6,298.4l11.2,35.9l-5.5,0.8l-12.3-28.8l-11.7-20.5c4.7,3.9,9.7,6.4,9.7,6.4L202.6,298.4z"/>
	<g>
		<path class="st23" d="M472.9,343.1h4.9c0.5,0,0.8-0.4,0.8-0.8s-0.4-0.8-0.8-0.8h-4.7l-12.5-7.6c-0.4-0.2-0.9-0.1-1.1,0.3
			c-0.2,0.4-0.1,0.9,0.3,1.1l12.7,7.7C472.6,343.1,472.7,343.1,472.9,343.1z"/>
	</g>
	<path class="st25" d="M433.2,281.5c0,1.2,0.9,2.1,2.1,2.1h8.5c1.2,0,2.1-0.9,2.1-2.1l0,0c0-1.2-0.9-2.1-2.1-2.1h-8.5
		C434.2,279.4,433.2,280.4,433.2,281.5L433.2,281.5z"/>
	<g class="st26">
		<path class="st27" d="M506.9,347.6c0.2,0,0.3-0.1,0.4-0.2c0.2-0.2,0.2-0.6,0-0.9c-2.7-2.7-4.3-6.2-4.6-10c-0.3-4.5,1.3-9,4.6-12.2
			c1.4-1.4,3-2.5,4.8-3.3c2.3-1,4.9-1.5,7.4-1.3c0.3,0,0.6-0.2,0.7-0.6c0-0.3-0.2-0.6-0.6-0.7c-2.7-0.2-5.5,0.3-8,1.4
			c-1.9,0.8-3.7,2-5.2,3.5c-3.5,3.5-5.3,8.3-4.9,13.1c0.3,4.1,2,7.9,4.9,10.8C506.6,347.6,506.7,347.6,506.9,347.6z"/>
	</g>
	<g>
		<path class="st21" d="M510.5,334.3c0-4,3.2-7.2,7.2-7.2s7.2,3.2,7.2,7.2c0,4-3.2,7.2-7.2,7.2S510.5,338.3,510.5,334.3z
			 M512.8,334.3c0,2.7,2.2,4.9,4.9,4.9s4.9-2.2,4.9-4.9c0-2.7-2.2-4.9-4.9-4.9S512.8,331.6,512.8,334.3z"/>
	</g>
	<g>
		<path class="st21" d="M485.6,334.7c0-17.7,14.4-32.2,32.2-32.2c17.7,0,32.2,14.4,32.2,32.2c0,17.7-14.4,32.2-32.2,32.2
			C500.1,366.9,485.6,352.5,485.6,334.7z M488.9,334.7c0,15.9,13,28.9,28.9,28.9s28.9-13,28.9-28.9c0-15.9-13-28.9-28.9-28.9
			S488.9,318.8,488.9,334.7z"/>
	</g>
	<g class="st26">
		<path class="st27" d="M539.7,337.1c0.5,0,0.8-0.4,0.8-0.8c0-8.4-4.6-16-11.9-20c-0.4-0.2-0.9-0.1-1.1,0.3
			c-0.2,0.4-0.1,0.9,0.3,1.1c6.8,3.7,11,10.8,11,18.6C538.9,336.7,539.3,337.1,539.7,337.1z"/>
	</g>
	<g class="st26">
		<path class="st27" d="M517.7,359.1c0.5,0,0.8-0.4,0.8-0.8c0-0.5-0.4-0.8-0.8-0.8c-5.1,0-10-1.8-13.9-5.2c-4.6-4-7.3-9.9-7.3-16
			c0-2.7,0.5-5.2,1.4-7.7c1.2-3.2,3.3-6,5.9-8.3c0.3-0.3,0.4-0.8,0.1-1.2c-0.3-0.3-0.8-0.4-1.2-0.1c-2.8,2.4-5,5.5-6.3,8.9
			c-1,2.6-1.6,5.4-1.6,8.3c0,6.6,2.9,12.9,7.9,17.2C506.9,357.1,512.2,359.1,517.7,359.1z"/>
	</g>
	<g class="st26">
		<path class="st27" d="M529.9,347.6c0.2,0,0.3-0.1,0.4-0.2c4.4-4.4,6-10.8,4.3-16.7c-0.1-0.3-0.4-0.5-0.8-0.4
			c-0.3,0.1-0.5,0.4-0.4,0.8c1.6,5.5,0.1,11.5-4,15.5c-0.2,0.2-0.2,0.6,0,0.9C529.6,347.6,529.8,347.6,529.9,347.6z"/>
	</g>
	
		<ellipse transform="matrix(0.2749 -0.9615 0.9615 0.2749 110.8683 692.174)" class="st28" cx="514.4" cy="272.6" rx="1.4" ry="1.4"/>
	<g>
		<path class="st23" d="M449.3,334.3c0-5.9,4.8-10.8,10.8-10.8s10.8,4.8,10.8,10.8c0,5.9-4.8,10.8-10.8,10.8
			S449.3,340.2,449.3,334.3z M451,334.3c0,5,4.1,9.1,9.1,9.1c5,0,9.1-4.1,9.1-9.1c0-5-4.1-9.1-9.1-9.1
			C455.1,325.2,451,329.3,451,334.3z"/>
	</g>
	<path class="st2" d="M78.5,334.5c0,0.7-0.2,1.3-0.4,1.8l382.1-0.2c0,0,0.1,0,0.1,0c0.1,0,0.1,0,0.2,0c0.1,0,0.1,0,0.2,0
		c0,0,0.1,0,0.1,0c0,0,0,0,0.1,0c0,0,0.1,0,0.1-0.1c0.1,0,0.1-0.1,0.2-0.1c0,0,0.1,0,0.1-0.1c0,0,0,0,0.1,0l0,0l48.2-38.5v0.2
		c0,0.4,0.1,0.7,0.3,1c0.9,25.8,5.6,36.1,5.8,36.6c0.3,0.7,1,1.1,1.7,1.1c0.3,0,0.5-0.1,0.8-0.2c0.9-0.4,1.3-1.5,0.9-2.5
		c-0.1-0.1-4.6-10.3-5.5-35.3c0.1-0.2,0.1-0.5,0.1-0.7v-3.6c0.9-1,0.9-2.5,0.1-3.5c0,0-0.1-0.1-0.1-0.1v-17.7
		c2.7-0.3,8.2-0.7,12.4,1c0,0,0.1,0,0.1,0c1.1,0.4,2.1,1,2.9,1.7c2,1.7,3,4.2,2.9,7.6c0,0.3-0.5,4.6-3.4,6.7c-2,1.4-4.8,1.6-8.3,0.5
		c-1.1-0.3-2.2,0.3-2.6,1.4c-0.3,1.1,0.3,2.2,1.4,2.6c1.9,0.5,3.6,0.8,5.3,0.8c2.5,0,4.7-0.7,6.6-2c4.7-3.3,5.1-9.5,5.2-9.8
		c0,0,0,0,0-0.1c0.1-4.3-1.1-7.8-3.7-10.4c1.7-0.9,3.2-2.2,4.2-4.1c1.4-2.5,1.7-5.1,1.7-5.3c0.1-1.1-0.8-2.1-1.9-2.2
		c-1.1-0.1-2.1,0.7-2.2,1.9c-0.1,0.7-0.8,6.9-6.9,6.7c-7-2.6-15.7-0.9-16.2-0.8c0,0,0,0,0,0c-0.3,0.1-0.5,0.2-0.8,0.3
		c-0.1,0-0.1,0.1-0.2,0.2c0,0-0.1,0.1-0.1,0.1c-0.1,0.1-0.1,0.1-0.1,0.2c0,0-0.1,0.1-0.1,0.1c0,0.1-0.1,0.1-0.1,0.2
		c0,0.1-0.1,0.1-0.1,0.2c-0.1,0.2-0.2,0.5-0.2,0.8c0,0,0,0,0,0v18.5c0,0,0,0,0,0h-8.9l0,0l-53.7-0.2l-3.4-9.8
		c-0.3-1-1.4-1.5-2.4-1.2c-1,0.3-1.5,1.4-1.2,2.4l2.9,8.6H127.7v3.4l-2.4,2l22.4,38H78C78.3,333.2,78.5,333.9,78.5,334.5z
		 M448.7,295l51.8-0.2l0,0h3.6L461,331.1L448.7,295z M444.5,295h0.2l12.8,37.5l-305.2,0.2l-22-37.7h308.9"/>
	<rect x="507.2" y="288.1" class="st2" width="7.5" height="11.2"/>
	<circle class="st23" cx="460.2" cy="334.5" r="4.1"/>
	<g>
		
			<rect x="450.8" y="325.8" transform="matrix(0.4758 -0.8795 0.8795 0.4758 -51.1096 570.8966)" class="st34" width="5.3" height="5"/>
		<polygon class="st33" points="454.6,331.5 464.7,341.7 463.5,343.8 457.5,340.5 452.2,335.9 450.7,336.8 446.7,334.7 450.1,329.1 
					"/>
	</g>
	<path class="st34" d="M525.6,262.7c-0.3,0.5-0.2,1.2,0.3,1.5l3.1,2.1c0.5,0.3,1.2,0.2,1.5-0.3l0,0c0.3-0.5,0.2-1.2-0.3-1.5
		l-3.1-2.1C526.6,262.1,525.9,262.2,525.6,262.7L525.6,262.7z"/>
	<rect x="507.2" y="288.1" class="st20" width="3.8" height="11.2"/>
	<g>
		<path class="st34" d="M463.2,289.5l4.2-3.8l1.7-0.9l11.5,13.1L470,313.2l-14.5,16.4l-2.8-2.2l-1.1-1.1l13.5-27.4
			c0,0-3.8-2.3-5.4-2.9l-4.5-9.1L463.2,289.5z"/>
		<path class="st35" d="M444.4,275.9c1,0.7,1.8,1.1,2.3,1.1l10,3l4.7-4l8.1,8.7l0,0l-6.4,4.9l-3,6.1l0,0l-0.8,1.6L444.4,275.9z"/>
		<path class="st35" d="M440.5,285.7c4.7,3.9,9.7,6.4,9.7,6.4l0.3,0.2l3.5,2.6l4.9,3.5h0l0.5-1.1l-1.7-2.4l-1.8-2.6l-11.5-16.5
			c-2.2-1.6-5.1-4.4-7.4-6.1c-1.1-0.8-2.2-1.7-3.2-2.5C429.9,274.4,434.9,281.1,440.5,285.7z"/>
		<path class="st36" d="M202.3,295.7l1.7,2.7l9.7,35.9l-5.5,0.8l-12.3-28.8l-11.7-20.5c4.7,3.9,9.7,6.4,9.7,6.4L202.3,295.7z"/>
		<g>
			<polygon class="st29" points="489.4,259.8 491.8,261.9 490.6,263.1 			"/>
			<path class="st37" d="M443.3,258.3l38.2-22.6l18,18.8l-6.9,6l-7.7-5.2c0,0-1,4.9-4.4,8.3c-0.7,0.7-1.6,1.2-2.7,1.6l0,0
				c-4.2,1.4-8.1,3.7-11.5,6.5l-4.8,4.1l-4.7,4l-10-3c-0.6,0-1.4-0.4-2.3-1.1c-2.2-1.6-5.1-4.4-7.4-6.1c-1.1-0.8-2.2-1.7-3.2-2.5
				C432.6,266.2,440.3,259.6,443.3,258.3z"/>
		</g>
	</g>
	<polygon class="st20" points="491.5,292.8 491.5,295 504,294.8 503.8,292.8 	"/>
	<polygon class="st20" points="128.9,292.4 128.9,295 454,295 450.5,292.4 	"/>
	<path class="st13" d="M134.1,282.5l4.5-4.6l3.1,3c0,0,2.3-1.2,5.4,1.8c0,0,0.1,0.1,0.1,0.3c0,0,0,0,0.1,0.1l4.2,7.7
		c0.3,0.5,0.1,1.1-0.4,1.4c-0.5,0.3-1.1,0.1-1.4-0.4L147,287c0,0.3,0.1,0.6,0,0.8l2,3.7c0.3,0.5,0.1,1.1-0.4,1.4
		c-0.5,0.3-1.1,0.1-1.4-0.4l-1.9-3.4c-0.1,0.2-0.1,0.4-0.2,0.6l1.8,3.3c0.3,0.5,0.1,1.1-0.4,1.4c-0.5,0.3-1.1,0.1-1.4-0.4l-1.7-3.1
		c-0.2,0.3-0.3,0.7-0.4,1.1l1,1.9c0.2,0.3,0.1,0.7-0.2,0.8c-0.3,0.2-0.7,0.1-0.8-0.2l-0.9-1.7c-0.1-0.1-0.3-0.3-0.5-0.5
		c-1.8-2.4-4.9-4-4-6.4L134.1,282.5z"/>
	<ellipse class="st13" cx="119.5" cy="228.6" rx="2.1" ry="2.5"/>
	<path class="st36" d="M262.1,262.2l2.4-1.5c1.8-1.1,4.1-1.1,6,0l0,0l-0.5,2.5c-0.4,1.9-1.6,3.5-3.3,4.5h0l-4.5-0.1L239,268l8.5-5.4
		L262.1,262.2z"/>
	<path class="st36" d="M229.9,245.1l-6.5-6.9c0,0,3.4-0.7,4.3-4.2c1.5-6.1,8.2,2.7,8.2,2.7L229.9,245.1z"/>
	<g>
		<path class="st36" d="M247.6,227.5c0.5-4,0.4-12.2,0.4-12.3c-0.3-6.5-7.1-6.9-15.6-6.6c-7.6,0.2-13.2,5.6-13.4,13.2
			c-0.1,4.2,1,9.1,7.7,15c1,0.4,6.4,1,6.4,1c2.7,1.6,5.4,1.8,6.8,2.2c1.2,0.3,3,0,4-0.8C247.4,236,247.6,229.4,247.6,227.5z"/>
		<path class="st38" d="M238.4,204.8l-5-0.2l0,0l-1.3-0.1l-0.1,0.1c-7.6,0.3-13.1,5.8-13.4,13.5l0,1.1v0l0,0l-0.1,1.6l0,0
			c-0.3,6.2,0.6,10.4,5.4,13.3l13.7,2.6c-3-5.8,2.1-16.1,9.6-16.4c1.6-0.1,2.5-1.9,2.3-3.5C249,210.5,244.9,205.1,238.4,204.8z"/>
	</g>
	<g>
		<path class="st7" d="M232.3,228.6c-0.2,0-0.4-0.1-0.6-0.2c-2.2-2-4-4.8-5.4-8.2c0,0,0,0,0-0.1l-1.4-4.4c-0.1-0.5,0.1-1,0.6-1.1
			c0.5-0.1,1,0.1,1.1,0.6l1.3,4.4c1.3,3.2,2.9,5.7,4.9,7.5c0.4,0.3,0.4,0.9,0.1,1.3C232.8,228.5,232.6,228.6,232.3,228.6z"/>
		<path class="st7" d="M232.3,228.6c-0.2,0-0.4-0.1-0.6-0.2c-0.4-0.3-0.4-0.9-0.1-1.3c1.7-1.8,3.2-4.3,4.7-7.3
			c0.7-1.5,1.3-2.9,1.7-4.1c0.2-0.5,0.7-0.7,1.1-0.6c0.5,0.2,0.7,0.7,0.6,1.1c-0.4,1.2-1,2.7-1.8,4.3c-1.5,3.2-3.2,5.8-5,7.8
			C232.8,228.5,232.6,228.6,232.3,228.6z"/>
		<path class="st7" d="M235.7,240.3c-0.3,0-0.6-0.2-0.7-0.4c-0.3-0.5-0.7-1.4-1.2-2.7c-0.9-2.5-1.6-5.6-2.3-9.4
			c-0.1-0.5,0.2-1,0.7-1c0.5-0.1,1,0.2,1,0.7c0.6,3.6,1.4,6.7,2.2,9.1c0.5,1.4,0.9,2.1,1,2.4c0.3,0.4,0.1,1-0.3,1.2
			C236,240.3,235.9,240.3,235.7,240.3z"/>
	</g>
	<path class="st9" d="M247.6,232.7l-5.1-0.2c0,0,0.2,3.1,3.7,3.5C246.2,236,247.2,234.3,247.6,232.7z"/>
	<path class="st39" d="M243.4,221.4c0.5-0.1,1.1,0.1,1.5,0.2c0.4,0.2,0.6,0.4,0.6,0.3c0.3,0.2,0.1,0.5-0.1,0.8
		c-0.2,0.3-0.6,0.4-1,0.2c0,0-0.2-0.1-0.4-0.2c-0.2-0.1-0.5-0.2-0.9-0.2c-0.3,0-0.7,0.1-1,0.2c-0.1,0-0.8,0-0.8,0
		C241.3,222.9,242.8,221.4,243.4,221.4z"/>
	<path class="st15" d="M248.6,203.6c3.2,3.7,3.8,8.5,3.3,10.8c-0.1,0.4-2.8,1.8-3.4,1.8l-27-1.2c-2.7-0.1-4.4-0.4-5.2-0.9
		c-0.3-0.2-1.2-0.5-1.5-1.3c-0.4-1-0.1-3,2.2-5.6c1.5-1.7,4.5-3.9,6.5-4.9C234.3,196.7,245,199.4,248.6,203.6z"/>
	<path class="st16" d="M214.8,212.7c0,0,0.1,4.2,9.9,4.7l21.1,0.9c0.8,0,1.7,0,2.4-0.3c3.3-1,3.6-3.7,3.6-3.7L214.8,212.7z"/>
	<path class="st17" d="M246.4,210.8c0,0-0.8,0-2,0c-1.2,0-2.8-0.1-4.3-0.1c-1.6-0.1-3.1-0.2-4.3-0.3c-1.2-0.1-2-0.2-2-0.2
		c-0.6-0.1-1-0.6-0.9-1.1c0.1-0.5,0.5-0.9,1-0.9c0,0,0.8,0,2,0c1.2,0,2.8,0.1,4.3,0.1c1.6,0.1,3.1,0.2,4.3,0.3c1.2,0.1,2,0.2,2,0.2
		c0.6,0.1,1,0.6,0.9,1.1C247.3,210.4,246.9,210.8,246.4,210.8z"/>
	<path class="st17" d="M229.5,210.1c0,0-0.3,0.1-0.6,0.1c-0.4,0-0.9,0-1.4,0c-0.5,0-1-0.1-1.4-0.1c-0.4-0.1-0.6-0.1-0.6-0.1
		c-0.6-0.1-0.9-0.7-0.7-1.3c0.1-0.4,0.4-0.7,0.8-0.8c0,0,0.3,0,0.6-0.1c0.4,0,0.9,0,1.4,0c0.5,0,1,0.1,1.4,0.1
		c0.4,0.1,0.6,0.1,0.6,0.1c0.6,0.2,0.9,0.8,0.7,1.3C230.2,209.7,229.9,210,229.5,210.1z"/>
	<path class="st17" d="M243.9,205.5c0,0-0.9-0.1-2.3-0.2c-0.7-0.1-1.5-0.1-2.3-0.2c-0.8-0.1-1.8-0.1-2.7-0.1c-0.9,0-1.8-0.1-2.7-0.1
		c-0.9,0-1.7,0-2.3-0.1c-1.4,0-2.3-0.1-2.3-0.1l0,0c-0.5,0-0.8-0.4-0.8-0.9c0-0.4,0.3-0.7,0.7-0.8c0,0,0.9-0.2,2.3-0.3
		c0.7-0.1,1.5-0.1,2.4-0.2c0.9,0,1.8,0,2.8,0c0.9,0,1.9,0.1,2.8,0.2c0.9,0.1,1.7,0.2,2.4,0.3c0.7,0.1,1.3,0.3,1.7,0.4
		c0.4,0.1,0.6,0.2,0.6,0.2c0.5,0.1,0.8,0.7,0.7,1.2C244.8,205.3,244.4,205.6,243.9,205.5z"/>
	<path class="st2" d="M263.6,272.5c3.9,0,7.1-1.8,9-5.1c1.4-2.5,1.7-5.1,1.7-5.3c0.1-1.1-0.8-2.1-1.9-2.2c-1.1-0.1-2.1,0.7-2.2,1.9
		c-0.1,0.7-0.8,7.1-7.1,6.6c-1.1-0.1-2.1,0.8-2.2,1.9c-0.1,1.1,0.8,2.1,1.9,2.2C263.1,272.5,263.3,272.5,263.6,272.5z"/>
	<g>
		<path class="st20" d="M263.6,272.5c3.9,0,7.1-1.8,9-5.1c1.4-2.5,1.7-5.1,1.7-5.3c0.1-1.1-0.8-2.1-1.9-2.2
			c-1.1-0.1-2.1,0.7-2.2,1.9c-0.1,0.7-0.8,7.1-7.1,6.6c-1.1-0.1-2.1,0.8-2.2,1.9c-0.1,1.1,0.8,2.1,1.9,2.2
			C263.1,272.5,263.3,272.5,263.6,272.5z"/>
	</g>
	<g>
		
			<rect x="209.5" y="333.9" transform="matrix(0.9241 -0.3822 0.3822 0.9241 -112.5185 106.5807)" class="st21" width="5" height="5.3"/>
		<polygon class="st22" points="215.2,337.6 229.5,336.2 230.4,338.4 224.1,341.1 217.1,342.3 216.9,344 212.7,345.8 210.6,339.6 		
			"/>
	</g>
	<g>
		<path class="st23" d="M215,343.1h4.9c0.5,0,0.8-0.4,0.8-0.8s-0.4-0.8-0.8-0.8h-4.7l-12.5-7.6c-0.4-0.2-0.9-0.1-1.1,0.3
			c-0.2,0.4-0.1,0.9,0.3,1.1l12.7,7.7C214.7,343.1,214.8,343.1,215,343.1z"/>
	</g>
	<path class="st25" d="M175.3,281.5c0,1.2,0.9,2.1,2.1,2.1h8.5c1.2,0,2.1-0.9,2.1-2.1l0,0c0-1.2-0.9-2.1-2.1-2.1h-8.5
		C176.2,279.4,175.3,280.4,175.3,281.5L175.3,281.5z"/>
	
		<ellipse transform="matrix(0.2749 -0.9615 0.9615 0.2749 -76.1569 444.1738)" class="st28" cx="256.4" cy="272.6" rx="1.4" ry="1.4"/>
	<g>
		<path class="st23" d="M191.4,334.3c0-5.9,4.8-10.8,10.8-10.8c5.9,0,10.8,4.8,10.8,10.8c0,5.9-4.8,10.8-10.8,10.8
			C196.2,345.1,191.4,340.2,191.4,334.3z M193,334.3c0,5,4.1,9.1,9.1,9.1c5,0,9.1-4.1,9.1-9.1c0-5-4.1-9.1-9.1-9.1
			C197.1,325.2,193,329.3,193,334.3z"/>
	</g>
	<g>
		<line class="st29" x1="199.5" y1="332.5" x2="186.7" y2="294.8"/>
		<polygon class="st29" points="246.1,294.8 203,331.1 190.7,294.8 		"/>
		<path class="st2" d="M202.2,336.2c0,0,0.1,0,0.1,0c0.1,0,0.1,0,0.2,0c0.1,0,0.1,0,0.2,0c0,0,0.1,0,0.1,0c0,0,0,0,0.1,0
			c0,0,0.1,0,0.1-0.1c0.1,0,0.1-0.1,0.2-0.1c0,0,0.1,0,0.1-0.1c0,0,0,0,0.1,0l0,0l46-36.7v-9.6h-60.4c0,0,0,0,0,0l-3.4-10
			c-0.3-1-1.4-1.5-2.4-1.2c-1,0.3-1.5,1.4-1.2,2.4l3.4,9.9c-0.2,0.1-0.3,0.3-0.4,0.4L202.2,336.2z M190.7,294.8h55.4L203,331.1
			L190.7,294.8z M186.7,294.8l12.8,37.6"/>
		<path class="st2" d="M251.5,270.8C251.5,270.8,251.5,270.8,251.5,270.8c0-0.3,0.1-0.6,0.2-0.8c0-0.1,0.1-0.1,0.1-0.2
			c0-0.1,0.1-0.1,0.1-0.2c0-0.1,0.1-0.1,0.1-0.1c0-0.1,0.1-0.1,0.1-0.2c0,0,0.1-0.1,0.1-0.1c0.1-0.1,0.1-0.1,0.2-0.2
			c0.2-0.2,0.5-0.3,0.8-0.3c0,0,0,0,0,0c0.4-0.1,9.1-1.8,16.2,0.8c6,0.2,6.8-5.9,6.9-6.7c0.1-1.1,1.1-2,2.2-1.9
			c1.1,0.1,2,1.1,1.9,2.2c0,0.3-0.3,2.8-1.7,5.3c-1,1.8-2.5,3.2-4.2,4.1c2.6,2.5,3.9,6,3.7,10.4c0,0,0,0,0,0.1
			c0,0.3-0.5,6.5-5.2,9.8c-1.9,1.3-4.1,2-6.6,2c-1.6,0-3.4-0.3-5.3-0.8c-1.1-0.3-1.7-1.5-1.4-2.6c0.3-1.1,1.5-1.7,2.6-1.4
			c3.5,1,6.3,0.8,8.3-0.5c3-2.1,3.4-6.3,3.4-6.7c0.1-3.4-0.8-5.8-2.9-7.6c-0.9-0.7-1.8-1.3-2.9-1.7c0,0-0.1,0-0.1,0
			c-4.3-1.7-9.7-1.3-12.4-1v15.5h-4.1V270.8z"/>
		<polygon class="st2" points="249.3,288.1 251.5,288.1 255.6,288.1 256.8,288.1 256.8,299.3 255.5,299.3 251.8,299.3 249.3,299.3 
			249.3,299 249.3,289.4 		"/>
	</g>
	<path class="st30" d="M198.1,334.5c0,2.3,1.8,4.1,4.1,4.1c1.6,0,3-0.9,3.7-2.3c0.3-0.6,0.4-1.2,0.4-1.8c0-0.7-0.2-1.3-0.5-1.9
		c-0.7-1.3-2.1-2.2-3.6-2.2C200,330.4,198.1,332.3,198.1,334.5z"/>
	<g>
		
			<rect x="192.8" y="325.8" transform="matrix(0.4758 -0.8795 0.8795 0.4758 -186.3175 344.027)" class="st21" width="5.3" height="5"/>
		<polygon class="st22" points="196.6,331.5 206.7,341.7 205.6,343.8 199.6,340.5 194.2,335.9 192.7,336.8 188.7,334.7 192.2,329.1 
					"/>
	</g>
	<g>
		
			<ellipse transform="matrix(0.275 -0.9615 0.9615 0.275 -76.9708 449.0941)" class="st29" cx="259.3" cy="275.6" rx="1.4" ry="1.4"/>
		
			<ellipse transform="matrix(0.275 -0.9615 0.9615 0.275 -76.3959 443.8528)" class="st29" cx="256.1" cy="272.6" rx="1.4" ry="1.4"/>
		<g>
			<polygon class="st40" points="227,255.9 227,255.9 228.2,256.9 231.5,259.8 235.6,260.2 249.6,261.5 248.3,268 227.7,269.1 
				220.7,254.9 222.3,251.8 			"/>
			
				<ellipse transform="matrix(0.275 -0.9615 0.9615 0.275 -76.9708 449.0941)" class="st29" cx="259.3" cy="275.6" rx="1.4" ry="1.4"/>
			
				<ellipse transform="matrix(0.275 -0.9615 0.9615 0.275 -76.3959 443.8528)" class="st29" cx="256.1" cy="272.6" rx="1.4" ry="1.4"/>
			<path class="st41" d="M175.9,267.2c-1.6,0.1,2.8,2.4,3.2,2.5c2.5,1.1,4.3,5.2,6.3,6.6c1.1,0.8,2,1.3,2.7,1.3l10.8,2.3l4-3.4
				l16.8-14.4l-4.5,3.9l5.6-11.1l1.6-3.2l4.7,4.1l0,0l1.2,1l3.3,2.9l2.4,2.1l5.8,5.1l7.8,7l7.9-8.1l-6.3-6.6l-6.3-5.9l-19.2-17.8
				l-37.1,23.1C183.5,260.2,175.9,267.2,175.9,267.2z"/>
		</g>
	</g>
	<polygon class="st40" points="222.3,251.8 227,255.9 227,255.9 219.6,262.2 215.1,266 	"/>
	<path class="st42" d="M268,261c-0.3,0.5-0.2,1.2,0.4,1.5l3.2,2c0.5,0.3,1.2,0.2,1.5-0.4l0,0c0.3-0.5,0.2-1.2-0.4-1.5l-3.2-2
		C269,260.3,268.3,260.5,268,261L268,261z"/>
	<path class="st42" d="M249.3,272.3l4.5-4.6l15.7,13.3c0,0,2.3-1.2,5.4,1.8c0,0,0.1,0.1,0.1,0.3c0,0,0,0,0.1,0.1l4.2,7.7
		c0.3,0.5,0.1,1.1-0.4,1.4c-0.5,0.3-1.1,0.1-1.4-0.4l-2.6-4.8c0,0.3,0.1,0.6,0,0.8l2,3.7c0.3,0.5,0.1,1.1-0.4,1.4
		c-0.5,0.3-1.1,0.1-1.4-0.4l-1.9-3.4c-0.1,0.2-0.1,0.4-0.2,0.6l1.8,3.3c0.3,0.5,0.1,1.1-0.4,1.4c-0.5,0.3-1.1,0.1-1.4-0.4l-1.7-3.1
		c-0.2,0.3-0.3,0.7-0.4,1.1l1,1.9c0.2,0.3,0.1,0.7-0.2,0.8c-0.3,0.2-0.7,0.1-0.8-0.2l-0.9-1.7c-0.1-0.1-0.3-0.3-0.5-0.5
		c-1.8-2.4-4.9-4-4-6.4L249.3,272.3z"/>
	<ellipse class="st36" cx="246.8" cy="228" rx="2.1" ry="2.5"/>
	<path class="st0" d="M392.7,262.2l2.4-1.5c1.8-1.1,4.1-1.1,6,0l0,0l-0.5,2.5c-0.4,1.9-1.6,3.5-3.3,4.5l0,0l-5.4,0.6l-0.5-3.7
		L392.7,262.2z"/>
	<path class="st3" d="M360.4,245.1l-6.5-6.9c0,0,3.4-0.7,4.3-4.2c1.5-6.1,8.2,2.7,8.2,2.7L360.4,245.1z"/>
	<g>
		<path class="st3" d="M378.2,227.5c0.5-4,0.4-12.2,0.4-12.3c-0.3-6.5-7.1-6.9-15.6-6.6c-7.6,0.2-13.2,5.6-13.4,13.2
			c-0.1,4.2,1,9.1,7.7,15c1,0.4,6.4,1,6.4,1c2.7,1.6,5.4,1.8,6.8,2.2c1.2,0.3,3,0,4-0.8C378,236,378.2,229.4,378.2,227.5z"/>
	</g>
	<g>
		<path class="st7" d="M362.9,228.6c-0.2,0-0.4-0.1-0.6-0.2c-2.2-2-4-4.8-5.4-8.2c0,0,0,0,0-0.1l-1.4-4.4c-0.1-0.5,0.1-1,0.6-1.1
			c0.5-0.1,1,0.1,1.1,0.6l1.3,4.4c1.3,3.2,2.9,5.7,4.9,7.5c0.4,0.3,0.4,0.9,0.1,1.3C363.4,228.5,363.1,228.6,362.9,228.6z"/>
		<path class="st7" d="M362.9,228.6c-0.2,0-0.4-0.1-0.6-0.2c-0.4-0.3-0.4-0.9-0.1-1.3c1.7-1.8,3.2-4.3,4.7-7.3
			c0.7-1.5,1.3-2.9,1.7-4.1c0.2-0.5,0.7-0.7,1.1-0.6c0.5,0.2,0.7,0.7,0.6,1.1c-0.4,1.2-1,2.7-1.8,4.3c-1.5,3.2-3.2,5.8-5,7.8
			C363.4,228.5,363.1,228.6,362.9,228.6z"/>
		<path class="st7" d="M366.3,240.3c-0.3,0-0.6-0.2-0.7-0.4c-0.3-0.5-0.7-1.4-1.2-2.7c-0.9-2.5-1.6-5.6-2.3-9.4
			c-0.1-0.5,0.2-1,0.7-1c0.5-0.1,1,0.2,1,0.7c0.6,3.6,1.4,6.7,2.2,9.1c0.5,1.4,0.9,2.1,1,2.4c0.3,0.4,0.1,1-0.3,1.2
			C366.6,240.3,366.4,240.3,366.3,240.3z"/>
	</g>
	
		<ellipse transform="matrix(4.444449e-02 -0.999 0.999 4.444449e-02 131.679 589.0192)" class="st8" cx="373.7" cy="225.7" rx="1.9" ry="1.4"/>
	<path class="st9" d="M377.7,233.6l-5.1-0.2c0,0,0.2,3.1,3.7,3.5C376.3,236.8,377.3,235.1,377.7,233.6z"/>
	<path class="st14" d="M371.3,232.5l6.3,0.3c0.1-0.6,0.2-1.2,0.3-1.8c-0.3,0.1-0.7,0.1-1,0.1c-1.9-0.1-7.8-1.6-9.7-1.9
		c-0.1,0,1.2,6,1.3,6.6c0.1,1.2,0.7,3.7,1.9,4.2c1,0.5,3.4-0.4,3.4-0.4c0.2-0.1,0.4-0.2,0.6-0.4c0.6-0.5,1-1,1.4-1.6
		C371.6,236.4,371.3,232.5,371.3,232.5z"/>
	<path class="st6" d="M371.7,221.9c0,0,0.1,0,0.2-0.1c0.1-0.1,0.2-0.1,0.4-0.2c0.4-0.2,0.9-0.3,1.4-0.4c0.5-0.1,1.1,0.1,1.5,0.2
		c0.4,0.2,0.6,0.4,0.6,0.3c0.3,0.2,0.4,0.6,0.2,1c-0.2,0.3-0.6,0.4-1,0.2c0,0-0.2-0.1-0.4-0.2c-0.2-0.1-0.5-0.2-0.9-0.2
		c-0.3,0-0.7,0.1-1,0.2c-0.1,0-0.2,0.1-0.3,0.1c-0.1,0-0.1,0-0.1,0.1l0,0c-0.3,0.2-0.7,0.1-0.9-0.2
		C371.3,222.5,371.4,222.1,371.7,221.9z"/>
	<path class="st15" d="M379.2,203.6c3.2,3.7,3.8,8.5,3.3,10.8c-0.1,0.4-2.8,1.8-3.4,1.8l-27-1.2c-2.7-0.1-4.4-0.4-5.2-0.9
		c-0.3-0.2-1.2-0.5-1.5-1.3c-0.4-1-0.1-3,2.2-5.6c1.5-1.7,4.5-3.9,6.5-4.9C364.8,196.7,375.5,199.4,379.2,203.6z"/>
	<path class="st16" d="M345.4,212.7c0,0,0.1,4.2,9.9,4.7l21.1,0.9c0.8,0,1.7,0,2.4-0.3c3.3-1,3.6-3.7,3.6-3.7L345.4,212.7z"/>
	<path class="st17" d="M377,210.8c0,0-0.8,0-2,0c-1.2,0-2.8-0.1-4.3-0.1c-1.6-0.1-3.1-0.2-4.3-0.3c-1.2-0.1-2-0.2-2-0.2
		c-0.6-0.1-1-0.6-0.9-1.1c0.1-0.5,0.5-0.9,1-0.9c0,0,0.8,0,2,0c1.2,0,2.8,0.1,4.3,0.1c1.6,0.1,3.1,0.2,4.3,0.3c1.2,0.1,2,0.2,2,0.2
		c0.6,0.1,1,0.6,0.9,1.1C377.9,210.4,377.5,210.8,377,210.8z"/>
	<path class="st17" d="M360.1,210.1c0,0-0.3,0.1-0.6,0.1c-0.4,0-0.9,0-1.4,0c-0.5,0-1-0.1-1.4-0.1c-0.4-0.1-0.6-0.1-0.6-0.1
		c-0.6-0.1-0.9-0.7-0.7-1.3c0.1-0.4,0.4-0.7,0.8-0.8c0,0,0.3,0,0.6-0.1c0.4,0,0.9,0,1.4,0c0.5,0,1,0.1,1.4,0.1
		c0.4,0.1,0.6,0.1,0.6,0.1c0.6,0.2,0.9,0.8,0.7,1.3C360.8,209.7,360.5,210,360.1,210.1z"/>
	<path class="st17" d="M374.5,205.5c0,0-0.9-0.1-2.3-0.2c-0.7-0.1-1.5-0.1-2.3-0.2c-0.8-0.1-1.8-0.1-2.7-0.1c-0.9,0-1.8-0.1-2.7-0.1
		c-0.9,0-1.7,0-2.3-0.1c-1.4,0-2.3-0.1-2.3-0.1l0,0c-0.5,0-0.8-0.4-0.8-0.9c0-0.4,0.3-0.7,0.7-0.8c0,0,0.9-0.2,2.3-0.3
		c0.7-0.1,1.5-0.1,2.4-0.2c0.9,0,1.8,0,2.8,0c0.9,0,1.9,0.1,2.8,0.2c0.9,0.1,1.7,0.2,2.4,0.3c0.7,0.1,1.3,0.3,1.7,0.4
		c0.4,0.1,0.6,0.2,0.6,0.2c0.5,0.1,0.8,0.7,0.7,1.2C375.4,205.3,375,205.6,374.5,205.5z"/>
	<path class="st2" d="M394.2,272.5c3.9,0,7.1-1.8,9-5.1c1.4-2.5,1.7-5.1,1.7-5.3c0.1-1.1-0.8-2.1-1.9-2.2c-1.1-0.1-2.1,0.7-2.2,1.9
		c-0.1,0.7-0.8,7.1-7.1,6.6c-1.1-0.1-2.1,0.8-2.2,1.9c-0.1,1.1,0.8,2.1,1.9,2.2C393.6,272.5,393.9,272.5,394.2,272.5z"/>
	<g>
		<path class="st20" d="M394.2,272.5c3.9,0,7.1-1.8,9-5.1c1.4-2.5,1.7-5.1,1.7-5.3c0.1-1.1-0.8-2.1-1.9-2.2
			c-1.1-0.1-2.1,0.7-2.2,1.9c-0.1,0.7-0.8,7.1-7.1,6.6c-1.1-0.1-2.1,0.8-2.2,1.9c-0.1,1.1,0.8,2.1,1.9,2.2
			C393.6,272.5,393.9,272.5,394.2,272.5z"/>
	</g>
	<g>
		
			<rect x="337.9" y="333.9" transform="matrix(0.9241 -0.3822 0.3822 0.9241 -102.7729 155.6482)" class="st21" width="5" height="5.3"/>
		<polygon class="st22" points="343.6,337.6 357.9,336.2 358.8,338.4 352.5,341.1 345.5,342.3 345.3,344 341.1,345.8 339,339.6 		
			"/>
	</g>
	<g>
		<path class="st23" d="M345.5,343.1h4.9c0.5,0,0.8-0.4,0.8-0.8s-0.4-0.8-0.8-0.8h-4.7l-12.5-7.6c-0.4-0.2-0.9-0.1-1.1,0.3
			c-0.2,0.4-0.1,0.9,0.3,1.1l12.7,7.7C345.2,343.1,345.4,343.1,345.5,343.1z"/>
	</g>
	<path class="st25" d="M305.9,281.5c0,1.2,0.9,2.1,2.1,2.1h8.5c1.2,0,2.1-0.9,2.1-2.1l0,0c0-1.2-0.9-2.1-2.1-2.1H308
		C306.8,279.4,305.9,280.4,305.9,281.5L305.9,281.5z"/>
	<g>
		<path class="st23" d="M322,334.3c0-5.9,4.8-10.8,10.8-10.8c5.9,0,10.8,4.8,10.8,10.8c0,5.9-4.8,10.8-10.8,10.8
			C326.8,345.1,322,340.2,322,334.3z M323.6,334.3c0,5,4.1,9.1,9.1,9.1c5,0,9.1-4.1,9.1-9.1c0-5-4.1-9.1-9.1-9.1
			C327.7,325.2,323.6,329.3,323.6,334.3z"/>
	</g>
	<g>
		<line class="st29" x1="330.1" y1="332.5" x2="317.3" y2="294.8"/>
		<polygon class="st29" points="376.7,294.8 333.6,331.1 321.2,294.8 		"/>
		<path class="st2" d="M332.7,336.2c0,0,0.1,0,0.1,0c0.1,0,0.1,0,0.2,0c0.1,0,0.1,0,0.2,0c0,0,0.1,0,0.1,0c0,0,0,0,0.1,0
			c0,0,0.1,0,0.1-0.1c0.1,0,0.1-0.1,0.2-0.1c0,0,0.1,0,0.1-0.1c0,0,0,0,0.1,0l0,0l46-36.7v-9.6h-60.4c0,0,0,0,0,0l-3.4-10
			c-0.3-1-1.4-1.5-2.4-1.2c-1,0.3-1.5,1.4-1.2,2.4l3.4,9.9c-0.2,0.1-0.3,0.3-0.4,0.4L332.7,336.2z M321.2,294.8h55.4l-43.1,36.3
			L321.2,294.8z M317.3,294.8l12.8,37.6"/>
		<path class="st2" d="M382,270.8C382,270.8,382,270.8,382,270.8c0-0.3,0.1-0.6,0.2-0.8c0-0.1,0.1-0.1,0.1-0.2
			c0-0.1,0.1-0.1,0.1-0.2c0-0.1,0.1-0.1,0.1-0.1c0-0.1,0.1-0.1,0.1-0.2c0,0,0.1-0.1,0.1-0.1c0.1-0.1,0.1-0.1,0.2-0.2
			c0.2-0.2,0.5-0.3,0.8-0.3c0,0,0,0,0,0c0.4-0.1,9.1-1.8,16.2,0.8c6,0.2,6.8-5.9,6.9-6.7c0.1-1.1,1.1-2,2.2-1.9
			c1.1,0.1,2,1.1,1.9,2.2c0,0.3-0.3,2.8-1.7,5.3c-1,1.8-2.5,3.2-4.2,4.1c2.6,2.5,3.9,6,3.7,10.4c0,0,0,0,0,0.1
			c0,0.3-0.5,6.5-5.2,9.8c-1.9,1.3-4.1,2-6.6,2c-1.6,0-3.4-0.3-5.3-0.8c-1.1-0.3-1.7-1.5-1.4-2.6c0.3-1.1,1.5-1.7,2.6-1.4
			c3.5,1,6.3,0.8,8.3-0.5c3-2.1,3.4-6.3,3.4-6.7c0.1-3.4-0.8-5.8-2.9-7.6c-0.9-0.7-1.8-1.3-2.9-1.7c0,0-0.1,0-0.1,0
			c-4.3-1.7-9.7-1.3-12.4-1v15.5H382V270.8z"/>
		<polygon class="st2" points="379.8,288.1 382,288.1 386.2,288.1 387.4,288.1 387.4,299.3 386.1,299.3 382.4,299.3 379.8,299.3 
			379.8,299 379.8,289.4 		"/>
	</g>
	<path class="st30" d="M328.7,334.5c0,2.3,1.8,4.1,4.1,4.1c1.6,0,3-0.9,3.7-2.3c0.3-0.6,0.4-1.2,0.4-1.8c0-0.7-0.2-1.3-0.5-1.9
		c-0.7-1.3-2.1-2.2-3.6-2.2C330.5,330.4,328.7,332.3,328.7,334.5z"/>
	<g>
		
			<rect x="323.4" y="325.8" transform="matrix(0.4758 -0.8795 0.8795 0.4758 -117.8739 458.8707)" class="st3" width="5.3" height="5"/>
		<polygon class="st22" points="327.2,331.5 337.3,341.7 336.2,343.8 330.1,340.5 324.8,335.9 323.3,336.8 319.3,334.7 322.8,329.1 
					"/>
	</g>
	<polygon class="st19" points="352.8,251.8 357.5,255.9 357.5,255.9 350.2,262.2 345.7,266 	"/>
	<path class="st3" d="M398.6,261c-0.3,0.5-0.2,1.2,0.4,1.5l3.2,2c0.5,0.3,1.2,0.2,1.5-0.4l0,0c0.3-0.5,0.2-1.2-0.4-1.5l-3.2-2
		C399.6,260.3,398.9,260.5,398.6,261L398.6,261z"/>
	<path class="st3" d="M391.4,281.1l3.1-5l4.4,3.4c0,0,2.3-1.2,5.4,1.8c0,0,0.1,0.1,0.1,0.3c0,0,0,0,0.1,0.1l4.2,7.7
		c0.3,0.5,0.1,1.1-0.4,1.4c-0.5,0.3-1.1,0.1-1.4-0.4l-2.6-4.8c0,0.3,0.1,0.6,0,0.8l2,3.7c0.3,0.5,0.1,1.1-0.4,1.4
		c-0.5,0.3-1.1,0.1-1.4-0.4l-1.9-3.4c-0.1,0.2-0.1,0.4-0.2,0.6l1.8,3.3c0.3,0.5,0.1,1.1-0.4,1.4c-0.5,0.3-1.1,0.1-1.4-0.4l-1.7-3.1
		c-0.2,0.3-0.3,0.7-0.4,1.1l1,1.9c0.2,0.3,0.1,0.7-0.2,0.8c-0.3,0.2-0.7,0.1-0.8-0.2l-0.9-1.7c-0.1-0.1-0.3-0.3-0.5-0.5
		c-1.8-2.4-4.9-4-4-6.4L391.4,281.1z"/>
	<ellipse class="st3" cx="377.9" cy="227.5" rx="2.1" ry="2.5"/>
	<ellipse class="st5" cx="504.1" cy="228.6" rx="2.1" ry="2.5"/>
	<polygon class="st2" points="183.4,295 149,333.7 155.4,332.7 188.8,295 	"/>
	<polygon class="st2" points="314,295 279.6,333.7 286,332.7 319.4,295 	"/>
	<polygon class="st2" points="444.6,295 410.2,333.7 416.6,332.7 450,295 	"/>
	<path class="st42" d="M205.3,289.5l4.2-3.8l1.7-0.9l11.5,13.1l-10.5,15.2l-14.5,16.4l-2.8-2.2l-1.1-1.1l13.5-27.4
		c0,0-3.8-2.3-5.4-2.9l-4.5-9.1L205.3,289.5z"/>
	<path class="st43" d="M186.6,275.9c1,0.7,1.8,1.1,2.3,1.1l10,3l4.7-4l8.1,8.7l0,0l-6.4,4.9l-3,6.1l0,0l-0.8,1.6L186.6,275.9z"/>
	<path class="st43" d="M182.6,285.7c4.7,3.9,9.7,6.4,9.7,6.4l0.3,0.2l3.5,2.6l4.9,3.5h0l0.5-1.1l-1.7-2.4l-1.8-2.6l-11.5-16.5
		c-2.2-1.6-5.1-4.4-7.4-6.1c-1.1-0.8-2.2-1.7-3.2-2.5C172,274.4,177.1,281.1,182.6,285.7z"/>
	<path class="st3" d="M334.8,289.5l4.2-3.8l1.7-0.9l11.5,13.1l-10.5,15.2l-14.4,18.3l-2.9-4l-0.9,0.4l13.3-28.9c0,0-3.8-2.3-5.4-2.9
		l-4.5-9.1L334.8,289.5z"/>
	<path class="st31" d="M316,275.9c1,0.7,1.8,1.1,2.3,1.1l10,3l4.7-4l13.6,14.6l-11.2,8.2l-4.5-1.4L316,275.9z"/>
	<path class="st31" d="M312.1,285.7c4.7,3.9,9.7,6.4,9.7,6.4l9.2,5.2l4.5,1.4l-6.2-3.8l-1.8-2.6l-10.3-18c-2.2-1.6-4.3-3-6.6-4.8
		c-1.1-0.8-1.4-1.6-2.4-2.4C304.2,274.3,306.6,281.1,312.1,285.7z"/>
	
		<ellipse transform="matrix(4.444449e-02 -0.999 0.999 4.444449e-02 7.4303 459.1201)" class="st8" cx="243.7" cy="225.7" rx="1.9" ry="1.4"/>
	<g>
		<path class="st34" d="M498.3,254.5l12.4,14.4l16.7,12.1c0,0,2.3-1.2,5.4,1.8c0,0,1.5,2.9,0.3,3.1c-1.1,0.2,0.6,2.4-1,2.3
			c-1.6,0-0.8,3.4-2.2,2.5c-1.3-0.9-0.8,3.8-2.6,1.5c-1.8-2.4-4.6-5.3-4.6-7.2l-16.2-12.1l-13.3-13.4L498.3,254.5z"/>
		<path class="st3" d="M366,250.6l15.8,16.3l16.7,12.1c0,0,2.3-1.2,5.4,1.8c0,0,1.5,2.9,0.3,3.1c-1.1,0.2,0.6,2.4-1,2.3
			c-1.6,0-0.8,3.4-2.2,2.5c-1.3-0.9-0.8,3.8-2.6,1.5c-1.8-2.4-4.6-5.3-4.6-7.2l-16.2-12.1L361,255.6L366,250.6z"/>
		<g>
			<path class="st34" d="M531.1,283.3c0.1-0.3,0.2-0.5,0.5-0.6c0.5-0.3,1.1-0.1,1.4,0.4l4.2,7.7c0.3,0.5,0.1,1.1-0.4,1.4
				c-0.5,0.3-1.1,0.1-1.4-0.4l-4.2-7.7C531,283.8,531,283.6,531.1,283.3z"/>
		</g>
		<g>
			<path class="st34" d="M528.7,284c0.1-0.3,0.2-0.5,0.5-0.6c0.5-0.3,1.1-0.1,1.4,0.4l4.2,7.7c0.3,0.5,0.1,1.1-0.4,1.4
				c-0.5,0.3-1.1,0.1-1.4-0.4l-4.2-7.7C528.6,284.5,528.6,284.3,528.7,284z"/>
		</g>
		<g>
			<path class="st34" d="M526.6,285.4c0.1-0.3,0.2-0.5,0.5-0.6c0.5-0.3,1.1-0.1,1.4,0.4l4.2,7.7c0.3,0.5,0.1,1.1-0.4,1.4
				c-0.5,0.3-1.1,0.1-1.4-0.4l-4.2-7.7C526.6,285.9,526.5,285.6,526.6,285.4z"/>
		</g>
		<g>
			<path class="st34" d="M524.4,286.2c0-0.2,0.1-0.3,0.3-0.4c0.3-0.2,0.9-0.4,1.1-0.1l4.2,7.7c0.2,0.3-0.2,1-0.5,1.2
				c-0.3,0.2-0.7,0.1-0.8-0.2l-4.2-7.7C524.4,286.5,524.4,286.3,524.4,286.2z"/>
		</g>
	</g>
	<g>
		
			<ellipse transform="matrix(0.275 -0.9615 0.9615 0.275 17.6987 574.6329)" class="st29" cx="389.9" cy="275.6" rx="1.4" ry="1.4"/>
		<g>
			
				<ellipse transform="matrix(0.275 -0.9615 0.9615 0.275 17.6987 574.6329)" class="st29" cx="389.9" cy="275.6" rx="1.4" ry="1.4"/>
			<path class="st44" d="M308.1,267.1c0.3,0.2,1.2,2.5,1.5,2.6c2.5,1.1,5,3.2,7,4.6c1.1,0.8,1.1,2.7,1.7,2.7l10.3,4.5l4.7-5
				l16.8-14.4l-4.5,3.9l5.6-11.1l1.6-3.2l4.7,4.1l0,0l1.2,1l3.3,2.9l3.8,3.4l7.9-8.1l-19.6-19.4L317,258.8
				C314.1,260.2,308.1,267.1,308.1,267.1z"/>
		</g>
	</g>
</g>
<path class="st45" d="M192.6,165.2l-116,3.1l0,0c0,0.1,0,0.1-0.1,0.2c-3,9.2-6.6,14.6-1.6,22.7l9.7,14.5c0,0-35-9.8-35-36.8H20.8
	l-3-116.5L176.4,46L192.6,165.2z"/>
<path class="st46" d="M428,188.3l-91.8-1.5v0c0,0.1,0,0.1-0.1,0.2c-3,8.4-1.6,17.8,3.4,25.2l4.7,6.8c0,0-26-7.1-26-31.7l-50.6-0.3
	l-5.5-143.3L437.2,30L428,188.3z"/>
<path class="st47" d="M529.1,189.4l-73.8-3.7v0c0,0.1,0,0.1-0.1,0.2c-3.1,9-1.7,19.1,3.5,27l1.8,4.3c0,0-23.5-4.6-23.5-31l-54.6-1.3
	l-8.7-140.9l160,2.9L529.1,189.4z"/>
<path class="st57" d="M318.3,172.8l-115.8,2.5l0,0c0,0.1,0,0.1-0.1,0.2c-3,8.4-1.6,17.8,3.4,25.2l4.7,6.8c0,0-31-7.1-31-31.7
	l-39.8-3l-1.9-138.5l178.8,19L318.3,172.8z"/>
<g>
	<path class="st28" d="M383.6,107.6L383.6,107.6c0.2-0.8,0.2-1.6,0.3-2.5v-0.6c0.1-0.4,0.2-0.9,0.1-1.4c0-0.9-0.1-1.8-0.4-2.7l0,0
		c-0.4-1.3-0.9-2.6-1.6-3.7l0,0c-0.7-1-1.6-1.9-2.6-2.6l0,0c-0.3-0.2-0.7-0.4-1.1-0.5c-0.4-0.2-0.9-0.2-1.3-0.2c-0.3,0-0.6,0-1,0.1
		c-0.6,0-1.3,0.1-1.9,0.3l0,0c-0.6,0.1-1.1,0.3-1.6,0.5c-0.2,0-0.4,0-0.5,0.1c-0.1,0-0.3,0.1-0.5,0.1s-0.3,0.1-0.4,0.1l-0.8,0.4
		c-0.3,0.1-0.5,0.3-0.7,0.5c-3.4,2-6.5,4.3-9.4,7.1c-1.6,1.5-3,3-4.4,4.4c0-0.3-0.1-0.5-0.1-0.8c-0.2-0.9-0.6-1.7-1-2.5l0,0
		c-0.3-0.5-0.8-1-1.2-1.4c-0.5-0.3-1.1-0.5-1.6-0.7l0,0c-0.5-0.1-1.1-0.1-1.6-0.3c-0.7-0.3-1.4-0.5-2.2-0.7l0,0
		c-0.7-0.2-1.4-0.3-2.1-0.3h-1.5c-0.1,0-0.4,0.1-0.5,0.1h-0.1c-0.9,0.2-1.9,0.6-2.7,1l0,0c-1.3,0.7-2.5,1.4-3.7,2.2v-1.2
		c0-0.3,0-0.6-0.1-0.8l0,0c0-0.3-0.1-0.5-0.3-0.7c0-0.1,0-0.3-0.1-0.4v-0.3l-0.1-0.4c-0.3-0.7-0.7-1.3-1.1-1.9l0,0
		c-0.3-0.3-0.5-0.7-1-1.1l0,0l-0.8-0.8c-0.3-0.3-0.6-0.5-1-0.7c-0.3-0.2-0.6-0.3-1-0.4c-0.5-0.1-0.9-0.3-1.4-0.5
		c-0.7-0.3-1.4-0.4-2.1-0.4c-0.4,0-0.7,0-1.1,0.1l-1.1,0.4l0,0c-0.1,0.1-0.3,0.1-0.4,0.3h-2.2V96c-0.2,0.2-0.4,0.5-0.5,0.8
		c-0.1,0.3-0.2,0.5-0.1,0.8V98l-0.1,0.1l-0.4,0.4V99l-0.1,0.3c-0.6,1.2-1.1,2.5-1.5,3.7l0,0c-0.4,1.4-0.8,2.6-1.2,3.7l-0.1,0.4v0.3
		c0,0.1,0,0.3-0.1,0.3c-1.6,4.8-3.1,9.4-4.7,14.1l0,0c-0.7,2.3-1.4,4.5-2.1,6.8c-1.1,1.2-2.6,2.7-4.4,4.5c-2.7,2.6-5.7,5-8.9,7.1
		c-1.1,0.7-2.2,1.3-3.3,1.9c-0.7,0.3-1.4,0.6-2.2,0.8l0,0c-1.4,0.3-2.5,0.4-3.4,0.5H290c-0.3,0-0.6,0-0.8,0.1h-2.9
		c-0.4,0-0.5,0-0.7-0.1s-0.1-0.1-0.3-0.3v-0.1c-0.2-0.2-0.3-0.4-0.4-0.7c-0.1-0.4-0.2-0.7-0.1-1.1v-1.5c0.8-0.3,1.6-0.5,2.7-1l0,0
		c2-0.8,3.9-1.8,5.7-2.9l0,0c2.3-1.4,4.5-3,6.4-4.8l0,0c2.4-2.2,4.5-4.7,6.3-7.5l0,0c0.6-0.8,1.1-1.8,1.5-2.7l0,0
		c0.4-0.8,0.8-1.9,1.2-3l0,0c0.5-1.4,0.8-2.9,1.1-4.4l0,0c0.1-0.7,0.2-1.4,0.1-2.1c0-1-0.1-1.9-0.3-2.9v-0.7c-0.3-1-0.5-1.9-0.8-3
		l0,0c-0.3-1.2-0.7-2.3-1.4-3.3l-0.1-0.3l0,0c-0.1-0.1-0.1-0.3-0.3-0.4s-0.1-0.3-0.3-0.3l0,0c-0.7-0.8-1.5-1.5-2.5-2.1
		c-0.8-0.4-1.6-0.7-2.3-1l0,0c-0.7-0.2-1.5-0.3-2.3-0.3c-0.4,0-0.8,0-1.2,0.1h-0.2c-2.7,0.8-5.2,2-7.5,3.6c-2.4,1.7-4.5,3.7-6.3,6
		c-3.7,4.6-6.7,9.8-9,15.2l0,0c-0.5,1.5-1.1,2.7-1.5,4.1l0,0c-0.4,1.2-0.7,2.3-1,3.3c-0.7,2.1-1.1,3.7-1.5,5.5
		c-0.4,1.4-0.5,2.8-0.5,4.2l0,0v0.4c0,1,0.1,2,0.4,3c0.2,0.9,0.6,1.8,1.1,2.6l0,0c0.6,0.9,1.4,1.7,2.2,2.5l0,0
		c0.6,0.5,1.2,1.1,1.9,1.5h0.1c1.4,1,3,1.7,4.7,2.1l0,0c0.5,0.1,1,0.2,1.5,0.3c0.3,0.1,0.6,0.1,1,0.1h2.3c1.1-0.1,2.7-0.3,4.9-0.5
		l0,0c1.2-0.1,2.2-0.3,3.1-0.4c0.8-0.1,1.7-0.4,2.5-0.7l0,0c2.5-0.9,4.9-2.1,7.1-3.6l0,0c1.9-1.2,3.8-2.5,5.6-4
		c0.3,1.5,0.9,2.8,1.6,4.1c0,0.1,0.1,0.3,0.1,0.4c0.1,0.3,0.3,0.5,0.5,0.7l0,0l0.5,0.5c0.1,0.1,0.3,0.1,0.5,0.3
		c0.2,0.1,0.5,0.1,0.7,0.1h0.1c0.1,0.1,0.3,0.1,0.4,0.3c0.1,0.1,0.3,0.1,0.4,0.1l0.7,0.7c0.4,0.3,0.9,0.5,1.4,0.5l0,0
		c0.4,0.1,0.8,0.2,1.2,0.1c0.3,0,0.6,0,1-0.1c0.1,0,0.3,0,0.4-0.1c0.3-0.1,0.4-0.1,0.5-0.3c0.2-0.1,0.4-0.2,0.5-0.4l0.4-0.4
		c0.2-0.2,0.4-0.4,0.5-0.7c0.2-0.3,0.3-0.7,0.3-1.1v-0.8c-0.2-1.6-0.1-3.2,0.3-4.8c1-3.6,2.2-7.1,3.4-10.8c2.1-3.6,4-6.4,5.6-8.9
		c1.5-2.1,3.1-4.1,4.8-6c1.1-1.3,2.3-2.5,3.6-3.6c0.7-0.5,1.4-1.1,1.9-1.4l0,0v3.3c-0.1,1.9-0.4,4.2-0.8,6.7
		c-0.2,0.4-0.3,0.9-0.3,1.4c0,0.1-0.1,0.2-0.1,0.3v0.4c-0.9,3.9-1.5,7.9-1.9,11.9c-0.1,1.9-0.3,3-0.4,4c0,0.3-0.1,0.6-0.1,1v0.1
		l-0.1,0.3v1.9l1,0.5c0.3,0.1,0.4,0.3,0.7,0.4c0.3,0.1,0.6,0.2,1,0.1h0.4c0.1,0.1,0.3,0.1,0.4,0.3c0.7,0.4,1.5,0.4,2.2,0
		c0.1-0.1,0.2-0.2,0.3-0.3c0.2-0.1,0.4-0.2,0.5-0.4c1-0.8,1.9-1.6,2.9-2.6l0,0c0.8-1,1.6-2.1,2.3-3l0,0c0.7-1.4,1.4-2.6,1.9-3.7l0,0
		c0.5-0.9,0.9-1.9,1.2-2.9l0.3-0.3l0.1-0.5c0.1-0.5,0.3-1.1,0.4-1.9l0,0c0.1-0.4,0.1-0.8,0.3-1.2l0.3-0.3l0.1-0.5
		c0.3-0.8,0.5-1.9,0.8-2.6l0,0c0.3-0.8,0.5-1.9,0.8-2.6c1.1-1.3,2.3-2.6,3.6-3.7l1.6-1.6l0.5-0.5c0.1-0.1,0.1-0.3,0.3-0.4l0.1-0.1
		l0.5-0.5v-0.3c1.2-1.4,2.5-2.6,4-3.7c0.8-0.5,1.4-1.1,1.9-1.4c0.1-0.1,0.4-0.3,0.5-0.4v0.5c0,0.4-0.1,0.8-0.1,1.2
		c-0.3,1.5-0.5,3.3-1,5.5l0,0c-0.4,2.1-0.8,4.2-1.4,6.6c-0.1,0.7-0.3,1.4-0.5,2.1c-0.3,1.2-0.5,2.3-0.8,3.4l-0.3,1
		c-0.1,0.5-0.3,1-0.4,1.6l0,0c-0.1,0.5-0.3,1.2-0.5,2.2v0.3l0,0v0.1c0,0.1-0.1,0.4-0.1,0.5l-0.1,0.3v0.3c-0.2,0.7-0.3,1.4-0.3,2.1
		c0,0.5-0.1,1.2-0.1,1.9c-0.1,0.5-0.2,1-0.1,1.5v1.4l0,0c-0.4,1.3-0.5,2.7-0.5,4.1v0.4c0,0.1,0,0.3-0.1,0.3l-0.8,1.5l0.3,0.1v0.5
		c0,0.2,0,0.5,0.1,0.7c0.1,0.4,0.3,0.7,0.5,1c0.1,0.1,0.4,0.3,0.5,0.4c0.2,0.3,0.4,0.5,0.5,0.8l0,0c0.4,0.6,0.9,1.1,1.5,1.5
		c0.6,0.3,1.2,0.5,1.9,0.5l0,0c0.5,0.1,1.1,0.1,1.5,0.3c0.4,0.1,0.7,0.1,1.1,0.1h0.1c0.8,0,1.5-0.2,2.2-0.5l0,0
		c0.4-0.2,0.8-0.3,1.2-0.4c0.4-0.1,0.9-0.3,1.2-0.5c0.3-0.2,0.6-0.4,0.8-0.7l0.3-0.3l0,0l0.4-0.3c0.4-0.3,0.7-0.7,1-1.1
		c0.2-0.4,0.4-0.8,0.5-1.2l0,0c0.1-0.4,0.2-0.8,0.4-1.2l0,0c0.1-0.2,0.1-0.5,0.1-0.7c0-0.3,0-0.6-0.1-0.8c0-0.3-0.1-0.5-0.1-0.8
		v-0.7l0,0c0-0.4,0.1-0.8,0.1-1.2v-2.8c0-0.6,0-1.1-0.1-1.6l0,0c0-0.7-0.1-1.4-0.1-1.9v-0.5l0,0c0.1-0.4,0.1-0.8,0.3-1.2
		c0.3-1.6,0.8-4.4,1.4-7.5c0-0.1,0.1-0.3,0.1-0.4v-0.1c0-0.1,0.1-0.1,0.1-0.3s0.1-0.3,0.1-0.4l0.8-3c0-0.1,0.1-0.1,0.1-0.3
		c0-0.1,0.1-0.5,0.3-0.7v-0.1c0.1-0.7,0.3-1.2,0.4-1.9c0.2-1.1,0.4-2.2,0.7-3.3c0.4-1.4,0.7-2.9,1.1-4.4
		C382.9,110.5,383.4,109.1,383.6,107.6z M290,123.8L290,123.8c1.1-2.2,2.3-4.4,3.7-6.4l0,0c1.6-2.5,3.5-4.9,5.6-7l0,0
		c0.2-0.3,0.5-0.5,0.8-0.7v1.9c-0.3,1.7-0.7,3.3-1.2,4.9l0,0c-0.6,1.7-1.4,3.4-2.4,4.9c-1.1,1.8-2.6,3.4-4.2,4.7
		c-1.2,0.8-2.5,1.5-3.7,2.1l0,0c-0.1,0.1-0.3,0.1-0.4,0.3C288.8,126.5,289.3,125.2,290,123.8L290,123.8z"/>
	<path class="st28" d="M397.9,138L397.9,138c-0.3-0.3-0.5-0.4-0.7-0.7l0,0c-0.2-0.2-0.4-0.4-0.7-0.4c-0.3-0.1-0.5-0.1-0.8-0.3H395
		c-0.4,0-0.7,0-1.1-0.1l0,0c-0.3,0-0.5-0.1-0.8-0.1h-0.3c-0.1,0-0.1-0.1-0.3-0.1l-0.3-0.1H392c-0.4-0.1-0.7-0.2-1.1-0.3l0,0
		c-0.3,0-0.4-0.1-0.5-0.1h-2.7v1.1c0,0.1-0.1,0.1-0.1,0.3l0,0c-0.1,0.3-0.4,0.7-0.5,1c-0.2,0.2-0.3,0.5-0.3,0.8
		c-0.1,0.3-0.2,0.6-0.3,1l0,0c-0.1,0.7-0.4,1.4-0.5,2.2c-0.1,0.8-0.5,1.9-1,3l0,0c-0.2,0.6-0.4,1.2-0.5,1.9c0,0.3-0.1,0.4-0.1,0.7
		c0,0.2,0,0.5-0.1,0.7c0,0.5,0.1,1.1,0.4,1.5c0.2,0.4,0.5,0.8,0.8,1.1c0.6,0.7,1.3,1.2,2.2,1.5l0,0c0.7,0.3,1.4,0.5,2.2,0.8l0,0
		c0.6,0.2,1.2,0.3,1.9,0.3c0.3,0,0.6,0,1-0.1h0.3c0.3-0.1,0.6-0.2,0.8-0.4c0.3-0.3,0.6-0.6,1-0.8c0.3-0.3,0.5-0.7,1-1.1l0,0
		c0.9-1,1.5-2.2,1.9-3.6v-0.3c0-0.1,0.1-0.3,0.1-0.4c0.1-0.5,0.3-1.1,0.5-2.1l0,0c0.1-0.5,0.2-1,0.4-1.5c0-0.1,0.1-0.4,0.1-0.5v-0.1
		c0-0.1,0.1-0.3,0.1-0.4s0.1-0.3,0.1-0.5l0.3-0.4v-0.5c0-0.4-0.1-0.8-0.3-1.2C398.3,138.6,398.2,138.2,397.9,138z"/>
	<path class="st28" d="M282.5,85L282.5,85c1.9-2.7,3.3-5.3,4.7-7.7c1.1-1.9,2.1-3.9,3-6l0,0c0.2-0.3,0.3-0.6,0.3-1l0,0
		c0-0.1,0-0.1,0.1-0.3v-0.3c0.1-0.4,0.5-1.6,1-3c0.2-0.7,0.4-1.4,0.5-2.1c0.1-0.3,0.1-0.7,0.3-1c0.1-0.3,0.1-0.5,0.1-0.8
		c0.1-0.8,0.2-1.6,0.1-2.5c0-0.5,0-1-0.1-1.5l0,0c0-0.3-0.1-0.5-0.1-0.8c-0.1-0.2-0.2-0.5-0.3-0.7c-0.2-0.4-0.5-0.7-0.8-1
		c-0.2-0.2-0.4-0.3-0.7-0.4c-0.3-0.1-0.5-0.2-0.8-0.1h-0.4l-0.8-0.4c-0.4-0.1-0.7-0.2-1.1-0.1h-0.3c-0.7-0.2-1.4-0.3-2.1-0.3
		c-1,0-2.1,0.2-3,0.5l0,0c-1.2,0.5-2.3,1.1-3.3,1.9c-1.2,1-2.3,2.1-3.3,3.3l0,0c-2.9,3.4-5.3,7.2-7.3,11.2l0,0
		c-3.1,5.9-5.7,12.1-7.7,18.5v0.1c-0.2,0.3-0.3,0.7-0.4,1.1c-0.1,0.4-0.4,1.1-0.7,1.9l0,0c-0.4,1.1-0.8,2.3-1.5,3.7
		c-0.7-0.3-1.4-0.4-2.1-0.4l0,0c-0.5,0-1.2-0.1-1.9-0.1c-0.6,0-1.1,0-1.6,0.1l0,0c-1.1,0.2-2.2,0.4-3.3,0.7
		c-1.3,0.1-2.5,0.4-3.7,0.8c-1.3,0.5-2.6,1.1-3.7,1.9l0,0c-2.6,1.8-5,3.9-7,6.3l0,0c-2.2,2.5-4.3,5.2-6,8.1
		c-0.1,0.2-0.2,0.5-0.4,0.7l-0.4,0.4c-0.1,0.1-0.3,0.3-0.3,0.4l-0.1,0.1l-0.1,0.1l-0.1,0.3c-1,1.6-2.3,4-4.4,7.3
		c-2.1,3.3-4.2,6.3-6.6,9.6c-2.3,3.3-4.7,5.9-6.8,8.4c-0.8,0.9-1.7,1.7-2.7,2.5c-0.2,0.2-0.5,0.4-0.8,0.4h-0.1
		c-0.1-0.1-0.2-0.3-0.3-0.4c-0.1-0.4-0.2-0.7-0.3-1.1l0,0c-0.3-1.6-0.4-3.2-0.4-4.8v-1.4c0.1-1.1,0.3-2.6,0.7-4.5
		c0.5-2.3,1.1-4.5,1.9-6.7l0.1-0.3v-0.3c0.1-0.7,0.4-1.4,0.5-1.9l0,0c0.1-0.5,0.4-1.2,0.5-1.9c0.1-0.1,0.2-0.3,0.3-0.5
		c0.2-0.4,0.3-0.8,0.3-1.2l0,0l0.1-0.3v-0.3c0.3-1.9,0.4-3.7,0.4-5.6c0-1.2-0.1-2.4-0.3-3.6c0-1-0.1-1.9-0.4-2.9
		c-0.2-0.9-0.6-1.7-1.1-2.5l0,0c-0.5-0.7-1.1-1.4-1.9-1.9c-0.8-0.6-1.6-1.1-2.5-1.5l0,0c-0.8-0.3-1.5-0.5-2.1-0.7
		c-0.6-0.2-1.2-0.3-1.9-0.3h-2.1c-0.1,0-0.4,0.1-0.5,0.1h-0.1c-0.9,0.2-1.9,0.6-2.7,1l0,0c-1.3,0.5-2.5,1.2-3.6,2.1
		c0-0.6-0.1-1.3-0.3-1.9l-0.1-0.4l0,0c0-0.1,0-0.1-0.1-0.1v0c-0.1-0.4-0.3-0.7-0.4-1.1c-0.2-0.4-0.5-0.8-0.8-1.1
		c-0.3-0.3-0.6-0.6-0.8-1l0,0l-0.8-0.8c-0.3-0.3-0.6-0.5-1-0.7c-0.3-0.2-0.6-0.3-1-0.4c-0.5-0.1-0.9-0.3-1.4-0.5l0,0
		c-0.6-0.3-1.2-0.4-1.9-0.4c-0.4,0-0.7,0-1.1,0.1c-0.3,0.1-0.6,0.2-1,0.4l0,0c-0.4,0.3-0.7,0.3-0.8,0.4c-0.2,0-0.5,0-0.7,0.1
		c-0.3,0.1-0.5,0.1-0.7,0.4c-0.3,0.2-0.6,0.6-0.8,1c0,0.1,0,0.1-0.1,0.3h-0.4v1.6c0,0.1-0.1,0.2-0.1,0.3l0,0l-0.1,0.3
		c-0.6,1.2-1.1,2.5-1.5,3.7l0,0c-0.4,1.2-0.8,2.5-1.2,3.6l0,0c-0.1,0.1-0.1,0.2-0.1,0.3l-0.1,0.1l-0.1,0.4
		c-1.2,3.6-2.3,7.1-3.4,10.6c-0.8,1.4-1.9,3-3.1,5.1c-2.1,3.1-4.2,6.3-6.6,9.6c-2.1,2.9-4.4,5.7-6.8,8.4l0,0
		c-0.8,0.9-1.7,1.7-2.6,2.5c-0.2,0.2-0.5,0.4-0.8,0.4h-0.4l-0.1-0.1c-0.1-0.1-0.1-0.3-0.3-0.7l0,0c-0.5-1.4-0.7-2.9-0.7-4.4l0,0
		v-1.1c0-1.3,0.1-2.7,0.3-4l0,0c0.1-0.7,0.2-1.4,0.3-2.1c0.1-0.4,0.1-0.8,0.1-1.2V130c0-0.1,0-0.3,0.1-0.4l0,0
		c0.1-0.5,0.3-1.4,0.4-2.3l0,0c0.1-0.8,0.3-2.2,0.7-3.7v-0.2l0.5-1.2v-0.4l0,0c0-0.1,0.1-0.3,0.1-0.4c0.1-0.1,0.2-0.3,0.3-0.5
		c0.2-0.4,0.3-0.8,0.3-1.2v-0.7c0-0.7-0.1-1.4-0.3-2.1v-0.3l-0.1-0.3c-0.2-0.3-0.4-0.7-0.7-1c-0.3-0.3-0.6-0.6-1-0.8l0,0
		c-0.1-0.1-0.3-0.1-0.4-0.3l0,0l-0.3-0.3l0,0l0.1-0.1c0.3-0.1,0.7-0.3,0.8-0.5c0.3-0.2,0.4-0.4,0.5-0.7c0.1-0.3,0.3-0.7,0.4-1
		c0.1-0.3,0.1-0.5,0.1-0.8c0-0.5-0.1-1.1-0.4-1.5l0,0c-0.6-1.2-1.3-2.4-2.1-3.6c-0.7-1-1.6-1.9-2.7-2.5l0,0c-1.6-1-3.4-1.7-5.3-2.1
		l0,0c-0.6-0.1-1.2-0.2-1.9-0.1c-1.5,0-3,0.3-4.4,0.7l-0.5,0.1c-2.2,0.3-4.3,1-6.2,2.2c-2.4,1.4-4.6,3.1-6.4,5.2l0,0
		c-2.1,2.2-4,4.6-5.6,7.1l0,0c-1.7,2.7-3.1,5.5-4.2,8.4c-0.7,1.9-1.5,3.7-2.2,5.9l0,0c-0.8,2.3-1.3,4.8-1.4,7.3l0,0v0.8
		c0,2.3,0.5,4.6,1.4,6.7l0,0c0.6,1.3,1.4,2.6,2.5,3.6c1.1,1.1,2.4,2.1,3.7,2.9l0,0c1,0.6,2.2,0.9,3.4,0.8c0.5,0,1,0,1.5-0.1l0,0
		c1.8-0.4,3.4-1.1,4.9-2.2l0,0c1-0.7,1.9-1.6,2.7-2.5c1-1.2,1.9-2.4,2.7-3.7l0,0c1.6-2.5,2.9-4.5,4-6.3c0,0.9,0.1,1.8,0.3,2.7
		c0.1,0.8,0.3,1.6,0.5,2.3c0.2,0.7,0.5,1.3,1,1.9l0,0c0.8,1.3,1.8,2.4,3,3.3c0.9,0.7,1.8,1.4,2.7,2.1l0,0c1,0.7,2,1.2,3.1,1.6h0.3
		c1.5,0.4,3,0.6,4.5,0.5c1.5,0,3.1-0.3,4.5-0.8l0,0c1.8-0.7,3.5-1.7,4.8-3.1c1.5-1.5,2.8-3,4.1-4.7v1c-0.3,2.7,0.8,3.3,1,3.4
		c0.1,0.3,0.3,0.5,0.5,0.7l0,0c0.2,0.2,0.5,0.4,0.8,0.5c0.8,0.2,1.6,0.3,2.4,0.3h0.1c0.1,0.1,0.3,0.1,0.4,0.3
		c0.2,0.2,0.4,0.3,0.7,0.3l0,0l0.3,0.3c0.6,0.3,1.2,0.6,1.9,0.8c0.4,0.1,0.8,0.2,1.2,0.1c0.3,0,0.6,0,1-0.1c0.4,0,0.8-0.1,1.1-0.3
		c0.4-0.1,0.7-0.4,0.8-0.7c0.3-0.3,0.5-0.7,0.7-1.1c0.1-0.3,0.1-0.6,0.1-1v-0.7l-0.4-0.5c-0.2-0.1-0.3-0.3-0.3-0.5
		c-0.1-1.7,0.1-3.4,0.7-5.1c0.5-1.9,1.1-3.7,1.9-6l0,0c0.7-2.1,1.5-4.1,2.2-6.2c1.9-3.1,3.7-5.9,5.3-8.1c1.3-1.8,2.8-3.6,4.3-5.2
		c1.4-1.4,2.5-2.5,3.4-3.3c0.5-0.5,1.1-0.8,1.5-1.2v1.6c0,1.1-0.1,2.3-0.3,3.7c-0.1,1.4-0.4,3.3-0.7,5.2s-0.7,3.7-1.1,5.5v0.5
		c-0.2,0.4-0.3,0.7-0.4,1.1l0,0c-0.1,0.7-0.4,1.4-0.7,2.3v0.4c-0.2,0.8-0.4,1.6-0.5,2.5c-0.1,1-0.2,1.9-0.1,2.9v3.1
		c0,0.7,0.1,1.4,0.4,2.1v0.3l0.4,0.5c0.1,0.1,0.1,0.2,0.1,0.3l0,0c0,0.4,0.2,0.8,0.4,1.1c0.2,0.3,0.4,0.7,0.7,1l0,0l0.3,0.3l0,0
		c0.3,0.3,0.4,0.7,0.8,1c0.8,1,1.7,1.8,2.7,2.6c0.8,0.5,1.6,1.1,2.3,1.6l0,0c0.7,0.5,1.5,0.9,2.3,1.2l0.1,0.1h0.3
		c1.5,0.4,3,0.6,4.5,0.5c1.5,0,3-0.3,4.4-0.8l0,0c1.8-0.7,3.5-1.7,4.8-3.1c1.2-1.2,2.6-2.9,4.2-4.7c0.8-1,1.6-2.1,2.5-3.1
		c0.3,1.5,0.8,3,1.5,4.4c0.7,1.4,1.5,2.6,2.6,3.7c1.1,1.1,2.4,2.1,3.7,2.9c0.4,0.3,0.9,0.5,1.4,0.7c0.5,0.2,1.1,0.3,1.6,0.3
		c0.5,0,0.9,0,1.4-0.1l0,0c0.7-0.2,1.4-0.4,2.1-0.8c0.8-0.4,1.5-0.9,2.2-1.5l0,0c0.9-0.8,1.7-1.6,2.5-2.5c0.8-1,1.6-2.2,2.6-3.6l0,0
		c1.6-2.5,2.9-4.7,4-6.4l0,0c0,0.8,0.1,1.6,0.1,2.3c0.1,0.9,0.3,1.8,0.5,2.6c0.2,0.7,0.5,1.4,1,2.1l0,0c0.8,1.3,1.8,2.4,3,3.3
		c0.9,0.7,1.8,1.3,2.7,1.9l0,0c0.9,0.7,1.9,1.2,3,1.6l0.1,0.1h0.3c1.4,0.4,2.9,0.6,4.4,0.5h1.4c0.2,0,0.4,0,0.5-0.1h0.2
		c0.3-0.1,0.4-0.1,0.7-0.3c0.3-0.2,0.5-0.5,0.7-0.8l0,0c0.1,0,0.1-0.1,0.1-0.3c0.2-0.3,0.4-0.6,0.4-1l0.3-1.1l-1.1-1.2l-0.1-0.1l0,0
		c-0.4-0.4-0.9-0.9-1.4-1.2c-0.2-0.3-0.5-0.5-0.8-0.7c-0.4-0.4-0.8-0.8-1.1-1.2c-0.1-0.1-0.3-0.4-0.4-0.5c-0.1-0.1,0-0.1-0.1-0.1
		l0,0c-0.4-1.6-0.6-3.3-0.5-4.9c0-1.9,0.1-3.7,0.3-5.6c0.1-1,0.1-1.6,0.3-2.3c0.1-0.4,0.1-0.8,0.1-1.2v-0.4c0-0.1,0-0.3,0.1-0.4l0,0
		c0.1-0.5,0.3-1.1,0.4-1.9l0,0c0.2-0.8,0.4-1.7,0.7-2.5c0.3-0.5,0.4-1.2,0.7-1.9l0,0c0.3-0.8,0.6-1.7,0.8-2.5v-0.3l0,0v-0.1l0,0
		l0.1-0.4c0.1-0.3,0.2-0.6,0.3-1c0-0.1,0.1-0.3,0.1-0.4v-0.4c0.8-2.5,1.6-5.3,2.6-8.4l0,0c0.5-1.6,0.7-2.5,1-3.1
		c0.2-0.4,0.3-0.8,0.4-1.2c0.1-0.4,0.3-1,0.5-1.6c2.1-2.9,4.1-5.7,6.3-8.8C278.6,90.8,280.7,87.7,282.5,85z M279.6,76.8
		c0.7-2.1,1.4-3.7,1.9-4.8l-1.9-0.8l1.9,0.8c1-2.2,1.9-4.7,2.9-6.7c0.4-1,1-1.9,1.2-2.5s0.4-0.5,0.4-0.7c0-0.1,0.1-0.1,0.1-0.1l0,0
		c0,0.3,0,0.6-0.1,1c-0.1,0.9-0.3,1.7-0.5,2.6c-0.3,1-0.5,1.9-0.8,2.6c0,0.1-0.1,0.3-0.3,0.5c-0.2,0.7-0.5,1.3-0.8,1.9
		c-0.5,1.1-1.1,2.5-1.6,3.7c-0.2,0.6-0.5,1.1-0.8,1.6c-0.2,0.4-0.4,0.9-0.7,1.2l0,0c-1,1.8-2,3.6-3.1,5.3
		C278.1,80.5,278.9,78.5,279.6,76.8z M139.9,112.2c-0.4,0.5-0.8,1-1.1,1.5l0,0c-0.4,0.7-0.7,1.2-1,1.9c-0.2,0.4-0.4,0.8-0.5,1.2
		c-0.3,0.5-0.7,1.1-1.2,2.1c-0.5,1-1.2,2.1-2.1,3.3l0,0c-1.7,2.7-3.5,5.3-5.5,7.8l0,0c-2,2.5-4.1,4.9-6.3,7.1
		c-0.8,0.8-1.7,1.5-2.6,2.2c0-0.3,0.1-0.4,0.1-0.7c0-0.3,0.3-1.2,0.5-2.2c0.3-1,0.7-1.9,1.1-3.1l0,0c0.6-1.9,1.3-3.8,2.2-5.6
		l1.9-3.7l0,0c0.5-1.1,1.2-2.1,1.9-3l0,0c0.9-1.2,1.9-2.4,2.9-3.6l0,0c1.1-1.4,2.2-2.6,3.6-3.7c0.8-0.7,1.7-1.4,2.7-1.9
		c0.1,0,0.3-0.1,0.4-0.1c0.1,0,0.1-0.1,0.1-0.1v0c0.4-0.1,0.7-0.1,1.1-0.1h0.7c0.5,0.1,1.1,0.3,1.5,0.4
		C140.4,111.6,140.2,111.9,139.9,112.2z M253.9,109.3L253.9,109.3c-0.5,1.4-1,2.7-1.4,4c-0.3,0.3-0.4,0.7-0.5,1.1l0,0l-0.1,0.1
		l-0.1,0.1l-0.1,0.1c-1.2,2.1-2.6,4-3.7,6l0,0c-1.2,1.9-2.5,4-3.7,5.9l-1.5,2.2c-1.9,2.3-3.7,4.5-5.5,6.4c-1.2,1.2-2.3,2.2-3.1,2.9
		c-0.1,0.1-0.4,0.3-0.5,0.4c0-0.3,0.1-0.7,0.1-1.1c0-0.4,0.3-1.2,0.5-2.2s0.7-1.9,1.1-3.1l0,0c1.4-3.9,3.1-7.7,4.9-11.4
		c1.6-2.9,3.5-5.6,5.6-8.2l0,0c1.1-1.4,2.4-2.7,3.7-4c0.8-0.7,1.6-1.3,2.5-1.9l0,0l0.3-0.1c0.4-0.1,0.9-0.2,1.4-0.3h0.7
		c0.1,0,0.3,0,0.4,0.1C254.4,107.6,254.1,108.5,253.9,109.3L253.9,109.3z"/>
	<path class="st28" d="M487.3,108.1c0-0.6-0.1-1.3-0.3-1.9l-0.1-0.4l0,0c0-0.1,0-0.1-0.1-0.1c0-0.1-0.1-0.1-0.1-0.1l0,0
		c-0.1-0.8-0.5-1.5-1-2.1l0,0c-0.3-0.3-0.5-0.7-1-1.1l-0.1-0.1l-0.1-0.1c-0.5-0.4-1-0.9-1.5-1.2l0,0c-0.3-0.1-0.7-0.3-1-0.5
		c-0.5-0.1-0.9-0.3-1.4-0.5h-0.3c-0.5-0.1-1.1-0.2-1.6-0.1c-0.7,0-1.4,0.1-2.1,0.4l0,0c-0.3,0.1-0.6,0.2-1,0.4h-0.3l-0.3,0.1
		c-0.3,0.1-0.4,0.1-0.7,0.3c-0.4,0.3-0.7,0.6-1,1c-0.2,0.4-0.3,0.8-0.3,1.2v0.3l-0.1,0.1l0,0v0.1c-0.1,0.1-0.2,0.3-0.1,0.4l-0.1,0.1
		l-0.1,0.4c-0.2,0.5-0.4,1.1-0.5,1.6c-0.1,0.4-0.2,0.7-0.3,1.1c-0.3,0.8-0.7,1.6-1,2.5c-0.3,0.8-0.5,1.9-0.8,2.6v0.1
		c-0.1,0.2-0.1,0.5-0.1,0.7l0,0c-1.1,3.8-2.5,7.5-4.1,11.1c-1.6,2.9-3.4,5.7-5.4,8.3l0,0c-2.5,3.7-5.9,6.8-9.9,8.9
		c-0.1,0-0.3,0.1-0.5,0.1c-0.3,0.1-0.5,0.1-0.8,0.1v-0.4c0.1-0.4,0.1-1,0.3-1.6c0.4-1.9,0.5-2.1,1.1-4.4l0,0
		c0.1-0.4,0.3-1.4,0.7-2.6l0,0c0.3-1.1,0.5-2.2,0.8-3l0,0c0.3-0.7,0.5-1.4,0.7-2.2l0,0c0.3-0.7,0.4-1.2,0.5-1.5l0.3-0.4v-0.4
		l1.2-3.7c0.2-0.2,0.3-0.4,0.3-0.7c0.2-0.4,0.3-0.8,0.3-1.2v-0.3l0.1-0.3v-0.7c0.1-0.7,0.4-1.4,0.5-2.1l0,0c0.2-0.7,0.4-1.4,0.8-2.1
		c0.3-0.4,0.4-0.8,0.7-1.2l0,0c0.2-0.3,0.3-0.7,0.5-1l0,0c0.4-0.8,0.7-1.6,0.7-2.5v-0.8l0,0c0-0.4-0.1-0.8-0.4-1.1
		c-0.3-0.5-0.7-1-1.1-1.4c-0.4-0.3-0.9-0.6-1.4-0.8l0,0c-0.3-0.2-0.6-0.3-1-0.3c-0.4-0.1-0.7-0.2-1.1-0.1c-0.2,0-0.5,0-0.7,0.1
		c-0.2,0.1-0.5,0.2-0.7,0.3h-0.8c-0.4,0-0.8,0-1.2,0.1h-1.1c-0.6,0-1.3,0.1-1.9,0.4c-0.6,0.3-1.2,0.7-1.6,1.1l0,0l-0.8,0.8
		c-0.1,0.1-0.3,0.3-0.3,0.4s-0.1,0.1-0.1,0.4c0,0.1-0.1,0.2-0.1,0.3c-1.2,3.3-2.3,6.6-3.4,9.9c-0.8,1.4-1.9,3-3.1,5.1
		c-2.1,3.1-4.2,6.3-6.7,9.6c-2.1,2.9-4.4,5.7-6.8,8.4l0,0c-0.8,0.9-1.6,1.7-2.6,2.5c-0.2,0.2-0.5,0.4-0.8,0.4h-0.3
		c-0.1-0.1-0.1-0.2-0.1-0.3c-0.1-0.1-0.1-0.4-0.3-0.7l0,0c-0.5-1.6-0.7-3.3-0.7-4.9c0-1.9,0.1-3.7,0.3-5.6l0,0
		c0.1-0.8,0.2-1.5,0.3-2.3c0.1-0.4,0.1-0.8,0.1-1.2v-0.4c0-0.1,0-0.3,0.1-0.4c0.1-0.2,0.2-0.5,0.1-0.7c0.1-0.4,0.2-0.7,0.1-1.1l0,0
		c0.2-0.8,0.4-1.6,0.7-2.3l0,0c0.3-0.7,0.4-1.4,0.7-2.1s0.4-1.4,0.7-2.2l0.1-0.4v-0.3l0.1-0.1c0.3-0.5,0.4-1,0.4-1.5l0.1-0.4v-0.4
		c0.8-2.5,1.6-5.3,2.6-8.4l0,0c0.5-1.6,0.7-2.5,1-3.1c0.2-0.4,0.3-0.8,0.4-1.2c0.1-0.4,0.3-1,0.5-1.6c2.1-2.9,4.1-5.7,6.3-8.8
		c2.2-3,4.1-6,5.9-8.9c1.8-2.9,3.3-5.3,4.7-7.7c1.2-1.9,2.2-3.9,3.1-6l0,0c0.1-0.3,0.2-0.6,0.3-1c0-0.1,0.1-0.3,0.1-0.4v-0.1
		c0.1-0.3,0.2-0.6,0.3-1c0.3-0.8,0.7-1.9,1-2.9c0.1-0.5,0.3-1,0.4-1.5s0.1-0.4,0.1-0.7c0-0.3,0.1-0.4,0.1-0.5l0,0
		c0.2-0.9,0.3-1.8,0.3-2.7c0-0.5,0-0.9-0.1-1.4l0,0c0-0.3-0.1-0.5-0.1-0.8s-0.1-0.4-0.3-0.7c-0.2-0.4-0.5-0.7-0.8-1
		c-0.3-0.1-0.4-0.3-0.7-0.4c-0.3-0.1-0.5-0.2-0.8-0.1c-0.2,0-0.4-0.1-0.5-0.1c-0.3-0.2-0.7-0.3-1-0.4c-0.2-0.1-0.5-0.1-0.7-0.1
		c-0.7-0.3-1.5-0.4-2.3-0.4c-1.1,0-2.1,0.3-3.1,0.7c-1.2,0.5-2.3,1.1-3.3,1.9c-1.2,1-2.3,2.1-3.3,3.3c-2.8,3.5-5.3,7.2-7.3,11.2
		c-3,6-5.6,12.2-7.8,18.5v0.1c-0.2,0.3-0.3,0.6-0.4,1c-0.2,0.5-0.4,1.1-0.5,1.6l0,0c-0.5,1.5-1.2,3.4-2.1,5.6v0.3
		c-0.2,0.7-0.4,1.3-0.7,1.9l0,0c-0.5,1.4-1.1,2.6-1.5,3.7c-1,2.9-1.9,5.7-2.9,8.5c-0.1,0.1-0.1,0.2-0.1,0.3
		c-0.1,0.3-0.1,0.5-0.3,0.7v0.1c-0.4,1.6-1,3.3-1.4,4.9l0,0c-1,3.3-1.9,6.4-2.3,9.4l0,0c-0.4,2.1-0.6,4.3-0.5,6.4
		c0,0.7-0.1,1.4-0.1,2.1c0,1,0,2.1,0.1,3.1c0.1,0.8,0.3,1.7,0.5,2.5c0.2,0.7,0.6,1.3,1,1.9l0,0c0.9,1.2,1.9,2.3,3,3.3
		c0.9,0.7,1.8,1.4,2.7,2.1l0,0c0.9,0.7,1.9,1.2,3,1.6l0.1,0.1h0.3c1.5,0.4,3,0.6,4.5,0.5c1.5,0,3.1-0.3,4.5-0.8l0,0
		c1.8-0.7,3.5-1.7,4.8-3.1c1.2-1.2,2.6-2.9,4.2-4.7c0.2-0.4,0.6-0.8,1-1.1v0.4c0,0.6,0,1.3,0.1,1.9c0,0.6,0,1.1,0.1,1.6l0,0
		c0.5,1.2,1.1,2.3,1.9,3.3c0.3,0.5,0.8,1,1.2,1.4c0.5,0.3,1,0.5,1.5,0.7c0.4,0.2,0.9,0.3,1.4,0.3h0.1c0.6,0.2,1.2,0.4,1.9,0.5
		c0.4,0.1,0.8,0.1,1.2,0.3c0.3,0.1,0.5,0.2,0.8,0.1c0.2,0,0.5,0,0.7-0.1h0.7c0.3,0,0.6,0,1-0.1c0.1,0,0.4-0.1,0.5-0.1h0.1
		c0.8-0.2,1.6-0.4,2.3-0.8l0,0c1.1-0.5,6.3-2.7,7.8-4.4c0,0.1-3.7,16.7-15.2,18.7l0,0c-0.1,0-0.1,0.1-0.3,0.1
		c-0.3,0.1-0.6,0.2-1,0.3l0,0c-1.1,0.3-2.2,0.5-3.3,0.5h-1c-0.7,0.1-1.4,0.1-2.1,0.1h-3.6l-1.5-0.5l-0.5,0.8h-0.1l-0.3,0.4h-0.1
		c-0.3,0.1-0.4,0.4-0.5,0.5c-0.2,0.2-0.3,0.5-0.3,0.8v1c0,0.3,0.1,0.4,0.1,0.5s0.1,0.4,0.3,0.5c0.1,0.3,0.3,0.6,0.5,0.8
		c0.2,0.4,0.4,0.7,0.7,1.1l0,0c0.4,0.6,0.9,1.2,1.5,1.6c0.1,0.1,0.4,0.3,0.5,0.4c0.1,0.2,0.2,0.4,0.4,0.5l0.3,0.3
		c0,0.1,0,0.3,0.1,0.4c0.1,0.2,0.2,0.5,0.4,0.7l0.4,0.4l0,0c0.2,0.2,0.4,0.3,0.7,0.4c0.3,0.1,0.5,0.2,0.8,0.3c1,0.3,1.9,0.4,2.5,0.5
		l0,0c0.5,0.1,1,0.2,1.5,0.1h2.2c3.4,0,6.9-0.5,10.1-1.6c4.1-1.5,9.7-5.3,14.2-13.8c3.8-7.1,6.7-14.6,8.6-22.5c0.5-2.1,1-4,1.2-5.2
		c0.1-0.6,0.2-1.1,0.4-1.6c0-0.1,0.1-0.4,0.1-0.5v-0.2l0,0c0.3-1.1,2.6-10.1,4.8-13.7V120c0.2-0.7,0.5-1.3,1-1.9
		c0.5-0.7,1-1.5,1.4-2.3l0,0c0.3-0.5,0.5-1,0.7-1.5c0.1-0.4,0.4-0.7,0.4-1l0,0c0.2-0.3,0.3-0.6,0.5-0.8c0.2-0.2,0.4-0.4,0.5-0.7
		c0.2-0.1,0.3-0.3,0.3-0.5c0.1-0.1,0.1-0.4,0.3-0.7l0,0c0.1-0.4,0.2-0.9,0.3-1.4l0,0C487.1,108.8,487.2,108.5,487.3,108.1z
		 M435.5,82.3c0.7-2.2,1.4-4.2,2.1-6.2c0.7-1.9,1.2-3.4,1.6-4.4l0,0c1-2.2,1.9-4.7,2.9-6.7c0.4-0.9,0.8-1.8,1.2-2.6l0.4-0.8
		c0-0.1,0.1-0.1,0.1-0.1l0,0l0,0c0,0.6-0.1,1.1-0.3,1.6c-0.3,1.4-0.6,2.8-1.1,4.1c-0.4,1.4-1,2.7-1.4,3.7c-0.4,1-1.4,2.9-2.5,4.9
		l0,0c-0.6,1.1-1.1,2.2-1.5,3.3c-0.5,1.2-1.2,2.3-1.9,3.4l0,0C435.3,82.6,435.5,82.4,435.5,82.3z"/>
	<path class="st28" d="M102.7,159.3l-0.7-0.8c-0.1-0.1-0.1-0.2-0.1-0.3c0-0.1-0.1-0.1-0.1-0.3l0,0c-0.1-0.3-0.3-0.4-0.4-0.7
		c-0.2-0.3-0.4-0.7-0.7-1l0,0c0-0.1-0.1-0.1-0.1-0.3c-0.2-0.4-0.4-0.9-0.5-1.4l-0.1-0.1l-0.1-0.1c-0.1-0.6-0.2-1.1-0.4-1.6
		c-0.3-0.5-0.1-1.1-0.5-2.3l-0.1-0.3c-0.1-0.4-0.2-0.8-0.1-1.2v-0.4l-0.1-1c-0.1-2.5,0-5,0.4-7.5c0.3-2.6,0.8-6.6,1.5-9.9
		c0.4-1.9,1-3.7,1.4-5.3c1.9-6.3,4-12.5,6.2-18.5c2.1-6,4.2-12,6.6-18.2l0.5-1.5c1.5-0.3,2.2-0.3,2.9-0.4s0.8-0.1,1.2-0.1
		c0.4,0,1-0.1,1.9-0.1h1c0.2,0,0.4,0,0.6-0.1c0.3-0.1,0.4-0.3,0.5-0.3l0.4-0.1l0.1-0.1c0.1,0,0.3-0.1,0.4-0.3
		c0.1-0.1,0.3-0.1,0.3-0.3c0-0.1,0.4-0.3,0.5-0.4c0.2-0.2,0.3-0.3,0.4-0.5c0.2-0.3,0.3-0.6,0.3-1v-0.4c0-0.1,0.1-0.1,0.1-0.3
		l0.1-0.1c0.4-0.2,0.7-0.5,1-0.8c0.2-0.3,0.3-0.5,0.4-0.8c0.1-0.3,0.2-0.6,0.1-1c0-0.4-0.1-0.8-0.3-1.1l-0.1-0.3l-0.1-0.1
		c-0.2-0.3-0.6-0.6-1-0.8c-0.3-0.2-0.7-0.3-1.1-0.3h-1.5c-0.6,0-1.3,0.1-1.9,0.3l0,0c-1.9,0.3-2.6,0.3-3.3,0.4
		c0.3-0.4,0.5-0.9,0.7-1.4c0.1-0.3,0.1-0.5,0.3-0.7c0.1-0.1,0.1-0.4,0.1-0.8l0,0c0-0.1,0.1-0.1,0.1-0.1l0,0c0.3-0.4,0.4-0.7,0.7-1.1
		l0,0c0.2-0.2,0.3-0.5,0.3-0.8c0.1-0.3,0.2-0.6,0.3-1l0,0c0.1-0.4,0.2-0.8,0.1-1.2c0-0.5-0.1-0.9-0.3-1.4l0,0c0-0.1-0.1-0.2-0.1-0.3
		c-0.1-0.2-0.1-0.5-0.1-0.7l0,0c-0.1-0.8-0.4-1.5-0.8-2.2l0,0c-0.2-0.3-0.4-0.6-0.5-1l0,0c-0.3-0.7-0.7-1.4-1.4-1.9l0,0
		c-0.3-0.3-0.6-0.4-1-0.5c-0.4-0.2-0.8-0.4-1.2-0.5l0,0c-0.6-0.3-1.2-0.4-1.9-0.4c-0.4,0-0.7,0-1.1,0.1c-0.4,0.1-0.7,0.3-1,0.5l0,0
		c-0.1,0-0.1,0.1-0.1,0.1h-0.1l-0.3,0.1l-0.8,0.4c-0.4,0.3-0.7,0.7-0.8,1.1c-0.2,0.4-0.3,0.8-0.3,1.2v0.1c-0.2,0.1-0.3,0.3-0.3,0.5
		c0,0.1-0.1,0.3-0.1,0.4l-0.1,0.1l-0.1,0.4c-1,2.5-1.9,4.9-2.9,7.5c-0.8,2.2-1.6,4.4-2.5,6.4c-4.4,1.2-8,2.2-10.6,2.9l0,0
		c-1.5,0.4-2.9,1-4.1,1.4c-0.3,0-0.5,0.1-0.8,0.1c-0.4,0.1-0.8,0.3-1.1,0.5l-0.1,0.1l-0.1,0.1l-0.5,0.5l0,0c-0.4,0.3-0.7,0.8-1,1.2
		c-0.2,0.3-0.3,0.7-0.3,1.1v0.8c0,0.3,0,0.6,0.1,0.8c0.2,0.4,0.5,0.8,0.9,1c0.3,0.2,0.6,0.4,1,0.5c0.5,0.2,1.1,0.3,1.6,0.3
		c0.7,0,1.4-0.1,2.1-0.4c2.3-0.5,4.7-1.1,6.8-1.5l0,0c1.1-0.3,2.2-0.4,3.3-0.7c-0.4,1.4-1,2.6-1.4,4c-0.8,2.5-1.6,4.9-2.3,7.5
		c-2.1,6.3-3.7,12.7-5.5,19.2l0,0c-0.4,1.4-0.7,2.9-1,4.4l0,0c-0.4,1.6-1.2,5.7-1.5,7.5c-0.3,1.7-0.4,3.1-0.5,4.8
		c-0.4,3.9-0.4,7.9-0.1,11.8c0.2,3,1,6,2.3,8.8c0.3,0.4,0.4,0.7,0.7,1.1c0.3,0.4,0.1,0.4,0.3,0.5c0.2,0.3,0.4,0.7,0.7,1l0,0l1.5,1.5
		c0.1,0.1,0.3,0.4,0.5,0.4c0.3,0,0.4,0.3,0.5,0.3l0,0c0.1,0,0.3,0.1,0.5,0.1h0.7c0.1,0,0.3-0.1,0.4-0.1h0.8c0.1,0.1,0.3,0.1,0.5,0.1
		c0.3,0,0.4,0.3,1.1,0.3h1.9c0.2,0,0.4,0,0.5-0.1c0.1,0,0.3,0,0.4-0.1c0.1,0,0.1-0.1,0.3-0.1s0.3-0.1,0.4-0.3
		c0.2-0.2,0.3-0.3,0.4-0.5c0.1-0.2,0.2-0.5,0.1-0.7v-0.3l0.1-0.4V160L102.7,159.3z"/>
</g>
</svg>
