<?xml version="1.0" encoding="UTF-8" standalone="no"?>
<svg width="1500px" height="340px" viewBox="0 0 1500 340" version="1.1" xmlns="http://www.w3.org/2000/svg" xmlns:xlink="http://www.w3.org/1999/xlink">
    <!-- Generator: Sketch 44.1 (41455) - http://www.bohemiancoding.com/sketch -->
    <title>logo_white-text-black</title>
    <desc>Created with Sketch.</desc>
    <defs></defs>
    <g id="Page-1" stroke="none" stroke-width="1" fill="none" fill-rule="evenodd">
        <g id="logo_white-text-black" fill-rule="nonzero">
            <g id="Tandemly_LogoFull_White" fill="#FFFFFF">
                <polygon id="Shape" points="37.4 37.4 115.4 37.4 115.4 0 0 0 0 339.2 115.4 339.2 115.4 301.7 37.4 301.7"></polygon>
                <polygon id="Shape" points="290.2 37.4 364.7 37.4 364.7 301.7 290.2 301.7 290.2 339.2 402.1 339.2 402.1 0 290.2 0"></polygon>
                <path d="M206.1,150.8 L285,150.8 L296.3,113.4 L217.4,113.4 L224.5,90 L188.2,79 L177.8,113.3 L116.7,113.3 L105.3,151 L105.5,151.1 L105.5,151.1 L161.3,168 L151.8,200.1 C150.8,204.4 150.2,208.8 150.2,213.4 C150.2,232.2 159.3,248.8 173.3,259.1 C182.7,266 194.3,270.1 206.8,270.1 L207.6,270.1 C213.6,270.1 219.3,269.1 224.7,267.2 C245.1,260.1 259.8,240.7 259.8,217.9 C259.8,193.6 243.2,173.2 220.8,167.4 L215.6,184.5 C224.9,188 231.5,197 231.5,207.6 C231.5,220.6 221.4,231.3 208.6,232.2 C208,232.2 207.4,232.3 206.8,232.3 C206.2,232.3 205.6,232.3 205,232.2 C203.6,232.1 202.1,231.8 200.7,231.3 C190.8,227.9 185.6,217.2 189,207.3 C189.1,207.2 206.1,150.8 206.1,150.8 Z" id="Shape"></path>
            </g>
            <g id="Group" transform="translate(483.000000, 27.000000)" fill="#404041">
                <path d="M755,132 L755,132 C755.3,129.6 755.7,127.9 755.7,125.8 C755.7,125.1 755.7,124.8 755.7,124.1 C756,123.1 756,121.7 756,120.6 C756,118.2 755.7,116.1 755,113.7 L755,113.7 C754,110.2 752.6,107.1 750.9,104.4 L750.9,104.4 C749.2,101.6 746.8,99.6 744.3,97.8 L744.3,97.8 C743.3,97.1 742.6,96.8 741.5,96.4 C740.5,96.1 739.4,95.7 738,95.7 C737.3,95.7 736.3,95.7 735.6,96 C734.2,96 732.5,96.3 731.1,96.7 L731.1,96.7 C729.7,97 728.3,97.4 727,98.1 C726.7,98.1 726.3,98.1 725.6,98.4 C725.3,98.4 724.9,98.7 724.2,98.7 C723.9,98.7 723.5,99 723.2,99 C722.5,99.3 721.8,99.7 721.1,100 C720.4,100.3 720.1,100.7 719.4,101.4 C711.5,105.9 703.5,111.8 695.6,119.4 C691.5,123.2 688,127 684.6,130.4 C684.6,129.7 684.3,129 684.3,128.3 C683.6,126.2 682.9,123.8 681.9,122.1 L681.9,122.1 L681.9,122.1 C681.2,120.7 679.8,119.7 678.8,118.6 C677.4,117.9 676,117.2 674.7,116.9 L674.7,116.9 C673.3,116.6 671.9,116.6 670.6,116.2 C668.9,115.5 667.1,114.8 665.1,114.5 L665.1,114.5 C663.4,114.2 661.6,113.8 659.9,113.8 L657.8,113.8 C657.1,113.8 656.8,113.8 656.1,113.8 C655.8,113.8 655.1,114.1 654.7,114.1 L654.4,114.1 C652.3,114.4 650.3,115.5 647.5,116.5 L647.5,116.5 C644.7,117.9 641.6,119.6 637.8,122 L637.8,121.7 L637.8,121.3 C637.8,120.6 637.8,119.9 637.8,119.2 C637.8,118.5 637.8,117.8 637.5,117.1 L637.5,117.1 L637.5,117.1 C637.5,116.4 637.2,115.7 636.8,115.4 C636.8,115.1 636.8,114.7 636.5,114.4 L636.5,113.7 L636.2,112.7 C635.5,111 634.5,109.2 633.4,107.9 L633.4,107.9 C632.7,107.2 632,106.2 631,105.1 L631,105.1 C630.3,104.4 629.6,103.7 628.9,103 C628.2,102.3 627.5,101.6 626.5,101.3 C625.8,101 625.1,100.6 624.1,100.3 C623.1,100 622,99.6 620.6,98.9 C618.9,98.2 617.1,97.9 615.4,97.9 C614.4,97.9 613.7,97.9 612.6,98.2 C611.6,98.5 610.9,98.9 609.8,99.2 L609.8,99.2 C609.5,99.5 609.1,99.5 608.8,99.9 L608.5,99.9 L608.5,99.9 L603.3,99.9 L603.3,102.7 C602.6,103.4 602.3,104.1 601.9,104.8 C601.6,105.5 601.6,106.2 601.6,106.9 C601.6,107.2 601.6,107.6 601.6,107.9 L601.3,108.2 L600.3,109.2 L600.3,110.2 L600,110.9 C598.6,113.7 597.6,116.8 596.2,120.6 L596.2,120.6 C595.2,124.1 594.1,127.2 593.1,129.9 L592.8,130.9 L592.8,131.2 L592.8,131.5 C592.8,131.8 592.8,132.2 592.5,132.2 C588.4,144.3 584.6,156 580.8,167.8 L580.8,167.8 C579.1,173.7 577.3,179.2 575.6,185.1 C572.8,188.2 569,192 564.6,196.5 C558.4,202.4 551.1,208.6 542.2,214.5 C539.1,216.6 536,218.3 533.9,219.3 C531.5,220.3 529.8,221 528.4,221.4 L528.4,221.4 C524.9,222.1 522.2,222.4 519.8,222.8 L519.5,222.8 C518.8,222.8 518.5,222.8 517.4,223.1 L517.4,223.1 C517.1,223.1 516,223.1 515.3,223.1 L510.5,223.1 C509.5,223.1 509.1,223.1 508.8,222.8 C508.5,222.8 508.5,222.5 508.1,222.1 L508.1,221.8 L508.1,221.5 C507.8,221.2 507.4,220.5 507.1,219.8 C506.8,219.1 506.8,218.1 506.8,217 L506.8,216.3 L506.8,216 C506.8,215.7 506.8,215.3 506.8,215 C506.8,214.7 506.8,214.3 506.8,214 L506.8,213.7 L506.8,213.4 C508.9,212.7 510.9,212 513.7,211 L514,211 L513.7,211 C518.2,209.3 523,206.9 528.2,203.7 L528.2,203.7 C533.7,200.6 538.9,196.4 544.4,191.6 L544.4,191.6 C550.3,186.4 555.4,180.2 560.3,173 L560.3,173 C561.7,170.9 563.1,168.9 564.1,166.1 L564.1,166.1 L564.1,166.1 C565.1,164 566.2,161.3 567.2,158.5 L567.2,158.5 C568.2,155.4 569.3,151.6 570,147.5 L570,147.5 C570.3,145.8 570.3,144 570.3,142.3 C570.3,139.9 570,137.5 569.6,135 L569.6,134.7 L569.6,134 L569.6,133.3 C568.9,130.9 568.2,128.5 567.5,125.7 L567.5,125.7 C566.8,122.6 565.4,119.8 564,117.4 L563.7,116.7 L563.7,116.7 C563.4,116.4 563.4,116 563,115.7 C562.7,115.4 562.7,115 562.3,115 L562.3,115 C560.6,112.9 558.5,111.2 556.1,109.8 C554,108.8 552,108.1 550.2,107.4 L550.2,107.4 L550.2,107.4 C548.5,106.7 546.4,106.7 544.3,106.7 C543.3,106.7 542.2,106.7 541.2,107 L540.9,107 L540.6,107 C533.7,109.1 527.5,111.8 521.6,116 C515.7,120.2 510.6,125.3 505.7,131.2 C496.4,142.9 488.8,155.7 482.9,169.5 L482.9,169.5 C481.5,173.3 480.1,176.4 479.1,179.9 L479.1,179.9 C478.1,183 477.4,185.8 476.7,188.2 C475,193.4 473.9,197.9 472.9,202 C471.9,206.1 471.5,209.6 471.5,212.7 L471.5,212.7 C471.5,213 471.5,213.4 471.5,213.7 C471.5,216.5 471.8,218.9 472.5,221.3 C473.2,223.7 473.9,226.1 475.3,227.9 L475.3,227.9 L475.3,227.9 C477,230.3 478.8,232.4 480.8,234.1 L480.8,234.1 C482.5,235.5 483.9,236.9 485.6,237.9 L485.6,237.9 L485.9,237.9 C489.7,240.7 493.8,242.4 497.6,243.1 L497.6,243.1 C499,243.4 500.4,243.8 501.4,243.8 C502.4,244.1 503.1,244.1 503.8,244.1 L504.5,244.1 L505.9,244.1 L506.9,244.1 L508.6,244.1 L508.9,244.1 L509.2,244.1 L509.5,244.1 C512.3,243.8 516.4,243.4 521.9,242.7 L522.2,242.7 L521.9,242.7 C525,242.4 527.4,242 529.8,241.7 C532.2,241.4 534.3,240.7 536,240 L536,240 C541.9,237.9 547.7,234.8 554,231 L554,231 C559.2,227.9 563.7,224.4 568.2,221 C568.2,223.1 570.6,228.3 572.3,231.4 C572.3,231.7 572.6,232.1 572.6,232.4 C572.9,233.1 573.3,233.8 574,234.1 L574,234.1 L574,234.1 C574.3,234.4 574.7,234.8 575.4,235.5 C575.7,235.8 576.1,235.8 576.8,236.2 C577.1,236.2 577.8,236.5 578.5,236.5 L578.8,236.5 C579.1,236.8 579.5,236.8 579.8,237.2 C580.1,237.2 580.5,237.5 580.8,237.5 C581.5,238.2 581.8,238.5 582.5,239.2 C583.5,239.9 584.9,240.6 586,240.6 L586,240.6 C587,240.9 588.1,240.9 589.1,240.9 C589.8,240.9 590.8,240.9 591.5,240.6 C591.8,240.6 592.2,240.6 592.5,240.3 C593.2,240 593.5,240 593.9,239.6 C594.6,239.3 594.9,238.9 595.3,238.6 C595.6,238.3 596,237.9 596.3,237.6 C596.6,237.3 597.3,236.6 597.7,235.9 C598.1,235.2 598.4,234.2 598.4,233.1 L598.4,231 C598.4,231 597.4,225.1 599.1,218.9 C601.5,209.9 604.6,200.9 607.7,191.6 C612.9,182.6 617.7,175.4 621.9,169.2 C626.4,163 630.5,157.8 634,154 C637.5,149.9 640.6,147.1 643,145 C644.7,143.6 646.5,142.2 647.5,141.5 L647.5,141.5 L647.5,141.5 C647.5,141.5 647.5,141.8 647.5,142.5 C647.5,143.2 647.5,143.9 647.5,145.3 C647.5,146.7 647.5,148.1 647.5,149.8 C647.2,154.6 646.5,160.5 645.4,166.7 C645.1,167.7 644.7,169.1 644.7,170.2 C644.7,170.2 644.7,170.5 644.4,170.9 L644.4,171.2 L644.4,171.5 C642,182.5 640.3,192.6 639.6,201.5 C639.3,206 638.9,209.1 638.6,211.5 C638.6,212.5 638.3,213.6 638.3,213.9 C638.3,213.9 638.3,213.9 638.3,214.2 L638,214.9 L638,219.4 L640.4,220.8 C641.1,221.1 641.4,221.5 642.1,221.8 C642.8,222.1 643.5,222.1 644.5,222.1 C644.8,222.1 645.2,222.1 645.5,222.1 C645.8,222.4 646.2,222.4 646.5,222.8 C647.2,223.1 648.2,223.5 649.3,223.5 C650.4,223.5 651.4,223.2 652.1,222.8 C652.1,222.8 652.4,222.8 652.4,222.5 C652.4,222.5 652.7,222.5 652.7,222.2 C653.4,221.9 653.7,221.5 654.1,221.2 C656.5,219.1 658.9,217.1 661.4,214.6 L661.4,214.6 C663.5,212.2 665.5,209.4 667.3,207 L667.3,207 L667.3,207 C669,203.5 670.8,200.4 672.1,197.7 L672.1,197.7 C673.5,194.9 674.5,192.5 675.2,190.4 L675.9,189.7 L676.2,188.3 C676.5,186.9 676.9,185.5 677.2,183.8 L677.2,183.8 C677.5,182.8 677.5,181.7 677.9,180.7 L678.6,180 L678.9,178.6 C679.6,176.5 680.3,174.1 681,172 L681,172 C681.7,169.9 682.4,167.5 683.1,165.4 C685.9,161.9 689,158.5 692.1,155.7 C693.8,154 695.2,152.6 696.2,151.6 C696.9,150.9 697.2,150.6 697.6,150.2 C697.9,149.9 697.9,149.5 698.3,149.2 L698.6,148.9 L700,147.5 L700,146.8 C703.5,142.7 706.9,139.5 710,137.1 C712.1,135.7 713.5,134.3 714.8,133.6 C715.1,133.3 715.8,132.9 716.2,132.6 C716.2,132.9 716.2,133.3 716.2,134 C716.2,135 715.9,136.1 715.9,137.1 C715.2,140.9 714.5,145.4 713.5,150.9 L713.5,150.9 C712.5,156.1 711.4,161.6 710,167.5 C709.7,169.2 709.3,171 708.6,172.7 C707.9,175.8 707.2,178.6 706.5,181.3 L705.8,183.7 C705.5,185.1 705.1,186.1 704.8,187.8 L704.8,187.8 C704.5,189.2 704.1,190.9 703.4,193.3 L703.4,194 L703.4,194 L703.4,194.3 C703.4,194.6 703.1,195.3 703.1,195.7 L702.8,196.4 L702.8,197.1 C702.5,198.8 702.1,200.6 702.1,202.3 C702.1,203.7 701.8,205.4 701.8,206.8 C701.5,208.2 701.5,209.2 701.5,210.6 C701.5,211.6 701.5,212.7 701.5,213.7 L701.5,214 L701.5,214 C700.5,217.8 700.1,221.3 700.1,224.4 L700.1,225.1 L700.1,225.4 C700.1,225.7 700.1,226.1 699.8,226.1 L697.7,229.9 L698.4,230.2 C698.4,230.5 698.4,231.2 698.4,231.6 C698.4,232.3 698.4,233 698.7,233.3 C699,234.3 699.4,235 700.1,235.7 C700.4,236 701.1,236.4 701.5,236.7 C701.8,237 702.2,237.7 702.9,238.8 L702.9,238.8 C703.9,240.5 705.3,241.6 706.7,242.6 C708.1,243.3 709.8,244 711.5,244 L711.5,244 C712.9,244.3 714.3,244.3 715.3,244.7 C716.3,244.7 717,245 718.1,245 L718.1,245 L718.4,245 C720.5,245 722.2,244.3 723.9,243.6 L723.9,243.6 C724.9,243.3 726,242.6 727,242.6 C728,242.3 729.4,241.9 730.1,241.2 C730.8,240.9 731.5,240.2 732.2,239.5 C732.5,239.2 732.5,239.2 732.9,238.8 L732.9,238.8 L732.9,238.8 L733.9,238.1 C734.9,237.4 735.6,236.4 736.3,235.3 C737,234.3 737.3,233.2 737.7,232.2 L737.7,232.2 C738,230.8 738.4,229.8 738.7,229.1 L738.7,229.1 L738.7,229.1 C739,228.4 739,227.7 739,227.4 C739,226.7 739,226 738.7,225.3 C738.7,224.6 738.4,223.9 738.4,223.2 C738.4,222.9 738.4,222.5 738.4,222.2 C738.4,221.9 738.4,221.9 738.4,221.5 L738.4,221.5 C738.4,220.5 738.7,219.4 738.7,218.4 C738.7,217.4 738.7,216 738.7,214.6 C738.7,213.6 738.7,212.9 738.7,211.8 C738.7,210.4 738.7,209 738.4,207.7 L738.4,207.7 C738.4,206 738.1,204.2 738.1,202.9 C738.1,202.6 738.1,202.2 738.1,201.9 L738.1,201.9 C738.1,201.2 738.4,200.2 738.8,198.8 C739.5,194.7 740.9,187.8 742.3,179.8 C742.3,179.5 742.6,179.1 742.6,178.8 L742.6,178.5 C742.6,178.2 742.9,178.2 742.9,177.8 C742.9,177.5 743.2,177.1 743.2,176.8 L745.3,169.2 C745.3,168.9 745.6,168.9 745.6,168.5 C745.9,167.8 745.9,167.1 746.3,166.8 C746.3,166.8 746.3,166.8 746.3,166.5 C746.6,164.8 747,163.4 747.3,161.7 C747.6,159.6 748,156.9 749,153.4 C750,149.9 750.7,146.1 751.8,142.4 C753.6,138.9 754.3,135.1 755,132 Z M519.2,172.7 L519.2,172.7 C522.3,166.5 525.8,161 528.9,156.5 L528.9,156.5 L528.9,156.5 C534.1,148.9 538.9,142.7 543.1,138.9 L543.1,138.9 C543.8,138.2 544.5,137.5 545.2,137.2 L545.2,141.7 C544.5,145.5 543.5,149.6 542.1,154.1 L542.1,154.1 L542.1,154.1 C540.7,157.9 538.6,162 535.9,166.5 C533.5,170.6 529.7,174.4 525.2,178.2 C522.1,179.9 519,182 515.5,183.4 L515.5,183.4 C515.2,183.7 514.8,183.7 514.5,184.1 C516.1,179.6 517.4,176.2 519.2,172.7 Z" id="Shape"></path>
                <path d="M791.3,208.7 L791.3,208.7 L791.3,208.7 C790.6,208 789.9,207.7 789.6,207 L789.6,207 L789.6,207 C788.9,206.3 788.2,206 787.9,206 C787.2,205.7 786.5,205.7 785.8,205.3 C785.1,205.3 784.8,205.3 784.1,205.3 C783.4,205.3 782.7,205.3 781.3,205 L781.3,205 C780.6,205 779.9,204.7 779.2,204.7 C778.9,204.7 778.9,204.7 778.5,204.7 L778.5,204.7 C778.2,204.7 778.2,204.4 777.8,204.4 L777.1,204.1 L776.4,204.1 C775.4,203.8 774.3,203.4 773.6,203.4 L773.6,203.4 C772.9,203.4 772.6,203.1 772.2,203.1 C771.8,203.1 771.9,203.1 771.5,203.1 C771.1,203.1 770.8,203.1 770.5,203.1 L765.3,203.1 L765.3,205.9 C765.3,206.2 765,206.2 765,206.6 L765,206.6 C764.7,207.3 764,208.3 763.6,209 C763.2,209.7 762.9,210.4 762.9,211.1 C762.6,211.8 762.6,212.5 762.2,213.5 L762.2,213.5 C761.9,215.2 761.2,217 760.8,219 C760.1,220.7 759.4,223.5 758.4,226.6 L758.4,226.6 C757.7,228.3 757.4,229.7 757,231.1 C757,231.8 756.7,232.1 756.7,232.8 C756.7,233.5 756.7,233.8 756.4,234.5 C756.4,235.9 756.7,237.3 757.4,238.3 C758.1,239.3 758.4,240.4 759.5,241.1 C760.9,242.8 763,244.2 765,244.9 L765,244.9 C766.7,245.6 768.5,246.3 770.5,247 L770.5,247 C772.2,247.3 773.6,247.7 775.3,247.7 C776,247.7 777,247.7 777.7,247.4 L778,247.4 L778.3,247.4 C779.3,247.1 780,246.7 780.4,246.4 C781.1,245.7 781.8,245 782.8,244.3 C783.5,243.6 784.2,242.6 785.2,241.5 L785.2,241.5 C787.6,238.7 789.3,235.6 790,232.5 C790,232.5 790,232.5 790,232.2 C790,231.9 790.3,231.5 790.3,231.2 C790.6,229.8 791,228.4 791.7,226 L791.7,226 C792,224.3 792.4,223.2 792.7,222.2 C792.7,221.9 793,221.2 793,220.8 L793,220.5 C793,220.2 793.3,219.8 793.3,219.5 C793.3,219.2 793.6,218.8 793.6,218.1 L794.3,217.1 L794.3,215.7 C794.3,214.7 794,213.3 793.6,212.6 C792.3,210 792,209.3 791.3,208.7 Z" id="Shape"></path>
                <path d="M500.2,75 L500.2,75 C504.7,68.1 508.5,61.5 511.9,55.7 C515.3,49.9 517.8,44.7 519.5,40.5 L519.5,40.5 C519.8,39.8 520.2,39.1 520.2,38.1 L520.2,38.1 L520.2,38.1 C520.2,37.8 520.2,37.8 520.5,37.4 L520.5,37.1 L520.5,36.8 C520.8,35.8 521.9,32.7 522.9,29.2 C523.6,27.5 523.9,25.7 524.3,24 C524.6,23.3 524.6,22.3 525,21.6 C525,20.9 525.3,20.2 525.3,19.5 C525.6,17.4 525.6,15.4 525.6,13.3 C525.6,11.9 525.6,10.5 525.3,9.5 L525.3,9.5 L525.3,9.5 C525.3,8.8 525,8.1 525,7.4 C525,7.1 524.7,6.4 524.3,5.7 C524,5 523.3,4 522.2,3.3 C521.9,3 521.2,2.6 520.5,2.3 C519.8,2 519.1,2 518.4,2 L518.1,2 L518.1,2 L517.8,2 L517.5,2 C516.8,1.7 516.1,1.3 515.4,1 C514.7,0.7 513.7,0.7 512.6,0.7 C512.3,0.7 512.3,0.7 511.9,0.7 C510.2,0 508.4,0 506.7,0 C504.3,0 501.5,0.3 499.1,1.4 L499.1,1.4 C496.3,2.4 493.6,4.2 490.8,6.2 C488,8.3 485.3,11 482.5,14.5 L482.5,14.5 C476.6,21.1 470.4,30.4 464.2,42.8 L464.2,42.8 C457.6,54.9 451.1,70.4 444.9,89.4 C444.9,89.4 444.9,89.4 444.9,89.7 C444.6,90.4 444.2,91.1 443.9,92.5 C443.6,93.5 442.9,95.3 442.2,97 L442.2,97 C441.2,99.8 440.1,102.9 438.4,106.7 C436.7,106 434.9,105.7 433.2,105.7 L433.2,105.7 C431.8,105.7 430.1,105.4 428.7,105.4 C427.3,105.4 425.9,105.4 424.6,105.7 L424.6,105.7 L424.6,105.7 L424.6,105.7 L424.6,105.7 C421.8,106 419.1,106.7 416.3,107.4 C413.2,107.7 409.7,108.4 406.6,109.5 C403.5,110.5 400.4,112.3 396.9,114.3 L396.9,114.3 C390.7,118.4 384.8,123.6 379.3,130.2 L379.3,130.2 C373.8,136.4 368.6,143.3 364.1,150.6 C363.8,151.3 363.4,152 363.1,152.3 C362.8,152.6 362.4,153 362.1,153.3 C361.8,153.6 361.4,154 361.4,154.3 L361.1,154.6 L360.8,154.9 L360.5,155.6 C358.1,159.7 354.6,165.6 349.5,173.9 C344.3,181.8 338.8,189.8 332.9,198.1 C327,206 321.2,212.9 315.6,219.2 C312.8,222 310.4,224.4 308.7,225.4 C308,226.1 307,226.4 306.6,226.4 C306.3,226.4 306.3,226.4 306.3,226.4 L306.3,226.4 L306.3,226.4 L306.3,226.4 L306.3,226.4 L306.3,226.4 C306.3,226.4 306,225.7 305.6,225.4 C305.3,224.7 305.3,224 304.9,222.6 L304.9,222.6 C304.2,218.8 303.9,214.7 303.9,210.5 C303.9,209.5 303.9,208.1 303.9,207 C304.2,204.2 304.6,200.4 305.6,195.6 C306.3,191.1 308,185.2 310.1,178.7 L310.4,178 L310.4,177.3 C310.7,175.6 311.4,173.8 311.8,172.5 L311.8,172.5 C312.1,171.1 312.8,169.4 313.2,167.7 C313.5,167.4 313.9,166.7 313.9,166.3 C314.2,165.3 314.6,164.2 314.6,163.2 L314.6,163.2 L314.9,162.5 L314.9,161.8 C315.6,156.6 315.9,152.1 315.9,147.6 C315.9,144.5 315.6,141.4 315.2,138.6 C315.2,135.8 314.9,133.4 314.2,131.3 C313.5,128.9 312.8,126.8 311.4,125.1 L311.4,125.1 C310.4,123.4 308.6,122 306.9,120.6 C305.2,119.2 303.1,118.2 300.7,116.8 L300.7,116.8 L300.7,116.8 C298.6,116.1 296.9,115.4 295.5,115.1 C293.8,114.8 292.4,114.4 290.7,114.4 L287.2,114.4 C286.5,114.4 286.2,114.4 285.5,114.4 C285.2,114.4 284.5,114.7 284.1,114.7 L283.8,114.7 C281.7,115 279.7,116.1 276.9,117.1 L276.9,117.1 C274.1,118.1 271.4,119.9 267.9,122.3 C267.9,120.6 267.6,119.2 267.2,117.5 L266.9,116.5 L266.9,116.5 C266.9,116.2 266.9,116.2 266.6,116.2 L266.6,115.9 C266.3,114.9 265.9,114.2 265.6,113.1 C264.9,112.1 264.2,111 263.5,110.3 C262.8,109.6 262.1,108.9 261.4,107.9 L261.4,107.9 L261.4,107.9 C260.7,107.2 260,106.5 259.3,105.8 C258.6,105.1 257.9,104.4 256.9,104.1 C256.2,103.8 255.5,103.4 254.5,103.1 C253.5,102.8 252.4,102.4 251,101.7 L251,101.7 C249.3,101 247.9,100.7 246.2,100.7 C245.2,100.7 244.5,100.7 243.4,101 C242.4,101.3 241.7,101.7 241,102 L241,102 C240,102.7 239.3,102.7 238.9,103 C238.2,103 237.9,103 237.2,103.3 C236.5,103.6 235.8,103.6 235.5,104.3 C234.5,105 233.8,106 233.4,106.7 C233.4,107 233.4,107 233.1,107.4 L232.1,107.4 L232.1,111.5 C232.1,111.8 231.8,112.2 231.8,112.2 L231.8,112.2 L231.5,112.9 C230.1,115.7 229.1,118.8 227.7,122.6 L227.7,122.6 C226.7,125.7 225.6,128.8 224.6,131.6 L224.6,131.6 C224.6,131.6 224.3,131.9 224.3,132.3 L224,132.6 L223.7,133.6 C220.6,142.6 217.8,151.6 215.1,160.2 C213,163.7 210.3,167.8 207.2,173 C202,180.9 196.5,188.9 190.6,197.2 C184.7,205.1 178.9,212.4 173.3,218.3 L173.3,218.3 C170.5,221.1 168.5,223.5 166.7,224.5 C166,225.2 165.3,225.5 164.6,225.5 C164.3,225.5 164.3,225.5 164.3,225.5 L164.3,225.5 C164,225.5 164,225.5 163.6,225.5 C163.6,225.5 163.6,225.5 163.3,225.2 C163,224.9 163,224.5 162.6,223.5 L162.6,223.5 C161.6,220.4 160.9,216.6 160.9,212.5 L160.9,212.5 C160.9,211.5 160.9,210.8 160.9,209.7 C160.9,206.2 161.2,202.8 161.6,199.7 L161.6,199.7 C161.9,197.6 162.3,195.9 162.3,194.5 C162.6,193.1 162.6,192.1 162.6,191.4 L162.6,191.1 L162.6,189 C162.6,189 162.6,189 162.6,188.7 C162.6,188.4 162.6,188 162.9,187.7 L162.9,187.7 C163.2,186.3 163.6,184.2 163.9,181.8 L163.9,181.8 C164.2,179.7 164.6,176.3 165.6,172.1 L165.6,171.8 L165.6,171.5 L167,168.4 L167,167.4 L167,167.4 C167,167.1 167.3,166.7 167.3,166.4 C167.6,166.1 168,165.4 168,165 C168.3,164 168.7,162.9 168.7,161.9 C168.7,161.2 168.7,160.5 168.7,160.2 C168.7,158.5 168.4,156.7 168,155 L168,154.3 L167.7,153.6 C167.4,152.9 166.7,151.9 166,151.2 C165.3,150.5 164.6,149.8 163.6,149.1 L163.6,149.1 C163.3,148.8 162.9,148.8 162.6,148.4 L162.6,148.4 L161.9,147.7 L161.9,147.7 L161.9,147.7 C161.9,147.7 161.9,147.7 162.2,147.4 C162.9,147.1 163.9,146.7 164.3,146 C165,145.7 165.3,145 165.7,144.3 C166.1,143.6 166.4,142.6 166.7,141.9 C166.7,141.2 167,140.5 167,139.8 C167,138.4 166.7,137 166,136 L166,136 L166,136 L166,136 L166,136 C164.3,132.5 162.5,129.4 160.8,127 C158.7,124.2 156.7,122.2 153.9,120.8 L153.9,120.8 C149.4,118 144.9,116.3 140.4,115.6 L140.4,115.6 L140.4,115.6 C139,115.3 137.3,115.3 135.9,115.3 C132.1,115.3 128.3,116 124.9,117 L123.5,117.3 C118.3,118 113.1,119.7 108,122.8 C102.1,126.3 96.6,130.4 91.8,135.9 L91.8,135.9 C86.6,141.1 81.8,147.3 77.6,153.9 L77.6,153.9 C73.5,160.8 69.7,167.7 66.9,175 C65.2,179.5 63.1,184.3 61.4,189.8 L61.4,189.8 C59.3,195.7 58.3,201.9 57.9,208.1 L57.9,208.1 C57.9,208.8 57.9,209.5 57.9,210.2 C57.9,216.1 59.3,221.6 61.4,227.1 L61.4,227.1 C62.8,230.6 64.9,233.3 67.6,236.1 C70.4,238.9 73.5,241.3 77.3,243.4 L77.3,243.4 C80.1,244.8 82.8,245.8 85.9,245.5 C87.3,245.5 88.3,245.5 89.7,245.2 L89.7,245.2 L89.7,245.2 C93.8,244.5 97.6,242.4 101.8,239.7 L101.8,239.7 C104.2,238 106.3,235.9 108.7,233.5 C111.1,230.7 113.2,228 115.6,224.2 L115.6,224.2 C119.7,218 122.9,212.8 125.6,208.3 C125.6,210.7 125.9,212.8 126.3,215.2 C126.6,217.3 127,219.3 127.7,221.1 C128.4,222.8 129.1,224.2 130.1,225.6 L130.1,225.6 C132.5,229.1 134.9,231.8 137.7,233.9 C140.1,236 142.5,237.7 144.6,239.1 L144.6,239.1 L144.6,239.1 C147.4,240.8 149.8,242.2 152.5,243.2 L152.8,243.2 L153.1,243.2 C156.9,244.2 160.7,244.6 164.5,244.6 C168.3,244.6 171.8,243.9 175.9,242.5 L175.9,242.5 L175.9,242.5 C180,241.1 184.2,238.4 188,234.6 C191.1,231.5 194.6,227.7 198.4,222.9 C198.4,223.6 198.4,224.6 198.4,225.3 C197.7,232.2 200.5,233.6 200.8,233.9 C201.1,234.6 201.5,235.3 202.2,235.6 L202.2,235.6 C202.5,235.9 203.2,236.6 204.3,237 C205,237.3 209.1,237.7 210.2,237.7 C210.2,237.7 210.2,237.7 210.5,237.7 C210.8,238 211.2,238 211.5,238.4 C211.8,238.7 212.5,239.1 213.2,239.1 L213.2,239.1 C213.5,239.4 213.9,239.8 213.9,239.8 C215.3,240.8 218.4,241.9 218.4,241.9 C219.4,242.2 220.5,242.2 221.5,242.2 C222.2,242.2 223.2,242.2 223.9,241.9 C224.9,241.9 225.6,241.6 226.7,241.2 C227.7,240.9 228.4,240.2 228.8,239.5 C229.5,238.8 230.2,237.8 230.5,236.7 C230.8,235.7 230.8,235 230.8,234.3 L230.8,232.6 L229.8,231.2 C229.5,230.9 229.1,230.5 229.1,229.8 C228.8,225.3 229.4,221.5 230.8,217 C232.2,212.2 233.6,207.3 235.6,201.8 L235.6,201.8 C237.3,196.6 239.4,191.4 241.1,186.3 C245.9,178.4 250.4,171.5 254.6,165.9 C258.8,160.3 262.5,155.9 265.6,152.8 C269.1,149.3 271.8,146.6 274.2,144.5 C275.6,143.1 277,142.4 278,141.4 C278,141.4 278,141.7 278,142.1 C278,142.8 278,144.2 278,145.6 C278,148.4 277.7,151.5 277.3,155.3 C277,159.1 276.3,163.6 275.6,168.4 C274.9,173.2 273.9,177.7 272.8,182.2 L272.8,182.9 L272.8,183.6 C272.5,184.3 272.1,185.3 271.8,186.4 L271.8,186.4 C271.5,188.1 270.8,189.9 270.1,192.3 L270.1,193 L270.1,193.3 C269.4,195.4 269.1,197.4 268.7,199.5 C268.4,201.9 268.4,204.3 268.4,206.8 L268.4,210.3 C268.4,211.7 268.4,213.4 268.4,214.8 C268.4,216.5 268.7,218.3 269.4,220 L269.4,220.7 L270.4,222.1 C270.7,222.4 270.7,222.8 270.7,222.8 L270.7,222.8 C270.7,223.8 271,224.5 271.7,225.6 C272,226.3 272.7,227.3 273.4,228 L273.4,228 C273.7,228.3 274.1,228.7 274.1,228.7 L274.1,228.7 C274.8,229.4 275.1,230.4 276.2,231.1 C278.3,233.5 280.7,235.9 283.1,237.7 C285.2,239.1 287.2,240.5 289,241.8 L289,241.8 L289,241.8 C291.1,243.2 293.1,244.2 294.9,244.9 L295.2,245.2 L295.9,245.2 C299.7,246.2 303.5,246.6 307.3,246.6 C311.1,246.6 314.6,245.9 318.3,244.5 L318.3,244.5 C322.4,243.1 326.6,240.4 330.4,236.6 C333.5,233.5 337,229.3 341.1,224.9 C343.2,222.5 345.2,219.7 347.3,217 C348,220.8 349.4,224.3 351.1,228 C352.8,231.5 354.9,234.6 357.7,237.3 C360.5,240.1 363.6,242.5 367,244.6 C368,245.3 369.1,246 370.5,246.3 C371.9,246.6 373.3,247 374.6,247 C375.6,247 377,247 378.1,246.7 L378.1,246.7 L378.1,246.7 C379.8,246.4 381.6,245.7 383.3,244.6 C385,243.6 386.8,242.5 388.8,240.8 L388.8,240.8 C390.9,239.1 392.9,237 395,234.6 C397.1,232.2 399.1,229.1 401.6,225.6 L401.6,225.6 C405.7,219.4 408.9,213.9 411.6,209.4 L411.6,209.4 C411.6,211.5 411.9,213.5 411.9,215.3 C412.2,217.7 412.6,219.8 413.3,221.9 C414,224 414.7,225.7 415.7,227.1 L415.7,227.1 L415.7,227.1 L415.7,227.1 L415.7,227.1 C418.1,230.6 420.5,233.3 423.3,235.4 C425.7,237.1 427.8,238.9 430.2,240.2 L430.2,240.2 L430.2,240.2 C432.6,241.9 435,243.3 437.8,244.3 L438.1,244.6 L438.8,244.6 C442.6,245.6 446.1,246 449.8,246 L449.8,246 C449.8,246 449.8,246 450.1,246 L450.1,246 L450.1,246 C450.4,246 451.1,246 451.5,246 C451.8,246 452.2,246 452.9,246 L452.9,246 L452.9,246 C452.9,246 452.9,246 453.2,246 L453.2,246 C453.5,246 453.9,246 454.6,245.7 C454.9,245.7 454.9,245.7 455.3,245.7 C456,245.4 456.3,245.4 457,245 C457.7,244.3 458.4,243.6 458.7,242.9 L458.7,242.9 C459,242.9 459,242.6 459,242.2 C459.7,241.5 460,240.5 460,239.8 L460.7,237 L457.9,233.9 L457.6,233.6 L457.6,233.6 C456.9,232.9 455.9,231.9 454.1,230.5 C453.4,229.8 452.7,229.1 452,228.8 C451,227.8 449.9,226.7 449.2,225.7 C448.9,225.4 448.5,224.7 448.2,224.3 C448.2,224 448.2,224 447.9,224 L447.9,224 L447.9,224 L447.9,224 C446.9,220.2 446.5,216.1 446.5,211.6 C446.5,206.8 446.8,201.9 447.2,197.4 C447.5,195 447.5,193.3 447.9,191.5 C448.2,190.1 448.2,189.1 448.2,188.4 L448.2,188.1 L448.2,187.8 C448.2,187.8 448.2,187.8 448.2,187.5 C448.2,187.2 448.2,186.8 448.5,186.5 L448.5,186.5 C448.8,185.1 449.2,183.7 449.5,182 L449.5,182 C449.8,180.6 450.2,178.5 451.2,175.8 C451.9,174.4 452.2,172.7 452.9,171 L452.9,171 C453.6,168.9 454.3,166.9 454.6,164.4 L454.6,163.7 L454.6,163.7 C454.6,163.7 454.6,163.7 454.6,163.4 L454.6,163.4 L454.9,162.4 C455.2,161.4 455.6,160.7 455.6,160 C455.6,159.7 455.9,159.3 455.9,159 C455.9,158.7 455.9,158.3 455.9,158 C458,151.8 460,144.5 462.5,136.9 L462.5,136.9 C463.9,132.8 464.2,130.7 464.9,129 C465.2,128 465.6,127.3 465.9,125.9 C466.2,124.9 466.6,123.5 467.3,121.8 C472.5,114.5 477.7,107.3 483.2,99.7 C490.5,89.5 495.7,81.9 500.2,75 Z M492.9,54.3 C494.6,49.1 496.4,45 497.4,42.2 L492.6,40.1 L497.4,42.2 C499.8,36.7 502.2,30.5 504.7,25.3 C505.7,22.9 507.1,20.5 507.8,19.1 C508.1,18.4 508.8,17.7 508.8,17.4 C508.8,17.1 509.1,17.1 509.1,17.1 C509.1,17.8 509.1,18.8 508.8,19.5 C508.5,21.6 508.1,24 507.4,26.1 C506.7,28.5 506,30.6 505.3,32.7 C505.3,33 505,33.4 504.6,34.1 C504.3,35.5 503.6,37.2 502.5,38.9 C501.1,41.7 499.7,45.1 498.4,48.2 C497.7,49.6 497,51.3 496.3,52.3 C495.6,53.7 495.3,54.7 494.6,55.4 L494.6,55.4 C492.5,59.5 489.8,64 486.7,68.9 C489.1,63.6 491.2,58.4 492.9,54.3 Z M140.7,143.4 C139.7,144.4 139,145.8 137.9,147.2 L137.9,147.2 C136.9,148.9 136.2,150.3 135.5,151.7 C134.8,152.7 134.5,153.8 134.1,154.8 C133.4,156.2 132.4,157.6 131,160 C129.6,162.4 127.9,165.2 125.8,168.3 L125.8,168.3 C121.7,174.9 117.2,181.4 112,188 L112,188 C106.8,194.6 101.6,200.4 96.1,206 C93.7,208.4 91.3,210.1 89.5,211.5 C89.5,210.8 89.8,210.5 89.8,209.8 C90.1,208.4 90.5,206.7 91.2,204.3 C91.9,202.2 92.9,199.5 94,196.4 L94,196.4 L94,196.4 C96.1,190.2 97.8,185.7 99.5,182.2 C101.2,178.7 103,175.3 104.3,172.5 L104.3,172.5 C105.7,169.7 107.4,167.3 109.1,164.9 L109.1,164.9 C110.8,162.5 113.2,159.4 116.4,155.9 L116.4,155.9 L116.4,155.9 C119.5,151.8 122.6,148.6 125.4,146.2 C128.2,143.8 130.2,142.4 132.3,141.4 C132.6,141.4 133,141.1 133.3,141.1 C133.3,141.1 133.6,141.1 133.6,140.8 C134.6,140.5 135.7,140.5 136.4,140.5 C137.1,140.5 137.4,140.5 138.1,140.5 C139.5,140.8 140.9,141.2 141.9,141.5 C142.1,142 141.4,142.7 140.7,143.4 Z M428,136.1 L428,136.1 C426.6,139.6 425.6,143 424.5,146.1 C423.8,146.8 423.5,147.8 423.1,148.9 L423.1,148.9 C423.1,148.9 423.1,148.9 422.8,149.2 L422.5,149.5 L422.2,149.8 C419.1,155 415.6,159.8 412.5,165 L412.5,165 C409.4,169.8 406.3,175 403.2,179.8 L399.7,185.3 C395.2,191.2 390.4,196.7 385.9,201.5 C382.8,204.6 380,207 378,208.8 C377.7,209.1 377,209.5 376.6,209.8 C376.6,209.1 376.9,208.1 376.9,207 C377.2,205.6 377.6,203.9 378.3,201.5 C379,199.1 380,196.7 381.1,193.6 L381.1,193.6 L381.1,193.6 C385.6,181.5 389.7,172.2 393.5,164.9 C397.3,158 402.1,151.1 407.7,144.2 L407.7,144.2 C411.2,140.1 414.6,136.6 417.4,134.2 C419.8,132.1 421.9,130.7 423.6,129.7 L423.6,129.7 L424.3,129.4 C425.7,129.1 426.7,128.7 427.8,128.7 C428.5,128.7 428.8,128.7 429.5,128.7 C429.8,128.7 430.2,128.7 430.5,129 C429.4,132 428.7,134.1 428,136.1 Z" id="Shape"></path>
                <path d="M1016.4,133 C1016.4,131.3 1016.1,129.9 1015.7,128.2 L1015.4,127.2 L1015.4,127.2 C1015.4,126.9 1015.4,126.9 1015.1,126.9 C1015.1,126.9 1015.1,126.6 1014.8,126.6 C1014.5,124.9 1013.8,123.1 1012.4,121.4 L1012.4,121.4 C1011.7,120.7 1011,119.7 1010,118.6 L1009.7,118.3 L1009.4,118 C1008.4,117 1007,115.9 1005.6,114.9 L1005.6,114.9 L1005.6,114.9 C1004.9,114.6 1003.9,114.2 1003.2,113.5 C1002.2,113.2 1001.1,112.8 999.7,112.1 L999.4,112.1 L999.1,112.1 C997.7,111.8 996.3,111.8 995,111.8 C993.3,111.8 991.5,112.1 989.8,112.8 L989.8,112.8 C988.8,113.1 988.1,113.5 987.4,113.8 L986.7,113.8 L986,114.1 C985.3,114.4 985,114.4 984.3,114.8 C983.6,115.5 982.6,116.2 981.9,117.2 C981.2,118.2 981.2,119.3 981.2,120.3 C981.2,120.6 981.2,121 981.2,121 L980.9,121.3 L980.9,121.3 C980.9,121.3 980.9,121.3 980.9,121.6 C980.6,121.9 980.6,122.3 980.6,122.6 L980.3,122.9 L980,123.9 C979.3,125.3 979,126.7 978.6,128 C978.3,129 977.9,130.1 977.9,130.8 C977.2,132.9 976.2,134.9 975.5,137 C974.8,139.1 974.1,141.5 973.4,143.6 C973.4,143.6 973.4,143.6 973.4,143.9 C973.1,144.6 973.1,145.3 973.1,145.6 L973.1,145.6 C970.7,152.5 967.2,164.6 962.7,173.6 C957.9,182.2 953.4,189.1 949.2,195 L949.2,195 C938.2,210.9 925.4,216.8 924.3,217.4 C924,217.4 923.6,217.7 922.9,217.7 C922.6,217.7 921.9,218 920.8,218 C920.8,217.7 920.8,217.3 920.8,217 C921.1,216 921.1,214.6 921.5,212.9 C922.5,208.4 922.9,207.7 924.3,201.9 L924.3,201.9 C924.6,200.9 925,198.4 926,195.3 L926,195.3 C926.7,192.5 927.4,189.8 928.1,187.7 L928.1,187.7 C928.8,186 929.5,184.2 929.8,182.2 L929.8,182.2 C930.5,180.5 930.8,179.1 931.2,178.4 L931.9,177.4 L931.9,176.4 L935,166.7 C935.3,166.4 935.7,165.7 935.7,165 C936,164 936.4,163.3 936.4,161.9 C936.4,161.9 936.4,161.6 936.4,161.2 L936.7,160.5 L936.7,158.8 C937,157.1 937.7,155.3 938.1,153.6 L938.1,153.6 C938.4,151.9 939.1,150.1 940.2,148.4 C940.9,147.4 941.2,146.3 941.9,145.3 L941.9,145.3 L941.9,145.3 C942.2,144.3 942.9,143.6 943.3,142.9 L943.3,142.9 L943.3,142.9 C944.3,140.8 945,138.8 945,136.7 C945,136 945,135.3 945,134.6 L945,134.6 L945,134.6 C945,133.6 944.7,132.5 944,131.8 C943.3,130.4 942.3,129.4 941.2,128.3 C940.2,127.6 939.1,126.9 937.7,126.2 L937.7,126.2 L937.7,126.2 L937.7,126.2 L937.7,126.2 C937,125.9 936.3,125.5 935.3,125.5 C934.6,125.2 933.6,125.2 932.5,125.2 C931.8,125.2 931.5,125.2 930.8,125.5 C930.5,125.5 929.8,125.8 929.1,126.2 C928.4,126.2 928.1,126.2 927.4,126.2 C926.4,126.2 925.3,126.2 924.3,126.5 L924.3,126.5 C924.3,126.5 924.3,126.5 924,126.5 C923.7,126.5 923.3,126.5 922.6,126.5 L922.3,126.5 L921.6,126.5 C919.9,126.5 918.1,126.8 916.8,127.5 C915.4,128.2 913.7,129.2 912.7,130.3 L912.7,130.3 C912,131 911.3,131.7 910.6,132.4 C910.3,132.7 909.9,133.1 909.9,133.4 C909.9,133.7 909.6,133.7 909.6,134.4 C909.6,134.4 909.6,134.7 909.3,135.1 C906.2,143.4 903.4,151.7 900.7,160 C898.6,163.5 895.9,167.6 892.8,172.8 C887.6,180.7 882.1,188.7 875.9,197 C870,204.9 864.2,212.2 858.6,218.1 L858.6,218.1 C855.8,220.9 853.8,223.3 852,224.3 C851.3,225 850.6,225.3 849.9,225.3 C849.6,225.3 849.6,225.3 849.6,225.3 L849.6,225.3 C849.3,225.3 849.3,225.3 849.3,225.3 L849.3,225.3 C849.3,225.3 849,225 849,224.6 C848.7,224.3 848.7,223.6 848.3,222.9 L848.3,222.9 C847.3,219.4 846.6,215.3 846.6,210.5 C846.6,205.7 846.9,200.8 847.3,196.3 L847.3,196.3 C847.6,193.9 848,192.2 848,190.4 C848.3,189 848.3,187.6 848.3,187.3 L848.3,187 L848.3,186.7 C848.3,186.7 848.3,186.7 848.3,186.4 C848.3,186.1 848.3,185.7 848.6,185.4 C848.9,184.7 848.9,184.4 848.9,183.7 C849.2,183 849.2,182 849.2,180.9 L849.2,180.9 C849.5,179.5 849.9,177.4 850.9,175 L850.9,175 C851.6,173.3 851.9,171.5 852.6,169.8 C852.9,168.4 853.6,166.3 854.3,164.3 L854.6,163.3 L854.6,163 C854.6,162.7 854.6,162.7 854.6,162.7 L854.9,162.4 C855.6,161.4 855.9,160 855.9,158.6 L856.2,157.6 L856.2,156.6 C858.3,150.4 860.3,143.1 862.8,135.5 L862.8,135.5 C864.2,131.4 864.5,129.3 865.2,127.6 C865.5,126.6 865.9,125.9 866.2,124.5 C866.5,123.5 866.9,122.1 867.6,120.4 C872.8,113.1 878,105.9 883.5,98.3 C889,90.4 893.9,83.1 898.3,75.9 C902.8,69 906.6,62.4 910,56.6 C913.4,50.8 915.9,45.6 917.6,41.4 L917.6,41.4 L917.6,41.4 C917.9,40.4 918.3,39.7 918.3,39 C918.3,38.7 918.6,38.3 918.6,38 L918.6,37.7 C918.9,37 918.9,36.3 919.3,35.3 C920,33.2 921,30.5 921.7,28 C922,26.6 922.4,25.6 922.7,24.2 C922.7,23.5 923,23.2 923,22.5 C923,22.2 923.3,21.5 923.3,21.1 L923.3,21.1 C923.6,18.7 924,16.6 924,14.2 C924,13.2 924,12.1 923.7,10.7 L923.7,10.7 L923.7,10.7 C923.7,10 923.4,9.3 923.4,8.6 C923.4,7.9 923.1,7.6 922.7,6.9 C922.4,6.2 921.7,5.2 920.6,4.5 C919.9,4.2 919.6,3.8 918.9,3.5 C918.2,3.2 917.5,3.2 916.8,3.2 C916.8,3.2 916.1,3.2 915.4,2.9 C914.7,2.6 914,2.2 913,1.9 C912.3,1.6 911.6,1.6 911.3,1.6 C909.6,0.9 907.5,0.6 905.4,0.6 C902.6,0.6 900.2,1.3 897.5,2.3 C894.7,3.3 892,5.1 889.2,7.1 C886.4,9.1 883.7,11.9 880.9,15.4 C875,22 869.2,31.6 862.6,43.7 C856.4,55.8 849.8,71.3 842.9,90.3 C842.9,90.3 842.9,90.3 842.9,90.6 C842.6,91.3 842.2,92 841.9,93 C841.6,94 840.9,95.4 840.5,97.1 L840.5,97.1 C839.1,100.9 837.4,105.7 835.3,111.3 L835.3,111.6 L835.3,111.9 C835,113.6 834.3,115.4 833.6,116.7 L833.6,116.7 L833.6,116.7 C832.2,120.2 830.8,123.3 829.8,126.4 C827.4,133.7 825,140.9 822.5,147.8 C822.2,148.1 822.2,148.5 822.2,148.5 C821.9,149.2 821.9,149.9 821.5,150.2 L821.5,150.5 C820.5,154.6 819.1,158.8 818,162.9 L818,162.9 C815.6,171.2 813.5,179.1 812.1,186.4 L812.1,186.4 L812.1,186.4 C811.1,191.9 810.7,197.4 810.7,202.6 C810.7,204.3 810.4,206.1 810.4,207.8 C810.4,210.6 810.4,213 810.7,215.7 C811,218.1 811.4,220.2 812.1,221.9 C812.8,223.6 813.5,225.4 814.5,226.7 L814.5,226.7 C816.9,229.8 819.3,232.9 822.1,235 C824.5,237.1 826.9,238.8 829,240.2 L829,240.2 L829,240.2 C831.4,241.9 833.8,243.3 836.6,244.3 L836.9,244.6 L837.6,244.6 C841.4,245.6 845.2,246 849,246 C852.8,246 856.3,245.3 860.4,243.9 L860.4,243.9 C864.5,242.5 868.7,239.8 872.5,236 C875.6,232.9 879.1,228.7 883.2,224.3 C883.9,223.3 884.6,222.2 885.6,221.5 C885.6,221.8 885.6,222.2 885.6,222.5 C885.6,223.9 885.6,225.6 885.9,227 C885.9,228 885.9,229.4 886.2,231.1 L886.2,231.1 C886.5,233.2 889.7,237.3 890.7,239.4 C891.4,240.8 892.8,241.8 893.8,242.9 C894.8,243.6 896.2,244.3 897.6,244.6 C898.6,244.9 900,245.3 901.1,245.3 L901.4,245.3 C903.1,246 904.5,246.3 905.9,246.7 C906.9,247 908,247 909,247.4 C909.7,247.7 910.4,247.7 911.1,247.7 C911.8,247.7 912.5,247.7 912.8,247.4 L912.8,247.4 L912.8,247.4 L913.1,247.4 L914.5,247.4 C915.2,247.4 916.2,247.4 916.9,247.1 C917.2,247.1 917.9,246.8 918.3,246.8 C918.3,246.8 918.3,246.8 918.6,246.8 C920.3,246.5 922.4,245.8 924.5,244.7 L924.5,244.7 C927.3,243.3 940.4,237.8 944.2,233.7 C944.2,234 934.5,275.8 905.9,280.7 L905.9,280.7 C905.6,280.7 905.6,281 905.2,281 C904.2,281.3 903.5,281.3 902.8,281.7 L902.8,281.7 C899.3,282.7 896.2,283.1 894.5,283.1 C894.2,283.1 893.5,283.1 893.5,283.1 L892.8,283.1 L892.1,283.1 C890,283.4 888.3,283.4 886.9,283.4 C886.6,283.4 886.2,283.4 885.9,283.4 L885.9,283.4 C884.9,283.4 883.5,283.4 882.4,283.4 C881.7,283.4 880.7,283.4 880,283.4 L880,283.4 C879.7,283.4 879.3,283.4 879,283.4 C878.7,283.4 878,283.4 878,283.4 L874.2,282 L872.8,284.1 L872.5,284.1 L871.8,285.1 C871.8,285.1 871.8,285.1 871.5,285.1 C870.8,285.4 870.5,286.1 870.1,286.5 C869.8,287.2 869.4,287.9 869.4,288.6 C869.4,289.3 869.4,289.6 869.4,290 C869.4,290.3 869.4,290.7 869.4,291 C869.4,291.7 869.7,292 869.7,292.4 C870,293.1 870,293.4 870.4,293.8 C870.7,294.5 871.1,295.2 871.8,295.9 C872.1,296.6 872.8,297.6 873.5,298.7 L873.5,298.7 C874.5,300.4 875.9,301.8 877.3,302.8 C877.6,303.1 878.3,303.5 878.7,303.8 C879,304.5 879.4,304.8 879.7,305.2 C880,305.5 880,305.5 880.4,305.9 C880.4,306.2 880.4,306.6 880.7,306.9 C881,307.6 881.4,308.3 881.7,308.6 C882,308.9 882.4,309.3 882.7,309.6 L882.7,309.6 L882.7,309.6 C883,309.9 883.7,310.3 884.4,310.6 C885.1,310.9 885.4,310.9 886.5,311.3 C888.9,312 891,312.3 892.7,312.7 L892.7,312.7 C893.7,313 895.1,313 896.5,313 C897.2,313 897.5,313 898.2,313 C899.6,313 900.6,313 902,313 C911,313 919.6,311.6 927.6,308.9 C938,305.1 952.1,295.4 963.5,274 C975.6,251.6 978.7,240.2 985.3,217.4 C986.7,212.2 987.7,207.4 988.4,204.3 C988.7,202.6 989.1,201.2 989.4,200.2 C989.4,199.9 989.7,199.2 989.7,198.8 L989.7,198.3 L989.7,198.3 L989.7,198.3 L989.7,198.3 C990.4,195.5 996.3,172.7 1001.8,163.8 L1001.8,163.5 L1001.8,163.2 C1002.1,162.2 1002.8,160.4 1004.2,158.7 C1005.6,156.6 1007,154.6 1007.7,152.8 L1007.7,152.8 C1008.4,151.4 1009.1,150 1009.4,149 C1009.7,148 1010.4,147.3 1010.4,146.6 L1010.4,146.6 C1010.7,146.3 1011.1,145.2 1011.8,144.5 C1012.5,143.8 1012.8,143.5 1013.2,142.8 C1013.5,142.5 1013.9,142.1 1013.9,141.4 C1014.2,141.1 1014.2,140.4 1014.6,139.7 L1014.6,139.7 L1014.6,139.7 C1014.9,139 1014.9,138 1015.3,136.2 L1015.3,136.2 C1016.1,134.8 1016.4,134.1 1016.4,133 Z M885.9,68.1 C887.6,62.6 889.4,57.4 891.1,52.6 C892.8,48.1 894.2,44 895.2,41.6 L895.2,41.6 C897.6,36.1 900,29.9 902.5,24.7 C903.5,22.3 904.6,19.9 905.6,18.1 C905.9,17.4 906.3,16.7 906.6,16 C906.6,16 906.6,15.7 906.9,15.7 L906.9,15.7 C906.9,16.7 906.6,18.1 906.2,19.8 C905.5,22.9 904.8,26.7 903.4,30.2 C902.4,33.7 901,37.1 899.9,39.9 C898.5,42.7 896.4,47.2 893.7,52.3 L893.7,52.3 C892.3,55.1 890.9,57.8 889.9,60.6 C888.5,63.4 887.1,66.1 885.1,69.2 L885.1,69.2 C885.5,68.8 885.9,68.5 885.9,68.1 Z" id="Shape"></path>
                <path d="M46.8,262.2 L45.1,260.1 C45.1,260.1 44.8,259.8 44.8,259.4 C44.8,259.1 44.5,259.1 44.5,258.7 L44.5,258.7 C44.2,258 43.8,257.7 43.5,257 C42.8,256 42.5,255.3 41.8,254.6 L41.8,254.6 C41.8,254.3 41.5,254.3 41.5,253.9 C40.8,252.9 40.8,252.2 40.1,250.4 L39.8,250.1 L39.5,249.8 C39.5,249.5 38.8,246 38.5,245.7 C37.8,244.3 38.2,242.9 37.1,239.8 L36.8,239.1 C36.5,238.4 36.5,237 36.5,236 C36.5,235.7 36.5,235.3 36.5,235 L36.2,232.6 C35.9,226.4 36.2,223.3 37.2,214 C37.9,207.4 39.3,197.4 41,189.1 C42,184.3 43.4,179.8 44.5,175.6 C49.3,159.7 54.5,144.2 60,129 C65.2,113.8 70.7,98.6 76.6,83.1 L78,79.3 C81.8,78.6 83.5,78.6 85.3,78.3 C86.3,78.3 87.4,78 88.4,78 C89.4,78 90.8,77.7 92.9,77.7 L92.9,77.7 C93.2,77.7 93.6,77.7 94.3,77.7 C94.6,77.7 95.3,77.7 95.3,77.7 L95.3,77.7 C96,77.7 96.7,77.4 97,77.4 C97.7,77.1 98,76.7 98.4,76.7 L99.4,76.4 L99.7,76.1 C100,76.1 100.4,75.8 100.7,75.4 C101,75.1 101.4,75.1 101.4,74.7 C101.7,74.4 102.4,74 102.8,73.7 C103.1,73.4 103.5,73 103.8,72.3 C104.1,71.6 104.5,70.6 104.5,69.9 C104.5,69.6 104.5,69.6 104.5,69.2 C104.5,69.2 104.5,69.2 104.5,68.9 C104.5,68.6 104.8,68.6 104.8,68.2 L105.1,67.9 C105.8,67.6 106.8,66.9 107.5,65.8 C107.8,65.1 108.2,64.8 108.5,63.7 C108.8,63 108.8,62.3 108.8,61.3 C108.8,60.3 108.5,59.2 108.1,58.5 L107.8,57.8 L107.5,57.5 C106.8,56.5 105.8,55.8 105.1,55.4 C104.1,55.1 103.4,54.7 102.3,54.7 L102.3,54.7 C101.6,54.7 101.3,54.7 100.6,54.7 C100.3,54.7 99.9,54.7 99.2,54.7 L99.2,54.7 L99.2,54.7 C99.2,54.7 98.9,54.7 98.5,54.7 C97.5,54.7 95.7,55 94,55.4 L94,55.4 C89.5,56.1 87.4,56.1 85.7,56.4 C86.4,55 87.1,54 87.4,52.9 C87.7,52.2 87.7,51.5 88.1,51.2 C88.1,50.5 88.4,50.2 88.4,49.1 L88.4,49.1 C88.4,49.1 88.4,48.8 88.7,48.8 L88.7,48.8 L88.7,48.8 C89.4,47.8 89.7,47.1 90.4,46 L90.4,46 C90.7,45.3 91.1,44.6 91.1,43.9 C91.4,43.2 91.4,42.5 91.8,41.5 L91.8,41.5 C92.1,40.5 92.1,39.4 92.1,38.4 C92.1,37.4 92.1,36.3 91.4,34.9 L91.4,34.9 L91.4,34.9 C91.4,34.9 91.4,34.6 91.1,34.2 C91.1,33.9 90.8,33.2 90.8,32.5 L90.8,32.5 C90.5,30.4 89.8,28.7 88.7,27 L88.7,27 C88.4,26.3 87.7,25.6 87.3,24.6 L87.3,24.6 C86.6,22.9 85.6,21.5 83.8,20.1 L83.8,20.1 L83.8,20.1 C83.1,19.4 82.4,19.1 81.4,18.7 C80.4,18.4 79.7,17.7 78.3,17.3 L78.3,17.3 C76.9,16.6 75.2,16.3 73.5,16.3 C72.5,16.3 71.8,16.3 70.7,16.6 C69.7,16.9 69,17.3 68.3,18 L68.3,18 C68,18 68,18.3 68,18.3 L67.7,18.3 L67,18.6 C66.3,18.9 65.6,19.3 64.9,19.6 C63.9,20.3 63.2,21.3 62.8,22.4 C62.5,23.4 62.1,24.5 62.1,25.5 C62.1,25.5 62.1,25.5 62.1,25.8 C61.8,26.1 61.4,26.5 61.4,27.2 C61.4,27.5 61.1,27.9 61.1,28.2 L60.8,28.5 L60.5,29.5 C58.1,35.7 55.7,41.9 53.2,48.5 C51.1,54 49.1,59.5 47,64.7 C36,67.8 27,70.2 20.4,72 L20.4,72 C16.6,73 13.1,74.4 10,75.5 C9.3,75.5 8.6,75.8 7.9,75.8 C6.9,76.1 5.8,76.5 5.1,77.2 L4.8,77.5 L4.5,77.8 C4.2,78.1 3.5,78.8 3.1,79.2 L3.1,79.2 C2.1,79.9 1.4,81.3 0.7,82.3 C0.4,83.3 0,84 0,85.1 C0,85.4 0,85.8 0,86.5 C0,87.2 0,87.9 0.3,88.6 C0.6,89.6 1.3,90.7 2.4,91.4 C3.1,92.1 4.1,92.4 4.8,92.8 C6.2,93.1 7.6,93.5 8.9,93.5 C10.6,93.5 12.4,93.2 14.1,92.5 C20,91.1 25.8,89.7 31.4,88.7 L31.4,88.7 C34.2,88 36.9,87.7 39.7,87 C38.7,90.5 37.3,93.6 36.2,97 C34.1,103.2 32.1,109.4 30.3,115.6 C25.1,131.5 20.6,147.7 16.5,163.9 L16.5,163.9 C15.5,167.4 14.8,171.2 14.1,174.9 L14.1,174.9 C13.1,179 11,189.4 10.3,193.5 C9.6,197.6 9.3,201.4 8.9,205.6 C8.2,214.2 7.5,226.3 8.6,235.3 C9.6,242.9 10.7,250.8 14.5,257.4 C15.2,258.4 15.5,259.1 16.2,260.2 C16.5,260.5 16.5,261.2 16.9,261.6 C17.6,262.6 17.9,263.3 18.6,264 L18.6,264 C19.6,265 20.7,266.1 22.4,267.8 C22.7,268.1 23.1,268.8 23.8,268.8 C24.5,269.1 24.8,269.5 25.2,269.5 L25.2,269.5 L25.2,269.5 C25.5,269.5 25.9,269.8 26.6,269.8 C26.9,269.8 27.6,269.8 28.3,269.8 C28.6,269.8 29,269.5 29.3,269.5 C29.6,269.5 29.6,269.5 30,269.5 C30.3,269.5 31,269.5 31.4,269.5 C31.7,269.8 32.1,269.8 32.8,269.8 C34.2,270.1 33.8,270.5 35.6,270.5 L35.6,270.5 C36.6,270.5 37.3,270.5 38.4,270.5 C39.1,270.5 39.8,270.5 40.5,270.5 C40.8,270.5 41.2,270.5 41.9,270.2 C42.2,270.2 42.6,270.2 42.9,269.9 C43.2,269.9 43.2,269.6 43.6,269.6 C43.9,269.6 44.3,269.3 44.6,268.9 C44.9,268.6 45.3,268.2 45.6,267.5 C45.9,267.2 45.9,266.5 45.9,265.8 C45.9,265.8 45.9,265.8 45.9,265.5 L46.2,264.5 L46.2,264.2 L46.8,262.2 Z" id="Shape"></path>
            </g>
        </g>
    </g>
</svg>
