<?xml version="1.0" encoding="utf-8"?>
<!-- Generator: Adobe Illustrator 21.1.0, SVG Export Plug-In . SVG Version: 6.00 Build 0)  -->
<svg version="1.1" id="Layer_1" xmlns="http://www.w3.org/2000/svg" xmlns:xlink="http://www.w3.org/1999/xlink" x="0px" y="0px"
	 viewBox="0 0 1500 340" style="enable-background:new 0 0 1500 340;" xml:space="preserve">
<style type="text/css">
	.st0{fill:#FFFFFF;}
</style>
<title>logo_white-text-black</title>
<desc>Created with Sketch.</desc>
<g id="Page-1">
	<g id="logo_white-text-black">
		<g id="Tandemly_LogoFull_White">
			<polygon id="Shape" class="st0" points="37.4,37.4 115.4,37.4 115.4,0 0,0 0,339.2 115.4,339.2 115.4,301.7 37.4,301.7 			"/>
			<polygon id="Shape_1_" class="st0" points="290.2,37.4 364.7,37.4 364.7,301.7 290.2,301.7 290.2,339.2 402.1,339.2 402.1,0 
				290.2,0 			"/>
			<path id="Shape_2_" class="st0" d="M206.1,150.8H285l11.3-37.4h-78.9l7.1-23.4l-36.3-11l-10.4,34.3h-61.1L105.3,151l0.2,0.1l0,0
				l55.8,16.9l-9.5,32.1c-1,4.3-1.6,8.7-1.6,13.3c0,18.8,9.1,35.4,23.1,45.7c9.4,6.9,21,11,33.5,11h0.8c6,0,11.7-1,17.1-2.9
				c20.4-7.1,35.1-26.5,35.1-49.3c0-24.3-16.6-44.7-39-50.5l-5.2,17.1c9.3,3.5,15.9,12.5,15.9,23.1c0,13-10.1,23.7-22.9,24.6
				c-0.6,0-1.2,0.1-1.8,0.1c-0.6,0-1.2,0-1.8-0.1c-1.4-0.1-2.9-0.4-4.3-0.9c-9.9-3.4-15.1-14.1-11.7-24
				C189.1,207.2,206.1,150.8,206.1,150.8z"/>
		</g>
		<g id="Group" transform="translate(483.000000, 27.000000)">
			<path id="Shape_3_" class="st0" d="M755,132L755,132c0.3-2.4,0.7-4.1,0.7-6.2c0-0.7,0-1,0-1.7c0.3-1,0.3-2.4,0.3-3.5
				c0-2.4-0.3-4.5-1-6.9l0,0c-1-3.5-2.4-6.6-4.1-9.3l0,0c-1.7-2.8-4.1-4.8-6.6-6.6l0,0c-1-0.7-1.7-1-2.8-1.4c-1-0.3-2.1-0.7-3.5-0.7
				c-0.7,0-1.7,0-2.4,0.3c-1.4,0-3.1,0.3-4.5,0.7l0,0c-1.4,0.3-2.8,0.7-4.1,1.4c-0.3,0-0.7,0-1.4,0.3c-0.3,0-0.7,0.3-1.4,0.3
				c-0.3,0-0.7,0.3-1,0.3c-0.7,0.3-1.4,0.7-2.1,1c-0.7,0.3-1,0.7-1.7,1.4c-7.9,4.5-15.9,10.4-23.8,18c-4.1,3.8-7.6,7.6-11,11
				c0-0.7-0.3-1.4-0.3-2.1c-0.7-2.1-1.4-4.5-2.4-6.2l0,0l0,0c-0.7-1.4-2.1-2.4-3.1-3.5c-1.4-0.7-2.8-1.4-4.1-1.7l0,0
				c-1.4-0.3-2.8-0.3-4.1-0.7c-1.7-0.7-3.5-1.4-5.5-1.7l0,0c-1.7-0.3-3.5-0.7-5.2-0.7h-2.1c-0.7,0-1,0-1.7,0c-0.3,0-1,0.3-1.4,0.3
				h-0.3c-2.1,0.3-4.1,1.4-6.9,2.4l0,0c-2.8,1.4-5.9,3.1-9.7,5.5v-0.3v-0.4c0-0.7,0-1.4,0-2.1c0-0.7,0-1.4-0.3-2.1l0,0l0,0
				c0-0.7-0.3-1.4-0.7-1.7c0-0.3,0-0.7-0.3-1v-0.7l-0.3-1c-0.7-1.7-1.7-3.5-2.8-4.8l0,0c-0.7-0.7-1.4-1.7-2.4-2.8l0,0
				c-0.7-0.7-1.4-1.4-2.1-2.1c-0.7-0.7-1.4-1.4-2.4-1.7c-0.7-0.3-1.4-0.7-2.4-1c-1-0.3-2.1-0.7-3.5-1.4c-1.7-0.7-3.5-1-5.2-1
				c-1,0-1.7,0-2.8,0.3c-1,0.3-1.7,0.7-2.8,1l0,0c-0.3,0.3-0.7,0.3-1,0.7h-0.3l0,0h-5.2v2.8c-0.7,0.7-1,1.4-1.4,2.1
				c-0.3,0.7-0.3,1.4-0.3,2.1c0,0.3,0,0.7,0,1l-0.3,0.3l-1,1v1l-0.3,0.7c-1.4,2.8-2.4,5.9-3.8,9.7l0,0c-1,3.5-2.1,6.6-3.1,9.3
				l-0.3,1v0.3v0.3c0,0.3,0,0.7-0.3,0.7c-4.1,12.1-7.9,23.8-11.7,35.6l0,0c-1.7,5.9-3.5,11.4-5.2,17.3c-2.8,3.1-6.6,6.9-11,11.4
				c-6.2,5.9-13.5,12.1-22.4,18c-3.1,2.1-6.2,3.8-8.3,4.8c-2.4,1-4.1,1.7-5.5,2.1l0,0c-3.5,0.7-6.2,1-8.6,1.4h-0.3
				c-0.7,0-1,0-2.1,0.3l0,0c-0.3,0-1.4,0-2.1,0h-4.8c-1,0-1.4,0-1.7-0.3c-0.3,0-0.3-0.3-0.7-0.7v-0.3v-0.3c-0.3-0.3-0.7-1-1-1.7
				c-0.3-0.7-0.3-1.7-0.3-2.8v-0.7V216c0-0.3,0-0.7,0-1s0-0.7,0-1v-0.3v-0.3c2.1-0.7,4.1-1.4,6.9-2.4h0.3h-0.3
				c4.5-1.7,9.3-4.1,14.5-7.3l0,0c5.5-3.1,10.7-7.3,16.2-12.1l0,0c5.9-5.2,11-11.4,15.9-18.6l0,0c1.4-2.1,2.8-4.1,3.8-6.9l0,0l0,0
				c1-2.1,2.1-4.8,3.1-7.6l0,0c1-3.1,2.1-6.9,2.8-11l0,0c0.3-1.7,0.3-3.5,0.3-5.2c0-2.4-0.3-4.8-0.7-7.3v-0.3V134v-0.7
				c-0.7-2.4-1.4-4.8-2.1-7.6l0,0c-0.7-3.1-2.1-5.9-3.5-8.3l-0.3-0.7l0,0c-0.3-0.3-0.3-0.7-0.7-1c-0.3-0.3-0.3-0.7-0.7-0.7l0,0
				c-1.7-2.1-3.8-3.8-6.2-5.2c-2.1-1-4.1-1.7-5.9-2.4l0,0l0,0c-1.7-0.7-3.8-0.7-5.9-0.7c-1,0-2.1,0-3.1,0.3h-0.3h-0.3
				c-6.9,2.1-13.1,4.8-19,9c-5.9,4.2-11,9.3-15.9,15.2c-9.3,11.7-16.9,24.5-22.8,38.3l0,0c-1.4,3.8-2.8,6.9-3.8,10.4l0,0
				c-1,3.1-1.7,5.9-2.4,8.3c-1.7,5.2-2.8,9.7-3.8,13.8s-1.4,7.6-1.4,10.7l0,0c0,0.3,0,0.7,0,1c0,2.8,0.3,5.2,1,7.6
				c0.7,2.4,1.4,4.8,2.8,6.6l0,0l0,0c1.7,2.4,3.5,4.5,5.5,6.2l0,0c1.7,1.4,3.1,2.8,4.8,3.8l0,0h0.3c3.8,2.8,7.9,4.5,11.7,5.2l0,0
				c1.4,0.3,2.8,0.7,3.8,0.7c1,0.3,1.7,0.3,2.4,0.3h0.7h1.4h1h1.7h0.3h0.3h0.3c2.8-0.3,6.9-0.7,12.4-1.4h0.3h-0.3
				c3.1-0.3,5.5-0.7,7.9-1c2.4-0.3,4.5-1,6.2-1.7l0,0c5.9-2.1,11.7-5.2,18-9l0,0c5.2-3.1,9.7-6.6,14.2-10c0,2.1,2.4,7.3,4.1,10.4
				c0,0.3,0.3,0.7,0.3,1c0.3,0.7,0.7,1.4,1.4,1.7l0,0l0,0c0.3,0.3,0.7,0.7,1.4,1.4c0.3,0.3,0.7,0.3,1.4,0.7c0.3,0,1,0.3,1.7,0.3h0.3
				c0.3,0.3,0.7,0.3,1,0.7c0.3,0,0.7,0.3,1,0.3c0.7,0.7,1,1,1.7,1.7c1,0.7,2.4,1.4,3.5,1.4l0,0c1,0.3,2.1,0.3,3.1,0.3
				c0.7,0,1.7,0,2.4-0.3c0.3,0,0.7,0,1-0.3c0.7-0.3,1-0.3,1.4-0.7c0.7-0.3,1-0.7,1.4-1c0.3-0.3,0.7-0.7,1-1c0.3-0.3,1-1,1.4-1.7
				c0.4-0.7,0.7-1.7,0.7-2.8V231c0,0-1-5.9,0.7-12.1c2.4-9,5.5-18,8.6-27.3c5.2-9,10-16.2,14.2-22.4c4.5-6.2,8.6-11.4,12.1-15.2
				c3.5-4.1,6.6-6.9,9-9c1.7-1.4,3.5-2.8,4.5-3.5l0,0l0,0c0,0,0,0.3,0,1s0,1.4,0,2.8c0,1.4,0,2.8,0,4.5c-0.3,4.8-1,10.7-2.1,16.9
				c-0.3,1-0.7,2.4-0.7,3.5c0,0,0,0.3-0.3,0.7v0.3v0.3c-2.4,11-4.1,21.1-4.8,30c-0.3,4.5-0.7,7.6-1,10c0,1-0.3,2.1-0.3,2.4
				c0,0,0,0,0,0.3l-0.3,0.7v4.5l2.4,1.4c0.7,0.3,1,0.7,1.7,1c0.7,0.3,1.4,0.3,2.4,0.3c0.3,0,0.7,0,1,0c0.3,0.3,0.7,0.3,1,0.7
				c0.7,0.3,1.7,0.7,2.8,0.7c1.1,0,2.1-0.3,2.8-0.7c0,0,0.3,0,0.3-0.3c0,0,0.3,0,0.3-0.3c0.7-0.3,1-0.7,1.4-1
				c2.4-2.1,4.8-4.1,7.3-6.6l0,0c2.1-2.4,4.1-5.2,5.9-7.6l0,0l0,0c1.7-3.5,3.5-6.6,4.8-9.3l0,0c1.4-2.8,2.4-5.2,3.1-7.3l0.7-0.7
				l0.3-1.4c0.3-1.4,0.7-2.8,1-4.5l0,0c0.3-1,0.3-2.1,0.7-3.1l0.7-0.7l0.3-1.4c0.7-2.1,1.4-4.5,2.1-6.6l0,0c0.7-2.1,1.4-4.5,2.1-6.6
				c2.8-3.5,5.9-6.9,9-9.7c1.7-1.7,3.1-3.1,4.1-4.1c0.7-0.7,1-1,1.4-1.4c0.3-0.3,0.3-0.7,0.7-1l0.3-0.3l1.4-1.4v-0.7
				c3.5-4.1,6.9-7.3,10-9.7c2.1-1.4,3.5-2.8,4.8-3.5c0.3-0.3,1-0.7,1.4-1c0,0.3,0,0.7,0,1.4c0,1-0.3,2.1-0.3,3.1
				c-0.7,3.8-1.4,8.3-2.4,13.8l0,0c-1,5.2-2.1,10.7-3.5,16.6c-0.3,1.7-0.7,3.5-1.4,5.2c-0.7,3.1-1.4,5.9-2.1,8.6l-0.7,2.4
				c-0.3,1.4-0.7,2.4-1,4.1l0,0c-0.3,1.4-0.7,3.1-1.4,5.5v0.7l0,0v0.3c0,0.3-0.3,1-0.3,1.4l-0.3,0.7v0.7c-0.3,1.7-0.7,3.5-0.7,5.2
				c0,1.4-0.3,3.1-0.3,4.5c-0.3,1.4-0.3,2.4-0.3,3.8c0,1,0,2.1,0,3.1v0.3l0,0c-1,3.8-1.4,7.3-1.4,10.4v0.7v0.3c0,0.3,0,0.7-0.3,0.7
				l-2.1,3.8l0.7,0.3c0,0.3,0,1,0,1.4c0,0.7,0,1.4,0.3,1.7c0.3,1,0.7,1.7,1.4,2.4c0.3,0.3,1,0.7,1.4,1c0.3,0.3,0.7,1,1.4,2.1l0,0
				c1,1.7,2.4,2.8,3.8,3.8c1.4,0.7,3.1,1.4,4.8,1.4l0,0c1.4,0.3,2.8,0.3,3.8,0.7c1,0,1.7,0.3,2.8,0.3l0,0h0.3c2.1,0,3.8-0.7,5.5-1.4
				l0,0c1-0.3,2.1-1,3.1-1c1-0.3,2.4-0.7,3.1-1.4c0.7-0.3,1.4-1,2.1-1.7c0.3-0.3,0.3-0.3,0.7-0.7l0,0l0,0l1-0.7
				c1-0.7,1.7-1.7,2.4-2.8c0.7-1,1-2.1,1.4-3.1l0,0c0.3-1.4,0.7-2.4,1-3.1l0,0l0,0c0.3-0.7,0.3-1.4,0.3-1.7c0-0.7,0-1.4-0.3-2.1
				c0-0.7-0.3-1.4-0.3-2.1c0-0.3,0-0.7,0-1s0-0.3,0-0.7l0,0c0-1,0.3-2.1,0.3-3.1s0-2.4,0-3.8c0-1,0-1.7,0-2.8c0-1.4,0-2.8-0.3-4.1
				l0,0c0-1.7-0.3-3.5-0.3-4.8c0-0.3,0-0.7,0-1l0,0c0-0.7,0.3-1.7,0.7-3.1c0.7-4.1,2.1-11,3.5-19c0-0.3,0.3-0.7,0.3-1v-0.3
				c0-0.3,0.3-0.3,0.3-0.7c0-0.3,0.3-0.7,0.3-1l2.1-7.6c0-0.3,0.3-0.3,0.3-0.7c0.3-0.7,0.3-1.4,0.7-1.7c0,0,0,0,0-0.3
				c0.3-1.7,0.7-3.1,1-4.8c0.3-2.1,0.7-4.8,1.7-8.3s1.7-7.3,2.8-11C753.6,138.9,754.3,135.1,755,132z M519.2,172.7L519.2,172.7
				c3.1-6.2,6.6-11.7,9.7-16.2l0,0l0,0c5.2-7.6,10-13.8,14.2-17.6l0,0c0.7-0.7,1.4-1.4,2.1-1.7v4.5c-0.7,3.8-1.7,7.9-3.1,12.4l0,0
				l0,0c-1.4,3.8-3.5,7.9-6.2,12.4c-2.4,4.1-6.2,7.9-10.7,11.7c-3.1,1.7-6.2,3.8-9.7,5.2l0,0c-0.3,0.3-0.7,0.3-1,0.7
				C516.1,179.6,517.4,176.2,519.2,172.7z"/>
			<path id="Shape_4_" class="st0" d="M791.3,208.7L791.3,208.7L791.3,208.7c-0.7-0.7-1.4-1-1.7-1.7l0,0l0,0c-0.7-0.7-1.4-1-1.7-1
				c-0.7-0.3-1.4-0.3-2.1-0.7c-0.7,0-1,0-1.7,0c-0.7,0-1.4,0-2.8-0.3l0,0c-0.7,0-1.4-0.3-2.1-0.3c-0.3,0-0.3,0-0.7,0l0,0
				c-0.3,0-0.3-0.3-0.7-0.3l-0.7-0.3h-0.7c-1-0.3-2.1-0.7-2.8-0.7l0,0c-0.7,0-1-0.3-1.4-0.3c-0.4,0-0.3,0-0.7,0s-0.7,0-1,0h-5.2v2.8
				c0,0.3-0.3,0.3-0.3,0.7l0,0c-0.3,0.7-1,1.7-1.4,2.4c-0.4,0.7-0.7,1.4-0.7,2.1c-0.3,0.7-0.3,1.4-0.7,2.4l0,0
				c-0.3,1.7-1,3.5-1.4,5.5c-0.7,1.7-1.4,4.5-2.4,7.6l0,0c-0.7,1.7-1,3.1-1.4,4.5c0,0.7-0.3,1-0.3,1.7s0,1-0.3,1.7
				c0,1.4,0.3,2.8,1,3.8c0.7,1,1,2.1,2.1,2.8c1.4,1.7,3.5,3.1,5.5,3.8l0,0c1.7,0.7,3.5,1.4,5.5,2.1l0,0c1.7,0.3,3.1,0.7,4.8,0.7
				c0.7,0,1.7,0,2.4-0.3h0.3h0.3c1-0.3,1.7-0.7,2.1-1c0.7-0.7,1.4-1.4,2.4-2.1c0.7-0.7,1.4-1.7,2.4-2.8l0,0c2.4-2.8,4.1-5.9,4.8-9
				c0,0,0,0,0-0.3s0.3-0.7,0.3-1c0.3-1.4,0.7-2.8,1.4-5.2l0,0c0.3-1.7,0.7-2.8,1-3.8c0-0.3,0.3-1,0.3-1.4v-0.3c0-0.3,0.3-0.7,0.3-1
				s0.3-0.7,0.3-1.4l0.7-1v-1.4c0-1-0.3-2.4-0.7-3.1C792.3,210,792,209.3,791.3,208.7z"/>
			<path id="Shape_5_" class="st0" d="M500.2,75L500.2,75c4.5-6.9,8.3-13.5,11.7-19.3s5.9-11,7.6-15.2l0,0c0.3-0.7,0.7-1.4,0.7-2.4
				l0,0l0,0c0-0.3,0-0.3,0.3-0.7v-0.3v-0.3c0.3-1,1.4-4.1,2.4-7.6c0.7-1.7,1-3.5,1.4-5.2c0.3-0.7,0.3-1.7,0.7-2.4
				c0-0.7,0.3-1.4,0.3-2.1c0.3-2.1,0.3-4.1,0.3-6.2c0-1.4,0-2.8-0.3-3.8l0,0l0,0c0-0.7-0.3-1.4-0.3-2.1c0-0.3-0.3-1-0.7-1.7
				c-0.3-0.7-1-1.7-2.1-2.4c-0.3-0.3-1-0.7-1.7-1S519.1,2,518.4,2h-0.3l0,0h-0.3h-0.3c-0.7-0.3-1.4-0.7-2.1-1
				c-0.7-0.3-1.7-0.3-2.8-0.3c-0.3,0-0.3,0-0.7,0C510.2,0,508.4,0,506.7,0c-2.4,0-5.2,0.3-7.6,1.4l0,0c-2.8,1-5.5,2.8-8.3,4.8
				c-2.8,2.1-5.5,4.8-8.3,8.3l0,0c-5.9,6.6-12.1,15.9-18.3,28.3l0,0c-6.6,12.1-13.1,27.6-19.3,46.6c0,0,0,0,0,0.3
				c-0.3,0.7-0.7,1.4-1,2.8c-0.3,1-1,2.8-1.7,4.5l0,0c-1,2.8-2.1,5.9-3.8,9.7c-1.7-0.7-3.5-1-5.2-1l0,0c-1.4,0-3.1-0.3-4.5-0.3
				c-1.4,0-2.8,0-4.1,0.3l0,0l0,0l0,0l0,0c-2.8,0.3-5.5,1-8.3,1.7c-3.1,0.3-6.6,1-9.7,2.1c-3.1,1-6.2,2.8-9.7,4.8l0,0
				c-6.2,4.1-12.1,9.3-17.6,15.9l0,0c-5.5,6.2-10.7,13.1-15.2,20.4c-0.3,0.7-0.7,1.4-1,1.7c-0.3,0.3-0.7,0.7-1,1
				c-0.3,0.3-0.7,0.7-0.7,1l-0.3,0.3l-0.3,0.3l-0.3,0.7c-2.4,4.1-5.9,10-11,18.3c-5.2,7.9-10.7,15.9-16.6,24.2
				c-5.9,7.9-11.7,14.8-17.3,21.1c-2.8,2.8-5.2,5.2-6.9,6.2c-0.7,0.7-1.7,1-2.1,1c-0.3,0-0.3,0-0.3,0l0,0l0,0l0,0l0,0l0,0
				c0,0-0.3-0.7-0.7-1c-0.3-0.7-0.3-1.4-0.7-2.8l0,0c-0.7-3.8-1-7.9-1-12.1c0-1,0-2.4,0-3.5c0.3-2.8,0.7-6.6,1.7-11.4
				c0.7-4.5,2.4-10.4,4.5-16.9l0.3-0.7v-0.7c0.3-1.7,1-3.5,1.4-4.8l0,0c0.3-1.4,1-3.1,1.4-4.8c0.3-0.3,0.7-1,0.7-1.4
				c0.3-1,0.7-2.1,0.7-3.1l0,0l0.3-0.7v-0.7c0.7-5.2,1-9.7,1-14.2c0-3.1-0.3-6.2-0.7-9c0-2.8-0.3-5.2-1-7.3
				c-0.7-2.4-1.4-4.5-2.8-6.2l0,0c-1-1.7-2.8-3.1-4.5-4.5c-1.7-1.4-3.8-2.4-6.2-3.8l0,0l0,0c-2.1-0.7-3.8-1.4-5.2-1.7
				c-1.7-0.3-3.1-0.7-4.8-0.7h-3.5c-0.7,0-1,0-1.7,0c-0.3,0-1,0.3-1.4,0.3h-0.3c-2.1,0.3-4.1,1.4-6.9,2.4l0,0c-2.8,1-5.5,2.8-9,5.2
				c0-1.7-0.3-3.1-0.7-4.8l-0.3-1l0,0c0-0.3,0-0.3-0.3-0.3v-0.3c-0.3-1-0.7-1.7-1-2.8c-0.7-1-1.4-2.1-2.1-2.8
				c-0.7-0.7-1.4-1.4-2.1-2.4l0,0l0,0c-0.7-0.7-1.4-1.4-2.1-2.1c-0.7-0.7-1.4-1.4-2.4-1.7c-0.7-0.3-1.4-0.7-2.4-1
				c-1-0.3-2.1-0.7-3.5-1.4l0,0c-1.7-0.7-3.1-1-4.8-1c-1,0-1.7,0-2.8,0.3c-1,0.3-1.7,0.7-2.4,1l0,0c-1,0.7-1.7,0.7-2.1,1
				c-0.7,0-1,0-1.7,0.3c-0.7,0.3-1.4,0.3-1.7,1c-1,0.7-1.7,1.7-2.1,2.4c0,0.3,0,0.3-0.3,0.7h-1v4.1c0,0.3-0.3,0.7-0.3,0.7l0,0
				l-0.3,0.7c-1.4,2.8-2.4,5.9-3.8,9.7l0,0c-1,3.1-2.1,6.2-3.1,9l0,0c0,0-0.3,0.3-0.3,0.7l-0.3,0.3l-0.3,1c-3.1,9-5.9,18-8.6,26.6
				c-2.1,3.5-4.8,7.6-7.9,12.8c-5.2,7.9-10.7,15.9-16.6,24.2c-5.9,7.9-11.7,15.2-17.3,21.1l0,0c-2.8,2.8-4.8,5.2-6.6,6.2
				c-0.7,0.7-1.4,1-2.1,1c-0.3,0-0.3,0-0.3,0l0,0c-0.3,0-0.3,0-0.7,0c0,0,0,0-0.3-0.3s-0.3-0.7-0.7-1.7l0,0c-1-3.1-1.7-6.9-1.7-11
				l0,0c0-1,0-1.7,0-2.8c0-3.5,0.3-6.9,0.7-10l0,0c0.3-2.1,0.7-3.8,0.7-5.2c0.3-1.4,0.3-2.4,0.3-3.1v-0.3V189c0,0,0,0,0-0.3
				s0-0.7,0.3-1l0,0c0.3-1.4,0.7-3.5,1-5.9l0,0c0.3-2.1,0.7-5.5,1.7-9.7v-0.3v-0.3l1.4-3.1v-1l0,0c0-0.3,0.3-0.7,0.3-1
				c0.3-0.3,0.7-1,0.7-1.4c0.3-1,0.7-2.1,0.7-3.1c0-0.7,0-1.4,0-1.7c0-1.7-0.3-3.5-0.7-5.2v-0.7l-0.3-0.7c-0.3-0.7-1-1.7-1.7-2.4
				s-1.4-1.4-2.4-2.1l0,0c-0.3-0.3-0.7-0.3-1-0.7l0,0l-0.7-0.7l0,0l0,0c0,0,0,0,0.3-0.3c0.7-0.3,1.7-0.7,2.1-1.4
				c0.7-0.3,1-1,1.4-1.7c0.4-0.7,0.7-1.7,1-2.4c0-0.7,0.3-1.4,0.3-2.1c0-1.4-0.3-2.8-1-3.8l0,0l0,0l0,0l0,0c-1.7-3.5-3.5-6.6-5.2-9
				c-2.1-2.8-4.1-4.8-6.9-6.2l0,0c-4.5-2.8-9-4.5-13.5-5.2l0,0l0,0c-1.4-0.3-3.1-0.3-4.5-0.3c-3.8,0-7.6,0.7-11,1.7l-1.4,0.3
				c-5.2,0.7-10.4,2.4-15.5,5.5c-5.9,3.5-11.4,7.6-16.2,13.1l0,0c-5.2,5.2-10,11.4-14.2,18l0,0c-4.1,6.9-7.9,13.8-10.7,21.1
				c-1.7,4.5-3.8,9.3-5.5,14.8l0,0c-2.1,5.9-3.1,12.1-3.5,18.3l0,0c0,0.7,0,1.4,0,2.1c0,5.9,1.4,11.4,3.5,16.9l0,0
				c1.4,3.5,3.5,6.2,6.2,9c2.8,2.8,5.9,5.2,9.7,7.3l0,0c2.8,1.4,5.5,2.4,8.6,2.1c1.4,0,2.4,0,3.8-0.3l0,0l0,0
				c4.1-0.7,7.9-2.8,12.1-5.5l0,0c2.4-1.7,4.5-3.8,6.9-6.2c2.4-2.8,4.5-5.5,6.9-9.3l0,0c4.1-6.2,7.3-11.4,10-15.9
				c0,2.4,0.3,4.5,0.7,6.9c0.3,2.1,0.7,4.1,1.4,5.9c0.7,1.7,1.4,3.1,2.4,4.5l0,0c2.4,3.5,4.8,6.2,7.6,8.3c2.4,2.1,4.8,3.8,6.9,5.2
				l0,0l0,0c2.8,1.7,5.2,3.1,7.9,4.1h0.3h0.3c3.8,1,7.6,1.4,11.4,1.4s7.3-0.7,11.4-2.1l0,0l0,0c4.1-1.4,8.3-4.1,12.1-7.9
				c3.1-3.1,6.6-6.9,10.4-11.7c0,0.7,0,1.7,0,2.4c-0.7,6.9,2.1,8.3,2.4,8.6c0.3,0.7,0.7,1.4,1.4,1.7l0,0c0.3,0.3,1,1,2.1,1.4
				c0.7,0.3,4.8,0.7,5.9,0.7c0,0,0,0,0.3,0c0.3,0.3,0.7,0.3,1,0.7c0.3,0.3,1,0.7,1.7,0.7l0,0c0.3,0.3,0.7,0.7,0.7,0.7
				c1.4,1,4.5,2.1,4.5,2.1c1,0.3,2.1,0.3,3.1,0.3c0.7,0,1.7,0,2.4-0.3c1,0,1.7-0.3,2.8-0.7c1-0.3,1.7-1,2.1-1.7
				c0.7-0.7,1.4-1.7,1.7-2.8c0.3-1,0.3-1.7,0.3-2.4v-1.7l-1-1.4c-0.3-0.3-0.7-0.7-0.7-1.4c-0.3-4.5,0.3-8.3,1.7-12.8
				c1.4-4.8,2.8-9.7,4.8-15.2l0,0c1.7-5.2,3.8-10.4,5.5-15.5c4.8-7.9,9.3-14.8,13.5-20.4c4.2-5.6,7.9-10,11-13.1
				c3.5-3.5,6.2-6.2,8.6-8.3c1.4-1.4,2.8-2.1,3.8-3.1c0,0,0,0.3,0,0.7c0,0.7,0,2.1,0,3.5c0,2.8-0.3,5.9-0.7,9.7
				c-0.3,3.8-1,8.3-1.7,13.1c-0.7,4.8-1.7,9.3-2.8,13.8v0.7v0.7c-0.3,0.7-0.7,1.7-1,2.8l0,0c-0.3,1.7-1,3.5-1.7,5.9v0.7v0.3
				c-0.7,2.1-1,4.1-1.4,6.2c-0.3,2.4-0.3,4.8-0.3,7.3v3.5c0,1.4,0,3.1,0,4.5c0,1.7,0.3,3.5,1,5.2v0.7l1,1.4c0.3,0.3,0.3,0.7,0.3,0.7
				l0,0c0,1,0.3,1.7,1,2.8c0.3,0.7,1,1.7,1.7,2.4l0,0c0.3,0.3,0.7,0.7,0.7,0.7l0,0c0.7,0.7,1,1.7,2.1,2.4c2.1,2.4,4.5,4.8,6.9,6.6
				c2.1,1.4,4.1,2.8,5.9,4.1l0,0l0,0c2.1,1.4,4.1,2.4,5.9,3.1l0.3,0.3h0.7c3.8,1,7.6,1.4,11.4,1.4c3.8,0,7.3-0.7,11-2.1l0,0
				c4.1-1.4,8.3-4.1,12.1-7.9c3.1-3.1,6.6-7.3,10.7-11.7c2.1-2.4,4.1-5.2,6.2-7.9c0.7,3.8,2.1,7.3,3.8,11c1.7,3.5,3.8,6.6,6.6,9.3
				c2.8,2.8,5.9,5.2,9.3,7.3c1,0.7,2.1,1.4,3.5,1.7s2.8,0.7,4.1,0.7c1,0,2.4,0,3.5-0.3l0,0l0,0c1.7-0.3,3.5-1,5.2-2.1
				c1.7-1,3.5-2.1,5.5-3.8l0,0c2.1-1.7,4.1-3.8,6.2-6.2c2.1-2.4,4.1-5.5,6.6-9l0,0c4.1-6.2,7.3-11.7,10-16.2l0,0
				c0,2.1,0.3,4.1,0.3,5.9c0.3,2.4,0.7,4.5,1.4,6.6c0.7,2.1,1.4,3.8,2.4,5.2l0,0l0,0l0,0l0,0c2.4,3.5,4.8,6.2,7.6,8.3
				c2.4,1.7,4.5,3.5,6.9,4.8l0,0l0,0c2.4,1.7,4.8,3.1,7.6,4.1l0.3,0.3h0.7c3.8,1,7.3,1.4,11,1.4l0,0c0,0,0,0,0.3,0l0,0l0,0
				c0.3,0,1,0,1.4,0c0.3,0,0.7,0,1.4,0l0,0l0,0c0,0,0,0,0.3,0l0,0c0.3,0,0.7,0,1.4-0.3c0.3,0,0.3,0,0.7,0c0.7-0.3,1-0.3,1.7-0.7
				c0.7-0.7,1.4-1.4,1.7-2.1l0,0c0.3,0,0.3-0.3,0.3-0.7c0.7-0.7,1-1.7,1-2.4l0.7-2.8l-2.8-3.1l-0.3-0.3l0,0
				c-0.7-0.7-1.7-1.7-3.5-3.1c-0.7-0.7-1.4-1.4-2.1-1.7c-1-1-2.1-2.1-2.8-3.1c-0.3-0.3-0.7-1-1-1.4c0-0.3,0-0.3-0.3-0.3l0,0l0,0l0,0
				c-1-3.8-1.4-7.9-1.4-12.4c0-4.8,0.3-9.7,0.7-14.2c0.3-2.4,0.3-4.1,0.7-5.9c0.3-1.4,0.3-2.4,0.3-3.1v-0.3v-0.3c0,0,0,0,0-0.3
				s0-0.7,0.3-1l0,0c0.3-1.4,0.7-2.8,1-4.5l0,0c0.3-1.4,0.7-3.5,1.7-6.2c0.7-1.4,1-3.1,1.7-4.8l0,0c0.7-2.1,1.4-4.1,1.7-6.6v-0.7
				l0,0c0,0,0,0,0-0.3l0,0l0.3-1c0.3-1,0.7-1.7,0.7-2.4c0-0.3,0.3-0.7,0.3-1s0-0.7,0-1c2.1-6.2,4.1-13.5,6.6-21.1l0,0
				c1.4-4.1,1.7-6.2,2.4-7.9c0.3-1,0.7-1.7,1-3.1c0.3-1,0.7-2.4,1.4-4.1c5.2-7.3,10.4-14.5,15.9-22.1
				C490.5,89.5,495.7,81.9,500.2,75z M492.9,54.3c1.7-5.2,3.5-9.3,4.5-12.1l-4.8-2.1l4.8,2.1c2.4-5.5,4.8-11.7,7.3-16.9
				c1-2.4,2.4-4.8,3.1-6.2c0.3-0.7,1-1.4,1-1.7c0-0.3,0.3-0.3,0.3-0.3c0,0.7,0,1.7-0.3,2.4c-0.3,2.1-0.7,4.5-1.4,6.6
				c-0.7,2.4-1.4,4.5-2.1,6.6c0,0.3-0.3,0.7-0.7,1.4c-0.3,1.4-1,3.1-2.1,4.8c-1.4,2.8-2.8,6.2-4.1,9.3c-0.7,1.4-1.4,3.1-2.1,4.1
				c-0.7,1.4-1,2.4-1.7,3.1l0,0c-2.1,4.1-4.8,8.6-7.9,13.5C489.1,63.6,491.2,58.4,492.9,54.3z M140.7,143.4c-1,1-1.7,2.4-2.8,3.8
				l0,0c-1,1.7-1.7,3.1-2.4,4.5c-0.7,1-1,2.1-1.4,3.1c-0.7,1.4-1.7,2.8-3.1,5.2s-3.1,5.2-5.2,8.3l0,0c-4.1,6.6-8.6,13.1-13.8,19.7
				l0,0c-5.2,6.6-10.4,12.4-15.9,18c-2.4,2.4-4.8,4.1-6.6,5.5c0-0.7,0.3-1,0.3-1.7c0.3-1.4,0.7-3.1,1.4-5.5c0.7-2.1,1.7-4.8,2.8-7.9
				l0,0l0,0c2.1-6.2,3.8-10.7,5.5-14.2s3.5-6.9,4.8-9.7l0,0c1.4-2.8,3.1-5.2,4.8-7.6l0,0c1.7-2.4,4.1-5.5,7.3-9l0,0l0,0
				c3.1-4.1,6.2-7.3,9-9.7c2.8-2.4,4.8-3.8,6.9-4.8c0.3,0,0.7-0.3,1-0.3c0,0,0.3,0,0.3-0.3c1-0.3,2.1-0.3,2.8-0.3c0.7,0,1,0,1.7,0
				c1.4,0.3,2.8,0.7,3.8,1C142.1,142,141.4,142.7,140.7,143.4z M428,136.1L428,136.1c-1.4,3.5-2.4,6.9-3.5,10
				c-0.7,0.7-1,1.7-1.4,2.8l0,0c0,0,0,0-0.3,0.3l-0.3,0.3l-0.3,0.3c-3.1,5.2-6.6,10-9.7,15.2l0,0c-3.1,4.8-6.2,10-9.3,14.8l-3.5,5.5
				c-4.5,5.9-9.3,11.4-13.8,16.2c-3.1,3.1-5.9,5.5-7.9,7.3c-0.3,0.3-1,0.7-1.4,1c0-0.7,0.3-1.7,0.3-2.8c0.3-1.4,0.7-3.1,1.4-5.5
				c0.7-2.4,1.7-4.8,2.8-7.9l0,0l0,0c4.5-12.1,8.6-21.4,12.4-28.7c3.8-6.9,8.6-13.8,14.2-20.7l0,0c3.5-4.1,6.9-7.6,9.7-10
				c2.4-2.1,4.5-3.5,6.2-4.5l0,0l0.7-0.3c1.4-0.3,2.4-0.7,3.5-0.7c0.7,0,1,0,1.7,0c0.3,0,0.7,0,1,0.3
				C429.4,132,428.7,134.1,428,136.1z"/>
			<path id="Shape_6_" class="st0" d="M1016.4,133c0-1.7-0.3-3.1-0.7-4.8l-0.3-1l0,0c0-0.3,0-0.3-0.3-0.3c0,0,0-0.3-0.3-0.3
				c-0.3-1.7-1-3.5-2.4-5.2l0,0c-0.7-0.7-1.4-1.7-2.4-2.8l-0.3-0.3l-0.3-0.3c-1-1-2.4-2.1-3.8-3.1l0,0l0,0c-0.7-0.3-1.7-0.7-2.4-1.4
				c-1-0.3-2.1-0.7-3.5-1.4h-0.3h-0.3c-1.4-0.3-2.8-0.3-4.1-0.3c-1.7,0-3.5,0.3-5.2,1l0,0c-1,0.3-1.7,0.7-2.4,1h-0.7l-0.7,0.3
				c-0.7,0.3-1,0.3-1.7,0.7c-0.7,0.7-1.7,1.4-2.4,2.4c-0.7,1-0.7,2.1-0.7,3.1c0,0.3,0,0.7,0,0.7l-0.3,0.3l0,0c0,0,0,0,0,0.3
				c-0.3,0.3-0.3,0.7-0.3,1l-0.3,0.3l-0.3,1c-0.7,1.4-1,2.8-1.4,4.1c-0.3,1-0.7,2.1-0.7,2.8c-0.7,2.1-1.7,4.1-2.4,6.2
				s-1.4,4.5-2.1,6.6c0,0,0,0,0,0.3c-0.3,0.7-0.3,1.4-0.3,1.7l0,0c-2.4,6.9-5.9,19-10.4,28c-4.8,8.6-9.3,15.5-13.5,21.4l0,0
				c-11,15.9-23.8,21.8-24.9,22.4c-0.3,0-0.7,0.3-1.4,0.3c-0.3,0-1,0.3-2.1,0.3c0-0.3,0-0.7,0-1c0.3-1,0.3-2.4,0.7-4.1
				c1-4.5,1.4-5.2,2.8-11l0,0c0.3-1,0.7-3.5,1.7-6.6l0,0c0.7-2.8,1.4-5.5,2.1-7.6l0,0c0.7-1.7,1.4-3.5,1.7-5.5l0,0
				c0.7-1.7,1-3.1,1.4-3.8l0.7-1v-1l3.1-9.7c0.3-0.3,0.7-1,0.7-1.7c0.3-1,0.7-1.7,0.7-3.1c0,0,0-0.3,0-0.7l0.3-0.7v-1.7
				c0.3-1.7,1-3.5,1.4-5.2l0,0c0.3-1.7,1-3.5,2.1-5.2c0.7-1,1-2.1,1.7-3.1l0,0l0,0c0.3-1,1-1.7,1.4-2.4l0,0l0,0
				c1-2.1,1.7-4.1,1.7-6.2c0-0.7,0-1.4,0-2.1l0,0l0,0c0-1-0.3-2.1-1-2.8c-0.7-1.4-1.7-2.4-2.8-3.5c-1-0.7-2.1-1.4-3.5-2.1l0,0l0,0
				l0,0l0,0c-0.7-0.3-1.4-0.7-2.4-0.7c-0.7-0.3-1.7-0.3-2.8-0.3c-0.7,0-1,0-1.7,0.3c-0.3,0-1,0.3-1.7,0.7c-0.7,0-1,0-1.7,0
				c-1,0-2.1,0-3.1,0.3l0,0c0,0,0,0-0.3,0s-0.7,0-1.4,0h-0.3h-0.7c-1.7,0-3.5,0.3-4.8,1c-1.4,0.7-3.1,1.7-4.1,2.8l0,0
				c-0.7,0.7-1.4,1.4-2.1,2.1c-0.3,0.3-0.7,0.7-0.7,1c0,0.3-0.3,0.3-0.3,1c0,0,0,0.3-0.3,0.7c-3.1,8.3-5.9,16.6-8.6,24.9
				c-2.1,3.5-4.8,7.6-7.9,12.8c-5.2,7.9-10.7,15.9-16.9,24.2c-5.9,7.9-11.7,15.2-17.3,21.1l0,0c-2.8,2.8-4.8,5.2-6.6,6.2
				c-0.7,0.7-1.4,1-2.1,1c-0.3,0-0.3,0-0.3,0l0,0c-0.3,0-0.3,0-0.3,0l0,0c0,0-0.3-0.3-0.3-0.7c-0.3-0.3-0.3-1-0.7-1.7l0,0
				c-1-3.5-1.7-7.6-1.7-12.4s0.3-9.7,0.7-14.2l0,0c0.3-2.4,0.7-4.1,0.7-5.9c0.3-1.4,0.3-2.8,0.3-3.1V187v-0.3c0,0,0,0,0-0.3
				c0-0.3,0-0.7,0.3-1c0.3-0.7,0.3-1,0.3-1.7c0.3-0.7,0.3-1.7,0.3-2.8l0,0c0.3-1.4,0.7-3.5,1.7-5.9l0,0c0.7-1.7,1-3.5,1.7-5.2
				c0.3-1.4,1-3.5,1.7-5.5l0.3-1V163c0-0.3,0-0.3,0-0.3l0.3-0.3c0.7-1,1-2.4,1-3.8l0.3-1v-1c2.1-6.2,4.1-13.5,6.6-21.1l0,0
				c1.4-4.1,1.7-6.2,2.4-7.9c0.3-1,0.7-1.7,1-3.1c0.3-1,0.7-2.4,1.4-4.1c5.2-7.3,10.4-14.5,15.9-22.1c5.5-7.9,10.4-15.2,14.8-22.4
				c4.5-6.9,8.3-13.5,11.7-19.3s5.9-11,7.6-15.2l0,0l0,0c0.3-1,0.7-1.7,0.7-2.4c0-0.3,0.3-0.7,0.3-1v-0.3c0.3-0.7,0.3-1.4,0.7-2.4
				c0.7-2.1,1.7-4.8,2.4-7.3c0.3-1.4,0.7-2.4,1-3.8c0-0.7,0.3-1,0.3-1.7c0-0.3,0.3-1,0.3-1.4l0,0c0.3-2.4,0.7-4.5,0.7-6.9
				c0-1,0-2.1-0.3-3.5l0,0l0,0c0-0.7-0.3-1.4-0.3-2.1s-0.3-1-0.7-1.7c-0.3-0.7-1-1.7-2.1-2.4c-0.7-0.3-1-0.7-1.7-1
				c-0.7-0.3-1.4-0.3-2.1-0.3c0,0-0.7,0-1.4-0.3c-0.7-0.3-1.4-0.7-2.4-1c-0.7-0.3-1.4-0.3-1.7-0.3c-1.7-0.7-3.8-1-5.9-1
				c-2.8,0-5.2,0.7-7.9,1.7c-2.8,1-5.5,2.8-8.3,4.8s-5.5,4.8-8.3,8.3c-5.9,6.6-11.7,16.2-18.3,28.3c-6.2,12.1-12.8,27.6-19.7,46.6
				c0,0,0,0,0,0.3c-0.3,0.7-0.7,1.4-1,2.4c-0.3,1-1,2.4-1.4,4.1l0,0c-1.4,3.8-3.1,8.6-5.2,14.2v0.3v0.3c-0.3,1.7-1,3.5-1.7,4.8l0,0
				l0,0c-1.4,3.5-2.8,6.6-3.8,9.7c-2.4,7.3-4.8,14.5-7.3,21.4c-0.3,0.3-0.3,0.7-0.3,0.7c-0.3,0.7-0.3,1.4-0.7,1.7v0.3
				c-1,4.1-2.4,8.3-3.5,12.4l0,0c-2.4,8.3-4.5,16.2-5.9,23.5l0,0l0,0c-1,5.5-1.4,11-1.4,16.2c0,1.7-0.3,3.5-0.3,5.2
				c0,2.8,0,5.2,0.3,7.9c0.3,2.4,0.7,4.5,1.4,6.2c0.7,1.7,1.4,3.5,2.4,4.8l0,0c2.4,3.1,4.8,6.2,7.6,8.3c2.4,2.1,4.8,3.8,6.9,5.2l0,0
				l0,0c2.4,1.7,4.8,3.1,7.6,4.1l0.3,0.3h0.7c3.8,1,7.6,1.4,11.4,1.4s7.3-0.7,11.4-2.1l0,0c4.1-1.4,8.3-4.1,12.1-7.9
				c3.1-3.1,6.6-7.3,10.7-11.7c0.7-1,1.4-2.1,2.4-2.8c0,0.3,0,0.7,0,1c0,1.4,0,3.1,0.3,4.5c0,1,0,2.4,0.3,4.1l0,0
				c0.3,2.1,3.5,6.2,4.5,8.3c0.7,1.4,2.1,2.4,3.1,3.5c1,0.7,2.4,1.4,3.8,1.7c1,0.3,2.4,0.7,3.5,0.7h0.3c1.7,0.7,3.1,1,4.5,1.4
				c1,0.3,2.1,0.3,3.1,0.7c0.7,0.3,1.4,0.3,2.1,0.3c0.7,0,1.4,0,1.7-0.3l0,0l0,0h0.3h1.4c0.7,0,1.7,0,2.4-0.3c0.3,0,1-0.3,1.4-0.3
				c0,0,0,0,0.3,0c1.7-0.3,3.8-1,5.9-2.1l0,0c2.8-1.4,15.9-6.9,19.7-11c0,0.3-9.7,42.1-38.3,47l0,0c-0.3,0-0.3,0.3-0.7,0.3
				c-1,0.3-1.7,0.3-2.4,0.7l0,0c-3.5,1-6.6,1.4-8.3,1.4c-0.3,0-1,0-1,0h-0.7h-0.7c-2.1,0.3-3.8,0.3-5.2,0.3c-0.3,0-0.7,0-1,0l0,0
				c-1,0-2.4,0-3.5,0c-0.7,0-1.7,0-2.4,0l0,0c-0.3,0-0.7,0-1,0s-1,0-1,0l-3.8-1.4l-1.4,2.1h-0.3l-0.7,1c0,0,0,0-0.3,0
				c-0.7,0.3-1,1-1.4,1.4c-0.3,0.7-0.7,1.4-0.7,2.1c0,0.7,0,1,0,1.4c0,0.3,0,0.7,0,1c0,0.7,0.3,1,0.3,1.4c0.3,0.7,0.3,1,0.7,1.4
				c0.3,0.7,0.7,1.4,1.4,2.1c0.3,0.7,1,1.7,1.7,2.8l0,0c1,1.7,2.4,3.1,3.8,4.1c0.3,0.3,1,0.7,1.4,1c0.3,0.7,0.7,1,1,1.4
				c0.3,0.3,0.3,0.3,0.7,0.7c0,0.3,0,0.7,0.3,1c0.3,0.7,0.7,1.4,1,1.7c0.3,0.3,0.7,0.7,1,1l0,0l0,0c0.3,0.3,1,0.7,1.7,1
				c0.7,0.3,1,0.3,2.1,0.7c2.4,0.7,4.5,1,6.2,1.4l0,0c1,0.3,2.4,0.3,3.8,0.3c0.7,0,1,0,1.7,0c1.4,0,2.4,0,3.8,0
				c9,0,17.6-1.4,25.6-4.1c10.4-3.8,24.5-13.5,35.9-34.9c12.1-22.4,15.2-33.8,21.8-56.6c1.4-5.2,2.4-10,3.1-13.1
				c0.3-1.7,0.7-3.1,1-4.1c0-0.3,0.3-1,0.3-1.4v-0.5l0,0l0,0l0,0c0.7-2.8,6.6-25.6,12.1-34.5v-0.3v-0.3c0.3-1,1-2.8,2.4-4.5
				c1.4-2.1,2.8-4.1,3.5-5.9l0,0c0.7-1.4,1.4-2.8,1.7-3.8c0.3-1,1-1.7,1-2.4l0,0c0.3-0.3,0.7-1.4,1.4-2.1s1-1,1.4-1.7
				c0.3-0.3,0.7-0.7,0.7-1.4c0.3-0.3,0.3-1,0.7-1.7l0,0l0,0c0.3-0.7,0.3-1.7,0.7-3.5l0,0C1016.1,134.8,1016.4,134.1,1016.4,133z
				 M885.9,68.1c1.7-5.5,3.5-10.7,5.2-15.5c1.7-4.5,3.1-8.6,4.1-11l0,0c2.4-5.5,4.8-11.7,7.3-16.9c1-2.4,2.1-4.8,3.1-6.6
				c0.3-0.7,0.7-1.4,1-2.1c0,0,0-0.3,0.3-0.3l0,0c0,1-0.3,2.4-0.7,4.1c-0.7,3.1-1.4,6.9-2.8,10.4c-1,3.5-2.4,6.9-3.5,9.7
				c-1.4,2.8-3.5,7.3-6.2,12.4l0,0c-1.4,2.8-2.8,5.5-3.8,8.3c-1.4,2.8-2.8,5.5-4.8,8.6l0,0C885.5,68.8,885.9,68.5,885.9,68.1z"/>
			<path id="Shape_7_" class="st0" d="M46.8,262.2l-1.7-2.1c0,0-0.3-0.3-0.3-0.7c0-0.3-0.3-0.3-0.3-0.7l0,0c-0.3-0.7-0.7-1-1-1.7
				c-0.7-1-1-1.7-1.7-2.4l0,0c0-0.3-0.3-0.3-0.3-0.7c-0.7-1-0.7-1.7-1.4-3.5l-0.3-0.3l-0.3-0.3c0-0.3-0.7-3.8-1-4.1
				c-0.7-1.4-0.3-2.8-1.4-5.9l-0.3-0.7c-0.3-0.7-0.3-2.1-0.3-3.1c0-0.3,0-0.7,0-1l-0.3-2.4c-0.3-6.2,0-9.3,1-18.6
				c0.7-6.6,2.1-16.6,3.8-24.9c1-4.8,2.4-9.3,3.5-13.5c4.8-15.9,10-31.4,15.5-46.6c5.2-15.2,10.7-30.4,16.6-45.9l1.4-3.8
				c3.8-0.7,5.5-0.7,7.3-1c1,0,2.1-0.3,3.1-0.3s2.4-0.3,4.5-0.3l0,0c0.3,0,0.7,0,1.4,0c0.3,0,1,0,1,0l0,0c0.7,0,1.4-0.3,1.7-0.3
				c0.7-0.3,1-0.7,1.4-0.7l1-0.3l0.3-0.3c0.3,0,0.7-0.3,1-0.7c0.3-0.3,0.7-0.3,0.7-0.7c0.3-0.3,1-0.7,1.4-1c0.3-0.3,0.7-0.7,1-1.4
				c0.3-0.7,0.7-1.7,0.7-2.4c0-0.3,0-0.3,0-0.7c0,0,0,0,0-0.3c0-0.3,0.3-0.3,0.3-0.7l0.3-0.3c0.7-0.3,1.7-1,2.4-2.1
				c0.3-0.7,0.7-1,1-2.1c0.3-0.7,0.3-1.4,0.3-2.4s-0.3-2.1-0.7-2.8l-0.3-0.7l-0.3-0.3c-0.7-1-1.7-1.7-2.4-2.1
				c-1-0.3-1.7-0.7-2.8-0.7l0,0c-0.7,0-1,0-1.7,0c-0.3,0-0.7,0-1.4,0l0,0l0,0c0,0-0.3,0-0.7,0c-1,0-2.8,0.3-4.5,0.7l0,0
				c-4.5,0.7-6.6,0.7-8.3,1c0.7-1.4,1.4-2.4,1.7-3.5c0.3-0.7,0.3-1.4,0.7-1.7c0-0.7,0.3-1,0.3-2.1l0,0c0,0,0-0.3,0.3-0.3l0,0l0,0
				c0.7-1,1-1.7,1.7-2.8l0,0c0.3-0.7,0.7-1.4,0.7-2.1c0.3-0.7,0.3-1.4,0.7-2.4l0,0c0.3-1,0.3-2.1,0.3-3.1s0-2.1-0.7-3.5l0,0l0,0
				c0,0,0-0.3-0.3-0.7c0-0.3-0.3-1-0.3-1.7l0,0c-0.3-2.1-1-3.8-2.1-5.5l0,0c-0.3-0.7-1-1.4-1.4-2.4l0,0c-0.7-1.7-1.7-3.1-3.5-4.5
				l0,0l0,0c-0.7-0.7-1.4-1-2.4-1.4c-1-0.3-1.7-1-3.1-1.4l0,0c-1.4-0.7-3.1-1-4.8-1c-1,0-1.7,0-2.8,0.3c-1,0.3-1.7,0.7-2.4,1.4l0,0
				C68,18,68,18.3,68,18.3h-0.3L67,18.6c-0.7,0.3-1.4,0.7-2.1,1c-1,0.7-1.7,1.7-2.1,2.8c-0.3,1-0.7,2.1-0.7,3.1c0,0,0,0,0,0.3
				c-0.3,0.3-0.7,0.7-0.7,1.4c0,0.3-0.3,0.7-0.3,1l-0.3,0.3l-0.3,1c-2.4,6.2-4.8,12.4-7.3,19c-2.1,5.5-4.1,11-6.2,16.2
				c-11,3.1-20,5.5-26.6,7.3l0,0c-3.8,1-7.3,2.4-10.4,3.5c-0.7,0-1.4,0.3-2.1,0.3c-1,0.3-2.1,0.7-2.8,1.4l-0.3,0.3l-0.3,0.3
				c-0.3,0.3-1,1-1.4,1.4l0,0c-1,0.7-1.7,2.1-2.4,3.1C0.4,83.3,0,84,0,85.1c0,0.3,0,0.7,0,1.4s0,1.4,0.3,2.1c0.3,1,1,2.1,2.1,2.8
				c0.7,0.7,1.7,1,2.4,1.4c1.4,0.3,2.8,0.7,4.1,0.7c1.7,0,3.5-0.3,5.2-1c5.9-1.4,11.7-2.8,17.3-3.8l0,0c2.8-0.7,5.5-1,8.3-1.7
				c-1,3.5-2.4,6.6-3.5,10c-2.1,6.2-4.1,12.4-5.9,18.6c-5.2,15.9-9.7,32.1-13.8,48.3l0,0c-1,3.5-1.7,7.3-2.4,11l0,0
				c-1,4.1-3.1,14.5-3.8,18.6s-1,7.9-1.4,12.1c-0.7,8.6-1.4,20.7-0.3,29.7c1,7.6,2.1,15.5,5.9,22.1c0.7,1,1,1.7,1.7,2.8
				c0.3,0.3,0.3,1,0.7,1.4c0.7,1,1,1.7,1.7,2.4l0,0c1,1,2.1,2.1,3.8,3.8c0.3,0.3,0.7,1,1.4,1c0.7,0.3,1,0.7,1.4,0.7l0,0l0,0
				c0.3,0,0.7,0.3,1.4,0.3c0.3,0,1,0,1.7,0c0.3,0,0.7-0.3,1-0.3c0.3,0,0.3,0,0.7,0c0.3,0,1,0,1.4,0c0.3,0.3,0.7,0.3,1.4,0.3
				c1.4,0.3,1,0.7,2.8,0.7l0,0c1,0,1.7,0,2.8,0c0.7,0,1.4,0,2.1,0c0.3,0,0.7,0,1.4-0.3c0.3,0,0.7,0,1-0.3c0.3,0,0.3-0.3,0.7-0.3
				c0.3,0,0.7-0.3,1-0.7c0.3-0.3,0.7-0.7,1-1.4c0.3-0.3,0.3-1,0.3-1.7c0,0,0,0,0-0.3l0.3-1v-0.3L46.8,262.2z"/>
		</g>
	</g>
</g>
</svg>
